<?xml version="1.0" standalone="no"?>
<!DOCTYPE svg PUBLIC "-//W3C//DTD SVG 20010904//EN"
 "http://www.w3.org/TR/2001/REC-SVG-20010904/DTD/svg10.dtd">
<svg version="1.0" xmlns="http://www.w3.org/2000/svg"
 width="512.000000pt" height="512.000000pt" viewBox="0 0 512.000000 512.000000"
 preserveAspectRatio="xMidYMid meet">
<metadata>
Created by potrace 1.11, written by Peter Selinger 2001-2013
</metadata>
<g transform="translate(0.000000,512.000000) scale(0.100000,-0.100000)"
fill="#000000" stroke="none">
<path d="M2283 4486 c-208 -51 -274 -275 -150 -510 42 -80 192 -231 269 -271
33 -17 58 -37 58 -45 0 -9 9 -103 20 -210 11 -107 20 -197 20 -201 0 -4 -16
-10 -35 -13 -89 -17 -188 -85 -234 -160 -53 -87 -69 -244 -35 -356 82 -274
337 -480 594 -480 156 0 275 72 337 205 36 77 44 221 18 311 -49 170 -173 323
-336 417 l-45 27 -24 206 c-25 221 -24 223 26 224 36 0 123 51 159 93 69 80
83 212 37 341 -70 196 -281 378 -487 421 -83 17 -122 18 -192 1z m287 -247
c123 -55 205 -199 167 -291 -42 -99 -192 -102 -301 -6 -112 98 -136 224 -55
293 39 32 122 34 189 4z m184 -1303 c116 -68 178 -221 131 -320 -69 -145 -306
-100 -395 74 -100 195 75 358 264 246z"/>
<path d="M1125 4163 c-147 -16 -266 -95 -321 -216 -24 -53 -28 -74 -28 -147 2
-235 191 -464 459 -556 69 -24 96 -28 195 -28 97 0 124 3 173 23 279 110 314
440 75 696 -147 158 -365 247 -553 228z"/>
<path d="M3461 3636 c-50 -18 -106 -69 -129 -119 -47 -100 -37 -217 30 -357
33 -70 56 -100 127 -170 161 -159 347 -211 478 -134 256 150 81 642 -275 771
-70 26 -174 30 -231 9z"/>
<path d="M1165 2645 c-91 -20 -142 -43 -209 -97 -312 -250 -211 -754 189 -948
293 -142 614 -54 740 205 98 199 52 445 -117 629 -100 110 -232 184 -375 212
-90 17 -148 17 -228 -1z"/>
<path d="M3683 2310 c-71 -36 -105 -72 -142 -150 -23 -49 -26 -67 -26 -170 0
-99 4 -125 27 -188 38 -105 83 -176 163 -258 118 -118 268 -177 392 -155 146
28 237 142 250 316 16 225 -139 487 -350 590 -69 34 -89 39 -165 43 -81 3 -91
2 -149 -28z"/>
<path d="M2633 1736 c-184 -60 -303 -241 -303 -462 0 -179 65 -330 200 -464
155 -156 319 -210 494 -165 151 39 269 170 306 336 20 88 8 248 -23 337 -65
184 -200 329 -369 399 -77 32 -236 42 -305 19z"/>
</g>
</svg>
