<svg xmlns="http://www.w3.org/2000/svg" xmlns:xlink="http://www.w3.org/1999/xlink" viewBox="0 0 316.76 509.68"><defs><style>.cls-1,.cls-14,.cls-15,.cls-17,.cls-2,.cls-28,.cls-3,.cls-5,.cls-8{fill:none;}.cls-2,.cls-28,.cls-5{stroke:#fff;}.cls-11,.cls-12,.cls-15,.cls-17,.cls-2,.cls-24,.cls-25,.cls-26,.cls-28,.cls-3,.cls-8,.cls-9{stroke-linecap:round;}.cls-11,.cls-12,.cls-13,.cls-14,.cls-17,.cls-2,.cls-24,.cls-25,.cls-26,.cls-28,.cls-3,.cls-8,.cls-9{stroke-linejoin:round;}.cls-2{stroke-width:4px;}.cls-3{stroke:#b5c5ce;}.cls-11,.cls-12,.cls-13,.cls-14,.cls-15,.cls-17,.cls-24,.cls-25,.cls-26,.cls-28,.cls-3,.cls-8,.cls-9{stroke-width:2px;}.cls-4{fill:#b5c5ce;}.cls-15,.cls-5{stroke-miterlimit:10;}.cls-11,.cls-6{fill:#fff;}.cls-12,.cls-13,.cls-7{fill:#f4f4f5;}.cls-11,.cls-12,.cls-13,.cls-14,.cls-15,.cls-24,.cls-25,.cls-8,.cls-9{stroke:#7c97a8;}.cls-20,.cls-9{fill:#d7dbde;}.cls-10{fill:#7c97a8;}.cls-16{fill:#504b46;}.cls-17{stroke:#f4f4f5;}.cls-18{clip-path:url(#clip-path);}.cls-19,.cls-24{fill:#edf2f4;}.cls-21{fill:#8aa2b2;}.cls-22{clip-path:url(#clip-path-2);}.cls-23{fill:#009dff;}.cls-25{fill:#eef4f6;}.cls-26{fill:#bcc3c6;stroke:#504b46;}.cls-27{clip-path:url(#clip-path-3);}</style><clipPath id="clip-path"><rect class="cls-1" x="275.75" y="87.31" width="15.48" height="18.74"/></clipPath><clipPath id="clip-path-2"><path class="cls-1" d="M187.35,420.36v46.45s14,4.88,26.8,4.88,25.57-4.88,25.57-4.88V420.36Z"/></clipPath><clipPath id="clip-path-3"><path class="cls-1" d="M201.6,331.2a14.3,14.3,0,0,1-13.85,14.23v10.82a26.59,26.59,0,0,0,53.17,0V335.41c-1.67.5-5,4.76-17.28,4.79C214.59,340.23,204.81,335.75,201.6,331.2Z"/></clipPath></defs><title>Asset 1</title><g id="Layer_2" data-name="Layer 2"><g id="im"><g id="Oval_3_Copy_8" data-name="Oval 3 Copy 8"><path id="Oval_3_Copy_8-2" data-name="Oval 3 Copy 8-2" class="cls-2" d="M7.26,289.12a45.88,45.88,0,0,0,12.57-31.59A45.88,45.88,0,0,0,5.19,223.88"/><path id="Oval_3_Copy_8-3" data-name="Oval 3 Copy 8-3" class="cls-3" d="M7.26,289.12a45.88,45.88,0,0,0,12.57-31.59A45.88,45.88,0,0,0,5.19,223.88"/></g><g id="_1_copy" data-name=" 1 copy"><g id="_1-3" data-name=" 1-3"><g id="Group_31_Copy_5" data-name="Group 31 Copy 5"><g id="Path_7_Copy-13" data-name="Path 7 Copy-13"><path id="Path_7_Copy-14" data-name="Path 7 Copy-14" class="cls-2" d="M18.48,226.53l80-41"/><path id="Path_7_Copy-15" data-name="Path 7 Copy-15" class="cls-3" d="M18.48,226.53l80-41"/></g><g id="Oval_3_Copy_3-24" data-name="Oval 3 Copy 3-24"><ellipse id="Oval_3_Copy_3-25" data-name="Oval 3 Copy 3-25" class="cls-4" cx="97.35" cy="185.84" rx="4.01" ry="4"/><ellipse id="Oval_3_Copy_3-26" data-name="Oval 3 Copy 3-26" class="cls-5" cx="97.35" cy="185.84" rx="4.01" ry="4"/></g></g><g id="ic_blue_" data-name="ic blue "><g id="ic_blue_2" data-name="ic blue 2"><g id="Oval_3_Copy_3-27" data-name="Oval 3 Copy 3-27"><circle id="Oval_3_Copy_3-28" data-name="Oval 3 Copy 3-28" class="cls-4" cx="13.5" cy="232.46" r="13"/><circle id="Oval_3_Copy_3-29" data-name="Oval 3 Copy 3-29" class="cls-1" cx="13.5" cy="232.46" r="13"/><circle id="Oval_3_Copy_3-30" data-name="Oval 3 Copy 3-30" class="cls-5" cx="13.5" cy="232.46" r="13"/></g><g id="ic_user_without_photo-17" data-name="ic user without photo-17"><path id="Combined_Shape-30" data-name="Combined Shape-30" class="cls-6" d="M13.4,239.82A7.62,7.62,0,0,1,8,237.58c.25-2.68,2.91-3.89,5.43-3.89s5.18,1.2,5.44,3.89A7.65,7.65,0,0,1,13.4,239.82Zm0-7.75a2.89,2.89,0,1,1,2.91-2.89A2.89,2.89,0,0,1,13.4,232.07Z"/></g></g></g></g><g id="_2-3" data-name=" 2-3"><g id="Group_31_Copy_6" data-name="Group 31 Copy 6"><g id="Path_7_Copy-16" data-name="Path 7 Copy-16"><path id="Path_7_Copy-17" data-name="Path 7 Copy-17" class="cls-2" d="M17.48,285.14l90,52"/><path id="Path_7_Copy-18" data-name="Path 7 Copy-18" class="cls-3" d="M17.48,285.14l90,52"/></g></g><g id="ic_blue_3" data-name="ic blue 3"><g id="ic_blue_4" data-name="ic blue 4"><g id="Oval_3_Copy_3-31" data-name="Oval 3 Copy 3-31"><circle id="Oval_3_Copy_3-32" data-name="Oval 3 Copy 3-32" class="cls-4" cx="13.83" cy="279.75" r="13"/><circle id="Oval_3_Copy_3-33" data-name="Oval 3 Copy 3-33" class="cls-1" cx="13.83" cy="279.75" r="13"/><circle id="Oval_3_Copy_3-34" data-name="Oval 3 Copy 3-34" class="cls-5" cx="13.83" cy="279.75" r="13"/></g><g id="ic_user_without_photo-19" data-name="ic user without photo-19"><path id="Combined_Shape-31" data-name="Combined Shape-31" class="cls-6" d="M13.73,287.12a7.65,7.65,0,0,1-5.44-2.24c.26-2.69,2.92-3.89,5.44-3.89s5.18,1.2,5.43,3.89A7.62,7.62,0,0,1,13.73,287.12Zm0-7.75a2.9,2.9,0,1,1,2.91-2.89A2.89,2.89,0,0,1,13.73,279.37Z"/></g></g></g></g></g><g id="bj_3" data-name="bj 3"><g id="im_search_master_passive_bl_2" data-name="im search master passive bl 2"><g id="im_search_master_passive_bl_2-2" data-name="im search master passive bl 2-2"><g id="иконка"><g id="тело-2"><g id="плечи_туловище" data-name="плечи туловище"><path id="Fill_13_Copy_2-3" data-name="Fill 13 Copy 2-3" class="cls-7" d="M257.17,114.07a33.23,33.23,0,0,0-33.23-33.23H204a33.23,33.23,0,0,0-33.23,33.23h0v8.62h15.89l-.12,39.12s14.36,4.89,27.61,4.89,26.48-4.89,26.48-4.89l-.2-39.11h16.74Z"/><path id="Fill_15-4" data-name="Fill 15-4" class="cls-6" d="M257.17,114.07a33.23,33.23,0,0,0-33.23-33.23H204a33.23,33.23,0,0,0-33.23,33.23h0v13.29A33.23,33.23,0,0,1,204,94.13h19.94a33.23,33.23,0,0,1,33.23,33.23Z"/><path id="Path-9" class="cls-8" d="M257.17,114.07a33.23,33.23,0,0,0-33.23-33.23H204a33.23,33.23,0,0,0-33.23,33.23h0v8.62h16.58v39.12s14,4.89,26.8,4.89,25.57-4.89,25.57-4.89V122.7h17.45Z"/></g><g id="манжета"><path id="Rectangle_3-7" data-name="Rectangle 3-7" class="cls-9" d="M168.33,119.9a68.07,68.07,0,0,0,9.67.81,62.35,62.35,0,0,0,9.36-.81v6.52a66.4,66.4,0,0,1-9.55.81,64.18,64.18,0,0,1-9.48-.81Z"/><path id="Fill_63-8" data-name="Fill 63-8" class="cls-10" d="M173.09,123.16a1.63,1.63,0,1,1-1.63-1.63h0a1.63,1.63,0,0,1,1.63,1.63h0"/></g><g id="манжета-2"><path id="Rectangle_3-8" data-name="Rectangle 3-8" class="cls-9" d="M259.57,119.9a63.19,63.19,0,0,1-9.71.81,71.42,71.42,0,0,1-10.12-.81v6.52a61.09,61.09,0,0,0,19.83,0Z"/><path id="Fill_63-9" data-name="Fill 63-9" class="cls-10" d="M254.57,123.16a1.63,1.63,0,1,0,1.63-1.63,1.63,1.63,0,0,0-1.63,1.63h0"/></g><g id="Group_18-2" data-name="Group 18-2"><path id="Stroke_21-3" data-name="Stroke 21-3" class="cls-8" d="M239.72,135.73V116"/><path id="Stroke_25-3" data-name="Stroke 25-3" class="cls-8" d="M239.72,111v-1.66"/></g><g id="Group_19-2" data-name="Group 19-2"><path id="Stroke_41-3" data-name="Stroke 41-3" class="cls-8" d="M187.37,135.73V116"/><path id="Stroke_45-3" data-name="Stroke 45-3" class="cls-8" d="M187.37,111v-1.66"/></g></g><g id="шея"><path id="Fill_35-3" data-name="Fill 35-3" class="cls-11" d="M223.54,92.26l-9.78,13.45L204,92.26v-19h19.56Z"/><path id="Fill_37-4" data-name="Fill 37-4" class="cls-7" d="M204.86,84.51c.23.11.44.24.68.34a21.36,21.36,0,0,0,16.57,0c.24-.1.45-.23.68-.34V73.23H204.86Z"/></g><g id="воротник-2"><path id="Combined_Shape-41" data-name="Combined Shape-41" class="cls-9" d="M213.68,106.76l0,.06L206.8,96.56l1-1.12.52-.65,1.64.87,3.72,5.32,3.81-5.26,1.47-.93.52.65,1,1.12-6.84,10.26Z"/><g id="Fill_59-2" data-name="Fill 59-2"><path class="cls-6" d="M203.39,101h0c-.41,0-1.19-.51-2.19-1.93-2.28-3.28-3.49-6.13-3.49-8.24a8.94,8.94,0,0,1,.83-3.92,14.88,14.88,0,0,1,2.18-3.17,10.48,10.48,0,0,1,3.09-2.08V86.3A10.23,10.23,0,0,0,207,93.66a13.37,13.37,0,0,0,2,1.65l-3.65,4-.17.2a11,11,0,0,1-1.08,1.08C203.68,100.94,203.46,101,203.39,101Z"/><path class="cls-10" d="M202.81,83.32a5.69,5.69,0,0,0-1.33,1c-1.87,2.24-2.77,3.78-2.77,6.45,0,1.88,1.18,4.6,3.31,7.67a5.43,5.43,0,0,0,1.33,1.44,8.41,8.41,0,0,0,1.08-1.07l.19-.2,2.89-3.18a11.54,11.54,0,0,1-4.7-9.16v-3m2-3.35V86.3c0,6,5.76,8.77,5.76,8.77L206.09,100c-.72.8-1.71,2-2.7,2h0c-1.15,0-2.29-1.35-3-2.36-1.75-2.51-3.67-5.92-3.67-8.81,0-3.49,1.39-5.53,3.24-7.73C201,81.77,203.25,80.83,204.81,80Z"/></g><g id="Fill_61-2" data-name="Fill 61-2"><path class="cls-6" d="M224.38,101c-.68,0-1.79-1.24-2.15-1.64l-3.59-4a13.33,13.33,0,0,0,2-1.65,10.35,10.35,0,0,0,3.12-7.36V81.64a10.39,10.39,0,0,1,3,2.06,15,15,0,0,1,2.14,3.17,9.12,9.12,0,0,1,.81,3.93c0,2.12-1.18,5-3.43,8.24a10.86,10.86,0,0,1-1,1.34c-.48.5-.74.57-.81.58Z"/><path class="cls-10" d="M224.75,83.36V86.3a11.62,11.62,0,0,1-4.63,9.16L223,98.65a7,7,0,0,0,1.34,1.25,7.66,7.66,0,0,0,1.14-1.42c2.1-3.07,3.25-5.79,3.25-7.68,0-2.68-.87-4.22-2.72-6.46a5.23,5.23,0,0,0-1.23-1m-2-3.39c1.53.86,3.71,1.8,4.77,3.1,1.82,2.2,3.18,4.24,3.18,7.73,0,2.89-1.88,6.3-3.6,8.81-.62.9-1.57,2.23-2.56,2.34h-.16c-1,0-2.13-1.12-2.9-2l-4.39-4.91s5.66-2.72,5.66-8.77Z"/></g></g><g id="одежда_1_пл" data-name="одежда 1 пл"><path id="Stroke_29" data-name="Stroke 29" class="cls-12" d="M227.25,92.39c-1.27,24.8-6.65,51.51-6.65,51.51L232.23,119l-3.32-8.3,11.63-5L236.35,91c-1.55-5.42-7.19-9.82-12.43-11.92A24.19,24.19,0,0,1,227.25,92.39Z"/><path id="Stroke_49" data-name="Stroke 49" class="cls-12" d="M200.53,92.39c1.27,24.72,6.78,51.51,6.78,51.51L195.68,119l3.32-8.3-11.63-5L191.56,91c1.55-5.42,7.18-9.82,12.43-11.92A23.37,23.37,0,0,0,200.53,92.39Z"/><path id="Stroke_41-4" data-name="Stroke 41-4" class="cls-8" d="M207.31,165.75V143.92"/><path id="Fill_63-10" data-name="Fill 63-10" class="cls-9" d="M204.05,147.6a1.63,1.63,0,1,1-1.63-1.63h0a1.63,1.63,0,0,1,1.63,1.63h0"/><path id="Fill_63_Copy_21" data-name="Fill 63 Copy 21" class="cls-9" d="M204.05,159a1.63,1.63,0,1,1-1.63-1.63h0a1.63,1.63,0,0,1,1.63,1.63h0"/><path id="Fill_63_Copy_23" data-name="Fill 63 Copy 23" class="cls-9" d="M226.86,147.6a1.63,1.63,0,1,1-1.63-1.63h0a1.63,1.63,0,0,1,1.63,1.63h0"/><path id="Fill_63_Copy_22" data-name="Fill 63 Copy 22" class="cls-9" d="M226.86,159a1.63,1.63,0,1,1-1.63-1.63h0a1.63,1.63,0,0,1,1.63,1.63h0"/><path id="Stroke_41_Copy_2" data-name="Stroke 41 Copy 2" class="cls-8" d="M220.6,165.75V143.92"/></g><g id="волосы"><path id="Stroke_57_Copy_6" data-name="Stroke 57 Copy 6" class="cls-13" d="M246.45,26.85C244.43,12.13,230.25,1,214.79,1c-16.43,0-32.31,12.62-33.53,28.64s3.22,20.5,3.22,20.5l4,6.36h50.89l5.23-7.58A56.54,56.54,0,0,0,246.45,26.85Z"/><path id="Stroke_57_Copy_8" data-name="Stroke 57 Copy 8" class="cls-14" d="M246.45,26.85C244.43,12.13,230.25,1,214.79,1c-16.43,0-32.31,12.62-33.53,28.64s3.22,20.5,3.22,20.5l4,6.36h50.89l5.23-7.58A56.54,56.54,0,0,0,246.45,26.85Z"/><path id="Path_2-8" data-name="Path 2-8" class="cls-15" d="M186.9,36.2C195.21,35.69,197.38,26,197.38,26"/><path id="Path_2_Copy-3" data-name="Path 2 Copy-3" class="cls-15" d="M186.89,32.44c4.67-.29,5.9-5.74,5.9-5.74"/><path id="Stroke_61_Copy_2-4" data-name="Stroke 61 Copy 2-4" class="cls-8" d="M205,23.26a37,37,0,0,0,16.66,5.49c17.89,1.25,19.3,8,19.3,8"/><path id="Stroke_61_Copy_3-3" data-name="Stroke 61 Copy 3-3" class="cls-8" d="M205.6,17c3.52,3.22,10.48,6.33,17.64,6.88,8.65.66,11.66,2.5,15,4.21"/><path id="Stroke_61_Copy_4-3" data-name="Stroke 61 Copy 4-3" class="cls-8" d="M222.25,1.9c-1-.16-2-.27-3-.33C210.62,1,205.7,5.16,202.59,12.42c-1.85,4.33-1.29,7.81-1.29,14.09"/></g><g id="уши"><path id="Fill_5-2" data-name="Fill 5-2" class="cls-11" d="M192.64,53.08a4.89,4.89,0,1,1-4.89-4.88h0a4.88,4.88,0,0,1,4.89,4.88"/><path id="Fill_5_Copy-3" data-name="Fill 5 Copy-3" class="cls-11" d="M244.79,53.08a4.89,4.89,0,1,1-4.89-4.88h0a4.88,4.88,0,0,1,4.89,4.88"/></g><g id="лицо-2"><path id="Stroke_61_Copy_13" data-name="Stroke 61 Copy 13" class="cls-11" d="M201.21,25.92a14.28,14.28,0,0,1-13.84,14.24V51a26.59,26.59,0,0,0,53.17,0v-2.1s0-14.77-17.28-14.77C214.21,34.12,204.43,30.48,201.21,25.92Z"/><g id="глаз-3"><path id="Oval_2-12" data-name="Oval 2-12" class="cls-10" d="M224.42,51.46a3.26,3.26,0,0,1-3.26-3.26h0a3.26,3.26,0,0,1,3.26-3.26,3.1,3.1,0,0,1,3.26,3v.3a3.26,3.26,0,0,1-3.26,3.26Z"/><circle id="Oval_4-6" data-name="Oval 4-6" class="cls-6" cx="222.79" cy="47.38" r="0.81"/><path id="Path_2-9" data-name="Path 2-9" class="cls-8" d="M220.42,40.12a8,8,0,0,1,3.82-.66,8.87,8.87,0,0,1,3.63,1.71"/></g><g id="глаз-4"><circle id="Oval_2-13" data-name="Oval 2-13" class="cls-16" cx="204.05" cy="48.2" r="3.26"/><path id="Oval_2-14" data-name="Oval 2-14" class="cls-10" d="M204.05,51.46a3.26,3.26,0,0,0,0-6.52,3.1,3.1,0,0,0-3.26,3,1.5,1.5,0,0,0,0,.3,3.27,3.27,0,0,0,3.26,3.26Z"/><circle id="Oval_4-7" data-name="Oval 4-7" class="cls-6" cx="202.42" cy="47.38" r="0.81"/><path id="Path_2-10" data-name="Path 2-10" class="cls-8" d="M208,40.12a7.89,7.89,0,0,0-3.81-.66,8.75,8.75,0,0,0-3.63,1.71"/></g><path id="Stroke_67-6" data-name="Stroke 67-6" class="cls-8" d="M211.38,63.68a18.12,18.12,0,0,1,5.37,0"/><path id="Stroke_67_Copy-8" data-name="Stroke 67 Copy-8" class="cls-8" d="M212.2,55.35a2.74,2.74,0,0,1,1.63-.43,2.78,2.78,0,0,1,1.63.43"/><path id="Stroke_67_Copy_3" data-name="Stroke 67 Copy 3" class="cls-17" d="M212.2,70.83a2.74,2.74,0,0,1,1.63-.43,2.78,2.78,0,0,1,1.63.43"/></g><g id="рука_телефон-2" data-name="рука телефон-2"><g id="hand_part_2-3" data-name="hand part 2-3"><path id="Combined_Shape-42" data-name="Combined Shape-42" class="cls-11" d="M253.48,149.18c-2.13-.15-7.74-.22-11.57-5.59a12.87,12.87,0,0,1-2.23-7.63h0v-9.54a81.51,81.51,0,0,0,9.36.81,50.58,50.58,0,0,0,6.28-.27c.9-1.25,2-2.76,3-4.33a140.58,140.58,0,0,1,8.84-11.91,9.61,9.61,0,0,1,1.61-1.64c1-.73.52-3.59,2.33-5.58s5.9-5.67,5.9-5.67l9.25,13.31s-6.13,3.35-7.07,3.72c-1.27.5-2.89.1-3.72.57a6,6,0,0,0-2.09,2.7c-.65,1.47-2.6,9.32-6.56,16.38-5.12,9.12-11,14.69-13.26,14.69Z"/><path id="Stroke_67-7" data-name="Stroke 67-7" class="cls-8" d="M253.27,130.79l4.3-6.82Z"/><path id="Stroke_67_Copy-9" data-name="Stroke 67 Copy-9" class="cls-8" d="M251.31,131a1.46,1.46,0,0,1,.81-.22,1.49,1.49,0,0,1,.82.22"/><g id="Group_42-3" data-name="Group 42-3"><path id="Rectangle_12_Copy-5" data-name="Rectangle 12 Copy-5" class="cls-11" d="M293.23,95.92l-5.53,3.46a1.62,1.62,0,0,1-2.24-.52h0a1.61,1.61,0,0,1,.52-2.24l5.52-3.46a1.63,1.63,0,0,1,2.25.52h0A1.62,1.62,0,0,1,293.23,95.92Z"/><path id="Rectangle_12_Copy_5-3" data-name="Rectangle 12 Copy 5-3" class="cls-11" d="M294.05,99.18l-5.53,3.46a1.64,1.64,0,0,1-2.25-.52h0a1.65,1.65,0,0,1,.52-2.25l5.53-3.45a1.62,1.62,0,0,1,2.24.52h0A1.62,1.62,0,0,1,294.05,99.18Z"/><path id="Rectangle_12_Copy_6-3" data-name="Rectangle 12 Copy 6-3" class="cls-11" d="M294.05,103.26l-5.53,3.45a1.63,1.63,0,0,1-2.25-.52h0a1.63,1.63,0,0,1,.52-2.24l5.53-3.46a1.63,1.63,0,0,1,2.24.52h0A1.63,1.63,0,0,1,294.05,103.26Z"/><path id="Rectangle_12_Copy_7-3" data-name="Rectangle 12 Copy 7-3" class="cls-11" d="M293.64,104.91a1.62,1.62,0,0,1-.52,2.24l-.17.1-2.88,1.34A1.63,1.63,0,0,1,288,108h0a1.61,1.61,0,0,1,.52-2.22l.16-.09,2.9-1.35a1.63,1.63,0,0,1,2.07.61Z"/></g></g><g id="моб"><rect id="Rectangle_15-3" data-name="Rectangle 15-3" class="cls-11" x="275.75" y="83.23" width="15.48" height="28.52" rx="2"/><path id="Fill_63-11" data-name="Fill 63-11" class="cls-10" d="M283.49,110.12a1.22,1.22,0,1,0-1.22-1.22A1.22,1.22,0,0,0,283.49,110.12Z"/><g id="Group_43-5" data-name="Group 43-5"><rect id="Rectangle_15_Copy-6" data-name="Rectangle 15 Copy-6" class="cls-7" x="275.75" y="87.31" width="15.48" height="18.74"/><g class="cls-18"><g id="Group_43-6" data-name="Group 43-6"><path id="Rectangle_15_Copy_3-3" data-name="Rectangle 15 Copy 3-3" class="cls-6" d="M285.53,87.31h-9v11.4Z"/><path id="Rectangle_15_Copy_4-3" data-name="Rectangle 15 Copy 4-3" class="cls-6" d="M289.6,88.12h-3.36l-9.67,12.21v4.09Z"/></g></g></g><rect id="Rectangle_15_Copy_2-3" data-name="Rectangle 15 Copy 2-3" class="cls-8" x="275.75" y="87.31" width="15.48" height="18.74"/></g><path id="Rectangle_12_Copy-6" data-name="Rectangle 12 Copy-6" class="cls-11" d="M282.91,98.55a1.64,1.64,0,0,1-.08,2.31h0l-3.12,2.91a2.44,2.44,0,0,0-.28,1.83,6.55,6.55,0,0,1,.28,3.23,5.23,5.23,0,0,1-2.89,3.32,6.48,6.48,0,0,1-3.33,0l-1.65-2.68a1.65,1.65,0,0,1-.17-1.35l.52-1.62,2.5-2.52,5.91-5.51a1.62,1.62,0,0,1,2.3.08h0Z"/><path id="Path_10-3" data-name="Path 10-3" class="cls-6" d="M275.46,110.7l-.08.93a.71.71,0,0,0-.61.73,1,1,0,0,0,.47.88l0,.22-4.06,1.1-1.9-3.86,1.36-3.13.14,0a.84.84,0,0,0,.66.78c.63.13.93-.55.93-.55l1,.13Z"/><path id="Stroke_67_Copy_9-2" data-name="Stroke 67 Copy 9-2" class="cls-8" d="M251.25,145.44a3.28,3.28,0,0,0,3.24-.28"/></g><g id="рука_кисть" data-name="рука кисть"><path id="Combined_Shape-43" data-name="Combined Shape-43" class="cls-11" d="M173.11,149.19c2.13-.16,7.74-.24,11.57-5.62a12.83,12.83,0,0,0,2.25-7.61h0v-9.57a81.51,81.51,0,0,1-9.36.81,50.35,50.35,0,0,1-6.26-.27c-.9-1.25-2-2.77-3-4.35a140.1,140.1,0,0,0-9.92-11.71c-.48-.52-2.65-8.39-6.61-8.25-.55,0-2.85,0-4.52,0h-1.64c-.9,0-.26,2.64-.9,2.9a8.33,8.33,0,0,1-3.4.4s-1,11-1,11c-.15.4,3.1,1,6.06.86,1.86-.09,5-.36,5-.36s1.4-.47,1.93.63c.7,1.48,2.58,9.33,6.54,16.4,5.1,9.13,11,14.7,13.23,14.7Z"/><g id="ВАЛИК"><g id="Group_8-2" data-name="Group 8-2"><g id="Path_Copy_23" data-name="Path Copy 23"><path class="cls-19" d="M156,90.75H138.05a4.26,4.26,0,0,1-4.26-4.26V75.9a4.26,4.26,0,0,1,4.26-4.26H156a4.26,4.26,0,0,1,4.26,4.26V86.49A4.26,4.26,0,0,1,156,90.75Z"/><path class="cls-10" d="M138.05,72.64a3.26,3.26,0,0,0-3.26,3.26V86.49a3.26,3.26,0,0,0,3.26,3.26H156a3.26,3.26,0,0,0,3.26-3.26V75.9A3.26,3.26,0,0,0,156,72.64H138.05m0-2H156a5.27,5.27,0,0,1,5.26,5.26V86.49A5.27,5.27,0,0,1,156,91.75H138.05a5.27,5.27,0,0,1-5.26-5.26V75.9A5.27,5.27,0,0,1,138.05,70.64Z"/></g><path id="Stroke_41-5" data-name="Stroke 41-5" class="cls-8" d="M139.68,84.05V72.64"/><path id="Stroke_41_Copy_3" data-name="Stroke 41 Copy 3" class="cls-8" d="M144.57,84.05V72.64"/><path id="Stroke_41_Copy_4" data-name="Stroke 41 Copy 4" class="cls-8" d="M150.27,84.05V72.64"/><path id="Stroke_41_Copy_5" data-name="Stroke 41 Copy 5" class="cls-8" d="M155.16,84.05V72.64"/><g id="Path_Copy_24" data-name="Path Copy 24"><path class="cls-20" d="M144.31,76.9a1.54,1.54,0,0,1-1.55-1.54.63.63,0,0,0-1.26,0,1.55,1.55,0,0,1-3.09,0,.63.63,0,0,0-.62-.63,1.55,1.55,0,0,1-1.56-1.54V71.64h12.89v1.54a1.55,1.55,0,0,1-1.55,1.55h-1.09a.63.63,0,0,0-.63.63A1.54,1.54,0,0,1,144.31,76.9Z"/><path class="cls-10" d="M137.23,72.64v.55a.54.54,0,0,0,.56.54,1.62,1.62,0,0,1,1.62,1.63.54.54,0,0,0,.54.54.55.55,0,0,0,.55-.54,1.63,1.63,0,0,1,3.26,0,.55.55,0,0,0,.55.54.54.54,0,0,0,.54-.54,1.63,1.63,0,0,1,1.63-1.63h1.09a.55.55,0,0,0,.55-.55v-.54H137.23m0-2h10.89a2,2,0,0,1,2,2v.54a2.55,2.55,0,0,1-2.55,2.55h-.75a2.54,2.54,0,0,1-4.69.94,2.54,2.54,0,0,1-4.7-1,2.54,2.54,0,0,1-2.2-2.51v-.55A2,2,0,0,1,137.23,70.64Z"/></g></g><g id="РУЧКА"><path id="Path_Copy_25" data-name="Path Copy 25" class="cls-9" d="M134.79,94.1a1,1,0,0,0,1,1h5.77a3.06,3.06,0,0,1,3,3.06c0,6.18-.22,18.77-1,22.34-.25,1.08-.48,2.11-.67,3.07a4.15,4.15,0,0,0,3.55,4.4,4.09,4.09,0,0,0,4.56-3.57,3.84,3.84,0,0,0,0-.83c-.17-.91-.4-1.89-.63-2.93-.82-3.57-1-16.17-1.06-22.43a3.1,3.1,0,0,1,3-3.11h5.8a1,1,0,0,0,1-1V90a1,1,0,0,0-1-1h-22.4a1,1,0,0,0-1,1Z"/><path id="Fill_63_Copy_4" data-name="Fill 63 Copy 4" class="cls-11" d="M147,124.79a1.63,1.63,0,1,0-1.63-1.63h0A1.63,1.63,0,0,0,147,124.79Z"/></g><g id="Group_54" data-name="Group 54"><path id="Stroke_41-6" data-name="Stroke 41-6" class="cls-8" d="M138.51,91.81h11.41"/><path id="Stroke_45-4" data-name="Stroke 45-4" class="cls-8" d="M153.5,91.81h1.63"/></g></g><g id="кисть"><rect id="Rectangle_12" data-name="Rectangle 12" class="cls-11" x="139.7" y="104.42" width="8.15" height="3.27" rx="1.63"/><rect id="Rectangle_12_Copy-7" data-name="Rectangle 12 Copy-7" class="cls-11" x="138.17" y="107.68" width="9.68" height="3.27" rx="1.63"/><rect id="Rectangle_12_Copy_2" data-name="Rectangle 12 Copy 2" class="cls-11" x="138.82" y="110.94" width="9.02" height="3.27" rx="1.63"/><rect id="Rectangle_12_Copy_3" data-name="Rectangle 12 Copy 3" class="cls-11" x="139.96" y="114.2" width="7.88" height="3.27" rx="1.63"/><path id="Rectangle_12_Copy_4" data-name="Rectangle 12 Copy 4" class="cls-11" d="M144.34,103.6l-.27,3.49a1.62,1.62,0,0,0,1.26,1.72l.6.14.9-.21a1.66,1.66,0,0,0,1.23-1.28l.61-3.15s0,3.88,1.46,5.73,8.14,1.14,8.14,1.14v-.62a17.28,17.28,0,0,0-1.86-4.91,49.65,49.65,0,0,0-2.75-4.53c-.72-1-6.62-.77-6.62-.77a3.6,3.6,0,0,0-2,.77A4.62,4.62,0,0,0,144.34,103.6Z"/></g><g id="Group_47" data-name="Group 47"><path id="Rectangle_13" data-name="Rectangle 13" class="cls-6" d="M157.41,110.44l-3.07-1.13v1.21a.93.93,0,0,1,.59.84.85.85,0,0,1-.59.79v2l4.88-1.2Z"/><path id="Stroke_67_Copy-10" data-name="Stroke 67 Copy-10" class="cls-8" d="M175.53,145.44a2.73,2.73,0,0,1-1.66.29,2.77,2.77,0,0,1-1.59-.57"/><path id="Stroke_67-8" data-name="Stroke 67-8" class="cls-8" d="M173.7,130.68l-4.3-6.82Z"/><path id="Stroke_67_Copy-11" data-name="Stroke 67 Copy-11" class="cls-8" d="M175.41,130.86a1.48,1.48,0,0,0-.82-.21,1.43,1.43,0,0,0-.81.21"/></g></g></g></g></g><g id="txt-3"><g id="Нужен_надежный_масте_Copy_2" data-name="Нужен надежный масте Copy 2"><path id="Нужен_надежный_масте_Copy_2-2" data-name="Нужен надежный масте Copy 2-2" class="cls-21" d="M197.44,204.84a4.62,4.62,0,0,1-1.17-.26,18.78,18.78,0,0,0,.72-3.05h-5.6l-.56,2.52a.68.68,0,0,1-.43.55,4.74,4.74,0,0,1-1.35.11v-4.26l1.56-.33,1.19-5.56h-.86a5.72,5.72,0,0,1,.11-1.37.5.5,0,0,1,.56-.35h3.72a3.11,3.11,0,0,1,2.15.57,2.76,2.76,0,0,1,.6,2v4.67l1.4.32v.24a11.55,11.55,0,0,1-1.2,3.61A1.06,1.06,0,0,1,197.44,204.84Zm-3.8-10.28-.87,5.2h3.3v-4a1.39,1.39,0,0,0-.27-.94,1.1,1.1,0,0,0-.86-.3Zm-67.95,10.12a2.37,2.37,0,0,1-1.17-.27.94.94,0,0,1-.47-.87v-.68a3.2,3.2,0,0,0,.92.13,1.56,1.56,0,0,0,1.64-1.35,53.89,53.89,0,0,1-3.89-8.8h2.45a38.45,38.45,0,0,0,2.41,6.42l2-6.42h2.18v.2l-3.13,8.44C128.37,203.6,127.36,204.68,125.69,204.68Zm184.48-.18h-2V193.82c0-.51.11-.82.32-.91a5.74,5.74,0,0,1,1.7-.15v1.78a3.46,3.46,0,0,1,3.19-1.89,3,3,0,0,1,2.52,1.14,4.79,4.79,0,0,1,.88,3,5.4,5.4,0,0,1-1.15,3.48,3.56,3.56,0,0,1-2.9,1.44,2.94,2.94,0,0,1-2.54-1.19v4Zm2.52-10.17a2,2,0,0,0-1.72.94,4.36,4.36,0,0,0-.64,2.44,2.65,2.65,0,0,0,.52,1.58,1.64,1.64,0,0,0,1.4.69A2,2,0,0,0,314,199a3.8,3.8,0,0,0,.64-2.2,3.19,3.19,0,0,0-.48-1.8A1.65,1.65,0,0,0,312.69,194.33Zm-9.95,7.38a4.27,4.27,0,0,1-3.2-1.24,5,5,0,0,1-1.2-3.59,4.06,4.06,0,0,1,3.87-4.23h.38a3.74,3.74,0,0,1,2.83,1.1,4.22,4.22,0,0,1,1,3c0,.8-.49,1.2-1.46,1.2h-4.42c.31,1.41,1.34,2.13,3.06,2.13a6.41,6.41,0,0,0,2.2-.42v.62a1.19,1.19,0,0,1-.92,1.11A5.91,5.91,0,0,1,302.74,201.71Zm-.2-7.54c-1.29,0-2,.79-2.07,2.35h3.35a.44.44,0,0,0,.37-.16.59.59,0,0,0,.13-.36,1.84,1.84,0,0,0-.49-1.35,1.75,1.75,0,0,0-1.29-.48Zm-17.16,7.54a4.1,4.1,0,0,1-3.18-1.28,5.08,5.08,0,0,1-1.17-3.56,4,4,0,0,1,1.26-3.07,4.64,4.64,0,0,1,3.22-1.15,4.19,4.19,0,0,1,2.24.58,1.87,1.87,0,0,1,.91,1.66,1.18,1.18,0,0,1-.33.89,1.14,1.14,0,0,1-.82.31h-.62v-.35a1.31,1.31,0,0,0-1.13-1.47,1.45,1.45,0,0,0-.36,0,2,2,0,0,0-1.62.74,2.77,2.77,0,0,0-.63,1.85,3.32,3.32,0,0,0,.76,2.32,3,3,0,0,0,2.3.83,5.71,5.71,0,0,0,2.12-.41v.55a1.22,1.22,0,0,1-.87,1.18,5.27,5.27,0,0,1-2.07.37Zm-11,0a2.38,2.38,0,0,1-1.94-.79,2.82,2.82,0,0,1-.67-1.86c0-1.45,1.08-2.3,3.19-2.52l2.23-.23v-.06c-.07-1.32-.88-2-2.39-2a6.14,6.14,0,0,0-2.2.5v-.58a1,1,0,0,1,.51-.85,3.23,3.23,0,0,1,1.19-.51,6.72,6.72,0,0,1,1.34-.16,3.66,3.66,0,0,1,2.59.87,3.93,3.93,0,0,1,1,2.61l.3,4.55a1.05,1.05,0,0,1-.07.53.54.54,0,0,1-.4.27,2.51,2.51,0,0,1-.61.1c-.23,0-.56,0-1,0l-.09-1.53a3.47,3.47,0,0,1-3,1.64Zm2.85-4.12-2,.25a1.58,1.58,0,0,0-.87.39,1,1,0,0,0-.32.74,1.39,1.39,0,0,0,.31.92,1.09,1.09,0,0,0,.88.36,1.65,1.65,0,0,0,1.4-.8A3.54,3.54,0,0,0,277.25,197.59Zm-29.68,4.12h0a3.81,3.81,0,0,1-1.71-.47v-7.42c0-.51.1-.82.31-.91a5.41,5.41,0,0,1,1.65-.15v5.76l4.5-5.81a4.11,4.11,0,0,1,1.71.49v7.32q0,.78-.3.93a5.15,5.15,0,0,1-1.66.15v-5.78l-4.5,5.89Zm-27.34,0a1.87,1.87,0,0,1-1-.25,2.83,2.83,0,0,1-.76-1l-1.32-2.34h-.75v3.4h-2v-3.4h-.76l-1.31,2.34a2.75,2.75,0,0,1-.81,1,2.12,2.12,0,0,1-1.07.26,1.91,1.91,0,0,1-.91-.22.69.69,0,0,1-.4-.65v-.46h.16a1.44,1.44,0,0,0,1.22-.83l1.3-2a2.85,2.85,0,0,1-.79-1,5.32,5.32,0,0,1-.41-1.18,2.16,2.16,0,0,0-.44-.93,1.08,1.08,0,0,0-.88-.41h-.16v-.4a.81.81,0,0,1,.36-.71,1.52,1.52,0,0,1,.88-.24,1.58,1.58,0,0,1,1.14.4,2.16,2.16,0,0,1,.59,1l.31,1.14a2.6,2.6,0,0,0,.48,1,1.06,1.06,0,0,0,.9.41h.6v-2.74q0-.75.3-.9a5.44,5.44,0,0,1,1.66-.15v3.8H217a1.1,1.1,0,0,0,.91-.4,2.6,2.6,0,0,0,.48-1c.1-.39.2-.78.31-1.15a2.27,2.27,0,0,1,.6-1,1.67,1.67,0,0,1,1.17-.4,1.44,1.44,0,0,1,.86.24.84.84,0,0,1,.33.72v.4h-.16a1,1,0,0,0-.88.4,2.15,2.15,0,0,0-.44.94,5.7,5.7,0,0,1-.41,1.18,2.73,2.73,0,0,1-.79,1l1.3,2a1.43,1.43,0,0,0,1.22.83h.16v.47a.7.7,0,0,1-.43.64,2.1,2.1,0,0,1-1,.21Zm-15.72,0a4.26,4.26,0,0,1-3.19-1.24,5,5,0,0,1-1.2-3.59,4.06,4.06,0,0,1,3.87-4.23h.38a3.73,3.73,0,0,1,2.83,1.1,4.21,4.21,0,0,1,1,2.95c0,.8-.49,1.21-1.46,1.21h-4.43c.31,1.41,1.34,2.13,3.06,2.13a6.87,6.87,0,0,0,2.2-.42v.62a1.18,1.18,0,0,1-.92,1.11,6.09,6.09,0,0,1-2.16.36Zm-.2-7.54c-1.29,0-2,.79-2.07,2.35h3.35a.45.45,0,0,0,.38-.16.59.59,0,0,0,.13-.36,1.88,1.88,0,0,0-.49-1.35,1.78,1.78,0,0,0-1.3-.48Zm-21.42,7.54a2.38,2.38,0,0,1-1.94-.79,2.82,2.82,0,0,1-.67-1.86c0-1.45,1.08-2.3,3.19-2.52l2.23-.23v-.06c-.07-1.32-.88-2-2.39-2a6.14,6.14,0,0,0-2.2.5v-.58a1,1,0,0,1,.51-.85,3.6,3.6,0,0,1,1.19-.51,6.06,6.06,0,0,1,1.34-.16,3.66,3.66,0,0,1,2.59.87,3.93,3.93,0,0,1,1,2.61l.31,4.55a1.18,1.18,0,0,1-.08.53.52.52,0,0,1-.4.27,2.51,2.51,0,0,1-.61.1c-.31,0-.64,0-1,0l-.09-1.53a3.46,3.46,0,0,1-3,1.64Zm2.85-4.12-2,.25a1.6,1.6,0,0,0-.88.39,1,1,0,0,0-.31.74,1.38,1.38,0,0,0,.3.92,1.11,1.11,0,0,0,.89.36,1.63,1.63,0,0,0,1.39-.8A3.46,3.46,0,0,0,185.74,197.59Zm-34.9,4.12a4.28,4.28,0,0,1-3.2-1.24,5,5,0,0,1-1.2-3.58,4.07,4.07,0,0,1,3.88-4.24h.37a3.66,3.66,0,0,1,2.83,1.1,4.13,4.13,0,0,1,1,3c0,.8-.49,1.2-1.46,1.2h-4.42c.31,1.41,1.34,2.13,3.06,2.13a6.92,6.92,0,0,0,2.2-.42v.62a1.2,1.2,0,0,1-.92,1.11,6.13,6.13,0,0,1-2.16.36Zm-.2-7.54c-1.29,0-2,.79-2.07,2.36h3.34a.49.49,0,0,0,.38-.17.59.59,0,0,0,.13-.36,1.84,1.84,0,0,0-.49-1.35A1.75,1.75,0,0,0,150.64,194.17Zm-6.88,7.54a1.86,1.86,0,0,1-1-.25,2.85,2.85,0,0,1-.77-1l-1.31-2.34h-.76v3.4h-2v-3.4h-.76l-1.31,2.34a2.65,2.65,0,0,1-.81,1,2.08,2.08,0,0,1-1.06.26,2,2,0,0,1-.92-.22.69.69,0,0,1-.4-.65v-.46h.16a1.46,1.46,0,0,0,1.23-.83l1.3-2a2.77,2.77,0,0,1-.8-1,5.32,5.32,0,0,1-.41-1.18,2.27,2.27,0,0,0-.43-.93,1.09,1.09,0,0,0-.88-.41h-.17v-.4a.81.81,0,0,1,.36-.71,1.52,1.52,0,0,1,.88-.24,1.58,1.58,0,0,1,1.14.4,2.16,2.16,0,0,1,.59,1l.31,1.14a2.6,2.6,0,0,0,.48,1,1.06,1.06,0,0,0,.9.41h.59v-2.74c0-.5.1-.8.31-.9a5.44,5.44,0,0,1,1.66-.15v3.8h.59a1.1,1.1,0,0,0,.91-.4,2.6,2.6,0,0,0,.48-1c.08-.32.17-.68.31-1.15a2.27,2.27,0,0,1,.6-1,1.67,1.67,0,0,1,1.17-.4,1.44,1.44,0,0,1,.86.24.84.84,0,0,1,.33.72v.4H145a1,1,0,0,0-.88.4,2.15,2.15,0,0,0-.44.94,5.7,5.7,0,0,1-.41,1.18,2.86,2.86,0,0,1-.78,1l1.3,2a1.44,1.44,0,0,0,1.22.83h.16v.47a.7.7,0,0,1-.43.64A2.08,2.08,0,0,1,143.76,201.71Zm124.49-.11h0v-5.85a48,48,0,0,1-2.16,4.59,5.28,5.28,0,0,1-1.76.33c-.93-1.88-1.67-3.53-2.2-4.9v5.76h-1.84V193.3a6.29,6.29,0,0,1,2.52-.59,39.11,39.11,0,0,0,2.41,5.7,46.91,46.91,0,0,0,2.3-5.18,6.18,6.18,0,0,1,2.54-.52v7.92c0,.46-.1.75-.3.84a5.09,5.09,0,0,1-1.51.13Zm-38.83,0h0v-3.44h-4v3.37h-2v-7.7c0-.51.1-.82.31-.92a5.73,5.73,0,0,1,1.7-.14v3.75h4v-3.68h2v7.68q0,.78-.3.93a5.42,5.42,0,0,1-1.7.15Zm-52.86,0h0v-3.44h-4v3.37h-2v-7.7c0-.51.1-.82.31-.92a5.73,5.73,0,0,1,1.7-.14v3.75h4v-3.68h2v7.68c0,.52-.1.83-.31.93A5.33,5.33,0,0,1,176.56,201.6Zm-14.29,0h0v-3.44h-4v3.37h-2v-7.7c0-.51.11-.82.32-.92a5.7,5.7,0,0,1,1.7-.14v3.75h4v-3.68h2v7.68c0,.52-.1.83-.31.93a5.33,5.33,0,0,1-1.69.15Zm-43.2,0h0v-4.7h-5.46v4.63h-2.14V190.94c0-.51.11-.82.34-.92a6.43,6.43,0,0,1,1.8-.16V195h5.46v-5.05h2.14v10.58c0,.51-.12.83-.34.93a6.07,6.07,0,0,1-1.8.15Zm175.51-.07h-2v-6.91h-2.88v-1.78h7.22a.51.51,0,0,1,.57.36,5.6,5.6,0,0,1,.11,1.42h-3v6.91Zm-51,0h-2v-7.7c0-.51.11-.82.32-.92a5.7,5.7,0,0,1,1.7-.14v8.76Zm-6.62,0h-.52a3.23,3.23,0,0,1-2.13-.59,2.42,2.42,0,0,1-.68-1.93v-5.29c0-.46.11-.73.33-.82a6,6,0,0,1,1.69-.14V196H237c2.25,0,3.4.87,3.4,2.58a2.62,2.62,0,0,1-1,2.18,3.76,3.76,0,0,1-2.41.77Zm-1.31-4V199a.91.91,0,0,0,.76,1,1,1,0,0,0,.24,0h.22a1.76,1.76,0,0,0,1-.32,1.11,1.11,0,0,0,.42-1c0-.79-.54-1.19-1.62-1.19Zm14.38-6.15a3.11,3.11,0,0,1-2.13-.7,2.18,2.18,0,0,1-.79-1.7c0-.56.37-.84,1.1-.84a1.41,1.41,0,0,0,.54,1.18,2.25,2.25,0,0,0,2.56,0,1.41,1.41,0,0,0,.54-1.18c.71,0,1.08.28,1.08.84a2.18,2.18,0,0,1-.79,1.7A3,3,0,0,1,250.07,191.38Z"/></g></g></g><g id="bj_3-2" data-name="bj 3-2"><g id="im_master_passive_bl_2" data-name="im master passive bl 2"><g id="im_master_passive_bl_2-2" data-name="im master passive bl 2-2"><g id="иконка-3"><g id="body-4"><g id="тело-3"><path id="Fill_13_Copy_2-6" data-name="Fill 13 Copy 2-6" class="cls-7" d="M257.17,419.07a33.23,33.23,0,0,0-33.23-33.23H204a33.23,33.23,0,0,0-33.23,33.23h0v8.62h15.89l-.12,39.12s14.36,4.88,27.61,4.88,26.48-4.88,26.48-4.88l-.2-39.12h16.74Z"/><path id="Fill_15-7" data-name="Fill 15-7" class="cls-6" d="M257.17,419.07a33.23,33.23,0,0,0-33.23-33.23H204a33.23,33.23,0,0,0-33.23,33.23h0v13.29A33.23,33.23,0,0,1,204,399.13h19.94a33.23,33.23,0,0,1,33.23,33.23Z"/><path id="Path-16" class="cls-8" d="M257.17,419.07a33.23,33.23,0,0,0-33.23-33.23H204a33.23,33.23,0,0,0-33.23,33.23h0v8.62h16.58v39.12s14,4.88,26.8,4.88,25.57-4.88,25.57-4.88V427.69h17.45Z"/><g id="комбез_1_пл" data-name="комбез 1 пл"><path id="Path_Copy_5-4" data-name="Path Copy 5-4" class="cls-11" d="M187.35,420.36v46.45s14,4.88,26.8,4.88,25.57-4.88,25.57-4.88V420.36Z"/><g class="cls-22"><g id="комбез_1_пл-2" data-name="комбез 1 пл-2"><path id="Fill_15-8" data-name="Fill 15-8" class="cls-6" d="M239.09,442.72v20H187.75V430.15c0,11.26,8.84,25.27,19.75,25.27h11.84c10.9,0,19.75-14,19.75-25.27Z"/><g id="молоток"><g id="Path-17"><path class="cls-20" d="M196.48,467.05V439h4.42v28.08h-4.42Z"/><path class="cls-10" d="M199.9,440h-2.42v26.08h2.42V440m2,0v26.08a2,2,0,0,1-2,2h-2.42a2,2,0,0,1-2-2V440a2,2,0,0,1,2-2h2.42A2,2,0,0,1,201.9,440Z"/></g><g id="Path_Copy_27" data-name="Path Copy 27"><path class="cls-6" d="M196.48,445.05V439h4.42v6.08h-4.42Z"/><path class="cls-10" d="M199.9,440h-2.42v4.08h2.42V440m2,0v4.08a2,2,0,0,1-2,2h-2.42a2,2,0,0,1-2-2V440a2,2,0,0,1,2-2h2.42A2,2,0,0,1,201.9,440Z"/></g><g id="Path-18"><path class="cls-6" d="M190.42,437.53v-1.22a1.61,1.61,0,0,1,1.6-1.61h1.68l.3.35a.74.74,0,0,0,.59.26h.22a1.69,1.69,0,0,0,1.17-.49l0,0h0a2.46,2.46,0,0,1,1.71-.7h1.46a9.48,9.48,0,0,1,2.95.47c2.09.69,4.67,2.07,5.65,3.92l1.31,2.46-2.57-1.06L204,438.83a8.64,8.64,0,0,0-2.25-.3.82.82,0,0,0-.82.83V441h-4.43v-1.61a.83.83,0,0,0-.82-.83h-1.07a.74.74,0,0,0-.59.26l-.3.35H192A1.61,1.61,0,0,1,190.42,437.53Z"/><path class="cls-10" d="M206.9,439c-.76-1.42-2.93-2.73-5.08-3.44a8.43,8.43,0,0,0-2.64-.42h-1.45a1.42,1.42,0,0,0-1,.43h0a2.64,2.64,0,0,1-1.87.78h-.19a1.73,1.73,0,0,1-1.38-.61H192a.6.6,0,0,0-.6.61v1.22a.6.6,0,0,0,.6.61h1.22a1.7,1.7,0,0,1,1.38-.61h1a1.82,1.82,0,0,1,1.82,1.83V440h2.43v-.61a1.82,1.82,0,0,1,1.81-1.83,9.55,9.55,0,0,1,2.55.34l.07,0L206.9,439m2,0a2,2,0,0,1-.52,1.35,2,2,0,0,1-2.24.5l-2.48-1a8,8,0,0,0-1.75-.25V440a2,2,0,0,1-2,2h-2.43a2,2,0,0,1-2-2v-.44h-.8a2,2,0,0,1-1.44.61H192a2.61,2.61,0,0,1-2.6-2.61v-1.22a2.61,2.61,0,0,1,2.6-2.61h1.22a2,2,0,0,1,1.44.61h.12a.67.67,0,0,0,.48-.2l0,0a3.39,3.39,0,0,1,2.41-1h1.46a10.3,10.3,0,0,1,3.26.52c2.27.75,5.1,2.29,6.23,4.4A2.1,2.1,0,0,1,208.9,439Z"/></g></g><g id="карман_copy_2" data-name="карман copy 2"><path id="Rectangle_3_Copy_30" data-name="Rectangle 3 Copy 30" class="cls-9" d="M212.2,445.34h-6s-1.28,6.45-7.9,6.45c-5,0-10.93-2.45-10.93-2.45v13l24.87,2.44Z"/><path id="Rectangle_3_Copy_31" data-name="Rectangle 3 Copy 31" class="cls-11" d="M213.83,445.34H208.6s-.91,9.71-10.35,9.71c-5,0-10.92-2.45-10.92-2.45v17.11l26.5,2.45Z"/></g><g id="карман_copy_4" data-name="карман copy 4"><path id="Rectangle_3_Copy_30-2" data-name="Rectangle 3 Copy 30-2" class="cls-9" d="M215.46,445.34h6s1.27,6.45,7.9,6.45c5,0,10.92-2.45,10.92-2.45v13l-24.86,2.44Z"/><path id="Rectangle_3_Copy_31-2" data-name="Rectangle 3 Copy 31-2" class="cls-11" d="M213.83,445.34h5.22s.92,9.71,10.35,9.71c5,0,10.92-2.45,10.92-2.45v17.11l-26.49,2.45Z"/></g><rect id="Rectangle" class="cls-6" x="212.2" y="446.15" width="3.26" height="22.75"/><g id="Group_55" data-name="Group 55"><path id="Rectangle_Copy" data-name="Rectangle Copy" class="cls-10" d="M213.83,447.78h0a.82.82,0,0,1,.81.82v1.62a.81.81,0,0,1-.81.82h0a.82.82,0,0,1-.82-.82V448.6A.82.82,0,0,1,213.83,447.78Z"/><path id="Rectangle_Copy_2" data-name="Rectangle Copy 2" class="cls-10" d="M213.83,451.85h0a.82.82,0,0,1,.81.82v1.63a.81.81,0,0,1-.81.81h0a.82.82,0,0,1-.82-.81v-1.63A.82.82,0,0,1,213.83,451.85Z"/><path id="Rectangle_Copy_4" data-name="Rectangle Copy 4" class="cls-10" d="M213.83,455.93h0a.81.81,0,0,1,.81.81v1.63a.82.82,0,0,1-.81.82h0a.82.82,0,0,1-.82-.82v-1.63A.82.82,0,0,1,213.83,455.93Z"/><path id="Rectangle_Copy_3" data-name="Rectangle Copy 3" class="cls-10" d="M213.83,460h0a.82.82,0,0,1,.81.82v1.63a.81.81,0,0,1-.81.81h0a.82.82,0,0,1-.82-.81v-1.63A.82.82,0,0,1,213.83,460Z"/><path id="Rectangle_Copy_5" data-name="Rectangle Copy 5" class="cls-23" d="M213.83,464.89h0a.82.82,0,0,1,.81.82v1.63a.81.81,0,0,1-.81.81h0a.82.82,0,0,1-.82-.81v-1.63A.82.82,0,0,1,213.83,464.89Z"/></g><path id="Rectangle_3-17" data-name="Rectangle 3-17" class="cls-9" d="M187.19,460.12a81.17,81.17,0,0,0,26.59,4.26,70.61,70.61,0,0,0,26.3-4.8v7.33s-10.08,7.15-26.3,7.15-26.59-6.6-26.59-6.6Z"/><g id="Group_32" data-name="Group 32"><path id="Fill_63_Copy_15" data-name="Fill 63 Copy 15" class="cls-10" d="M197.53,467.27a.82.82,0,1,1,.82-.82.82.82,0,0,1-.82.82Z"/><path id="Fill_63_Copy_16" data-name="Fill 63 Copy 16" class="cls-10" d="M202.42,468.08a.82.82,0,0,1-.82-.81.82.82,0,0,1,.82-.82.82.82,0,0,1,.81.82.81.81,0,0,1-.81.81Z"/></g><g id="Group_32_Copy" data-name="Group 32 Copy"><path id="Fill_63_Copy_15-2" data-name="Fill 63 Copy 15-2" class="cls-10" d="M230.12,467.27a.82.82,0,0,0,.82-.81.82.82,0,0,0-.82-.82.82.82,0,0,0-.81.82.81.81,0,0,0,.81.81Z"/><path id="Fill_63_Copy_16-2" data-name="Fill 63 Copy 16-2" class="cls-10" d="M225.23,468.08a.82.82,0,0,0,.82-.81.82.82,0,0,0-.82-.82.82.82,0,0,0-.81.82.81.81,0,0,0,.81.81Z"/></g></g></g></g><path id="Path_Copy_2" data-name="Path Copy 2" class="cls-8" d="M187.35,420.36v46.45s14,4.88,26.8,4.88,25.57-4.88,25.57-4.88V420.36Z"/><rect id="Rectangle_11" data-name="Rectangle 11" class="cls-11" x="207.31" y="462.38" width="13.04" height="10.59" rx="2"/><g id="строчка"><path id="Stroke_25-6" data-name="Stroke 25-6" class="cls-8" d="M200.79,424.12h1.63"/><path id="Stroke_25_Copy_3" data-name="Stroke 25 Copy 3" class="cls-8" d="M205.68,424.12h1.63"/><path id="Stroke_25_Copy_4" data-name="Stroke 25 Copy 4" class="cls-8" d="M210.57,424.12h1.63"/><path id="Stroke_25_Copy_5" data-name="Stroke 25 Copy 5" class="cls-8" d="M214.64,424.12h1.63"/><path id="Stroke_25_Copy_6" data-name="Stroke 25 Copy 6" class="cls-8" d="M219.53,424.12h1.63"/><path id="Stroke_25_Copy_7" data-name="Stroke 25 Copy 7" class="cls-8" d="M224.42,424.12h1.63"/></g><g id="лямка"><path id="Path_Copy_3" data-name="Path Copy 3" class="cls-9" d="M187.35,390.46v36.42a3.26,3.26,0,0,0,3.25,3.26h2.68a3.25,3.25,0,0,0,3.25-3.26v-40.1a28.4,28.4,0,0,0-4.59,1.35A34.1,34.1,0,0,0,187.35,390.46Z"/><g id="Path_Copy_4" data-name="Path Copy 4"><path class="cls-19" d="M193.18,420.56a5.81,5.81,0,0,0-1.42-.17,6.19,6.19,0,0,0-1.47.17V389.21a18,18,0,0,1,1.82-.91c.37-.15.74-.27,1.07-.37Z"/><path class="cls-10" d="M192.18,389.36c-.31.14-.62.3-.89.44v29.6h.89v-30m2-2.71v35.58a2.94,2.94,0,0,0-2.42-.84,3.25,3.25,0,0,0-2.47.78V388.64a18.71,18.71,0,0,1,2.45-1.26A14.25,14.25,0,0,1,194.18,386.65Z"/></g><path id="Fill_63_Copy_4-2" data-name="Fill 63 Copy 4-2" class="cls-24" d="M191.83,426.53a1.63,1.63,0,1,1,1.63-1.63,1.63,1.63,0,0,1-1.63,1.63Z"/></g><g id="лямка-2"><path id="Path_Copy_3-2" data-name="Path Copy 3-2" class="cls-9" d="M239.69,390.46v36.42a3.27,3.27,0,0,1-3.26,3.26h-2.67a3.26,3.26,0,0,1-3.26-3.26v-40.1a28.4,28.4,0,0,1,4.59,1.35A34.82,34.82,0,0,1,239.69,390.46Z"/><g id="Path_Copy_4-2" data-name="Path Copy 4-2"><path class="cls-19" d="M233.85,420.56V387.93c.33.1.7.22,1.07.37a17,17,0,0,1,1.82.91v31.35a6.1,6.1,0,0,0-1.46-.17A5.84,5.84,0,0,0,233.85,420.56Z"/><path class="cls-10" d="M234.85,389.36v30h.89V389.8c-.27-.14-.58-.3-.89-.44m-2-2.71a14.25,14.25,0,0,1,2.44.73,18.71,18.71,0,0,1,2.45,1.26v33.53a3.23,3.23,0,0,0-2.46-.78,3,3,0,0,0-2.43.84Z"/></g><path id="Fill_63_Copy_4-3" data-name="Fill 63 Copy 4-3" class="cls-25" d="M235.21,426.53a1.63,1.63,0,1,0-1.63-1.63h0A1.63,1.63,0,0,0,235.21,426.53Z"/></g></g><g id="манжета-5"><path id="Rectangle_3-18" data-name="Rectangle 3-18" class="cls-9" d="M168.33,424.9a68.07,68.07,0,0,0,9.67.81,62.35,62.35,0,0,0,9.36-.81v6.52a66.4,66.4,0,0,1-9.55.81,64.18,64.18,0,0,1-9.48-.81Z"/><path id="Fill_63-18" data-name="Fill 63-18" class="cls-10" d="M173.09,428.16a1.63,1.63,0,1,1-1.63-1.63h0a1.63,1.63,0,0,1,1.63,1.63h0"/></g><g id="манжета-6"><path id="Rectangle_3-19" data-name="Rectangle 3-19" class="cls-9" d="M259.57,424.9a63.19,63.19,0,0,1-9.71.81,71.42,71.42,0,0,1-10.12-.81v6.52a61.09,61.09,0,0,0,19.83,0Z"/><path id="Fill_63-19" data-name="Fill 63-19" class="cls-10" d="M254.57,428.16a1.63,1.63,0,1,0,1.63-1.63,1.63,1.63,0,0,0-1.63,1.63h0"/></g></g><g id="ворот-2"><path id="Fill_35_Copy-4" data-name="Fill 35 Copy-4" class="cls-26" d="M213.66,409.4c-12.84,0-13.67-12.29-13.67-14.09s-.9-13.6,13.48-13.6,13.87,11.58,13.87,13.56S226.5,409.4,213.66,409.4Z"/></g><g id="шея-3"><g id="Fill_35_Copy-5" data-name="Fill 35 Copy-5"><path class="cls-20" d="M213.66,410.4a14.91,14.91,0,0,1-8.08-2.1,12.9,12.9,0,0,1-4.45-4.78,18.54,18.54,0,0,1-2.14-8.21c0-.07,0-.17,0-.28,0-1.69-.12-6.83,3.49-10.51,2.48-2.52,6.18-3.81,11-3.81s8.68,1.31,11.23,3.88a12.2,12.2,0,0,1,3.21,6.08,19.18,19.18,0,0,1,.43,4.41v.19a18.42,18.42,0,0,1-2.15,8.29,12.69,12.69,0,0,1-4.45,4.76A15.08,15.08,0,0,1,213.66,410.4Z"/><path class="cls-10" d="M213.66,409.4c12.85,0,13.68-12.16,13.68-14.13s.5-13.56-13.87-13.56S200,393.51,200,395.31s.83,14.09,13.67,14.09m0,2c-7.71,0-11.55-4-13.4-7.4a19.52,19.52,0,0,1-2.27-8.69c0-.07,0-.16,0-.27,0-1.79-.13-7.24,3.78-11.22,2.67-2.72,6.61-4.11,11.71-4.11s9.19,1.41,11.94,4.17a13.32,13.32,0,0,1,3.48,6.56,19.92,19.92,0,0,1,.45,4.64v.19a19.42,19.42,0,0,1-2.27,8.77C225.21,407.4,221.38,411.4,213.66,411.4Z"/></g><path id="Fill_35-6" data-name="Fill 35-6" class="cls-11" d="M223.54,396.45s0,7.74-9.78,7.74-9.78-7.74-9.78-7.74V371.71h19.56Z"/><path id="Fill_37-7" data-name="Fill 37-7" class="cls-7" d="M204.86,386.25c.23.11.44.24.68.34a21.36,21.36,0,0,0,16.57,0c.24-.1.45-.23.68-.34V375H204.86Z"/></g><g id="лицо_волосы" data-name="лицо волосы"><g id="волосы_2_пл-2" data-name="волосы 2 пл-2"><path id="Stroke_57_Copy_23" data-name="Stroke 57 Copy 23" class="cls-13" d="M249.33,348.57c1.36-1.3,3-3.13,3-5.16a7.17,7.17,0,0,0-7.2-7.16h0a31.25,31.25,0,0,0-62.28,0,7.18,7.18,0,0,0-7.32,7v.1a7.23,7.23,0,0,0,.84,3.44,5.76,5.76,0,0,0,2.08,2c-.31-.2-.55,0-.8.35a4.65,4.65,0,0,0,.31,5.12,5,5,0,0,0,4,2.4l5.66,6.36h50.89l6-5.95s3.43-.47,4.9-2.59S250.4,348.87,249.33,348.57Z"/><path id="Stroke_57_Copy_4-3" data-name="Stroke 57 Copy 4-3" class="cls-14" d="M249.29,348.5c2.46-1.67,3-3.12,3-5.16a7.17,7.17,0,0,0-7.19-7.15h0a31.26,31.26,0,0,0-62.29,0,7.19,7.19,0,0,0-7.32,7.05v.1c0,8.63,12.28,7.64,12.28,3.75s-.15,8.49-.15,8.49v7.48h51.63s.24-11.77.24-16C239.53,346.87,244.25,351.92,249.29,348.5Z"/></g><g id="уши-3"><path id="Fill_5-5" data-name="Fill 5-5" class="cls-11" d="M192.64,358.08a4.89,4.89,0,1,1-4.89-4.88h0a4.88,4.88,0,0,1,4.89,4.88"/><path id="Fill_5_Copy-6" data-name="Fill 5 Copy-6" class="cls-11" d="M244.79,358.08a4.89,4.89,0,1,1-4.89-4.88h0a4.88,4.88,0,0,1,4.89,4.88"/></g><g id="лицо-5"><g id="Group_33" data-name="Group 33"><path id="Stroke_61-3" data-name="Stroke 61-3" class="cls-11" d="M201.6,331.2a14.3,14.3,0,0,1-13.85,14.23v10.82a26.59,26.59,0,0,0,53.17,0V335.41c-1.67.5-5,4.76-17.28,4.79C214.59,340.23,204.81,335.75,201.6,331.2Z"/><g class="cls-27"><g id="Group_33-2" data-name="Group 33-2"><path id="Stroke_57_Copy_14" data-name="Stroke 57 Copy 14" class="cls-7" d="M242.94,333.7s-.92.38-2.87,3.73c-1.7,2.94-4.1,6.61-4.1,6.61l-.19.16c-4.56,3.17-10.72,5.73-21,5.73s-15.9-1.9-21.32-5.44c-.2-.13-.59-.45-.59-.45l-7-10.34s-.34-4.22,0-5c.48-1.15,1-2.4,6.26-.31,6.66,2.65,13.28,5.33,22.28,5.33,8.25,0,12.8-1.69,23.9-5.88.39-.15,2.79-1.23,4.12-.19S242.94,333.7,242.94,333.7Z"/><path id="Stroke_61-4" data-name="Stroke 61-4" class="cls-8" d="M201.6,331.2a14.3,14.3,0,0,1-13.85,14.23v10.82a26.59,26.59,0,0,0,53.17,0V335.41c-1.67.5-5,4.76-17.28,4.79C214.59,340.23,204.81,335.75,201.6,331.2Z"/></g></g></g><g id="Group_Copy_7" data-name="Group Copy 7"><circle id="Oval_2-23" data-name="Oval 2-23" class="cls-16" cx="224.42" cy="353.2" r="3.26"/><path id="Oval_2-24" data-name="Oval 2-24" class="cls-10" d="M224.42,356.46a3.26,3.26,0,0,1-3.26-3.26h0a3.26,3.26,0,0,1,3.26-3.26,3.1,3.1,0,0,1,3.26,3v.3a3.27,3.27,0,0,1-3.26,3.26Z"/><circle id="Oval_4-12" data-name="Oval 4-12" class="cls-6" cx="222.79" cy="352.38" r="0.81"/><path id="Path_2-23" data-name="Path 2-23" class="cls-15" d="M228.68,347.8a7.87,7.87,0,0,0-3.49-1.7,8.76,8.76,0,0,0-3.95.65"/></g><g id="Group_Copy_6" data-name="Group Copy 6"><circle id="Oval_2-25" data-name="Oval 2-25" class="cls-16" cx="204.05" cy="353.19" r="3.26"/><path id="Oval_2-26" data-name="Oval 2-26" class="cls-10" d="M204.05,356.45a3.26,3.26,0,1,0,0-6.51,3.1,3.1,0,0,0-3.26,3,1.4,1.4,0,0,0,0,.29,3.26,3.26,0,0,0,3.26,3.26Z"/><circle id="Oval_4-13" data-name="Oval 4-13" class="cls-6" cx="202.42" cy="352.38" r="0.81"/><path id="Path_2-24" data-name="Path 2-24" class="cls-15" d="M199,347.8a8,8,0,0,1,3.49-1.7,8.82,8.82,0,0,1,4,.65"/></g><path id="Stroke_67_Copy-22" data-name="Stroke 67 Copy-22" class="cls-8" d="M212.2,360.35a2.74,2.74,0,0,1,1.63-.43,2.78,2.78,0,0,1,1.63.43"/><path id="Stroke_67_Copy_8" data-name="Stroke 67 Copy 8" class="cls-17" d="M212.2,375.83a2.74,2.74,0,0,1,1.63-.43,2.78,2.78,0,0,1,1.63.43"/><path id="Stroke_67_Copy_6" data-name="Stroke 67 Copy 6" class="cls-8" d="M209.53,367.79a9.66,9.66,0,0,0,8.84,0"/></g><g id="волосы_1_пл-3" data-name="волосы 1 пл-3"><path id="Fill_55_Copy_4" data-name="Fill 55 Copy 4" class="cls-10" d="M242.52,343.54c-2.15,2-7,3-10.81,1.36S225,340,225,337c0-3.53,8.4-4.05,11.7-2.58,2.75,1.22,3.8.29,5.49,1.67C242.57,336.37,242,343.75,242.52,343.54Z"/><path id="Fill_55_Copy_5" data-name="Fill 55 Copy 5" class="cls-7" d="M241.87,344.49c-.05.05-.13,0-.13-.45V344l0-1.42h-.06a11.52,11.52,0,0,1-9.95.7c-3.77-1.68-6.74-4.95-6.67-7.9,0-3.53,8.4-4.05,11.7-2.58,2.74,1.22,3.8.29,5.49,1.67.26.22,1.87,5.28,1.73,7.25A8.63,8.63,0,0,1,241.87,344.49Z"/></g></g><g id="каска"><path id="Stroke_57_Copy_6-2" data-name="Stroke 57 Copy 6-2" class="cls-12" d="M245.81,333.41s-.22-1.43-.38-2.13c-3-13.65-8.25-26.16-31.27-26.16s-29.92,13.25-33,27.54C180.9,333.82,245.81,333.41,245.81,333.41Z"/><g id="worker"><path id="Path-19" class="cls-11" d="M193.2,310.89c3.28-2.78,7.16-5.93,11.43-7.18v29.66H193.2Z"/><path id="Path-20" class="cls-11" d="M222.2,303.71a31.2,31.2,0,0,1,11.43,6.16v23.5H222.2Z"/><path id="Path-21" class="cls-11" d="M208.82,302.82a.47.47,0,0,1,.33-.14h8.53a.48.48,0,0,1,.34.14h0v30.55h-9.2V303a.47.47,0,0,1,.14-.33Z"/></g><path id="Path-22" class="cls-11" d="M234,335.93V337s-3.21,7.74-20.61,7.74-20.6-7.74-20.6-7.74v-1.07Z"/><path id="Rectangle_3-20" data-name="Rectangle 3-20" class="cls-11" d="M178.79,328.46a167.72,167.72,0,0,0,35.08,4.08,130.58,130.58,0,0,0,33.65-4.6v7a127.46,127.46,0,0,1-33.65,4.4,164.24,164.24,0,0,1-35.08-3.88Z"/></g><g id="ведерко_с_краской" data-name="ведерко с краской"><g id="ведро"><g id="Path_Copy_12" data-name="Path Copy 12"><path class="cls-1" d="M288.16,387.77a2,2,0,0,0,.58-2.21c-.69-2.58-3.65-7-10.43-7s-9.73,4.35-10.46,6.93a2.06,2.06,0,0,0,.58,2.3C270.75,389.69,285.75,389.76,288.16,387.77Z"/><path class="cls-10" d="M288.84,386.29a2.73,2.73,0,0,0-.1-.73c-.69-2.58-3.64-7-10.43-7s-9.72,4.35-10.46,6.93a2.74,2.74,0,0,0-.12.78,1.89,1.89,0,0,0,.7,1.52c2.33,1.92,17.32,2,19.73,0a1.84,1.84,0,0,0,.68-1.48m2,0h0a3.82,3.82,0,0,1-1.41,3c-.55.46-1.66,1.13-4.77,1.55a48.86,48.86,0,0,1-6.4.38,50.06,50.06,0,0,1-6.38-.4c-3.09-.43-4.18-1.08-4.72-1.53a3.91,3.91,0,0,1-1.43-3.06,5.21,5.21,0,0,1,.19-1.33,11.48,11.48,0,0,1,3.61-5.41,13.43,13.43,0,0,1,8.78-3,13.28,13.28,0,0,1,8.8,3,11.25,11.25,0,0,1,3.56,5.47A5.07,5.07,0,0,1,290.84,386.29Z"/></g><g id="Path-23"><path class="cls-20" d="M282.94,380.35h-9.32a1.9,1.9,0,1,1,0-3.8h9.32a1.91,1.91,0,1,1,0,3.8Z"/><path class="cls-10" d="M273.62,377.55a.91.91,0,1,0,0,1.8h9.32a.91.91,0,1,0,0-1.8h-9.32m0-2h9.32a2.9,2.9,0,1,1,0,5.8h-9.32a2.9,2.9,0,1,1,0-5.8Z"/></g><path id="Path-24" class="cls-12" d="M290.42,411.63a1.05,1.05,0,0,1-1,1.05H267.83a1.05,1.05,0,0,1-1-1.05V388.47a1,1,0,0,1,1-1.05h21.55a1,1,0,0,1,1,1.05Z"/><path id="Path_Copy_21" data-name="Path Copy 21" class="cls-11" d="M286.34,404.29a1,1,0,0,1-1,1H271.9a1,1,0,0,1-1-1v-6.05a1.06,1.06,0,0,1,1-1.05h13.4a1.06,1.06,0,0,1,1.05,1.05Z"/><g id="Path_Copy_14-2" data-name="Path Copy 14-2"><path class="cls-7" d="M290.86,390.86H266.34a2.22,2.22,0,0,1,0-4.44h24.52a2.22,2.22,0,0,1,0,4.44Z"/><path class="cls-10" d="M266.34,387.42a1.22,1.22,0,0,0,0,2.44h24.52a1.22,1.22,0,0,0,0-2.44H266.34m0-2h24.52a3.22,3.22,0,0,1,0,6.44H266.34a3.22,3.22,0,0,1,0-6.44Z"/></g><g id="Group_37" data-name="Group 37"><path id="Stroke_21-6" data-name="Stroke 21-6" class="cls-28" d="M269.29,393.53h10.82"/><path id="Stroke_25-7" data-name="Stroke 25-7" class="cls-28" d="M283.46,393.53h1.66"/></g><g id="Group_37_Copy" data-name="Group 37 Copy"><path id="Stroke_21-7" data-name="Stroke 21-7" class="cls-8" d="M269.29,409.82h8.37"/><path id="Stroke_25-8" data-name="Stroke 25-8" class="cls-8" d="M281,409.82h1.66"/></g></g><g id="Path_Copy_24-2" data-name="Path Copy 24-2"><path class="cls-6" d="M267.19,395.5a2.19,2.19,0,0,1-2.18-2.18V391c0-.11,0-.23,0-.33a2.59,2.59,0,0,1-.83-2,2.07,2.07,0,0,1,1.14-1.87,3,3,0,0,1,1-.31h9.66v2.18a2.19,2.19,0,0,1-2.18,2.18h-2a2.37,2.37,0,0,0-2.35,2.54A2.19,2.19,0,0,1,267.19,395.5Z"/><path class="cls-10" d="M266.39,387.42s-1.22.12-1.22,1.18a1.6,1.6,0,0,0,.76,1.49,3.55,3.55,0,0,1,.08.87v2.36a1.18,1.18,0,0,0,2.36,0,3.38,3.38,0,0,1,3.35-3.54h2a1.18,1.18,0,0,0,1.18-1.18v-1.18h-8.55m0-2h8.55a2,2,0,0,1,2,2v1.18a3.19,3.19,0,0,1-3.18,3.18h-2a1.39,1.39,0,0,0-1.35,1.54,3.18,3.18,0,0,1-6.36,0V391a3.65,3.65,0,0,1-.84-2.44,3.22,3.22,0,0,1,3-3.17Z"/></g></g><g id="рука-2"><path id="Combined_Shape-50" data-name="Combined Shape-50" class="cls-11" d="M253.48,454.18c-2.13-.15-7.74-.22-11.57-5.59a12.85,12.85,0,0,1-2.23-7.63h0v-9.55a81.51,81.51,0,0,0,9.36.81,50.58,50.58,0,0,0,6.28-.27c.9-1.25,2-2.76,3-4.33a140.58,140.58,0,0,1,8.84-11.91,7.06,7.06,0,0,1,6.11-3,84.91,84.91,0,0,0,10.58-.25c3.11-.45,5.36-9.29,8.2-5.85,1.38,1.67-2.91,9.87-3.17,10.35-1.17,2.18-11.7,3.19-11.7,3.19s-2.86.79-3.81,2.95c-.65,1.47-2.6,9.32-6.56,16.38-5.12,9.12-11,14.69-13.26,14.69Z"/><path id="Stroke_67_Copy-23" data-name="Stroke 67 Copy-23" class="cls-8" d="M251.31,450.44a3.28,3.28,0,0,0,3.24-.28"/><path id="Stroke_67-15" data-name="Stroke 67-15" class="cls-8" d="M253.14,435.68l4.3-6.82Z"/><path id="Stroke_67_Copy-24" data-name="Stroke 67 Copy-24" class="cls-8" d="M251.43,435.86a1.69,1.69,0,0,1,1.63,0"/></g><g id="рука_валик" data-name="рука валик"><path id="Combined_Shape-51" data-name="Combined Shape-51" class="cls-11" d="M173.11,454.19c2.13-.16,7.74-.24,11.57-5.62a12.83,12.83,0,0,0,2.25-7.61h0v-9.57a81.51,81.51,0,0,1-9.36.81,50.35,50.35,0,0,1-6.26-.27c-.9-1.25-2-2.77-3-4.35a140.1,140.1,0,0,0-9.92-11.71c-.48-.52-2.65-8.39-6.61-8.25-.55,0-2.85,0-4.52,0h-1.64c-.9,0-.26,2.63-.9,2.9a8.33,8.33,0,0,1-3.4.4s-1,11-1,11c-.15.4,3.1,1,6.06.85,1.86-.08,5-.35,5-.35s1.4-.47,1.93.63c.7,1.48,2.58,9.33,6.54,16.4,5.1,9.13,11,14.7,13.23,14.7Z"/><g id="ВАЛИК-2"><path id="Path-25" class="cls-14" d="M166.57,385.79a3.26,3.26,0,0,0-3.26-3.26h-32.6a3.26,3.26,0,0,0-3.25,3.26h0v8.15a3.25,3.25,0,0,0,3.25,3.25h32.6a3.25,3.25,0,0,0,3.26-3.25Z"/><g id="РУЧКА-2"><path id="Path_Copy_25-2" data-name="Path Copy 25-2" class="cls-9" d="M130.71,399.1a1,1,0,0,0,1,1h9.85a3.06,3.06,0,0,1,3,3.06c0,6.18-.21,18.77-1,22.34-.24,1.08-.48,2.1-.66,3.07a4.14,4.14,0,0,0,3.55,4.4,4.09,4.09,0,0,0,4.56-3.57,4.61,4.61,0,0,0,0-.83c-.18-.91-.4-1.89-.64-2.93-.81-3.57-1-16.17-1-22.43a3.09,3.09,0,0,1,3-3.11h9.88a1,1,0,0,0,1-1V395a1,1,0,0,0-1-1H131.73a1,1,0,0,0-1,1Z"/><path id="Fill_63_Copy_4-4" data-name="Fill 63 Copy 4-4" class="cls-11" d="M147,429.79a1.63,1.63,0,1,0-1.63-1.63h0A1.63,1.63,0,0,0,147,429.79Z"/></g><g id="Group_54-2" data-name="Group 54-2"><path id="Stroke_41-10" data-name="Stroke 41-10" class="cls-8" d="M143.4,396.81h11.41"/><path id="Stroke_45-7" data-name="Stroke 45-7" class="cls-8" d="M158.39,396.81H160"/></g><g id="Path_Copy_23-2" data-name="Path Copy 23-2"><path class="cls-6" d="M159.23,390.05H134.79a4.26,4.26,0,0,1-4.26-4.26V380.9a4.26,4.26,0,0,1,4.26-4.26h24.44a4.26,4.26,0,0,1,4.26,4.26v4.89A4.26,4.26,0,0,1,159.23,390.05Z"/><path class="cls-10" d="M134.79,377.64a3.26,3.26,0,0,0-3.26,3.26v4.89a3.26,3.26,0,0,0,3.26,3.26h24.44a3.26,3.26,0,0,0,3.26-3.26V380.9a3.26,3.26,0,0,0-3.26-3.26H134.79m0-2h24.44a5.27,5.27,0,0,1,5.26,5.26v4.89a5.27,5.27,0,0,1-5.26,5.26H134.79a5.27,5.27,0,0,1-5.26-5.26V380.9A5.27,5.27,0,0,1,134.79,375.64Z"/></g><g id="Path_Copy_24-3" data-name="Path Copy 24-3"><path class="cls-20" d="M149.53,384.85a2,2,0,0,1-2-2,2.11,2.11,0,0,0-4.22,0,2,2,0,0,1-4.07,0,2.11,2.11,0,0,0-2.1-2.11,2,2,0,0,1-2-2v-2.05h22.74v2a2,2,0,0,1-2,2h-2.07a2.11,2.11,0,0,0-2.11,2.11A2,2,0,0,1,149.53,384.85Z"/><path class="cls-10" d="M136.05,377.64v1.05a1,1,0,0,0,1,1,3.1,3.1,0,0,1,3.1,3.11,1,1,0,0,0,2.07,0,3.11,3.11,0,0,1,6.22,0,1,1,0,0,0,2.08,0,3.11,3.11,0,0,1,3.11-3.11h2.07a1,1,0,0,0,1-1v-1H136.05m0-2h20.74a2,2,0,0,1,2,2v1a3,3,0,0,1-3,3h-2.07a1.11,1.11,0,0,0-1.11,1.11,3,3,0,0,1-6.08,0,1.11,1.11,0,1,0-2.22,0,3,3,0,0,1-6.07,0,1.11,1.11,0,0,0-1.1-1.11,3,3,0,0,1-2.14-.87,3,3,0,0,1-.91-2.15v-1.05A2,2,0,0,1,136.05,375.64Z"/></g></g><g id="кисть-4"><rect id="Rectangle_12-4" data-name="Rectangle 12-4" class="cls-11" x="139.7" y="409.42" width="8.15" height="3.27" rx="1.63"/><rect id="Rectangle_12_Copy-10" data-name="Rectangle 12 Copy-10" class="cls-11" x="138.17" y="412.68" width="9.68" height="3.27" rx="1.63"/><rect id="Rectangle_12_Copy_2-4" data-name="Rectangle 12 Copy 2-4" class="cls-11" x="138.82" y="415.94" width="9.02" height="3.27" rx="1.63"/><rect id="Rectangle_12_Copy_3-4" data-name="Rectangle 12 Copy 3-4" class="cls-11" x="139.96" y="419.2" width="7.88" height="3.27" rx="1.63"/><path id="Rectangle_12_Copy_4-4" data-name="Rectangle 12 Copy 4-4" class="cls-11" d="M144.34,408.6l-.27,3.49a1.62,1.62,0,0,0,1.26,1.72l.6.14.9-.21a1.66,1.66,0,0,0,1.23-1.28l.61-3.15s0,3.88,1.46,5.73,8.14,1.14,8.14,1.14v-.62a17.28,17.28,0,0,0-1.86-4.91,49.65,49.65,0,0,0-2.75-4.53c-.72-1-6.62-.77-6.62-.77a3.6,3.6,0,0,0-2,.77A4.62,4.62,0,0,0,144.34,408.6Z"/></g><g id="Group_47-4" data-name="Group 47-4"><path id="Rectangle_13-5" data-name="Rectangle 13-5" class="cls-6" d="M157.41,415.44l-3.07-1.13v1.21a.93.93,0,0,1,.59.84.85.85,0,0,1-.59.79v2.05l4.88-1.2Z"/><path id="Stroke_67_Copy-25" data-name="Stroke 67 Copy-25" class="cls-8" d="M175.53,450.44a2.73,2.73,0,0,1-1.66.29,2.77,2.77,0,0,1-1.59-.57"/><path id="Stroke_67-16" data-name="Stroke 67-16" class="cls-8" d="M173.7,435.68l-4.3-6.82Z"/><path id="Stroke_67_Copy-26" data-name="Stroke 67 Copy-26" class="cls-8" d="M175.41,435.86a1.48,1.48,0,0,0-.82-.21,1.43,1.43,0,0,0-.81.21"/></g></g></g></g></g><g id="txt-6"><g id="Мастер_по_ремонту_Copy_2" data-name="Мастер по ремонту Copy 2"><path id="Мастер_по_ремонту_Copy_2-2" data-name="Мастер по ремонту Copy 2-2" class="cls-21" d="M287.4,509.68a2.37,2.37,0,0,1-1.17-.27.94.94,0,0,1-.47-.87v-.68a3.2,3.2,0,0,0,.92.13,1.55,1.55,0,0,0,1.64-1.35,55.66,55.66,0,0,1-3.89-8.8h2.45a41,41,0,0,0,2.41,6.42l2-6.42h2.18v.2l-3.13,8.44C290.08,508.6,289.07,509.68,287.4,509.68Zm-60.8-.18h-2V498.83c0-.51.11-.82.32-.92a5.7,5.7,0,0,1,1.7-.14v1.77a3.45,3.45,0,0,1,3.18-1.89,3,3,0,0,1,2.52,1.14,4.73,4.73,0,0,1,.88,3,5.4,5.4,0,0,1-1.14,3.48,3.57,3.57,0,0,1-2.91,1.44,2.93,2.93,0,0,1-2.53-1.19v4Zm2.52-10.17a2,2,0,0,0-1.72.94,4.28,4.28,0,0,0-.64,2.44,2.57,2.57,0,0,0,.51,1.58,1.65,1.65,0,0,0,1.4.69,2,2,0,0,0,1.75-.94,3.73,3.73,0,0,0,.64-2.2,3.19,3.19,0,0,0-.48-1.8A1.62,1.62,0,0,0,229.12,499.33ZM187.83,509.5h-2V498.83c0-.51.11-.82.31-.92a5.73,5.73,0,0,1,1.7-.14v1.77a3.46,3.46,0,0,1,3.19-1.89,3,3,0,0,1,2.52,1.14,4.79,4.79,0,0,1,.88,3,5.45,5.45,0,0,1-1.14,3.48,3.58,3.58,0,0,1-2.91,1.44,3,3,0,0,1-2.53-1.19v4Zm2.52-10.17a2,2,0,0,0-1.72.94,4.2,4.2,0,0,0-.64,2.44,2.57,2.57,0,0,0,.51,1.58,1.65,1.65,0,0,0,1.4.69,2,2,0,0,0,1.76-.94,3.79,3.79,0,0,0,.63-2.2,3.18,3.18,0,0,0-.47-1.8A1.65,1.65,0,0,0,190.35,499.33Zm69.8,7.38A4.06,4.06,0,0,1,257,505.4a4.87,4.87,0,0,1-1.18-3.41A4.31,4.31,0,0,1,257,498.8a5,5,0,0,1,6.36,0,4.31,4.31,0,0,1,1.14,3.19,4.88,4.88,0,0,1-1.19,3.41,4,4,0,0,1-3.13,1.31Zm0-7.38a1.94,1.94,0,0,0-1.67.71A3.22,3.22,0,0,0,258,502a3.81,3.81,0,0,0,.57,2.13,2,2,0,0,0,2.74.52,2.14,2.14,0,0,0,.52-.52,3.82,3.82,0,0,0,.58-2.13,3.14,3.14,0,0,0-.54-1.95,2,2,0,0,0-1.67-.71Zm-21.35,7.38a4.28,4.28,0,0,1-3.2-1.24,5,5,0,0,1-1.2-3.58,4.07,4.07,0,0,1,3.88-4.24h.37a3.69,3.69,0,0,1,2.84,1.1,4.17,4.17,0,0,1,1,2.95c0,.8-.49,1.2-1.46,1.2h-4.42c.31,1.41,1.34,2.13,3.06,2.13a6.41,6.41,0,0,0,2.2-.42v.61a1.2,1.2,0,0,1-.92,1.11,5.88,5.88,0,0,1-2.16.37Zm-.2-7.54c-1.29,0-2,.79-2.07,2.35h3.35a.44.44,0,0,0,.37-.16.59.59,0,0,0,.13-.36,1.84,1.84,0,0,0-.49-1.35,1.75,1.75,0,0,0-1.29-.48Zm-24.21,7.54a4,4,0,0,1-3.13-1.31,4.88,4.88,0,0,1-1.19-3.41,4.32,4.32,0,0,1,1.15-3.19,5,5,0,0,1,6.35,0,4.31,4.31,0,0,1,1.14,3.19,4.87,4.87,0,0,1-1.18,3.41A4,4,0,0,1,214.39,506.71Zm0-7.38a1.92,1.92,0,0,0-1.66.71,3.22,3.22,0,0,0-.53,1.95,3.73,3.73,0,0,0,.57,2.13,2,2,0,0,0,2.74.52,2.14,2.14,0,0,0,.52-.52,3.82,3.82,0,0,0,.58-2.13,3.21,3.21,0,0,0-.54-1.95A2,2,0,0,0,214.39,499.33Zm-34,7.38a4.26,4.26,0,0,1-3.19-1.24,4.94,4.94,0,0,1-1.2-3.58,4.06,4.06,0,0,1,3.87-4.24h.38a3.66,3.66,0,0,1,2.83,1.1,4.17,4.17,0,0,1,1,2.94c0,.8-.49,1.21-1.46,1.21h-4.43c.31,1.41,1.34,2.12,3.06,2.12a6.6,6.6,0,0,0,2.2-.41v.61a1.18,1.18,0,0,1-.91,1.11,6,6,0,0,1-2.17.37Zm-.2-7.54c-1.29,0-2,.79-2.07,2.35h3.35a.45.45,0,0,0,.38-.16A.52.52,0,0,0,182,501a1.83,1.83,0,0,0-.48-1.35A1.78,1.78,0,0,0,180.19,499.17ZM163,506.71a4.12,4.12,0,0,1-3.19-1.28,5.14,5.14,0,0,1-1.17-3.57,4,4,0,0,1,1.26-3.06,4.65,4.65,0,0,1,3.23-1.15,4,4,0,0,1,2.24.58,1.86,1.86,0,0,1,.91,1.65,1.2,1.2,0,0,1-.33.9,1.15,1.15,0,0,1-.83.31h-.61v-.36a1.31,1.31,0,0,0-1.13-1.46,1.09,1.09,0,0,0-.36,0,2.05,2.05,0,0,0-1.62.74,2.77,2.77,0,0,0-.63,1.85,3.4,3.4,0,0,0,.75,2.33,3,3,0,0,0,2.3.82,5.76,5.76,0,0,0,2.13-.41v.56a1.24,1.24,0,0,1-.88,1.18A5.42,5.42,0,0,1,163,506.71Zm-11,0a2.4,2.4,0,0,1-1.95-.79,2.86,2.86,0,0,1-.66-1.86c0-1.45,1.07-2.3,3.18-2.52l2.24-.23v-.06c-.08-1.32-.88-2-2.4-2a6.19,6.19,0,0,0-2.2.5v-.58a1,1,0,0,1,.52-.85,3.64,3.64,0,0,1,1.18-.51,6.06,6.06,0,0,1,1.34-.16,3.63,3.63,0,0,1,2.59.87,3.89,3.89,0,0,1,1,2.61l.3,4.55a1.05,1.05,0,0,1-.07.53.54.54,0,0,1-.4.27,2.51,2.51,0,0,1-.61.1c-.31,0-.64,0-1,0l-.09-1.53A3.46,3.46,0,0,1,152.06,506.71Zm2.84-4.12-2,.25a1.58,1.58,0,0,0-.87.39,1,1,0,0,0-.32.75,1.36,1.36,0,0,0,.31.91,1.09,1.09,0,0,0,.88.36,1.63,1.63,0,0,0,1.4-.8A3.45,3.45,0,0,0,154.9,502.59Zm117.42,4h0v-3.44h-4v3.37h-2v-7.7c0-.51.11-.82.32-.92a5.7,5.7,0,0,1,1.7-.14v3.76h4v-3.7h2v7.69c0,.51-.1.83-.31.93A5.33,5.33,0,0,1,272.32,506.6Zm-20.14,0h0v-5.85q-1,2.36-2.16,4.59a5.38,5.38,0,0,1-1.77.33c-.92-1.88-1.66-3.53-2.2-4.91v5.77h-1.83V498.3a6.29,6.29,0,0,1,2.52-.59,38.6,38.6,0,0,0,2.41,5.71,47.91,47.91,0,0,0,2.3-5.19,6.18,6.18,0,0,1,2.54-.52v7.92c0,.46-.1.75-.3.84A5.15,5.15,0,0,1,252.18,506.6Zm-45.92,0h0v-5.8a1.37,1.37,0,0,0-.27-.94,1.11,1.11,0,0,0-.87-.3h-2.84v7h-2V498.9c0-.52.11-.83.32-.92a6.06,6.06,0,0,1,1.7-.15h3.24a3.1,3.1,0,0,1,2.13.58,2.76,2.76,0,0,1,.6,2v5.08c0,.51-.1.83-.31.93A5.3,5.3,0,0,1,206.26,506.6Zm-60.72,0h0v-8.24a62.56,62.56,0,0,1-3.1,6.64,6.32,6.32,0,0,1-2.07.38,72.49,72.49,0,0,1-3.13-7v8.19h-2V495.39a8.22,8.22,0,0,1,2.81-.56,70.05,70.05,0,0,0,3.38,8c1.09-2.17,2.19-4.66,3.26-7.42a7.76,7.76,0,0,1,2.9-.57v10.55c0,.6-.1.95-.3,1.06A5.36,5.36,0,0,1,145.54,506.6Zm135.24-.07h-2v-6.91h-2.88v-1.79h7.22a.53.53,0,0,1,.57.36,5.72,5.72,0,0,1,.11,1.43h-3Zm-108.54,0h-2v-6.91h-2.88v-1.79h7.22a.55.55,0,0,1,.58.36,5.71,5.71,0,0,1,.1,1.43h-3Z"/></g></g></g></g></g></svg>