<svg xmlns="http://www.w3.org/2000/svg" xmlns:xlink="http://www.w3.org/1999/xlink" viewBox="0 0 247 172.57"><defs><style>.cls-1,.cls-3,.cls-5,.cls-7{fill:none;}.cls-2{fill:#f0f9ff;}.cls-3,.cls-4,.cls-5{stroke:#414042;stroke-linecap:round;stroke-linejoin:round;stroke-width:2px;}.cls-4,.cls-9{fill:#fff;}.cls-5{stroke-dasharray:2 4;}.cls-6{fill:#dee8ec;}.cls-7{stroke:#fff;stroke-miterlimit:10;}.cls-8{clip-path:url(#clip-path);}.cls-10{clip-path:url(#clip-path-2);}.cls-11{clip-path:url(#clip-path-3);}.cls-12{clip-path:url(#clip-path-4);}.cls-13{clip-path:url(#clip-path-5);}.cls-14{clip-path:url(#clip-path-6);}.cls-15{clip-path:url(#clip-path-7);}.cls-16{clip-path:url(#clip-path-8);}</style><clipPath id="clip-path"><path class="cls-1" d="M44.14,81.14a5.25,5.25,0,1,1,5.25,5.24h0A5.25,5.25,0,0,1,44.14,81.14Z"/></clipPath><clipPath id="clip-path-2"><path class="cls-1" d="M29,111.7A5.25,5.25,0,1,1,34.27,117h0A5.26,5.26,0,0,1,29,111.7Z"/></clipPath><clipPath id="clip-path-3"><path class="cls-1" d="M79.31,143.14a5.25,5.25,0,1,1,5.25,5.24h0A5.26,5.26,0,0,1,79.31,143.14Z"/></clipPath><clipPath id="clip-path-4"><path class="cls-1" d="M159.6,139.13a5.25,5.25,0,1,1,5.25,5.25h0A5.26,5.26,0,0,1,159.6,139.13Z"/></clipPath><clipPath id="clip-path-5"><path class="cls-1" d="M72,18.86a5.25,5.25,0,1,1,5.24,5.25h0A5.25,5.25,0,0,1,72,18.86Z"/></clipPath><clipPath id="clip-path-6"><path class="cls-1" d="M183.11,32.4a5.25,5.25,0,1,1,5.25,5.25h0A5.25,5.25,0,0,1,183.11,32.4Z"/></clipPath><clipPath id="clip-path-7"><path class="cls-1" d="M202.46,80a5.25,5.25,0,1,1,5.25,5.24h0A5.25,5.25,0,0,1,202.46,80Z"/></clipPath><clipPath id="clip-path-8"><path class="cls-1" d="M225,97a5.25,5.25,0,1,1,5.25,5.25h0A5.26,5.26,0,0,1,225,97Z"/></clipPath></defs><title>Asset 4</title><g id="Layer_2" data-name="Layer 2"><g id="im"><g id="cloud"><g id="Path_9_Copy_14" data-name="Path 9 Copy 14"><path id="Path_9_Copy_14-2" data-name="Path 9 Copy 14-2" class="cls-2" d="M133.59,159.82c5.63,6.48,30.1,11.57,44.92,3.43,27.11-14.88,19.2-42.58,20.25-42.32,22.8,5.61,44-6.82,46.81-25.73,3-19.77-9.86-39.78-31.21-39.78a2.13,2.13,0,0,1-.57-1.65c0-7.77-9.46-30.95-29.26-37.75-22.9-7.88-45.31,7.59-45.31,7.59S107.83-7.67,74.1,4.32s-32,49.54-32,49.54L40.62,54C16.91,55.14,1,67.8,1,89.86.15,113.59,16.74,132,44.53,128.63a10,10,0,0,1,1.64.1s5.28,29.7,31.51,39.16c19.28,7,44.58,1.56,54.69-8.07C133.71,158.54,132.4,158.46,133.59,159.82Z"/><g id="Path_9_Copy_14-3" data-name="Path 9 Copy 14-3"><path class="cls-2" d="M97,170A67,67,0,0,0,117.15,167a49.52,49.52,0,0,0,8.31-3.48,29,29,0,0,0,6.22-4.39,2.64,2.64,0,0,0,.37-.42,1,1,0,0,1,.24-.51l.3-.33h.92l.3.36a1,1,0,0,1,.22.54,2.52,2.52,0,0,0,.31.43c1.62,1.86,5.12,3.7,9.61,5.05a55.69,55.69,0,0,0,15.68,2.24c7.17,0,13.54-1.41,18.4-4.07,9.45-5.2,15.65-12.58,18.41-21.94a45.83,45.83,0,0,0,1.32-17.58c-.15-1.7-.19-2.15.21-2.59a1,1,0,0,1,.77-.34,1,1,0,0,1,.25,0,45.27,45.27,0,0,0,10.79,1.33c17.87,0,32.5-11,34.8-26.23a37.38,37.38,0,0,0-.9-15.37,34.05,34.05,0,0,0-6.87-13.06,29.27,29.27,0,0,0-9.69-7.42,29.58,29.58,0,0,0-12.76-2.79c-.94,0-1.57-1.37-1.57-2.65a26.25,26.25,0,0,0-1.73-7.89,53.89,53.89,0,0,0-5.32-10.81,49.72,49.72,0,0,0-9-10.63A37.35,37.35,0,0,0,184.21,17a41.24,41.24,0,0,0-13.38-2.18,51.2,51.2,0,0,0-12,1.5A63.36,63.36,0,0,0,149,19.59a58.43,58.43,0,0,0-9.16,4.84l-.68.48-.59-.59a87.17,87.17,0,0,0-14.26-10.87A79.43,79.43,0,0,0,108.83,6,56.53,56.53,0,0,0,90.08,2.59,46.59,46.59,0,0,0,74.43,5.27,44.43,44.43,0,0,0,55.65,17.75a48.3,48.3,0,0,0-9.22,16.1,62,62,0,0,0-3,14,45.26,45.26,0,0,0-.25,6l0,1-1,.06L40.67,55A56.74,56.74,0,0,0,24.76,57.9,37,37,0,0,0,12.6,64.83,29.89,29.89,0,0,0,4.8,75.51,35.94,35.94,0,0,0,2,89.86v0c-.41,11,3,20.88,9.71,27.8A32.38,32.38,0,0,0,23,125.26,40.17,40.17,0,0,0,38.14,128a52,52,0,0,0,6.27-.39l.42,0a13.78,13.78,0,0,1,1.48.12l.71.11.13.71A59.36,59.36,0,0,0,53,144.29a52.52,52.52,0,0,0,9.42,12.78A42.89,42.89,0,0,0,78,167a50.9,50.9,0,0,0,9.25,2.35A62.44,62.44,0,0,0,97,170h0m0,1a57,57,0,0,1-19.27-3.15c-26.23-9.46-31.52-39.16-31.52-39.16a11.36,11.36,0,0,0-1.33-.11h-.3a52.44,52.44,0,0,1-6.39.4C14.23,129,.22,111.71,1,89.86,1,67.8,16.91,55.14,40.62,54l1.52-.09s-1.78-37.54,32-49.54a47.37,47.37,0,0,1,16-2.73c27,0,49.14,22,49.14,22s14.24-9.83,31.61-9.83A41.84,41.84,0,0,1,184.53,16c19.8,6.8,29.26,30,29.26,37.75a2.09,2.09,0,0,0,.57,1.65c21.35,0,34.2,20,31.21,39.79-2.39,15.8-17.56,27.08-35.79,27.08a46.15,46.15,0,0,1-11-1.36h0c-1,0,6.75,27.5-20.23,42.32-5.46,3-12.23,4.2-18.88,4.2-11.41,0-22.48-3.54-26-7.63a1.89,1.89,0,0,1-.55-.94v0s0,0,0,0a2.16,2.16,0,0,1-.67.94C125.43,166.43,111.34,171,97,171Z"/></g></g><path id="Path_9_Copy_6" data-name="Path 9 Copy 6" class="cls-3" d="M118.73,19.45A45.46,45.46,0,0,0,88.4,10.08"/><path id="Path_9_Copy_26" data-name="Path 9 Copy 26" class="cls-3" d="M63.42,20.84C53.2,29.16,53.2,45.76,53.2,45.76"/><g id="line_3" data-name="line 3"><g id="line"><path id="Path_9_Copy_19" data-name="Path 9 Copy 19" class="cls-3" d="M183.25,24.09a24.61,24.61,0,0,0-13.1-2.4"/><path id="Path_13_Copy_5" data-name="Path 13 Copy 5" class="cls-4" d="M167.37,21.83l-1.93.37"/></g><g id="line_copy" data-name="line copy"><path id="Path_9_Copy_19-2" data-name="Path 9 Copy 19-2" class="cls-3" d="M197.82,38.59a24.52,24.52,0,0,1,5.49,12.12"/><path id="Path_13_Copy_5-2" data-name="Path 13 Copy 5-2" class="cls-4" d="M203.85,53.44l.1,2"/></g></g><g id="line_5" data-name="line 5"><path id="Path_9_Copy_19-3" data-name="Path 9 Copy 19-3" class="cls-3" d="M158.19,159.09a34.83,34.83,0,0,0,12.86-3,26.89,26.89,0,0,0,14-12.63"/><path id="Path_9_Copy_20" data-name="Path 9 Copy 20" class="cls-5" d="M186.42,140.6l.4-.77a27.46,27.46,0,0,0,2.72-10.2"/></g><g id="line_6" data-name="line 6"><path id="Path_9_Copy_19-4" data-name="Path 9 Copy 19-4" class="cls-3" d="M61.16,146.55c2.25,5.25,13.2,16.39,31.42,16.39"/><path id="Path_9_Copy_20-2" data-name="Path 9 Copy 20-2" class="cls-5" d="M96.83,162.53l.88-.12c3.34-.54,6.63-.2,9.71-2.12"/><path id="Path_9_Copy_23" data-name="Path 9 Copy 23" class="cls-5" d="M56.41,135.51c.06.3.13.58.2.86a28.48,28.48,0,0,0,4.6,9.83"/></g><g id="line_6_copy" data-name="line 6 copy"><path id="Path_9_Copy_19-5" data-name="Path 9 Copy 19-5" class="cls-3" d="M13.56,76.79c-2.39,4.26-7.25,17.09-.73,30.43"/><path id="Path_9_Copy_20-3" data-name="Path 9 Copy 20-3" class="cls-5" d="M14.61,109.94c.14.22.27.43.41.62,1.62,2.33,2.63,5,5.12,6.54"/><path id="Path_9_Copy_23-2" data-name="Path 9 Copy 23-2" class="cls-5" d="M20,68.79l-.58.46c-2.18,1.83-3,1.78-4.3,4.39"/></g><path id="Path_9_Copy_13" data-name="Path 9 Copy 13" class="cls-3" d="M207.65,114a31.15,31.15,0,0,0,18.87-5.12"/><path id="Path_9_Copy_25" data-name="Path 9 Copy 25" class="cls-3" d="M197,112a28.07,28.07,0,0,0,5.92,1.56"/><path id="Path_9_Copy_24" data-name="Path 9 Copy 24" class="cls-3" d="M236.91,86.71c-.68-8.64-5.25-16.57-12.56-20.71"/><g id="border_cloud_1" data-name="border cloud 1"><path id="Path_9_Copy_8" data-name="Path 9 Copy 8" class="cls-3" d="M35.25,55C14.12,57.81,1,70.21,1,90.58c-.88,23.86,15.87,42.35,43.91,39,2-.24,2-.5,2-.5s1.31,7.73.94,5.37"/></g><g id="border_cloud_2" data-name="border cloud 2"><path id="Path_9_Copy_6-2" data-name="Path 9 Copy 6-2" class="cls-3" d="M130,15.17Q103-5.92,74.23,4.37C40.24,16.54,42,54.64,42,54.64S39.51,55,39,55"/><path id="Path_9_Copy_20-4" data-name="Path 9 Copy 20-4" class="cls-5" d="M139.39,25.24c-2.83-3.76-7-8.58-9.19-9.94"/></g><g id="border_cloud_3" data-name="border cloud 3"><path id="Path_9_Copy_11" data-name="Path 9 Copy 11" class="cls-3" d="M213.5,55.33q-5.17-31-27.23-38.65c-23-7.92-47.2,8.31-47.2,8.31"/></g><g id="border_cloud_4" data-name="border cloud 4"><path id="Path_9_Copy_13-2" data-name="Path 9 Copy 13-2" class="cls-3" d="M194,119.37c.48,0,4.46,2.21,13.85,2.59,19.08.79,35.24-10.55,37.72-26.64,2.19-14.25-4.11-28.63-16-35.32"/><path id="Path_9_Copy_20-5" data-name="Path 9 Copy 20-5" class="cls-5" d="M226.34,58.58c-.28-.12-.58-.2-.82-.33-2.91-1.59-11.61-2.26-15.24-2.14"/></g><g id="border_cloud_5" data-name="border cloud 5"><path id="Path_9_Copy_17" data-name="Path 9 Copy 17" class="cls-3" d="M133.93,158.6c10.88,17,69,13.54,65-35.66,0-.42-.07-.84-.11-1.26"/></g><g id="border_cloud_6" data-name="border cloud 6"><path id="Path_9_Copy_15" data-name="Path 9 Copy 15" class="cls-3" d="M46.67,131.19c5,36.67,44.27,45.54,65.47,37.8"/><path id="Path_9_Copy_20-6" data-name="Path 9 Copy 20-6" class="cls-5" d="M116.53,167.54c-.2.3,12.28-4.55,18.75-10.24"/></g></g><g id="small_contacts" data-name="small contacts"><g id="ic_small_v2" data-name="ic small v2"><g id="ic_small_v2-2" data-name="ic small v2-2"><g id="Oval_3_Copy_2" data-name="Oval 3 Copy 2"><circle id="Oval_3_Copy_2-2" data-name="Oval 3 Copy 2-2" class="cls-6" cx="49.12" cy="80.87" r="9"/><circle id="Oval_3_Copy_2-3" data-name="Oval 3 Copy 2-3" class="cls-7" cx="49.12" cy="80.87" r="9"/></g><g id="ic_user_without_photo" data-name="ic user without photo"><g id="user_" data-name="user "><path id="Combined_Shape-18" data-name="Combined Shape-18" class="cls-6" d="M44.14,81.14a5.25,5.25,0,1,1,5.25,5.24h0A5.25,5.25,0,0,1,44.14,81.14Z"/><g class="cls-8"><g id="user_2" data-name="user 2"><path id="Fill_298" data-name="Fill 298" class="cls-9" d="M53.12,86.47H45.66V85.14c0-2.17,2.09-3,3.73-3s3.73.8,3.73,3Z"/><path id="Fill_297" data-name="Fill 297" class="cls-9" d="M49.39,81.06a2,2,0,1,1,2-2h0a2,2,0,0,1-2,2"/></g></g></g></g></g></g><g id="ic_small_v2-3" data-name="ic small v2-3"><g id="ic_small_v2-4" data-name="ic small v2-4"><g id="Oval_3_Copy_2-4" data-name="Oval 3 Copy 2-4"><circle id="Oval_3_Copy_2-5" data-name="Oval 3 Copy 2-5" class="cls-6" cx="34" cy="111.43" r="9"/><circle id="Oval_3_Copy_2-6" data-name="Oval 3 Copy 2-6" class="cls-7" cx="34" cy="111.43" r="9"/></g><g id="ic_user_without_photo-2" data-name="ic user without photo-2"><g id="user_3" data-name="user 3"><path id="Combined_Shape-19" data-name="Combined Shape-19" class="cls-6" d="M29,111.7A5.25,5.25,0,1,1,34.27,117h0A5.26,5.26,0,0,1,29,111.7Z"/><g class="cls-10"><g id="user_4" data-name="user 4"><path id="Fill_298-2" data-name="Fill 298-2" class="cls-9" d="M38,117H30.54V115.7c0-2.17,2.09-3,3.73-3s3.72.8,3.72,3Z"/><path id="Fill_297-2" data-name="Fill 297-2" class="cls-9" d="M34.27,111.62a2,2,0,1,1,2-2h0a2,2,0,0,1-2,2"/></g></g></g></g></g></g><g id="ic_small_v2-5" data-name="ic small v2-5"><g id="ic_small_v2-6" data-name="ic small v2-6"><g id="Oval_3_Copy_2-7" data-name="Oval 3 Copy 2-7"><circle id="Oval_3_Copy_2-8" data-name="Oval 3 Copy 2-8" class="cls-6" cx="84.29" cy="142.87" r="9"/><circle id="Oval_3_Copy_2-9" data-name="Oval 3 Copy 2-9" class="cls-7" cx="84.29" cy="142.87" r="9"/></g><g id="ic_user_without_photo-3" data-name="ic user without photo-3"><g id="user_5" data-name="user 5"><path id="Combined_Shape-20" data-name="Combined Shape-20" class="cls-6" d="M79.31,143.14a5.25,5.25,0,1,1,5.25,5.24h0A5.26,5.26,0,0,1,79.31,143.14Z"/><g class="cls-11"><g id="user_6" data-name="user 6"><path id="Fill_298-3" data-name="Fill 298-3" class="cls-9" d="M88.29,148.47H80.83v-1.33c0-2.17,2.1-3,3.73-3s3.73.8,3.73,3Z"/><path id="Fill_297-3" data-name="Fill 297-3" class="cls-9" d="M84.56,143.06a2,2,0,1,1,2-2h0a2,2,0,0,1-2,2"/></g></g></g></g></g></g><g id="ic_small_v2-7" data-name="ic small v2-7"><g id="ic_small_v2-8" data-name="ic small v2-8"><g id="Oval_3_Copy_2-10" data-name="Oval 3 Copy 2-10"><circle id="Oval_3_Copy_2-11" data-name="Oval 3 Copy 2-11" class="cls-6" cx="164.58" cy="138.86" r="9"/><circle id="Oval_3_Copy_2-12" data-name="Oval 3 Copy 2-12" class="cls-7" cx="164.58" cy="138.86" r="9"/></g><g id="ic_user_without_photo-4" data-name="ic user without photo-4"><g id="user_7" data-name="user 7"><path id="Combined_Shape-21" data-name="Combined Shape-21" class="cls-6" d="M159.6,139.13a5.25,5.25,0,1,1,5.25,5.25h0A5.26,5.26,0,0,1,159.6,139.13Z"/><g class="cls-12"><g id="user_8" data-name="user 8"><path id="Fill_298-4" data-name="Fill 298-4" class="cls-9" d="M168.58,144.46h-7.46v-1.33c0-2.17,2.09-3,3.73-3s3.73.8,3.73,3Z"/><path id="Fill_297-4" data-name="Fill 297-4" class="cls-9" d="M164.85,139.05a2,2,0,1,1,2-2h0a2,2,0,0,1-2,2"/></g></g></g></g></g></g><g id="ic_small_v2-9" data-name="ic small v2-9"><g id="ic_small_v2-10" data-name="ic small v2-10"><g id="Oval_3_Copy_2-13" data-name="Oval 3 Copy 2-13"><circle id="Oval_3_Copy_2-14" data-name="Oval 3 Copy 2-14" class="cls-6" cx="76.95" cy="18.6" r="9"/><circle id="Oval_3_Copy_2-15" data-name="Oval 3 Copy 2-15" class="cls-7" cx="76.95" cy="18.6" r="9"/></g><g id="ic_user_without_photo-5" data-name="ic user without photo-5"><g id="user_9" data-name="user 9"><path id="Combined_Shape-22" data-name="Combined Shape-22" class="cls-6" d="M72,18.86a5.25,5.25,0,1,1,5.24,5.25h0A5.25,5.25,0,0,1,72,18.86Z"/><g class="cls-13"><g id="user_10" data-name="user 10"><path id="Fill_298-5" data-name="Fill 298-5" class="cls-9" d="M80.94,24.2H73.49V22.86c0-2.16,2.09-3,3.72-3s3.73.8,3.73,3Z"/><path id="Fill_297-5" data-name="Fill 297-5" class="cls-9" d="M77.21,18.78a2,2,0,1,1,2-2h0a2,2,0,0,1-2,2"/></g></g></g></g></g></g><g id="ic_small_v2-11" data-name="ic small v2-11"><g id="ic_small_v2-12" data-name="ic small v2-12"><g id="Oval_3_Copy_2-16" data-name="Oval 3 Copy 2-16"><circle id="Oval_3_Copy_2-17" data-name="Oval 3 Copy 2-17" class="cls-6" cx="188.09" cy="32.14" r="9"/><circle id="Oval_3_Copy_2-18" data-name="Oval 3 Copy 2-18" class="cls-7" cx="188.09" cy="32.14" r="9"/></g><g id="ic_user_without_photo-6" data-name="ic user without photo-6"><g id="user_11" data-name="user 11"><path id="Combined_Shape-23" data-name="Combined Shape-23" class="cls-6" d="M183.11,32.4a5.25,5.25,0,1,1,5.25,5.25h0A5.25,5.25,0,0,1,183.11,32.4Z"/><g class="cls-14"><g id="user_12" data-name="user 12"><path id="Fill_298-6" data-name="Fill 298-6" class="cls-9" d="M192.08,37.74h-7.45V36.4c0-2.16,2.09-3,3.73-3s3.72.8,3.72,3Z"/><path id="Fill_297-6" data-name="Fill 297-6" class="cls-9" d="M188.36,32.32a2,2,0,1,1,2-2h0a2,2,0,0,1-2,2"/></g></g></g></g></g></g><g id="ic_small_v2_copy_2" data-name="ic small v2 copy 2"><g id="ic_small_v2-13" data-name="ic small v2-13"><g id="Oval_3_Copy_2-19" data-name="Oval 3 Copy 2-19"><circle id="Oval_3_Copy_2-20" data-name="Oval 3 Copy 2-20" class="cls-6" cx="207.44" cy="79.69" r="9"/><circle id="Oval_3_Copy_2-21" data-name="Oval 3 Copy 2-21" class="cls-7" cx="207.44" cy="79.69" r="9"/></g><g id="ic_user_without_photo-7" data-name="ic user without photo-7"><g id="user_13" data-name="user 13"><path id="Combined_Shape-24" data-name="Combined Shape-24" class="cls-6" d="M202.46,80a5.25,5.25,0,1,1,5.25,5.24h0A5.25,5.25,0,0,1,202.46,80Z"/><g class="cls-15"><g id="user_14" data-name="user 14"><path id="Fill_298-7" data-name="Fill 298-7" class="cls-9" d="M211.44,85.29H204V84c0-2.17,2.1-3,3.73-3s3.73.8,3.73,3Z"/><path id="Fill_297-7" data-name="Fill 297-7" class="cls-9" d="M207.71,79.88a2,2,0,1,1,2-2h0a2,2,0,0,1-2,2"/></g></g></g></g></g></g><g id="ic_small_v2-14" data-name="ic small v2-14"><g id="ic_small_v2-15" data-name="ic small v2-15"><g id="Oval_3_Copy_2-22" data-name="Oval 3 Copy 2-22"><circle id="Oval_3_Copy_2-23" data-name="Oval 3 Copy 2-23" class="cls-6" cx="229.94" cy="96.78" r="9"/><circle id="Oval_3_Copy_2-24" data-name="Oval 3 Copy 2-24" class="cls-7" cx="229.94" cy="96.78" r="9"/></g><g id="ic_user_without_photo-8" data-name="ic user without photo-8"><g id="user_15" data-name="user 15"><path id="Combined_Shape-25" data-name="Combined Shape-25" class="cls-6" d="M225,97a5.25,5.25,0,1,1,5.25,5.25h0A5.26,5.26,0,0,1,225,97Z"/><g class="cls-16"><g id="user_16" data-name="user 16"><path id="Fill_298-8" data-name="Fill 298-8" class="cls-9" d="M233.94,102.38h-7.46V101c0-2.16,2.09-3,3.73-3s3.73.8,3.73,3Z"/><path id="Fill_297-8" data-name="Fill 297-8" class="cls-9" d="M230.21,97a2,2,0,1,1,2-2h0a2,2,0,0,1-2,2"/></g></g></g></g></g></g></g></g></g></svg>