<?xml version="1.0" encoding="utf-8"?>
<!-- Generator: Adobe Illustrator 23.0.1, SVG Export Plug-In . SVG Version: 6.00 Build 0)  -->
<svg version="1.1" id="Layer_1" xmlns="http://www.w3.org/2000/svg" xmlns:xlink="http://www.w3.org/1999/xlink" x="0px" y="0px"
	 viewBox="0 0 270 247" style="enable-background:new 0 0 270 247;" xml:space="preserve">
<style type="text/css">
	.st0{fill:none;}
	.st1{fill:#504B46;}
	.st2{fill:#FFFFFF;stroke:#504B46;stroke-width:2;stroke-linecap:round;stroke-linejoin:round;stroke-miterlimit:10;}
	.st3{fill:#B4E0FC;stroke:#504B46;stroke-width:2;stroke-linecap:round;stroke-linejoin:round;stroke-miterlimit:10;}
	.st4{fill:#B4E0FC;}
	.st5{opacity:0.3;fill:#FFFFFF;enable-background:new    ;}
	.st6{fill:none;stroke:#504B46;stroke-width:2;stroke-linecap:round;stroke-linejoin:round;stroke-miterlimit:10;}
	.st7{fill:#FFD070;}
	.st8{clip-path:url(#SVGID_2_);}
	.st9{opacity:0.4;fill:#FFFFFF;enable-background:new    ;}
	.st10{fill:#F2977C;stroke:#504B46;stroke-width:2;stroke-linecap:round;stroke-linejoin:round;stroke-miterlimit:10;}
	.st11{fill:#EE75AC;stroke:#504B46;stroke-width:2;stroke-linecap:round;stroke-linejoin:round;stroke-miterlimit:10;}
	.st12{fill:#FFFFFF;}
	.st13{fill:#83CFFF;stroke:#504B46;stroke-width:2;stroke-miterlimit:10;}
	.st14{fill:#9CC1EF;stroke:#504B46;stroke-width:2;stroke-linecap:round;stroke-linejoin:round;stroke-miterlimit:10;}
	.st15{fill:#EDF2F4;}
	.st16{fill:#FDDFD1;stroke:#504B46;stroke-width:2;stroke-linecap:round;stroke-linejoin:round;stroke-miterlimit:10;}
	.st17{fill:#FCCAB4;}
	.st18{fill:#F29166;stroke:#504B46;stroke-width:2;stroke-linecap:round;stroke-linejoin:round;stroke-miterlimit:10;}
	.st19{fill:#9CC1EF;}
	.st20{fill:#FFA163;stroke:#504B46;stroke-width:2;stroke-linejoin:round;stroke-miterlimit:10;}
	.st21{opacity:0.5;enable-background:new    ;}
	.st22{fill:none;stroke:#504B46;stroke-width:2;stroke-linejoin:round;stroke-miterlimit:10;}
	.st23{fill:none;stroke:#504B46;stroke-width:2;stroke-linecap:round;stroke-miterlimit:10;}
	.st24{fill:#FCCAB4;stroke:#504B46;stroke-width:2;stroke-miterlimit:10;}
	.st25{fill:none;stroke:#FCCAB4;stroke-width:2;stroke-linecap:round;stroke-linejoin:round;stroke-miterlimit:10;}
	.st26{fill:#575762;stroke:#504B46;stroke-width:2;stroke-linecap:round;stroke-linejoin:round;stroke-miterlimit:10;}
	.st27{fill:#EDF2F4;stroke:#504B46;stroke-width:2;stroke-linecap:round;stroke-linejoin:round;stroke-miterlimit:10;}
	.st28{clip-path:url(#SVGID_4_);}
	.st29{fill:#FDDFD1;}
	.st30{clip-path:url(#SVGID_6_);}
	.st31{fill:#F7898F;stroke:#504B46;stroke-width:2;stroke-linecap:round;stroke-linejoin:round;stroke-miterlimit:10;}
	.st32{fill:#CE7751;}
	.st33{clip-path:url(#SVGID_8_);}
	.st34{clip-path:url(#SVGID_10_);}
	.st35{clip-path:url(#SVGID_12_);}
	.st36{clip-path:url(#SVGID_14_);}
	.st37{clip-path:url(#SVGID_16_);}
</style>
<g transform="translate(-36.601 -6)">
	<g transform="translate(22 6)">
		<g transform="translate(165)">
			<g>
				<path class="st0" d="M111.9,65.6H85.7L64.4,85V65.6H47c-4.3,0-7.8-3.5-7.8-7.8c0,0,0,0,0,0V7.8C39.2,3.5,42.7,0,47,0
					c0,0,0,0,0,0h64.9c4.3,0,7.8,3.5,7.8,7.8v50.1C119.6,62.1,116.1,65.6,111.9,65.6L111.9,65.6z"/>
				<path class="st1" d="M66.4,80.5l18-16.3c0.4-0.3,0.8-0.5,1.3-0.5h26.1c3.2,0,5.8-2.6,5.8-5.8V7.8c0-3.2-2.6-5.8-5.8-5.8H47
					c-3.2,0-5.8,2.6-5.8,5.8v50.1c0,3.2,2.6,5.8,5.8,5.8h17.4c0.5,0,1,0.2,1.4,0.6c0.4,0.4,0.6,0.9,0.6,1.4L66.4,80.5 M64.4,85
					l0-19.4H47c-4.3,0-7.8-3.5-7.8-7.8V7.8C39.2,3.5,42.7,0,47,0h64.9c4.3,0,7.8,3.5,7.8,7.8v50.1c0,4.3-3.5,7.8-7.8,7.8H85.7
					L64.4,85z"/>
			</g>
			<g transform="translate(24 16)">
				<path class="st2" d="M69.1,12.6h-7c0.5-1.7,0.7-3.5,0.7-5.2c0-6.1-1.7-7.3-3.1-7.3c-1.1-0.2-2.1,0.3-2.7,1.2
					c-0.4,0.6-0.5,3.8-1.3,5.7l-0.1,0.2c-1.1,3-4,5.6-6.3,7.4v15c0.9,0.1,1.8,0.4,2.7,0.9c1.1,0.7,2.3,1,3.6,1.1h9.9
					c1.8,0.1,3.4-1.3,3.6-3.1c0-0.3,0-0.5-0.1-0.8c1.3-0.4,2.1-1.6,2.2-2.9c0-0.6-0.1-1.1-0.3-1.6c0.9-0.6,1.5-1.5,1.6-2.6
					c0-0.6-0.3-1.3-0.7-1.8c0.9-0.6,1.4-1.6,1.5-2.7C73.2,13.8,71.5,12.6,69.1,12.6z"/>
				<path class="st3" d="M41.7,31.5c-1.3,0.1-2.4-0.9-2.5-2.2V13.6c0.1-1.3,1.2-2.3,2.5-2.2h5c1.3-0.1,2.4,0.9,2.5,2.2v15.7
					c-0.1,1.3-1.2,2.3-2.5,2.2H41.7z"/>
			</g>
		</g>
		<g transform="translate(57 131)">
			<g transform="translate(3)">
				<path class="st4" d="M145.4,43.8c0-22.5-18.3-40.8-40.8-40.8c0,0,0,0,0,0H80.2c-22.5,0-40.8,18.3-40.8,40.8v10.6h19.5l-0.1,48
					c0,0,17.6,6,33.9,6s32.5-6,32.5-6l-0.3-48h20.5L145.4,43.8z"/>
				<path class="st5" d="M145.4,43.8c0-22.5-18.3-40.8-40.8-40.8c0,0,0,0,0,0H80.2c-22.5,0-40.8,18.3-40.8,40.8v16.3
					c0-22.5,18.3-40.8,40.8-40.8c0,0,0,0,0,0h24.5c22.5,0,40.8,18.3,40.8,40.8c0,0,0,0,0,0V43.8z"/>
				<path class="st6" d="M145.4,43.8c0-22.5-18.3-40.8-40.8-40.8c0,0,0,0,0,0H80.2c-22.5,0-40.8,18.3-40.8,40.8v10.6h20.3v48
					c0,0,17.2,6,32.9,6s31.4-6,31.4-6v-48h21.4L145.4,43.8z"/>
				<path class="st7" d="M63,7.3c0,0,1.2,19.1,0.6,29.8c-0.6,10.7-3.8,8.3-3.8,8.3v56.8c0,0,17.6,6,33.3,6s30.9-6,30.9-6v-57
					c0,0-3.8-0.9-4.4-9.1c-0.6-8.2,0.5-29.5,0.5-29.5c-8.9-3.9-18.5-5.8-28.2-5.6C82,1.1,72.1,3.3,63,7.3z"/>
				<g>
					<defs>
						<path id="SVGID_1_" d="M63,7.3c0,0,1.2,19.1,0.6,29.8c-0.6,10.7-3.8,8.3-3.8,8.3v56.8c0,0,17.6,6,33.3,6s30.9-6,30.9-6v-57
							c0,0-3.8-0.9-4.4-9.1c-0.6-8.2,0.5-29.5,0.5-29.5c-8.9-3.9-18.5-5.8-28.2-5.6C82,1.1,72.1,3.3,63,7.3z"/>
					</defs>
					<clipPath id="SVGID_2_">
						<use xlink:href="#SVGID_1_"  style="overflow:visible;"/>
					</clipPath>
					<g class="st8">
						<path class="st9" d="M123.2,91.4V116h-63V76c0,13.8,10.8,31,24.2,31H99c13.4,0,24.2-17.2,24.2-31V91.4z"/>
						<path class="st10" d="M59.7,93.7c10.7,3.5,21.9,5.3,33.1,5.2c19,0,31.4-5.9,31.4-5.9v9c0,0-12.3,5.9-32.2,5.9
							s-32.2-5.3-32.2-5.3V93.7z"/>
						<g transform="translate(79 47) rotate(180)">
							<g transform="translate(16) rotate(180)">
								<path class="st11" d="M47.2,0.3L52.9,7H41.6L47.2,0.3z"/>
								<path class="st12" d="M47.2,4.3l5.7,6.7l-11.3,0L47.2,4.3z"/>
								<rect x="39.2" y="7" class="st13" width="16" height="4"/>
							</g>
						</g>
					</g>
				</g>
			</g>
			<path class="st6" d="M66,7.3c0,0,1.2,19.1,0.6,29.8c-0.6,10.7-3.8,8.3-3.8,8.3v56.8c0,0,17.6,6,33.3,6s30.9-6,30.9-6v-57
				c0,0-3.8-0.9-4.4-9.1c-0.6-8.2,0.5-29.5,0.5-29.5c-8.9-3.9-18.5-5.8-28.2-5.6C85,1.1,75.1,3.3,66,7.3z"/>
			<g transform="translate(0 51)">
				<path class="st14" d="M39.4,0c3.9,0.6,7.9,0.9,11.9,1c3.9,0,7.7-0.4,11.5-1v8C58.9,8.6,54.9,9,51,9c-3.9,0-7.8-0.4-11.6-1V0z"/>
				<path class="st1" d="M45.2,4c0,1.1-0.9,2-2,2s-2-0.9-2-2s0.9-2,2-2S45.2,2.9,45.2,4"/>
			</g>
			<g transform="translate(113 51) rotate(180)">
				<path class="st14" d="M-38.4,0c3.9-0.6,7.9-1,11.9-1c4.2,0,8.3,0.4,12.4,1v-8c-4-0.6-8.1-1-12.2-1c-4.1,0-8.1,0.4-12.2,1V0z"/>
				<path class="st1" d="M-32.2-4c0-1.1-0.9-2-2-2s-2,0.9-2,2s0.9,2,2,2S-32.2-2.9-32.2-4"/>
			</g>
			<g transform="translate(86 38)">
				<path class="st15" d="M41,27.4V13.2"/>
				<path class="st6" d="M41,32.4V8.2"/>
				<path class="st15" d="M41,7V5"/>
				<path class="st6" d="M41,2V0"/>
			</g>
			<g transform="translate(22 38)">
				<path class="st15" d="M40.7,27.4V13.2"/>
				<path class="st6" d="M40.7,32.4V8.2"/>
				<path class="st15" d="M40.7,7V5"/>
				<path class="st6" d="M40.7,2V0"/>
			</g>
		</g>
		<g transform="translate(100 121)">
			<path class="st16" d="M64.1,24.1l-12,16.5l-12-16.5V0.7h24V24.1z"/>
			<path class="st17" d="M41.2,14.6c0.3,0.1,0.5,0.3,0.8,0.4c6.5,2.7,13.8,2.7,20.3,0c0.3-0.1,0.6-0.3,0.8-0.4V0.7h-22V14.6z"/>
		</g>
		<g transform="translate(92 130)">
			<path class="st18" d="M60,32.9L60,32.9l-8.4-12.5l1.3-1.4l0.6-0.8l2,1.1l4.6,6.5l4.7-6.4l1.8-1.1l0.6,0.8l1.3,1.4L60,32.9
				L60,32.9z"/>
			<g>
				<path class="st19" d="M47.4,26C47.4,26,47.4,26,47.4,26L47.4,26c-0.7,0-1.8-0.9-2.9-2.5c-2-2.8-4.3-6.9-4.3-10.2
					c0-1.9,0.3-3.4,1-4.9C41.9,7,42.8,5.8,44,4.4c0.9-1.1,2.6-2,4.2-2.8v6.1c0,3.3,1.3,6.4,3.8,8.9c1,1,1.9,1.7,2.7,2.1L50,23.9
					c-0.1,0.1-0.1,0.2-0.2,0.2C49.1,24.8,48.1,26,47.4,26z"/>
				<path class="st1" d="M47.1,3.3c-1,0.6-1.9,1.1-2.4,1.8c-2,2.4-3.5,4.5-3.5,8.2c0,2.4,1.5,5.8,4.1,9.7c1,1.5,1.8,2,2,2
					c0.1,0,0.3-0.1,0.6-0.4c0.4-0.3,0.7-0.7,1.1-1.1c0.1-0.1,0.2-0.2,0.2-0.2l3.9-4.3c-0.6-0.4-1.2-1-1.9-1.6
					c-2.7-2.7-4.1-6-4.1-9.6V3.3 M49.1,0v7.8c0,7.4,7.1,10.8,7.1,10.8l-5.5,6c-0.9,1-2.1,2.4-3.3,2.4c0,0,0,0,0,0
					c-1.4,0-2.8-1.7-3.7-2.9c-2.1-3.1-4.5-7.3-4.5-10.8c0-4.3,1.7-6.8,4-9.5C44.5,2.2,47.2,1.1,49.1,0z"/>
			</g>
			<g transform="translate(4.833 16.022)">
				<path class="st12" d="M42.5,4.6c-0.4-0.4-0.9-1.2-1.1-1.4l0,0c-0.3-0.4-0.6-0.8-0.8-1.2c0.2-0.1,0.4-0.3,0.7-0.4
					c0.6,1,1.4,1.9,2,2.5C43,4.2,42.7,4.5,42.5,4.6z"/>
				<path class="st1" d="M41.7,0c0.4,1.6,3,4,3,4c-0.5,0.6-1.8,1.8-2.3,1.8c0,0,0,0,0,0c-0.4,0-1.3-1.3-1.8-2.1
					c-0.4-0.6-0.9-1.3-1.3-2.1C39.2,1.5,41.7,0,41.7,0z"/>
			</g>
			<g transform="translate(25)">
				<path class="st19" d="M48.2,26c-0.9,0-2.3-1.5-2.8-2.1l-4.6-5.1c0.7-0.5,1.7-1.2,2.6-2.1c2.5-2.5,3.8-5.6,3.8-8.9V1.7
					c1.5,0.8,3.2,1.7,4.1,2.8c1.1,1.4,2,2.6,2.7,3.9c0.7,1.5,1,3.1,1,4.9c0,3.3-2.3,7.4-4.3,10.2c-0.4,0.5-0.8,1.2-1.3,1.7
					C48.8,25.8,48.4,26,48.2,26C48.2,26,48.2,26,48.2,26z"/>
				<path class="st1" d="M48.2,3.3v4.4c0,3.6-1.4,6.9-4.1,9.6c-0.6,0.6-1.3,1.2-1.8,1.6l3.8,4.3c0.4,0.4,0.9,0.9,1.3,1.3
					c0.4,0.3,0.6,0.4,0.7,0.4c0.1-0.1,0.3-0.2,0.7-0.6c0.4-0.4,0.8-1,1.1-1.4c2.6-3.8,4.1-7.3,4.1-9.7c0-3.7-1.5-5.8-3.4-8.2
					C50,4.5,49.1,3.9,48.2,3.3 M46.2,0C48,1.1,50.7,2.2,52,3.8c2.2,2.7,3.9,5.2,3.9,9.5c0,3.5-2.3,7.7-4.4,10.8
					c-0.8,1.1-1.9,2.7-3.1,2.9c-0.1,0-0.1,0-0.2,0c-1.3,0-2.6-1.4-3.6-2.4l-5.4-6c0,0,7-3.3,7-10.8V0z"/>
			</g>
		</g>
		<g transform="translate(66 34)">
			<path class="st20" d="M130.8,52.3c1.7-1.6,3.7-3.8,3.7-6.3c0-4.9-4-8.8-8.8-8.8c0,0,0,0,0,0c-1.8-21.1-20.3-36.8-41.4-35
				c-18.6,1.6-33.4,16.4-35,35c-4.9-0.1-8.9,3.8-9,8.7c0,0,0,0.1,0,0.1c0,2.5,2.1,4.7,3.7,6.3c-1.8,0.5-2.8,4.1-0.8,7.1
				c1.1,1.7,2.9,2.8,5,2.9l6.9,7.8h62.5l7.4-7.3c0,0,4.2-0.6,6-3.2C132.8,57.2,132.1,52.7,130.8,52.3z"/>
			<path class="st21" d="M124.2,28C118.1,7.8,96.8-3.7,76.6,2.4C64.3,6.1,54.6,15.7,50.9,28c8.1-7.8,21.5-12.9,36.6-12.9
				S116.1,20.2,124.2,28z"/>
			<path class="st21" d="M49.5,38.1c-3.4,0.1-7.7,2.4-8.4,5.6c-0.8,3.2,0.8,6.6,3.7,8.1c-1.4-2.2-1.8-4.9-1.2-7.5
				C44.4,41.4,46.6,39,49.5,38.1z"/>
			<path class="st21" d="M125.6,38.1c3.4,0.1,7.7,2.4,8.4,5.6c0.8,3.2-0.8,6.6-3.7,8.1c1.4-2.2,1.8-4.9,1.2-7.5
				C130.7,41.4,128.5,39,125.6,38.1z"/>
			<path class="st22" d="M130.8,52.3c1.7-1.6,3.7-3.8,3.7-6.3c0-4.9-4-8.8-8.8-8.8c0,0,0,0,0,0c-1.8-21.1-20.3-36.8-41.4-35
				c-18.6,1.6-33.4,16.4-35,35c-4.9-0.1-8.9,3.8-9,8.7c0,0,0,0.1,0,0.1c0,2.5,2.1,4.7,3.7,6.3c-1.8,0.5-2.8,4.1-0.8,7.1
				c1.1,1.7,2.9,2.8,5,2.9l6.9,7.8h62.5l7.4-7.3c0,0,4.2-0.6,6-3.2C132.8,57.2,132.1,52.7,130.8,52.3z"/>
			<path class="st22" d="M130.7,52.2c3-2.1,3.7-3.8,3.7-6.3c0-4.9-4-8.8-8.8-8.8c0,0,0,0,0,0c-1.8-21.1-20.3-36.8-41.4-35
				c-18.6,1.6-33.4,16.4-35,35c-4.9-0.1-8.9,3.8-9,8.7c0,0,0,0.1,0,0.1c0,8,10.8,8.6,12.9,4.6c2-4,1.4,10.4,1.4,10.4l0.6,9.2h63.4
				c0,0,0.3-14.4,0.3-19.6C118.8,50.2,124.6,56.4,130.7,52.2z"/>
			<path class="st23" d="M53.2,45.3C63.4,44.7,66,32.8,66,32.8"/>
			<path class="st23" d="M53.1,40.7c5.7-0.4,7.2-7,7.2-7"/>
			<path class="st6" d="M75.3,29.4c6.2,3.8,13.2,6.2,20.4,6.7c15.3,1.1,22.5-6.7,22.5-6.7"/>
			<path class="st6" d="M76.1,21.7c4.3,3.9,12.9,7.8,21.6,8.4c2.2,0.2,4.5,0.1,6.7-0.1"/>
			<path class="st6" d="M96.6,3.2c-1.3-0.2-2.5-0.3-3.7-0.4C82.3,2.1,76.2,7.2,72.4,16.1c-2.3,5.3-1.6,9.6-1.6,17.3"/>
		</g>
		<path class="st24" d="M126.2,100c0,3.3-2.7,6-6,6s-6-2.7-6-6s2.7-6,6-6S126.2,96.7,126.2,100"/>
		<path class="st24" d="M191.2,100c0,3.3-2.7,6-6,6s-6-2.7-6-6s2.7-6,6-6S191.2,96.7,191.2,100"/>
		<g transform="translate(80 66)">
			<path class="st16" d="M56.7,0.7c0,9.4-7.5,17.2-17,17.5v13.3c0.1,18,14.8,32.5,32.8,32.4c17.9-0.1,32.3-14.6,32.4-32.4V5.8
				c-2.1,0.6-6.2,5.8-21.2,5.9C72.7,11.8,60.7,6.3,56.7,0.7z"/>
			<g transform="translate(41 16)">
				<circle class="st1" cx="44.2" cy="12" r="4"/>
				<path class="st1" d="M44.2,16c-2.2,0-4-1.8-4-4s1.8-4,4-4c2.1-0.1,3.9,1.5,4,3.6c0,0.1,0,0.2,0,0.4C48.2,14.2,46.4,16,44.2,16z"
					/>
				<circle class="st12" cx="42.2" cy="11" r="1"/>
				<path class="st23" d="M39.3,2.1c1.5-0.7,3.1-0.9,4.7-0.8c1.6,0.3,3.1,1.1,4.5,2.1"/>
			</g>
			<g transform="translate(26 16) rotate(180)">
				<circle class="st1" cx="-34.2" cy="-12" r="4"/>
				<path class="st1" d="M-34.2-16c-2.2,0-4,1.8-4,4s1.8,4,4,4c2.1,0.1,3.9-1.5,4-3.6c0-0.1,0-0.2,0-0.4C-30.2-14.2-32-16-34.2-16z"
					/>
				<circle class="st12" cx="-32.2" cy="-11" r="1"/>
				<path class="st23" d="M-39.1-2.1c1.5,0.7,3.1,0.9,4.7,0.8c1.6-0.3,3.1-1.1,4.5-2.1"/>
			</g>
			<path class="st6" d="M66.9,46.9c1.7,0.9,3.5,1.4,5.4,1.3c1.9,0.1,3.8-0.4,5.4-1.3"/>
			<path class="st6" d="M70.2,36.8c0.6-0.4,1.3-0.6,2-0.5c0.7,0,1.4,0.2,2,0.5"/>
			<path class="st25" d="M70.2,55.8c0.6-0.4,1.3-0.6,2-0.5c0.7,0,1.4,0.2,2,0.5"/>
		</g>
		<g transform="translate(144 137)">
			<g transform="translate(0 11)">
				<path class="st16" d="M56.9,69.9c-2.6-0.2-9.5-0.3-14.2-6.9c-1.9-2.8-2.8-6-2.7-9.4h0V42c3.8,0.6,7.6,0.9,11.5,1
					c2.6,0,5.2-0.1,7.7-0.3c1.1-1.5,2.4-3.4,3.7-5.3c2.6-3.8,8.2-11.8,10.8-14.6c0.6-0.7,1.2-1.4,2-2c1.2-0.9,0.6-4.4,2.9-6.8
					c2.2-2.4,7.2-7,7.2-7l11.3,16.3c0,0-7.5,4.1-8.7,4.6c-1.6,0.6-3.5,0.1-4.6,0.7c-1.2,0.8-2,2-2.6,3.3c-0.8,1.8-3.2,11.4-8.1,20.1
					C67,63.1,59.7,70,57,70C57,69.9,56.9,69.9,56.9,69.9z"/>
				<g transform="translate(55)">
					<path class="st16" d="M50.7,4.6l-6.8,4.2c-0.9,0.6-2.2,0.3-2.8-0.6l0,0c-0.6-0.9-0.3-2.2,0.6-2.8l6.8-4.2
						c0.9-0.6,2.2-0.3,2.8,0.6l0,0C51.9,2.8,51.6,4,50.7,4.6z"/>
					<path class="st16" d="M51.7,8.6l-6.8,4.2c-0.9,0.6-2.2,0.3-2.8-0.6l0,0c-0.6-0.9-0.3-2.2,0.6-2.8l6.8-4.2
						c0.9-0.6,2.2-0.3,2.8,0.6l0,0C52.9,6.8,52.6,8,51.7,8.6z"/>
					<path class="st16" d="M51.7,13.6l-6.8,4.2c-0.9,0.6-2.2,0.3-2.8-0.6l0,0c-0.6-0.9-0.3-2.2,0.6-2.8l6.8-4.2
						c0.9-0.6,2.2-0.3,2.8,0.6l0,0C52.9,11.8,52.6,13,51.7,13.6z"/>
					<path class="st16" d="M51.2,15.6c0.6,0.9,0.3,2.2-0.6,2.8c-0.1,0-0.1,0.1-0.2,0.1l-3.5,1.7c-0.9,0.4-2,0.1-2.5-0.8l0,0
						c-0.6-0.9-0.3-2.2,0.6-2.7c0.1,0,0.1-0.1,0.2-0.1l3.6-1.7C49.6,14.4,50.6,14.8,51.2,15.6L51.2,15.6z"/>
				</g>
			</g>
			<g transform="translate(64) rotate(180)">
				<path class="st26" d="M-22.2,0h-15c-1.1,0-2-0.9-2-2v-31c0-1.1,0.9-2,2-2h15c1.1,0,2,0.9,2,2v31C-20.2-0.9-21.1,0-22.2,0z"/>
				<path class="st1" d="M-29.7-33c-0.8,0-1.5,0.7-1.5,1.5s0.7,1.5,1.5,1.5c0.8,0,1.5-0.7,1.5-1.5S-28.9-33-29.7-33z"/>
				<g transform="translate(0 -5)">
					<rect x="-39.2" y="-23" class="st27" width="19" height="23"/>
					<g>
						<defs>
							<rect id="SVGID_3_" x="-39.2" y="-23" width="19" height="23"/>
						</defs>
						<clipPath id="SVGID_4_">
							<use xlink:href="#SVGID_3_"  style="overflow:visible;"/>
						</clipPath>
						<g class="st28">
							<path class="st12" d="M-32.2,0h11v-14L-32.2,0z"/>
							<path class="st12" d="M-37.2-1h4.1l11.9-15v-5L-37.2-1z"/>
						</g>
					</g>
				</g>
				<rect x="-39.2" y="-28" class="st6" width="19" height="23"/>
			</g>
			<path class="st16" d="M93,18.8c0.8,0.8,0.7,2.1-0.1,2.8l-3.8,3.6c-0.4,0.7-0.5,1.5-0.3,2.2c0.3,1.4,0.7,2.4,0.3,4
				c-0.5,1.8-1.8,3.3-3.5,4.1c-1.3,0.4-2.7,0.4-4.1,0l-2-3.3c-0.3-0.5-0.4-1.1-0.2-1.7l0.6-2l3.1-3.1l0.1-0.1l7.2-6.7
				C91,17.9,92.2,18,93,18.8L93,18.8z"/>
			<path class="st29" d="M83.9,33.7l-0.1,1.1c-0.4,0.1-0.8,0.5-0.7,0.9c0,0.4,0.2,0.9,0.6,1.1l0,0.3l-5,1.3l-2.3-4.7l1.7-3.8l0.2,0
				c0,0.5,0.4,0.9,0.8,1c0.8,0.2,1.1-0.7,1.1-0.7l1.2,0.2L83.9,33.7z"/>
			<path class="st6" d="M54.2,76.3c0.6,0.3,1.3,0.4,2,0.4c0.7,0,1.4-0.3,1.9-0.7"/>
			<path class="st6" d="M56.5,58.2l5.3-8.4L56.5,58.2z"/>
			<path class="st6" d="M54.4,58.5c0.3-0.2,0.6-0.3,1-0.3c0.4,0,0.7,0.1,1,0.3"/>
		</g>
		<g transform="translate(16 144)">
			<g transform="matrix(-0.174, 0.985, -0.985, -0.174, 27.43, 17.087)">
				<path class="st15" d="M-3.8-38.6h1c1.7,0,3,1.3,3,3l0,6c0,1.7-1.3,3-3,3h-1c-1.7,0-3-1.3-3-3l0-6C-6.8-37.3-5.5-38.6-3.8-38.6z"
					/>
				<g>
					<defs>
						<path id="SVGID_5_" d="M-3.8-38.6h1c1.7,0,3,1.3,3,3l0,6c0,1.7-1.3,3-3,3h-1c-1.7,0-3-1.3-3-3l0-6
							C-6.8-37.3-5.5-38.6-3.8-38.6z"/>
					</defs>
					<clipPath id="SVGID_6_">
						<use xlink:href="#SVGID_5_"  style="overflow:visible;"/>
					</clipPath>
					<g class="st30">
						<path class="st31" d="M-6.8-32.1h7l0,0l0,4c0,1.4-1.1,2.5-2.5,2.5h-2c-1.4,0-2.5-1.1-2.5-2.5V-32.1L-6.8-32.1z"/>
					</g>
				</g>
				<path class="st12" d="M-4.5-31.6h-1.2v-4c0-1.7,1.3-3,3-3h1.1c-1.6,0-2.9,1.4-2.9,3V-31.6z"/>
				<path class="st32" d="M-4.5-33.1h-1.2v3.5c0,1.7,1.3,3,3,3h1.1c-1.6,0-2.9-1.4-2.9-3V-33.1L-4.5-33.1z"/>
				<g>
					<defs>
						<path id="SVGID_7_" d="M-4.5-33.1h-1.2v3.5c0,1.7,1.3,3,3,3h1.1c-1.6,0-2.9-1.4-2.9-3V-33.1L-4.5-33.1z"/>
					</defs>
					<clipPath id="SVGID_8_">
						<use xlink:href="#SVGID_7_"  style="overflow:visible;"/>
					</clipPath>
					<g class="st33">
						<path class="st6" d="M-6.8-32.1h7l0,0l0,4c0,1.4-1.1,2.5-2.5,2.5h-2c-1.4,0-2.5-1.1-2.5-2.5V-32.1L-6.8-32.1z"/>
					</g>
				</g>
				<path class="st6" d="M-3.8-38.6h1c1.7,0,3,1.3,3,3l0,6c0,1.7-1.3,3-3,3h-1c-1.7,0-3-1.3-3-3l0-6C-6.8-37.3-5.5-38.6-3.8-38.6z"
					/>
			</g>
			<g transform="translate(2.636 14.879) rotate(-45)">
				<path class="st15" d="M30.7,27.7L30.7,27.7c1.7,0,3,1.3,3,3v6c0,1.7-1.3,3-3,3l0,0c-1.7,0-3-1.3-3-3v-6
					C27.7,29.1,29.1,27.7,30.7,27.7z"/>
				<g>
					<defs>
						<path id="SVGID_9_" d="M30.7,27.7L30.7,27.7c1.7,0,3,1.3,3,3v6c0,1.7-1.3,3-3,3l0,0c-1.7,0-3-1.3-3-3v-6
							C27.7,29.1,29.1,27.7,30.7,27.7z"/>
					</defs>
					<clipPath id="SVGID_10_">
						<use xlink:href="#SVGID_9_"  style="overflow:visible;"/>
					</clipPath>
					<g class="st34">
						<path class="st31" d="M27.7,34.3h6l0,0v4c0,1.4-1.1,2.5-2.5,2.5h-1c-1.4,0-2.5-1.1-2.5-2.5V34.3L27.7,34.3z"/>
					</g>
				</g>
				<path class="st12" d="M29.7,34.7h-1v-4c0-1.7,1.3-3,3-3c0.2,0,0.3,0,0.5,0c-1.4,0.2-2.5,1.5-2.5,3V34.7z"/>
				<path class="st32" d="M29.7,33.3h-1v3.5c0,1.7,1.3,3,3,3c0.2,0,0.3,0,0.5,0c-1.4-0.2-2.5-1.5-2.5-3V33.3L29.7,33.3z"/>
				<g>
					<defs>
						<path id="SVGID_11_" d="M29.7,33.3h-1v3.5c0,1.7,1.3,3,3,3c0.2,0,0.3,0,0.5,0c-1.4-0.2-2.5-1.5-2.5-3V33.3L29.7,33.3z"/>
					</defs>
					<clipPath id="SVGID_12_">
						<use xlink:href="#SVGID_11_"  style="overflow:visible;"/>
					</clipPath>
					<g class="st35">
						<path class="st6" d="M27.7,34.3h6l0,0v4c0,1.4-1.1,2.5-2.5,2.5h-1c-1.4,0-2.5-1.1-2.5-2.5V34.3L27.7,34.3z"/>
					</g>
				</g>
				<path class="st6" d="M30.7,27.7L30.7,27.7c1.7,0,3,1.3,3,3v6c0,1.7-1.3,3-3,3l0,0c-1.7,0-3-1.3-3-3v-6
					C27.7,29.1,29.1,27.7,30.7,27.7z"/>
			</g>
			<g transform="matrix(-0.105, 0.995, -0.995, -0.105, 21.281, 8.644)">
				<path class="st15" d="M-1.1-39L-1.1-39c1.7,0,3,1.3,3,3v6c0,1.7-1.3,3-3,3l0,0c-1.7,0-3-1.3-3-3v-6C-4.1-37.6-2.8-39-1.1-39z"/>
				<g>
					<defs>
						<path id="SVGID_13_" d="M-1.1-39L-1.1-39c1.7,0,3,1.3,3,3v6c0,1.7-1.3,3-3,3l0,0c-1.7,0-3-1.3-3-3v-6C-4.1-37.6-2.8-39-1.1-39
							z"/>
					</defs>
					<clipPath id="SVGID_14_">
						<use xlink:href="#SVGID_13_"  style="overflow:visible;"/>
					</clipPath>
					<g class="st36">
						<path class="st31" d="M-4.1-32.4h6l0,0v4c0,1.4-1.1,2.5-2.5,2.5h-1c-1.4,0-2.5-1.1-2.5-2.5V-32.4L-4.1-32.4z"/>
					</g>
				</g>
				<path class="st12" d="M-2.1-32h-1v-4c0-1.7,1.3-3,3-3c0.2,0,0.3,0,0.5,0c-1.4,0.2-2.5,1.5-2.5,3V-32z"/>
				<path d="M-2.1-33.4h-1v3.5c0,1.7,1.3,3,3,3c0.2,0,0.3,0,0.5,0c-1.4-0.2-2.5-1.5-2.5-3V-33.4L-2.1-33.4z"/>
				<g>
					<defs>
						<path id="SVGID_15_" d="M-2.1-33.4h-1v3.5c0,1.7,1.3,3,3,3c0.2,0,0.3,0,0.5,0c-1.4-0.2-2.5-1.5-2.5-3V-33.4L-2.1-33.4z"/>
					</defs>
					<clipPath id="SVGID_16_">
						<use xlink:href="#SVGID_15_"  style="overflow:visible;"/>
					</clipPath>
					<g class="st37">
						<path class="st6" d="M-4.1-32.4h6l0,0v4c0,1.4-1.1,2.5-2.5,2.5h-1c-1.4,0-2.5-1.1-2.5-2.5V-32.4L-4.1-32.4z"/>
					</g>
				</g>
				<path class="st6" d="M-1.1-39L-1.1-39c1.7,0,3,1.3,3,3v6c0,1.7-1.3,3-3,3l0,0c-1.7,0-3-1.3-3-3v-6C-4.1-37.6-2.8-39-1.1-39z"/>
			</g>
		</g>
		<g transform="translate(81 158) rotate(180)">
			<path class="st16" d="M-21.5-59.9c-2.6,0.2-9.5,0.3-14.2,6.9c-1.9,2.8-2.8,6-2.7,9.4l0,0V-32c3.8-0.6,7.6-0.9,11.5-1
				c2.6,0,5.2,0.1,7.7,0.3c1.1,1.5,2.4,3.4,3.7,5.3c2.6,3.8,8.2,11.8,10.8,14.6c1.7,2.4,4.5,3.8,7.5,3.7c4.3-0.2,8.7-0.1,13,0.3
				c3.8,0.6,6.6,11.4,10.1,7.2c1.7-2.1-3.6-12.1-3.9-12.7C20.5-17,7.6-18.2,7.6-18.2s-3.5-1-4.7-3.6c-0.8-1.8-3.2-11.4-8.1-20.1
				c-6.3-11.2-13.6-18-16.3-18C-21.5-59.9-21.5-59.9-21.5-59.9z"/>
			<path class="st6" d="M-24.2-55.3c0.6-0.3,1.3-0.4,2-0.4c0.7,0,1.4,0.3,1.9,0.7"/>
			<path class="st6" d="M-22-37.2l5.3,8.4L-22-37.2z"/>
			<path class="st6" d="M-24.1-37.5c0.3,0.2,0.6,0.3,1,0.3c0.4,0,0.7-0.1,1-0.3"/>
		</g>
	</g>
</g>
<rect y="71.7" class="st0" width="270" height="100"/>
</svg>
