<svg xmlns="http://www.w3.org/2000/svg" xmlns:xlink="http://www.w3.org/1999/xlink" viewBox="0 0 270 242"><defs><style>.cls-1,.cls-12,.cls-29,.cls-34,.cls-35,.cls-6,.cls-7{fill:none;}.cls-2,.cls-30{fill:#504b46;}.cls-10,.cls-25,.cls-3{fill:#9d6655;}.cls-12,.cls-22,.cls-23,.cls-26,.cls-28,.cls-3,.cls-30,.cls-31,.cls-34,.cls-35,.cls-36,.cls-37,.cls-38,.cls-39,.cls-6,.cls-7,.cls-8{stroke:#504b46;}.cls-12,.cls-22,.cls-23,.cls-24,.cls-25,.cls-26,.cls-29,.cls-3,.cls-30,.cls-31,.cls-35,.cls-36,.cls-37,.cls-6,.cls-8{stroke-linejoin:round;}.cls-12,.cls-22,.cls-23,.cls-24,.cls-25,.cls-26,.cls-28,.cls-29,.cls-3,.cls-30,.cls-31,.cls-36,.cls-37,.cls-38,.cls-39,.cls-6,.cls-7,.cls-8{stroke-width:2px;}.cls-4{fill:#edf2f4;}.cls-21,.cls-26,.cls-27,.cls-5{fill:#fff;}.cls-5{opacity:0.5;}.cls-21,.cls-5{isolation:isolate;}.cls-22,.cls-24,.cls-26,.cls-29,.cls-30,.cls-31,.cls-34,.cls-35,.cls-36,.cls-37,.cls-6,.cls-7,.cls-8{stroke-linecap:round;}.cls-28,.cls-34,.cls-38,.cls-7{stroke-miterlimit:10;}.cls-13,.cls-24,.cls-8{fill:#fddfd1;}.cls-28,.cls-9{fill:#fccab4;}.cls-11{fill:#a76f5e;}.cls-14,.cls-22{fill:#f29166;}.cls-15,.cls-37{fill:#b4e0fc;}.cls-16,.cls-31,.cls-38,.cls-39{fill:#83cfff;}.cls-17{fill:#a74f28;}.cls-18{fill:#744b3e;}.cls-19{fill:#ffd070;}.cls-20{fill:#f2977c;}.cls-21{opacity:0.2;}.cls-23{fill:#885849;}.cls-24,.cls-25{stroke:#414042;}.cls-29{stroke:#fcc2b4;}.cls-32{clip-path:url(#clip-path);}.cls-33{clip-path:url(#clip-path-2);}.cls-36{fill:#ffba57;}</style><clipPath id="clip-path"><path class="cls-1" d="M152,212.22a16.53,16.53,0,0,1-23.37,1.05l-.24-.22c-6.75-6.31-11.57-15.39-2.45-25.2s18.49-5.61,25.23.7a16.64,16.64,0,0,1,1,23.53A.86.86,0,0,1,152,212.22Z"/></clipPath><clipPath id="clip-path-2"><path class="cls-1" d="M127.6,189.37a16.54,16.54,0,0,1-23.37,1.06l-.25-.23c-6.74-6.31-11.56-15.39-2.45-25.2s18.5-5.61,25.24.7a16.66,16.66,0,0,1,1,23.53Z"/></clipPath></defs><title>Asset 3</title><g id="Layer_2" data-name="Layer 2"><g id="Layer_1-2" data-name="Layer 1"><rect class="cls-1" y="109.84" width="270" height="100"/><g id="кого_ищем" data-name="кого ищем"><g id="Stroke_55" data-name="Stroke 55"><path class="cls-1" d="M260.66,65.44H234.61L213.35,84.76V65.44H196a7.73,7.73,0,0,1-7.73-7.73h0v-50A7.73,7.73,0,0,1,196,0h64.7a7.73,7.73,0,0,1,7.73,7.73v50a7.73,7.73,0,0,1-7.73,7.73Z"/><path class="cls-2" d="M215.35,80.24,233.26,64a2,2,0,0,1,1.35-.52h26.05a5.74,5.74,0,0,0,5.73-5.73v-50A5.74,5.74,0,0,0,260.66,2H196a5.74,5.74,0,0,0-5.73,5.73v50A5.74,5.74,0,0,0,196,63.44h17.39a2,2,0,0,1,2,2v14.8m-2,4.52V65.44H196a7.73,7.73,0,0,1-7.73-7.73v-50A7.73,7.73,0,0,1,196,0h64.7a7.73,7.73,0,0,1,7.73,7.73v50a7.73,7.73,0,0,1-7.73,7.73H234.61Z"/></g><g id="Doctor"><path id="Stroke_57_Copy" data-name="Stroke 57 Copy" class="cls-3" d="M246,18.67c-.41-4.85-5.43-8.67-10.36-8.67s-10,3.82-10.33,8.67c-.57,4.76-.16,19.62-.2,19.39h20.3C245.33,38.29,246,24.34,246,18.67Z"/><g id="одежда"><path id="Fill_13" data-name="Fill 13" class="cls-4" d="M248.56,44.5a10,10,0,0,0-10-10h-6a10,10,0,0,0-10,10h0V54a50,50,0,0,0,13,2,49.91,49.91,0,0,0,13-2Z"/><path id="Fill_15" data-name="Fill 15" class="cls-5" d="M248.56,45.5a10,10,0,0,0-10-10h-6a10,10,0,0,0-10,10h0v4a10,10,0,0,1,10-10h6a10,10,0,0,1,10,10h0Z"/><path id="Stroke_17" data-name="Stroke 17" class="cls-6" d="M238.59,35.5h-6c-5.51,0-11,4.48-11,10V54a56.77,56.77,0,0,0,13.9,2,58.79,58.79,0,0,0,14-2V45.5C249.56,40,244.1,35.5,238.59,35.5Z"/><g id="Group_25" data-name="Group 25"><path id="Path_5" data-name="Path 5" class="cls-7" d="M243.71,47.16v7.27"/><path id="Path_5_Copy" data-name="Path 5 Copy" class="cls-7" d="M243.71,43.16v1.27"/></g></g><g id="шея"><path id="Fill_35" data-name="Fill 35" class="cls-6" d="M238.59,37.5a9.22,9.22,0,0,1-6,0V31h6Z"/><path id="Fill_35_Copy_17" data-name="Fill 35 Copy 17" class="cls-8" d="M238.59,37.5a9.22,9.22,0,0,1-6,0V31h6Z"/><path id="Fill_37" data-name="Fill 37" class="cls-9" d="M233.6,34.39a5.9,5.9,0,0,0,2,.38,6.23,6.23,0,0,0,2-.38V31h-4Z"/></g><g id="голова"><path id="Stroke_57_Copy_22" data-name="Stroke 57 Copy 22" class="cls-10" d="M246,18.67c-.41-4.85-5.44-8.67-10.36-8.67s-10,3.82-10.33,8.67c-.57,4.76,2.83,9.62,2.78,9.39h14.33A14.15,14.15,0,0,0,246,18.67Z"/><path id="Fill_55" data-name="Fill 55" class="cls-11" d="M235.6,13.5a13,13,0,0,1,8.94,3.17,9.33,9.33,0,0,0-17.89,0,13,13,0,0,1,8.95-3.17"/><path id="Stroke_57" data-name="Stroke 57" class="cls-12" d="M246,18.67c-.41-4.85-5.44-8.67-10.36-8.67s-10,3.82-10.33,8.67c-.57,4.76,2.83,9.62,2.78,9.39h14.33A14.15,14.15,0,0,0,246,18.67Z"/><path id="Fill_59" data-name="Fill 59" class="cls-13" d="M240.05,21.75a10.12,10.12,0,0,1-8.28-4.32,4.32,4.32,0,0,1-4.15,4.3V25a8,8,0,1,0,15.95,0h0V21.16a13.57,13.57,0,0,1-3.52.58"/><path id="Stroke_61" data-name="Stroke 61" class="cls-6" d="M240.05,21.75a10.12,10.12,0,0,1-8.28-4.32,4.32,4.32,0,0,1-4.15,4.3V25a8,8,0,1,0,15.95,0h0V21.16a13.57,13.57,0,0,1-3.52.58Z"/></g><g id="Group_50" data-name="Group 50"><g id="Path-2"><path class="cls-14" d="M207.27,43.82H229a.82.82,0,0,1,.82.82h0a.81.81,0,0,1-.82.82h-21.7a.82.82,0,0,1-.82-.82h0A.82.82,0,0,1,207.27,43.82Z"/><path class="cls-6" d="M207.27,42.82H229a1.82,1.82,0,0,1,1.82,1.82h0A1.81,1.81,0,0,1,229,46.46h-21.7a1.82,1.82,0,0,1-1.82-1.82h0A1.83,1.83,0,0,1,207.27,42.82Z"/></g><g id="foot_copy" data-name="foot copy"><g id="Rectangle_16" data-name="Rectangle 16"><path class="cls-15" d="M210.68,52a1.14,1.14,0,0,1-.11-.11l-2.42-2.51a11.43,11.43,0,0,1-2.9-8,11.44,11.44,0,0,1,3.06-7.95l.72-.72.71.74,16.54,17.2.68.71-.69.69a10.93,10.93,0,0,1-7.8,2.91A11.06,11.06,0,0,1,210.68,52Z"/><path class="cls-2" d="M209,34.09c-3.63,3.63-3.7,10.85-.15,14.55l2.42,2.52a.94.94,0,0,1,.1.1c3.52,3.52,10.65,3.55,14.17,0L209,34.09m1.41-1.41,0,0L227,49.91a2,2,0,0,1,0,2.8,11.92,11.92,0,0,1-8.51,3.2A12,12,0,0,1,210,52.67a.8.8,0,0,1-.13-.13L207.43,50a12.44,12.44,0,0,1-3.18-8.71,12.38,12.38,0,0,1,3.35-8.64,2,2,0,0,1,2.83,0Z"/></g><g id="Rectangle_16_Copy" data-name="Rectangle 16 Copy"><path class="cls-16" d="M224.05,53.89l-.71-.75-16.21-17.2-.67-.71.69-.68,1.16-1.17.73-.72.7.75L226,50.61l.67.71-.69.68-1.16,1.16Z"/><path class="cls-2" d="M209,34.09l-1.17,1.16,16.22,17.21,1.16-1.17L209,34.09m1.41-1.41,0,0,16.22,17.2a2,2,0,0,1,0,2.79l-1.17,1.16a2,2,0,0,1-1.44.59,2,2,0,0,1-1.38-.59l0,0L206.4,36.63a2,2,0,0,1,0-2.79l1.16-1.16a2,2,0,0,1,2.83,0Z"/></g></g><g id="foot"><g id="Rectangle_16-2" data-name="Rectangle 16-2"><path class="cls-15" d="M206.78,46.79h24.33A10.19,10.19,0,0,1,220.92,57H217a10.19,10.19,0,0,1-10.19-10.19Z"/><path class="cls-6" d="M206.46,45.79h25a.67.67,0,0,1,.68.68h0A11.51,11.51,0,0,1,220.59,58h-3.3a11.51,11.51,0,0,1-11.51-11.51h0A.67.67,0,0,1,206.46,45.79Z"/></g><g id="Rectangle_16_Copy-2" data-name="Rectangle 16 Copy-2"><rect class="cls-16" x="206.78" y="46.79" width="24.33" height="1.64"/><rect class="cls-6" x="205.78" y="45.79" width="26.33" height="3.64"/></g></g><g id="Fill_63" data-name="Fill 63"><path class="cls-17" d="M219.44,51.89a1,1,0,1,1,1-1A1,1,0,0,1,219.44,51.89Z"/><path class="cls-2" d="M219.44,51.39a.49.49,0,1,0,0-1,.49.49,0,1,0,0,1m0,1a1.49,1.49,0,1,1,1.49-1.49A1.5,1.5,0,0,1,219.44,52.39Z"/></g></g></g></g><path id="Fill_5" data-name="Fill 5" class="cls-18" d="M101.47,106.94a10,10,0,1,1,10-10h0A10,10,0,0,1,101.47,106.94Z"/><path id="Fill_5_Copy_2" data-name="Fill 5 Copy 2" class="cls-18" d="M180.25,95.47A9.48,9.48,0,1,1,170.77,86h0a9.47,9.47,0,0,1,9.47,9.47"/><g id="hand_var_copy_4" data-name="hand var copy 4"><path id="Fill_35_Copy_12" data-name="Fill 35 Copy 12" class="cls-8" d="M103.66,220.41s-4.86-2.14-9.13-4.2-5.28,1.65-5.28,1.65-3.82-3.65-4.85-21.73,0-18.13,0-18.13h20.26Z"/><path id="Fill_37-2" data-name="Fill 37-2" class="cls-9" d="M103.46,195.48c-.24.09-.47.18-.73.26a32,32,0,0,1-17.79,0l-.73-.26V187h19.25Z"/><path id="Fill_35_Copy_15" data-name="Fill 35 Copy 15" class="cls-6" d="M103.66,220.41s-4.86-2.14-9.13-4.2-6.71,0-6.71,0-2.39-2-3.42-20.08,0-18.13,0-18.13h20.26Z"/></g><g id="body"><g id="Group_7" data-name="Group 7"><path id="Fill_13_Copy_2" data-name="Fill 13 Copy 2" class="cls-19" d="M188.42,178.84a40.72,40.72,0,0,0-40.67-40.78h-24.4a40.73,40.73,0,0,0-40.67,40.78h0v10.59h19.44l-.14,42s17.58,6,33.79,6,32.41-6,32.41-6l-.25-42h20.49Z"/><path id="Path-3" class="cls-6" d="M188.42,178.84a40.72,40.72,0,0,0-40.67-40.78h-24.4a40.73,40.73,0,0,0-40.67,40.78h0v10.59H103v42s17.14,6,32.8,6,31.29-6,31.29-6v-42h21.36Z"/></g><g id="Group_12" data-name="Group 12"><path id="Rectangle_7" data-name="Rectangle 7" class="cls-20" d="M102.46,211.7h65.82s5.13,4.59,8.74,8.59,6.22,7,6.22,7S161.38,241,135.54,241s-48-13.67-48-13.67S90.24,224.17,94,220Q98,215.65,102.46,211.7Z"/><path id="Combined_Shape" data-name="Combined Shape" class="cls-21" d="M145.17,213.46H125a40.31,40.31,0,0,0-31.9,16.64c-2.35-1.18-4-2.14-4.92-2.67.15-.62.31-1.24.5-1.85,1.15-1.35,3-3.53,5.26-6.07q4-4.47,8.48-8.51h65.82s5.13,4.7,8.74,8.8c1.64,1.87,3.08,3.52,4.15,4.78a28.12,28.12,0,0,1,.89,3.14c-1,.59-2.66,1.51-4.82,2.6A40.3,40.3,0,0,0,145.17,213.46Z"/><path id="Rectangle_7_Copy" data-name="Rectangle 7 Copy" class="cls-6" d="M102.46,211.7h65.82s5.13,4.59,8.74,8.59,6.22,7,6.22,7S161.38,241,135.54,241s-48-13.67-48-13.67S90.24,224.17,94,220Q98,215.65,102.46,211.7Z"/></g><g id="Group_3" data-name="Group 3"><path id="Rectangle_3" data-name="Rectangle 3" class="cls-22" d="M79.7,184a85,85,0,0,0,11.82,1A76,76,0,0,0,103,184v8a80.42,80.42,0,0,1-11.69,1,77.62,77.62,0,0,1-11.6-1Z"/><path id="Fill_63-2" data-name="Fill 63-2" class="cls-2" d="M85.51,188a2,2,0,1,1-2-2,2,2,0,0,1,2,2"/></g><g id="Group_3_Copy" data-name="Group 3 Copy"><path id="Rectangle_3-2" data-name="Rectangle 3-2" class="cls-22" d="M191.36,184a77.65,77.65,0,0,1-11.89,1,88.56,88.56,0,0,1-12.38-1v8a85.05,85.05,0,0,0,12.13,1,85.07,85.07,0,0,0,12.14-1Z"/><path id="Fill_63-3" data-name="Fill 63-3" class="cls-2" d="M185.23,188a2,2,0,1,0,2-2,2,2,0,0,0-2,2"/></g><path id="Fill_19" data-name="Fill 19" class="cls-4" d="M167.07,198.43V184.16"/><path id="Stroke_21" data-name="Stroke 21" class="cls-6" d="M167.07,203.43V179.16"/><path id="Fill_23" data-name="Fill 23" class="cls-4" d="M167.07,178v-2"/><path id="Stroke_25" data-name="Stroke 25" class="cls-6" d="M167.07,173v-2"/><path id="Fill_39" data-name="Fill 39" class="cls-4" d="M103,198.43V184.16"/><path id="Stroke_41" data-name="Stroke 41" class="cls-6" d="M103,203.43V179.16"/><path id="Fill_43" data-name="Fill 43" class="cls-4" d="M103,175v-2"/><path id="Stroke_45" data-name="Stroke 45" class="cls-6" d="M103,173v-2"/></g><path id="Stroke_57_Copy_3" data-name="Stroke 57 Copy 3" class="cls-23" d="M174.27,108.75c0,6.4-22.75,18.25-40.29,18.25s-37.11-12-38.42-18.25c-1.07-6,4.27-10.56,4.27-10.56H169S174.27,102.35,174.27,108.75Z"/><g id="neck"><g id="Fill_35_Copy" data-name="Fill 35 Copy"><path class="cls-14" d="M135.17,167a18.18,18.18,0,0,1-9.78-2.54,15.61,15.61,0,0,1-5.36-5.79,22.59,22.59,0,0,1-2.6-10v-.36c0-2.05-.15-8.29,4.21-12.73,3-3,7.47-4.6,13.3-4.6s10.49,1.57,13.57,4.67A15,15,0,0,1,152.4,143a23,23,0,0,1,.51,5.37v.23a22.36,22.36,0,0,1-2.6,10.07,15.43,15.43,0,0,1-5.36,5.76A18.26,18.26,0,0,1,135.17,167Z"/><path class="cls-2" d="M135.17,166c15.72,0,16.74-14.92,16.74-17.35s.62-16.63-17-16.63-16.51,14.47-16.51,16.69,1,17.29,16.74,17.29m0,2c-9.22,0-13.8-4.81-16-8.85a23.65,23.65,0,0,1-2.72-10.44v-.34c0-2.15-.16-8.71,4.5-13.45,3.19-3.25,7.9-4.9,14-4.9s11,1.67,14.28,5a15.82,15.82,0,0,1,4.15,7.84,23.71,23.71,0,0,1,.54,5.59v.23a23.39,23.39,0,0,1-2.72,10.55,16.39,16.39,0,0,1-5.71,6.13A19.25,19.25,0,0,1,135.17,168Z"/></g><path id="Fill_35-2" data-name="Fill 35-2" class="cls-24" d="M147.26,150.08s0,9.51-12,9.51-12-9.51-12-9.51V119.72h23.93Z"/><path id="Fill_37-3" data-name="Fill 37-3" class="cls-9" d="M124.4,137.56c.28.14.54.3.83.42a26,26,0,0,0,20.28,0c.3-.12.55-.28.83-.42V123.72H124.4Z"/></g><path id="Stroke_57_Copy_19" data-name="Stroke 57 Copy 19" class="cls-25" d="M134.28,24.27c-23.61.84-19.89,22.56-19.89,22.56a195.57,195.57,0,0,0,20.39,1.09,171,171,0,0,0,19.6-1.09S157.9,23.42,134.28,24.27Z"/><g id="Stroke_57_Copy_21" data-name="Stroke 57 Copy 21"><path class="cls-20" d="M134.78,49c-11,0-20.37-.67-20.46-.68l-.7,0-.19-.68A10.52,10.52,0,0,1,115.27,39a14.35,14.35,0,0,1,6.37-4.59,36.56,36.56,0,0,1,12.62-2.15l1.26,0A32.73,32.73,0,0,1,147.05,34a14.1,14.1,0,0,1,6.13,4.28,11.54,11.54,0,0,1,2.18,9.26l-.17.71-.72.06C154.38,48.32,145.8,49,134.78,49Z"/><path class="cls-2" d="M135.52,33.24l-1.24,0c-23.61.52-19.89,14.06-19.89,14.06s9.29.68,20.39.68,19.61-.68,19.61-.68,3.39-14.08-18.87-14.08m0-2v0c8.88,0,15.09,2.17,18.45,6.43a12.59,12.59,0,0,1,2.37,10.12L156,49.2l-1.44.11c-.09,0-8.71.69-19.77.69s-20.44-.68-20.53-.68l-1.41-.11-.38-1.36a11.62,11.62,0,0,1,2-9.45c3.37-4.52,10-6.93,19.77-7.14Z"/></g><path id="Fill_63_Copy_18" data-name="Fill 63 Copy 18" class="cls-26" d="M116.43,42.49a2.5,2.5,0,1,1-2.5-2.49h0a2.5,2.5,0,0,1,2.5,2.49"/><path id="Fill_63_Copy_17" data-name="Fill 63 Copy 17" class="cls-26" d="M157.31,40.49A2.49,2.49,0,1,1,154.82,38h0a2.49,2.49,0,0,1,2.49,2.49"/><g id="волосы_1_пл" data-name="волосы 1 пл"><path id="Stroke_57_Copy_7" data-name="Stroke 57 Copy 7" class="cls-3" d="M174.73,103.82a46.27,46.27,0,0,1-3.9,3.64S187,104.66,187,91c0-11.09-7.55-15.38-12.23-17.75L174.61,72a38.35,38.35,0,0,0-38.06-33.95c-20.1,0-39.53,15.49-41,35.14-7,0-14.54,12-7.94,24.75,5.2,10,16.2,10.16,16.2,10.16s-3.61-1.57-4.14-1.94c-3.39-2.37-5.47-6.13-5.47-9.18,0-11,9-10.46,9-10.87V97l.56,9.18h63.81s.3-14.43.3-19.59C167.88,86.31,180.08,95.54,174.73,103.82Z"/><path id="Stroke_57_Copy_5" data-name="Stroke 57 Copy 5" class="cls-12" d="M174.73,103.82a46.27,46.27,0,0,1-3.9,3.64S187,104.66,187,91c0-11.09-7.55-15.38-12.23-17.75L174.61,72a38.35,38.35,0,0,0-38.06-33.95c-20.1,0-39.53,15.49-41,35.14-7,0-14.54,12-7.94,24.75,5.2,10,16.2,10.16,16.2,10.16s-3.61-1.57-4.14-1.94c-3.39-2.37-5.47-6.13-5.47-9.18,0-11,9-10.46,9-10.87V97l.56,9.18h63.81s.3-14.43.3-19.59C167.88,86.31,180.08,95.54,174.73,103.82Z"/><path id="Path_2_Copy" data-name="Path 2 Copy" class="cls-7" d="M96.29,73.19l.34,0c12.8-.64,16-7.75,16-7.75"/><path id="Path_2_Copy_2" data-name="Path 2 Copy 2" class="cls-7" d="M97.42,68l.17,0c6.85-.88,8.31-3,8.31-3"/><path id="Stroke_61_Copy_2" data-name="Stroke 61 Copy 2" class="cls-6" d="M124.51,65.4a45.39,45.39,0,0,0,20.39,6.73c7.56.55,15-.54,20.54-.46a30.41,30.41,0,0,1,9.86,1.83"/><path id="Stroke_61_Copy_3" data-name="Stroke 61 Copy 3" class="cls-6" d="M125.3,57.69c4.32,4,12.82,7.8,21.59,8.44a38.55,38.55,0,0,0,6.71-.08"/><path id="Stroke_61_Copy_4" data-name="Stroke 61 Copy 4" class="cls-6" d="M145.68,39.19a37,37,0,0,0-3.68-.41c-10.55-.66-16.57,4.41-20.37,13.31-2.26,5.31-1.58,9.58-1.58,17.29"/></g><g id="лицо"><path id="Fill_63-4" data-name="Fill 63-4" class="cls-27" d="M105.46,108a2,2,0,1,1-2-2,2,2,0,0,1,2,2"/><path id="Fill_5_Copy" data-name="Fill 5 Copy" class="cls-28" d="M174.27,102a6,6,0,1,1-6-6,6,6,0,0,1,6,6"/><path id="Fill_5_Copy_3" data-name="Fill 5 Copy 3" class="cls-28" d="M109.45,102a6,6,0,1,1-6-6,6,6,0,0,1,6,6"/><path id="Fill_63-5" data-name="Fill 63-5" class="cls-26" d="M170.28,109.49a2.5,2.5,0,1,1-2.5-2.49h0a2.5,2.5,0,0,1,2.5,2.49"/><path id="Fill_63_Copy_2" data-name="Fill 63 Copy 2" class="cls-26" d="M105.46,109.49A2.5,2.5,0,1,1,103,107h0a2.5,2.5,0,0,1,2.5,2.49"/><path id="Stroke_61_Copy_5" data-name="Stroke 61 Copy 5" class="cls-8" d="M119.94,68.67a17.52,17.52,0,0,1-17,17.47V99.41a32.54,32.54,0,1,0,65.08,0V86.65s-6.16-7-21.15-6.93C135.84,79.75,123.87,74.26,119.94,68.67Z"/><path id="Stroke_61_Copy_6" data-name="Stroke 61 Copy 6" class="cls-6" d="M119.94,68.67a17.52,17.52,0,0,1-17,17.47V99.41a32.54,32.54,0,1,0,65.08,0V86.65s-6.16-7-21.15-6.93C135.84,79.75,123.87,74.26,119.94,68.67Z"/><g id="Group_23" data-name="Group 23"><path id="Fill_63_Copy_2-2" data-name="Fill 63 Copy 2-2" class="cls-9" d="M116.43,107a1,1,0,1,1,1-1A1,1,0,0,1,116.43,107Z"/><path id="Fill_63_Copy_9" data-name="Fill 63 Copy 9" class="cls-9" d="M113.44,103a1,1,0,1,1,1-1A1,1,0,0,1,113.44,103Z"/><path id="Fill_63_Copy_3" data-name="Fill 63 Copy 3" class="cls-9" d="M121.42,105a1,1,0,0,1,0-2,1,1,0,0,1,0,2Z"/></g><g id="Group_23_Copy" data-name="Group 23 Copy"><path id="Fill_63_Copy_2-3" data-name="Fill 63 Copy 2-3" class="cls-9" d="M154.32,107a1,1,0,1,0-1-1A1,1,0,0,0,154.32,107Z"/><path id="Fill_63_Copy_10" data-name="Fill 63 Copy 10" class="cls-9" d="M157.32,103a1,1,0,1,0-1-1A1,1,0,0,0,157.32,103Z"/><path id="Fill_63_Copy_3-2" data-name="Fill 63 Copy 3-2" class="cls-9" d="M149.34,105a1,1,0,1,0-1-1A1,1,0,0,0,149.34,105Z"/></g><g id="Group_Copy" data-name="Group Copy"><circle id="Oval_2" data-name="Oval 2" class="cls-2" cx="148.34" cy="95.99" r="3.99"/><path id="Oval_2-2" data-name="Oval 2-2" class="cls-2" d="M148.34,100a4,4,0,0,1-4-4h0a4,4,0,0,1,4-4H154c1.19,0-1.63.52-1.63,4A4,4,0,0,1,148.34,100Z"/><path id="Oval_2_Copy" data-name="Oval 2 Copy" class="cls-2" d="M150.11,99a4,4,0,1,1-3.37-7.25l5.1-2.38c1.07-.5-1.26,1.17.2,4.32A4,4,0,0,1,150.11,99Z"/><circle id="Oval_4" data-name="Oval 4" class="cls-27" cx="146.34" cy="95" r="1"/><path id="Path_2" data-name="Path 2" class="cls-7" d="M152.76,85.93a9.74,9.74,0,0,1-4.67.82,10.73,10.73,0,0,1-4.44-2.11"/></g><g id="Group_Copy_5" data-name="Group Copy 5"><circle id="Oval_2-3" data-name="Oval 2-3" class="cls-2" cx="123.41" cy="95.99" r="3.99"/><path id="Oval_2-4" data-name="Oval 2-4" class="cls-2" d="M123.41,100a4,4,0,0,0,0-8h-5.62c-1.2,0,1.63.53,1.63,4a4,4,0,0,0,4,4Z"/><path id="Oval_2_Copy-2" data-name="Oval 2 Copy-2" class="cls-2" d="M121.63,99A4,4,0,1,0,125,91.78l-5.1-2.38c-1.08-.5,1.26,1.17-.21,4.32A4,4,0,0,0,121.63,99Z"/><circle id="Oval_4-2" data-name="Oval 4-2" class="cls-27" cx="121.41" cy="95" r="1"/><path id="Path_2-2" data-name="Path 2-2" class="cls-7" d="M119,85.93a9.72,9.72,0,0,0,4.67.81,10.72,10.72,0,0,0,4.44-2.1"/></g><path id="Stroke_67" data-name="Stroke 67" class="cls-6" d="M130.12,116.22a11.91,11.91,0,0,1,10.82,0"/><path id="Stroke_67_Copy" data-name="Stroke 67 Copy" class="cls-6" d="M133.38,104.78a4,4,0,0,1,4,0"/><path id="Stroke_67_Copy_4" data-name="Stroke 67 Copy 4" class="cls-29" d="M133.38,112.78c.25-.52.69-1,2-1a2.2,2.2,0,0,1,2,1,15,15,0,0,0-2-.26A14.85,14.85,0,0,0,133.38,112.78Z"/><path id="Stroke_67_Copy_5" data-name="Stroke 67 Copy 5" class="cls-29" d="M133.38,117.75c.25.51.69,1,2,1a2.2,2.2,0,0,0,2-1,4.74,4.74,0,0,0-4,0Z"/></g><g id="hand_1_copy_2" data-name="hand 1 copy 2"><path id="Combined_Shape-2" data-name="Combined Shape-2" class="cls-8" d="M185.21,220c-2.62-.2-9.48-.3-14.17-6.9a15.77,15.77,0,0,1-2.75-9.34h0V192a97.74,97.74,0,0,0,11.45,1,61.43,61.43,0,0,0,7.67-.33c1.1-1.53,2.41-3.4,3.71-5.33,2.59-3.85,9.49-11.53,12.14-14.38.59-.64,3.25-10.3,8.1-10.13.67,0,3.48,0,5.52,0h2c1.1,0,.33,3.24,1.11,3.56a10,10,0,0,0,4.16.5s1.23,13.47,1.27,13.55c.18.48-3.8,1.2-7.42,1-2.27-.1-6.12-.43-6.12-.43s-1.72-.58-2.36.77c-.85,1.82-3.16,11.45-8,20.13-6.24,11.21-13.5,18-16.2,18Z"/><g id="рука"><g id="шприц"><rect id="Rectangle_14" data-name="Rectangle 14" class="cls-30" x="209.17" y="149" width="15.96" height="23"/><g id="Path_Copy_14" data-name="Path Copy 14"><path class="cls-16" d="M224.31,149.1H210.1l-.3-.34c-.21-.24-.89-1.23-.89-4a5.4,5.4,0,0,1,1.53-3.89,8.11,8.11,0,0,1,3.33-1.92c0-.15,0-.32,0-.46a6.73,6.73,0,0,1,.43-2.62,2.94,2.94,0,0,1,2.93-1.79,3.1,3.1,0,0,1,2.28.85c1,1,.95,2.59.93,3.63,0,.12,0,.26,0,.38a8.51,8.51,0,0,1,3.54,2.1,5.35,5.35,0,0,1,1.49,3.72,8,8,0,0,1-.78,3.9Z"/><path class="cls-2" d="M223.74,148.1a7.13,7.13,0,0,0,.64-3.39c0-2.3-1.65-4.1-4.81-5-.73-.21.93-4.67-2.42-4.67s-1.87,4.46-2.65,4.69c-2.8.81-4.59,2.33-4.59,5s.64,3.39.64,3.39h13.19m0,2H210.55a2,2,0,0,1-1.5-.68c-.43-.48-1.14-1.74-1.14-4.71a6.32,6.32,0,0,1,1.82-4.59,8.58,8.58,0,0,1,3.06-1.93,7.46,7.46,0,0,1,.51-2.77,4,4,0,0,1,3.85-2.39,4,4,0,0,1,3,1.16,5.39,5.39,0,0,1,1.22,4c3.21,1.28,5,3.6,5,6.51a9,9,0,0,1-.91,4.4A2,2,0,0,1,223.74,150.1Z"/></g><g id="Path_Copy_22" data-name="Path Copy 22"><path class="cls-16" d="M225.51,149H208.79a2,2,0,0,1,0-4h16.72a2,2,0,0,1,0,4Z"/><path class="cls-2" d="M208.79,146c-.34,0-.62.45-.62,1s.28,1,.62,1h16.72c.34,0,.61-.45.61-1s-.27-1-.61-1H208.79m0-2h16.72a3,3,0,0,1,0,6H208.79a3,3,0,0,1,0-6Z"/></g><path id="Rectangle_14_Copy_5" data-name="Rectangle 14 Copy 5" class="cls-26" d="M209.17,163h16v23a2,2,0,0,1-2,2h-12a2,2,0,0,1-2-2V163Z"/><path id="Path-4" class="cls-27" d="M224.14,164.43h-14v-1.5h3.42v-1h-3.42v-1.5h1.43v-1h-1.43v-1.51h3.42v-1h-3.42v-1.5h1.43v-1h-1.43v-1.5h3.42v-1h-3.42v-1.51h14Z"/></g><g id="Group_48" data-name="Group 48"><rect id="Rectangle_12" data-name="Rectangle 12" class="cls-8" x="216.12" y="165" width="9.97" height="4.01" rx="2"/><rect id="Rectangle_12_Copy" data-name="Rectangle 12 Copy" class="cls-8" x="216.12" y="169" width="11.84" height="4.01" rx="2"/><rect id="Rectangle_12_Copy_2" data-name="Rectangle 12 Copy 2" class="cls-8" x="216.12" y="173" width="11.05" height="4.01" rx="2"/><rect id="Rectangle_12_Copy_3" data-name="Rectangle 12 Copy 3" class="cls-8" x="216.12" y="177" width="9.65" height="4.01" rx="2"/><path id="Rectangle_12_Copy_4" data-name="Rectangle 12 Copy 4" class="cls-8" d="M220.41,164l.34,4.28a2,2,0,0,1-1.54,2.11l-.74.17-1.1-.26a2,2,0,0,1-1.5-1.57l-.75-3.87s0,4.77-1.79,7-10,1.4-10,1.4v-.76a21.26,21.26,0,0,1,2.28-6A60.36,60.36,0,0,1,209,161c.88-1.18,8.1-.94,8.1-.94a4.4,4.4,0,0,1,2.43.94C220.37,161.79,220.41,164,220.41,164Z"/></g><g id="Group_47" data-name="Group 47"><path id="Rectangle_13" data-name="Rectangle 13" class="cls-13" d="M204.42,172.4l3.75-1.4v1.49a1.18,1.18,0,0,0-.72,1,1.07,1.07,0,0,0,.72,1V177l-6-1.47Z"/><path id="Stroke_67_Copy-2" data-name="Stroke 67 Copy-2" class="cls-6" d="M182.24,215.35a3.51,3.51,0,0,0,2,.35,3.43,3.43,0,0,0,1.94-.7"/><path id="Stroke_67-2" data-name="Stroke 67-2" class="cls-6" d="M184.48,197.23l5.27-8.37Z"/><path id="Stroke_67_Copy-3" data-name="Stroke 67 Copy-3" class="cls-6" d="M182.39,197.45a1.76,1.76,0,0,1,1-.26,1.72,1.72,0,0,1,1,.26"/></g></g></g><g id="Group_39" data-name="Group 39"><path id="Fill_35_Copy_20" data-name="Fill 35 Copy 20" class="cls-8" d="M134.86,228.62s6,3.6,16.26.51c.45-.13,5.39-2.55,10.09-5.11,4.19-2.27,7.36-3.63,6.5-5.5s-4.33-.09-8.24,1.61a61.67,61.67,0,0,1-7.09,2.78,9.16,9.16,0,0,1-5.94-.06Z"/><path id="Fill_35_Copy_21" data-name="Fill 35 Copy 21" class="cls-8" d="M139.92,230.63s6,3.61,16.25.52c.46-.14,5.4-2.56,10.1-5.11,4.18-2.28,7.36-3.63,6.5-5.51s-4.33-.08-8.24,1.61a61.72,61.72,0,0,1-7.09,2.79,9.09,9.09,0,0,1-5.94-.07Z"/></g><g id="ребенок"><path id="Path_Copy_19" data-name="Path Copy 19" class="cls-31" d="M132.54,159.62a25.23,25.23,0,0,0-34.37,36.95l.69.65a1.36,1.36,0,0,1,.46.28c4.11,3.84,9.49,5.36,16.47,4.65,6.29-.65,13.06-3,19.48-5.5,4.14-13.43,7.36-27.6-1.66-36Z"/><g id="туловище"><path id="Path_Copy_16-2" data-name="Path Copy 16-2" class="cls-8" d="M152,212.22a16.53,16.53,0,0,1-23.37,1.05l-.24-.22c-6.75-6.31-11.57-15.39-2.45-25.2s18.49-5.61,25.23.7a16.64,16.64,0,0,1,1,23.53A.86.86,0,0,1,152,212.22Z"/><g class="cls-32"><g id="туловище-2"><path id="Stroke_67_Copy_5-2" data-name="Stroke 67 Copy 5-2" class="cls-9" d="M132.72,181.07c.95,2.5,1.27,5.69-3,10.24s-7.48,3.7-10,3.68c0,0,.75-3.8,5-8.35S132.72,181.07,132.72,181.07Z"/></g></g><path id="Path_Copy_18-2" data-name="Path Copy 18-2" class="cls-6" d="M152,212.22a16.53,16.53,0,0,1-23.37,1.05l-.24-.22c-6.75-6.31-11.57-15.39-2.45-25.2s18.49-5.61,25.23.7a16.64,16.64,0,0,1,1,23.53A.86.86,0,0,1,152,212.22Z"/></g><g id="лицо-2"><circle id="Oval_2-5" data-name="Oval 2-5" class="cls-8" cx="129.51" cy="167.5" r="2.79"/><circle id="Oval_2_Copy_11" data-name="Oval 2 Copy 11" class="cls-8" cx="104.37" cy="192.25" r="2.79"/><g id="Group_46" data-name="Group 46"><path id="Path-5" class="cls-8" d="M127.6,189.37a16.54,16.54,0,0,1-23.37,1.06l-.25-.23c-6.74-6.31-11.56-15.39-2.45-25.2s18.5-5.61,25.24.7a16.66,16.66,0,0,1,1,23.53Z"/><g class="cls-33"><g id="Group_46-2" data-name="Group 46-2"><path id="Path_2_Copy_3" data-name="Path 2 Copy 3" class="cls-34" d="M118.7,179.53a5.32,5.32,0,0,0-.9.73,4.31,4.31,0,0,0-.62.91"/><path id="Stroke_67-3" data-name="Stroke 67-3" class="cls-35" d="M123.41,182.41a3.33,3.33,0,0,0-2,1.14,3.38,3.38,0,0,0-1,2.13"/><path id="Stroke_67_Copy_5-3" data-name="Stroke 67 Copy 5-3" class="cls-9" d="M123.68,184.19a1,1,0,0,1-.26,1.28,1.2,1.2,0,0,1-1.26.35,2,2,0,0,1,.55-1A1.9,1.9,0,0,1,123.68,184.19Z"/><g id="Group_41" data-name="Group 41"><g id="Group_Copy_5-2" data-name="Group Copy 5-2"><circle id="Oval_2-6" data-name="Oval 2-6" class="cls-2" cx="119.98" cy="173.79" r="2.41"/><circle id="Oval_4-3" data-name="Oval 4-3" class="cls-27" cx="119.94" cy="172.21" r="0.53"/><path id="Path_2-3" data-name="Path 2-3" class="cls-34" d="M117.28,169.16a4.78,4.78,0,0,1-1,1.32,4,4,0,0,1-1.42.68"/></g><g id="Group_Copy_9" data-name="Group Copy 9"><circle id="Oval_2-7" data-name="Oval 2-7" class="cls-2" cx="111.47" cy="182.94" r="2.41"/><path id="Path-6" class="cls-27" d="M111,181.11a.53.53,0,1,1,0,.74.51.51,0,0,1,0-.74Z"/><path id="Path_2-4" data-name="Path 2-4" class="cls-34" d="M106.68,180.57a5,5,0,0,0,1.24-1.14,4,4,0,0,0,.58-1.47"/></g></g></g></g><path id="Path_Copy_17-2" data-name="Path Copy 17-2" class="cls-6" d="M127.6,189.37a16.54,16.54,0,0,1-23.37,1.06l-.25-.23c-6.74-6.31-11.56-15.39-2.45-25.2s18.5-5.61,25.24.7a16.66,16.66,0,0,1,1,23.53Z"/></g><path id="Path-7" class="cls-36" d="M115,161.73c-2.25,4.43-9.31,6.89-9.31,6.89l1.81,1.17C105.38,172,97.94,172,97.94,172c-.3-2.95,2.28-6.2,4.2-8.61C106.9,159.22,112.86,163,115,161.73Z"/></g><g id="пеленки"><path id="Shape" class="cls-37" d="M165,224.25a28.11,28.11,0,0,0-1.35-39.61l-29.18-27a28,28,0,0,0-38.14,41l29.18,27.06a27.7,27.7,0,0,0,15.44,7.27,1.74,1.74,0,0,0,.39,0A28.28,28.28,0,0,0,154,231.51,27.65,27.65,0,0,0,165,224.25ZM97,160.89a25.16,25.16,0,0,1,35.56-1.3l0,0,1.08,1c9.14,8.56,5.65,23.08,1.66,36-6.35,2.47-13.1,4.84-19.49,5.5-7,.71-12.36-.81-16.47-4.65a1.36,1.36,0,0,0-.46-.28l-.69-.65A25.32,25.32,0,0,1,97,160.89Z"/><path id="Path-8" class="cls-26" d="M110.18,204.37c5,4.68,12.66,5.45,22.13,3.41.81-2.94,1.8-6.07,2.84-9.31l.53-1.66c-9.3,3.51-20.11,6.86-28.55,4.85l2.59,2.42A1.24,1.24,0,0,1,110.18,204.37Z"/><path id="Path_Copy_20" data-name="Path Copy 20" class="cls-38" d="M138.7,194.64c10.46-4.19,29.7-4.11,30.38-2.71a29.22,29.22,0,0,1,1.77,4.52c-5.15.74-16.9,2.06-23.47,4.69C133,206.9,119,212.69,108.86,203.19l-1.19-1.1C114.19,203.53,131.14,197.66,138.7,194.64Z"/><path id="Path-9" class="cls-38" d="M133.06,199.48c-3.43,10.76-2,30-.58,30.58a28.93,28.93,0,0,0,4.63,1.46c.38-5.2.86-17.05,3-23.81,4.73-14.79,9.51-29.19-.64-38.68l-1.18-1.1C140.19,174.34,135.54,191.71,133.06,199.48Z"/></g></g><g id="бант_copy" data-name="бант copy"><g id="Group_9" data-name="Group 9"><g id="Oval_2_Copy_5" data-name="Oval 2 Copy 5"><path class="cls-15" d="M131.87,212.51c-.43-.19-1.11-.66-2.17-2.59a35,35,0,0,1-1.93-4.32c-1.07-2.83-2.19-6.64-2.14-8.82,0-1.14.41-1.85,1.12-2.13,2.85-1.09,7.72-.16,11,1l.26.1a6.45,6.45,0,0,1,3,3.91,6,6,0,0,1,0,4.7,25.89,25.89,0,0,1-3.22,4.6,12.9,12.9,0,0,1-4.8,3.62A1.43,1.43,0,0,1,131.87,212.51Z"/><path class="cls-2" d="M137.63,196.65l-.18-.08c-2.94-1-7.69-2-10.34-1-2,.78,2.92,15,5.17,16a.51.51,0,0,0,.38,0c3.21-1.24,6-5.11,7.49-7.77,1.08-2-.45-6.29-2.52-7.21m.81-1.83a7.44,7.44,0,0,1,3.56,4.5,7,7,0,0,1-.09,5.5c-.88,1.6-4.09,7-8.54,8.67a2.44,2.44,0,0,1-1.91-.07c-.89-.39-1.71-1.33-2.63-3a35.43,35.43,0,0,1-2-4.44c-1.11-2.93-2.27-6.88-2.21-9.2a4.54,4.54,0,0,1,.26-1.47,2.62,2.62,0,0,1,1.5-1.57c4-1.54,10.46.53,11.71,1Z"/></g><path id="Oval_2_Copy_8" data-name="Oval 2 Copy 8" class="cls-38" d="M130.28,197.84a18.24,18.24,0,0,1,8.25-.07c1.34.46,2.37,3.28,1.68,4.53a17.83,17.83,0,0,1-6.47,5.54C132.5,208.31,128.94,198.36,130.28,197.84Z"/></g><g id="Group_9_Copy_3" data-name="Group 9 Copy 3"><g id="Oval_2_Copy_5-2" data-name="Oval 2 Copy 5-2"><path class="cls-15" d="M157.18,202.77h0a1.44,1.44,0,0,1-.81.8,12.83,12.83,0,0,1-6,.53,26,26,0,0,1-5.46-1.26,6,6,0,0,1-3.14-3.46,6.43,6.43,0,0,1-.38-4.94l.12-.25c1.7-3.06,4.69-7,7.54-8.12.71-.28,1.47,0,2.25.82,1.5,1.58,3.21,5.16,4.3,8a34.82,34.82,0,0,1,1.45,4.51C157.56,201.53,157.37,202.34,157.18,202.77Z"/><path class="cls-2" d="M142.31,194.84c-.92,2.07.83,6.32,2.94,7.06,2.86,1,7.54,2,10.76.74a.51.51,0,0,0,.26-.28c1-2.24-4.81-16.14-6.85-15.36-2.64,1-5.51,4.95-7,7.67l-.09.17m-1.82-.81h0c0-.11.1-.22.16-.33.64-1.16,4-7,8-8.57a2.63,2.63,0,0,1,2.17.16,4.43,4.43,0,0,1,1.17.91c1.59,1.68,3.37,5.4,4.51,8.32a38,38,0,0,1,1.49,4.64c.44,1.88.46,3.12.06,4a2.48,2.48,0,0,1-1.38,1.32c-4.44,1.72-10.4-.11-12.13-.71a7,7,0,0,1-3.73-4A7.38,7.38,0,0,1,140.49,194Z"/></g><path id="Oval_2_Copy_8-2" data-name="Oval 2 Copy 8-2" class="cls-38" d="M148.57,190.81a18.13,18.13,0,0,0-6.18,5.47c-.69,1.24.43,4,1.78,4.5a17.59,17.59,0,0,0,8.5-.23C153.91,200.07,149.92,190.29,148.57,190.81Z"/></g><path id="Rectangle_6" data-name="Rectangle 6" class="cls-39" d="M140.07,196a3.11,3.11,0,0,1,4,1.79l.56,1.45a3.1,3.1,0,1,1-5.79,2.23l-.56-1.45A3.13,3.13,0,0,1,140.07,196Z"/></g><g id="hand_2_copy" data-name="hand 2 copy"><path id="Combined_Shape-3" data-name="Combined Shape-3" class="cls-8" d="M175.88,222.61c-1.48-1.93-3.19-.61-5.24.67-3.12,1.94-6.11,3.43-6.11,3.43a1.88,1.88,0,0,1-.67,0c-3.29-.63-6.12-1.26-6.54-1.59-1.7-1.34-1-4.91-.85-6.16a3.49,3.49,0,0,1,1.88-2.07c2.37-1,6.12-.46,5.84-2.47-.43-2.94-3.92-2-3.92-2s-5.87-.2-6.11-.13a18.62,18.62,0,0,0-6.59,3.57s-4.9-1.52-8.17-2.62c-4-2-9.64-4.92-15.29-7.29-12-5-19-4.66-25.69-3.35-2.71.52-11.85,3.14-12.06,8.24-.62,15.07,31.42,14.81,38.76,14.42,5.26-.28,11.74-.53,15.91,0a12.65,12.65,0,0,1,3.15,1.09l0,0c3.24,2.2,7.85,5.71,8.59,5.94,1,.32,9.4,1.17,9.4,1.17a5.51,5.51,0,0,0,2.2-.37c2.1-1.2,9-6.41,9-6.41a9.37,9.37,0,0,0,2-1.53C176.1,224.42,176.55,223.49,175.88,222.61Z"/><path id="Path_12" data-name="Path 12" class="cls-13" d="M92.14,202.63l.81.66s-.81.7-.28,1.36,1.93,0,1.93,0l3.75,3.09-10.28,6.87a18.43,18.43,0,0,1-1.2-4.85c-.56-3.61-1-7.72-1-7.72l5.68.59Z"/></g><g id="Group_45" data-name="Group 45"><path id="Stroke_61_Copy_15" data-name="Stroke 61 Copy 15" class="cls-6" d="M154.3,181.58a60.59,60.59,0,0,0-5.34-4.66"/><path id="Stroke_61_Copy_25" data-name="Stroke 61 Copy 25" class="cls-6" d="M158.29,185.58a5.35,5.35,0,0,0-1.28-1.36"/></g></g></g></svg>