<svg xmlns="http://www.w3.org/2000/svg" viewBox="0 0 270 239.77"><defs><style>.cls-1,.cls-17,.cls-27,.cls-29,.cls-5,.cls-6{fill:none;}.cls-2{fill:#504b46;}.cls-10,.cls-3{fill:#edf2f4;}.cls-19,.cls-26,.cls-31,.cls-4{fill:#fff;}.cls-10,.cls-11,.cls-12,.cls-13,.cls-17,.cls-20,.cls-24,.cls-25,.cls-27,.cls-28,.cls-30,.cls-31,.cls-32,.cls-5,.cls-6,.cls-7{stroke:#504b46;}.cls-10,.cls-11,.cls-12,.cls-13,.cls-20,.cls-24,.cls-27,.cls-29,.cls-31,.cls-5{stroke-linecap:round;}.cls-10,.cls-11,.cls-12,.cls-13,.cls-17,.cls-20,.cls-24,.cls-25,.cls-29,.cls-30,.cls-31,.cls-32,.cls-5,.cls-6,.cls-7{stroke-linejoin:round;}.cls-10,.cls-11,.cls-13,.cls-17,.cls-20,.cls-24,.cls-25,.cls-27,.cls-28,.cls-29,.cls-30,.cls-31,.cls-32,.cls-5{stroke-width:2px;}.cls-15,.cls-32,.cls-7{fill:#9d6655;}.cls-12,.cls-20,.cls-8{fill:#f29166;}.cls-13,.cls-9{fill:#fddfd1;}.cls-11,.cls-22{fill:#b4e0fc;}.cls-14,.cls-28{fill:#fccab4;}.cls-16{fill:#a76f5e;}.cls-18{fill:#f2977c;}.cls-19{opacity:0.2;}.cls-19,.cls-26{isolation:isolate;}.cls-21{fill:#83cfff;}.cls-23{fill:#ffd070;}.cls-24{fill:#c0ccff;}.cls-25{fill:#575762;}.cls-26{opacity:0.1;}.cls-27,.cls-28{stroke-miterlimit:10;}.cls-29{stroke:#fccab4;}.cls-30{fill:#835b4f;}</style></defs><title>Asset 1</title><g id="Layer_2" data-name="Layer 2"><g id="Layer_1-2" data-name="Layer 1"><rect class="cls-1" y="60.67" width="270" height="100"/><g id="man_copy" data-name="man copy"><g id="кого_ищем" data-name="кого ищем"><g id="Stroke_55" data-name="Stroke 55"><path class="cls-1" d="M260.66,65.44H234.61L213.35,84.76V65.44H196a7.73,7.73,0,0,1-7.73-7.73h0v-50A7.73,7.73,0,0,1,196,0h64.7a7.73,7.73,0,0,1,7.73,7.73v50a7.73,7.73,0,0,1-7.73,7.73Z"/><path class="cls-2" d="M215.35,80.24,233.26,64a2,2,0,0,1,1.35-.52h26.05a5.74,5.74,0,0,0,5.73-5.73v-50A5.74,5.74,0,0,0,260.66,2H196a5.74,5.74,0,0,0-5.73,5.73v50A5.74,5.74,0,0,0,196,63.44h17.39a2,2,0,0,1,2,2v14.8m-2,4.52V65.44H196a7.73,7.73,0,0,1-7.73-7.73v-50A7.73,7.73,0,0,1,196,0h64.7a7.73,7.73,0,0,1,7.73,7.73v50a7.73,7.73,0,0,1-7.73,7.73H234.61Z"/></g><g id="Doctor"><g id="одежда"><path id="Fill_13" data-name="Fill 13" class="cls-3" d="M241.58,44.38a10,10,0,0,0-10-10h-6a10,10,0,0,0-10,10v9.47a50,50,0,0,0,13,2,50,50,0,0,0,13-2Z"/><path id="Fill_15" data-name="Fill 15" class="cls-4" d="M241.58,45.37a10,10,0,0,0-10-10h-6a10,10,0,0,0-10,10v4a10,10,0,0,1,10-10h6a10,10,0,0,1,10,10h0Z"/><path id="Stroke_17" data-name="Stroke 17" class="cls-5" d="M231.61,35.4h-6c-5.5,0-11,4.47-11,10v8.48a57.39,57.39,0,0,0,13.91,2,58.28,58.28,0,0,0,14-2V45.37C242.58,39.87,237.11,35.4,231.61,35.4Z"/><g id="ВАЛИК"><path id="Path" class="cls-6" d="M241.08,40.89a4,4,0,0,1,4-4h8a4,4,0,0,1,4,4h0a2.19,2.19,0,0,1-2,2h-10a4,4,0,0,1-4-4Z"/><g id="РУЧКА"><path id="Path_Copy_25" data-name="Path Copy 25" class="cls-7" d="M255.71,43.66a.41.41,0,0,1-.41.42h-4A1.26,1.26,0,0,0,250,45.33a74.89,74.89,0,0,0,.42,9.11c.1.44.2.86.28,1.26a1.71,1.71,0,0,1-1.45,1.8A1.68,1.68,0,0,1,247.42,56a1.3,1.3,0,0,1,0-.34c.07-.37.16-.78.26-1.2a75.55,75.55,0,0,0,.43-9.15,1.27,1.27,0,0,0-1.25-1.27h-4a.42.42,0,0,1-.42-.42V42a.42.42,0,0,1,.42-.42h12.46a.42.42,0,0,1,.42.42h0Z"/><g id="Fill_63_Copy_4" data-name="Fill 63 Copy 4"><path class="cls-4" d="M249.06,55.68a.18.18,0,0,1-.17-.17.17.17,0,0,1,.17-.16.16.16,0,0,1,.16.16A.17.17,0,0,1,249.06,55.68Z"/><path class="cls-2" d="M249.06,56.18a.67.67,0,0,1-.67-.67.66.66,0,0,1,.67-.66.65.65,0,0,1,.66.66A.66.66,0,0,1,249.06,56.18Z"/></g></g><g id="Path_Copy_23" data-name="Path Copy 23"><path class="cls-3" d="M254.71,40.06h-8a4.52,4.52,0,0,1-3.46-1.63,3.55,3.55,0,0,0,0,.46h-1V35.57h1a3.55,3.55,0,0,0,0,.46,4.52,4.52,0,0,1,3.46-1.63h4.66a4.49,4.49,0,0,1,4.48,4.49A1.24,1.24,0,0,1,254.71,40.06Z"/><path class="cls-2" d="M254.71,39.56a.75.75,0,0,0,.66-.67,4,4,0,0,0-4-4h-4.66a4,4,0,0,0-3.63,2.33,4,4,0,0,0,3.63,2.33h8m-12-.67a4,4,0,0,1,.36-1.66,4,4,0,0,1-.36-1.66v3.32m12,1.67h-8a5,5,0,0,1-3.15-1.13,1,1,0,0,1-.84.46,1,1,0,0,1-1-1V35.57a1,1,0,0,1,1.84-.55,5,5,0,0,1,3.15-1.12h4.66a5,5,0,0,1,5,5A1.73,1.73,0,0,1,254.71,40.56Z"/></g><g id="Path_Copy_24" data-name="Path Copy 24"><path class="cls-8" d="M249.07,37.4a.84.84,0,0,1-.84-.83.5.5,0,1,0-1,0,.84.84,0,0,1-.84.83.83.83,0,0,1-.83-.83.49.49,0,0,0-.49-.5.83.83,0,0,1-.84-.83V34.4h7.66v.84a.84.84,0,0,1-.84.83h-.66a.5.5,0,0,0-.5.5A.83.83,0,0,1,249.07,37.4Z"/><path class="cls-2" d="M244.74,34.9v.34a.33.33,0,0,0,.34.33,1,1,0,0,1,1,1,.34.34,0,0,0,.67,0,1,1,0,1,1,2,0,.34.34,0,0,0,.67,0,1,1,0,0,1,1-1h.66a.34.34,0,0,0,.34-.33V34.9h-6.66m0-1h6.66a1,1,0,0,1,1,1v.34a1.34,1.34,0,0,1-1.34,1.33h-.66a1.34,1.34,0,0,1-2.67,0,1.33,1.33,0,1,1-2.66,0,1.34,1.34,0,0,1-1.33-1.33V34.9A1,1,0,0,1,244.74,33.9Z"/></g></g><g id="Combined_Shape" data-name="Combined Shape"><path class="cls-9" d="M251.7,48.86v1.83a2,2,0,0,1-2,2h-1.64a2,2,0,0,1-2-2V48.86a2,2,0,0,1,2-2h1.64A2,2,0,0,1,251.7,48.86Z"/><path class="cls-2" d="M250.7,48.86a1,1,0,0,0-1-1h-1.64a1,1,0,0,0-1,1v1.83a1,1,0,0,0,1,1h1.64a1,1,0,0,0,1-1V48.86m2,0v1.83a3,3,0,0,1-3,3h-1.64a3,3,0,0,1-3-3V48.86a3,3,0,0,1,3-3h1.64A3,3,0,0,1,252.7,48.86Z"/></g><path id="Stroke_17_Copy_3" data-name="Stroke 17 Copy 3" class="cls-10" d="M235.6,52.67l.15.56c.34,1.27,2.66,1.76,4.45,1.27l7.31-2-1.39-5.15-7.31,2C237,49.83,235.26,51.4,235.6,52.67Z"/><rect id="Rectangle_9" data-name="Rectangle 9" class="cls-3" x="238.09" y="46.87" width="1.99" height="4.99"/><path id="Stroke_17_Copy_4" data-name="Stroke 17 Copy 4" class="cls-11" d="M219.89,43.38V55a50.77,50.77,0,0,0,8.69.85A47.78,47.78,0,0,0,237.1,55V43.38Z"/><path id="Stroke_17_Copy_5" data-name="Stroke 17 Copy 5" class="cls-11" d="M219.89,37.57V45.3h3.24V35.83l-1.58.63Z"/><path id="Stroke_17_Copy_6" data-name="Stroke 17 Copy 6" class="cls-11" d="M237.09,37.57V45.3h-3.24V35.83l1.58.63Z"/><path id="Fill_63" data-name="Fill 63" class="cls-12" d="M221.64,45.37a1,1,0,0,1,0-2,1,1,0,0,1,0,2Z"/><path id="Fill_63_Copy_8" data-name="Fill 63 Copy 8" class="cls-12" d="M235.6,45.37a1,1,0,1,1,1-1A1,1,0,0,1,235.6,45.37Z"/><g id="Group_3_Copy_2" data-name="Group 3 Copy 2"><path id="Rectangle_3_Copy_7" data-name="Rectangle 3 Copy 7" class="cls-10" d="M232.08,47.87h-7v4a17.67,17.67,0,0,0,7,0Z"/></g></g><g id="шея"><path id="Fill_35" data-name="Fill 35" class="cls-5" d="M231.61,37.4a9.22,9.22,0,0,1-6,0V30.91h6Z"/><path id="Fill_35_Copy_17" data-name="Fill 35 Copy 17" class="cls-13" d="M231.61,37.4a9.22,9.22,0,0,1-6,0V30.91h6Z"/><path id="Fill_37" data-name="Fill 37" class="cls-14" d="M226.62,34.3a6.43,6.43,0,0,0,2,.38,6.51,6.51,0,0,0,2-.38V30.91h-4Z"/></g><g id="голова"><path id="Stroke_57_Copy" data-name="Stroke 57 Copy" class="cls-15" d="M239,18.61c-.4-4.83-5.43-8.64-10.36-8.64s-10,3.81-10.32,8.65c-.57,4.74,2.83,9.59,2.78,9.36H235.4A14,14,0,0,0,239,18.61Z"/><path id="Fill_55" data-name="Fill 55" class="cls-16" d="M228.61,13.46a13,13,0,0,1,8.95,3.16,9.34,9.34,0,0,0-17.89,0,13,13,0,0,1,8.94-3.16"/><path id="Stroke_57" data-name="Stroke 57" class="cls-17" d="M239,18.61c-.4-4.83-5.43-8.64-10.36-8.64s-10,3.81-10.32,8.65c-.57,4.74,2.83,9.59,2.78,9.36H235.4A14,14,0,0,0,239,18.61Z"/><path id="Fill_59" data-name="Fill 59" class="cls-9" d="M233.06,21.68a10.07,10.07,0,0,1-8.27-4.3,4.3,4.3,0,0,1-4.15,4.29v3.26a8,8,0,1,0,16,0V21.1a13.57,13.57,0,0,1-3.52.58"/><path id="Stroke_61" data-name="Stroke 61" class="cls-5" d="M233.06,21.68a10.07,10.07,0,0,1-8.27-4.3,4.3,4.3,0,0,1-4.15,4.29v3.26a8,8,0,1,0,16,0V21.1a13.57,13.57,0,0,1-3.52.58Z"/></g></g></g><g id="body"><g id="Group_16" data-name="Group 16"><path id="Fill_13_Copy_2" data-name="Fill 13 Copy 2" class="cls-18" d="M188.42,174.36a40.67,40.67,0,0,0-40.67-40.67h-24.4a40.67,40.67,0,0,0-40.67,40.67h0v10.56h19.44L102,232.79s17.58,6,33.79,6,32.41-6,32.41-6l-.25-47.87h20.49Z"/><path id="Fill_15-2" data-name="Fill 15-2" class="cls-19" d="M188.42,174.36a40.67,40.67,0,0,0-40.67-40.67h-24.4a40.67,40.67,0,0,0-40.67,40.67h0v16.27A40.67,40.67,0,0,1,123.35,150h24.4a40.66,40.66,0,0,1,40.67,40.66h0Z"/><path id="Path-2" class="cls-5" d="M188.42,174.36a40.67,40.67,0,0,0-40.67-40.67h-24.4a40.67,40.67,0,0,0-40.67,40.67h0v10.56H103v47.87s17.14,6,32.8,6,31.29-6,31.29-6V184.92h21.36Z"/></g><g id="Group_3" data-name="Group 3"><path id="Rectangle_3" data-name="Rectangle 3" class="cls-20" d="M79.7,181.49a83.53,83.53,0,0,0,11.82,1,74.74,74.74,0,0,0,11.47-1v8a80.42,80.42,0,0,1-11.69,1,77.62,77.62,0,0,1-11.6-1Z"/><path id="Fill_63-2" data-name="Fill 63-2" class="cls-2" d="M85.51,185.48a2,2,0,1,1-2-2,2,2,0,0,1,2,2"/></g><g id="Group_3_Copy" data-name="Group 3 Copy"><path id="Rectangle_3-2" data-name="Rectangle 3-2" class="cls-20" d="M191.36,181.49a76.41,76.41,0,0,1-11.89,1,87.07,87.07,0,0,1-12.38-1v8a85.05,85.05,0,0,0,12.13,1,85.07,85.07,0,0,0,12.14-1Z"/><path id="Fill_63-3" data-name="Fill 63-3" class="cls-2" d="M185.23,185.48a2,2,0,1,0,2-2h0a2,2,0,0,0-2,2"/></g><g id="Group_18" data-name="Group 18"><path id="Fill_19" data-name="Fill 19" class="cls-3" d="M167.07,195.89V181.65"/><path id="Stroke_21" data-name="Stroke 21" class="cls-5" d="M167.07,200.87V176.66"/><path id="Fill_23" data-name="Fill 23" class="cls-3" d="M167.07,175.55v-2"/><path id="Stroke_25" data-name="Stroke 25" class="cls-5" d="M167.07,170.56v-2"/></g><g id="Group_19" data-name="Group 19"><path id="Fill_39" data-name="Fill 39" class="cls-3" d="M103,195.89V181.65"/><path id="Stroke_41" data-name="Stroke 41" class="cls-5" d="M103,200.87V176.66"/><path id="Fill_43" data-name="Fill 43" class="cls-3" d="M103,175.55v-2"/><path id="Stroke_45" data-name="Stroke 45" class="cls-5" d="M103,170.56v-2"/></g></g><g id="neck_copy" data-name="neck copy"><path id="Path_4" data-name="Path 4" class="cls-21" d="M118.89,154.67l8.84,56.12.64,26.66a47.57,47.57,0,0,0,6.94.6,60.52,60.52,0,0,0,7.37-.6V210.79l9.47-56.12Z"/><path id="Fill_35-2" data-name="Fill 35-2" class="cls-13" d="M147.26,148.67l-12,10.48-12-12.48V116.4h23.93Z"/><path id="Fill_37-2" data-name="Fill 37-2" class="cls-14" d="M124.4,135.19c.28.14.54.29.83.42a26.13,26.13,0,0,0,20.28,0c.3-.13.56-.28.83-.42v-13.8H124.4Z"/></g><g id="воротник"><path id="Combined_Shape-2" data-name="Combined Shape-2" class="cls-20" d="M135.2,165.42l0,.07-8.38-12.56,1.27-1.37.65-.79,2,1.06,4.55,6.5,4.67-6.42,1.8-1.14.64.79,1.27,1.37-8.38,12.56Z"/><g id="Fill_59-2" data-name="Fill 59-2"><path class="cls-22" d="M122.6,158.56h0c-.72,0-1.79-.93-2.86-2.47-2-2.82-4.31-6.88-4.31-10.21a11,11,0,0,1,1-4.89,18,18,0,0,1,2.69-3.93,14.28,14.28,0,0,1,4.17-2.77v6.09a12.36,12.36,0,0,0,3.82,8.85,16.38,16.38,0,0,0,2.66,2.13l-4.64,5.09-.22.24C124.32,157.39,123.27,158.56,122.6,158.56Z"/><path class="cls-2" d="M122.33,136a9,9,0,0,0-2.4,1.75c-2,2.37-3.5,4.47-3.5,8.18,0,2.4,1.47,5.82,4.13,9.64a5.5,5.5,0,0,0,2,2,3,3,0,0,0,.56-.41c.36-.33.74-.75,1.08-1.12l.22-.24,3.87-4.25a15.79,15.79,0,0,1-1.85-1.6,13.3,13.3,0,0,1-4.12-9.55V136m2-3.32v7.75c0,7.4,7,10.73,7,10.73l-5.47,6c-.88,1-2.1,2.44-3.31,2.44h0c-1.4,0-2.8-1.65-3.67-2.9-2.14-3.07-4.49-7.24-4.49-10.78,0-4.27,1.7-6.76,4-9.46C119.72,134.83,122.43,133.69,124.33,132.63Z"/></g><g id="Fill_61" data-name="Fill 61"><path class="cls-22" d="M148.29,158.54c-.93,0-2.29-1.51-2.8-2.08l-4.57-5.1a15.53,15.53,0,0,0,2.62-2.14,12.42,12.42,0,0,0,3.76-8.84V134.3a14.14,14.14,0,0,1,4.06,2.75A18.35,18.35,0,0,1,154,141a11.2,11.2,0,0,1,1,4.9c0,3.33-2.3,7.4-4.24,10.22a14.1,14.1,0,0,1-1.29,1.67c-.59.62-1,.75-1.12.77Z"/><path class="cls-2" d="M148.3,136v4.4a13.38,13.38,0,0,1-4.05,9.54,17.88,17.88,0,0,1-1.83,1.61l3.81,4.26a12.37,12.37,0,0,0,1.31,1.3,2.55,2.55,0,0,0,.71.44,2.86,2.86,0,0,0,.66-.6,12.57,12.57,0,0,0,1.06-1.4c2.62-3.82,4.06-7.25,4.06-9.65,0-3.72-1.49-5.83-3.44-8.19A8.8,8.8,0,0,0,148.3,136m-2-3.35c1.86,1.06,4.53,2.2,5.84,3.79,2.22,2.7,3.89,5.19,3.89,9.46,0,3.54-2.31,7.71-4.41,10.78-.76,1.1-1.92,2.73-3.13,2.87h-.2c-1.28,0-2.6-1.37-3.54-2.42l-5.39-6s6.94-3.33,6.94-10.73Z"/></g></g><g id="clothes_morden" data-name="clothes morden"><path id="Fill_27" data-name="Fill 27" class="cls-23" d="M151.8,147.82c-1.62,30.38-8.29,63-8.29,63h.15l14.24-30.5-4.07-10.17,14.24-6.1-5.13-17.93c-1.9-6.65-8.79-12-15.21-14.6A29.53,29.53,0,0,1,151.8,147.82Z"/><path id="Stroke_29" data-name="Stroke 29" class="cls-5" d="M151.8,147.82c-1.56,30.35-8.14,63-8.14,63l14.24-30.5-4.07-10.17,14.24-6.1-5.13-17.93c-1.9-6.65-8.79-12-15.21-14.6A29.64,29.64,0,0,1,151.8,147.82Z"/><path id="Fill_47" data-name="Fill 47" class="cls-23" d="M119.26,147.82c1.62,30.38,8.29,63.05,8.29,63.05h-.16l-14.23-30.5,4.07-10.17L103,164.09l5.13-17.93c1.9-6.65,8.8-12,15.21-14.6A29.62,29.62,0,0,0,119.26,147.82Z"/><path id="Stroke_49" data-name="Stroke 49" class="cls-5" d="M119.11,147.82c1.55,30.26,8.28,63,8.28,63l-14.23-30.5,4.07-10.16L103,164.09l5.13-17.93c1.9-6.65,8.8-12,15.21-14.6A28.65,28.65,0,0,0,119.11,147.82Z"/><path id="Stroke_41-2" data-name="Stroke 41-2" class="cls-5" d="M127.4,237.61V210.89"/><path id="Fill_63-4" data-name="Fill 63-4" class="cls-24" d="M123.41,215.4a2,2,0,1,1-2-2,2,2,0,0,1,2,2"/><path id="Fill_63_Copy_21" data-name="Fill 63 Copy 21" class="cls-24" d="M123.41,229.36a2,2,0,1,1-2-2,2,2,0,0,1,2,2"/><path id="Fill_63_Copy_23" data-name="Fill 63 Copy 23" class="cls-24" d="M151.33,215.4a2,2,0,1,1-2-2,2,2,0,0,1,2,2"/><path id="Fill_63_Copy_22" data-name="Fill 63 Copy 22" class="cls-24" d="M151.33,229.36a2,2,0,1,1-2-2,2,2,0,0,1,2,2"/><path id="Stroke_41_Copy_2" data-name="Stroke 41 Copy 2" class="cls-5" d="M143.66,237.61V210.89"/></g><g id="hair"><path id="Stroke_57_Copy_6" data-name="Stroke 57 Copy 6" class="cls-25" d="M175.29,67.61C172.83,49.6,155.47,36,136.55,36c-20.11,0-39.53,15.45-41,35s3.94,25.09,3.94,25.09l4.94,7.79h62.28l6.4-9.28A69,69,0,0,0,175.29,67.61Z"/><path id="Fill_55-2" data-name="Fill 55-2" class="cls-26" d="M173.27,61.83a38.19,38.19,0,0,0-36.54-27.17c-17.26,0-33.78,11.46-38.53,27.17,8.12-7.8,23.44-12.91,38.53-12.91S165.15,54,173.27,61.83Z"/><path id="Stroke_57_Copy_8" data-name="Stroke 57 Copy 8" class="cls-17" d="M175.29,67.61C172.83,49.6,155.47,36,136.55,36c-20.11,0-39.53,15.45-41,35s3.94,25.09,3.94,25.09l4.94,7.79h62.28l6.4-9.28A69,69,0,0,0,175.29,67.61Z"/><path id="Path_2" data-name="Path 2" class="cls-27" d="M102.42,79.06c10.16-.63,12.83-12.45,12.83-12.45"/><path id="Path_2_Copy" data-name="Path 2 Copy" class="cls-27" d="M102.4,74.45c5.73-.35,7.23-7,7.23-7"/><path id="Stroke_61_Copy_2" data-name="Stroke 61 Copy 2" class="cls-5" d="M124.51,63.22a45,45,0,0,0,20.39,6.71c21.9,1.55,23.62,9.8,23.62,9.8"/><path id="Stroke_61_Copy_3" data-name="Stroke 61 Copy 3" class="cls-5" d="M125.3,55.53c4.32,3.94,12.84,7.75,21.59,8.42,10.59.81,14.28,3.06,18.41,5.16"/><path id="Stroke_61_Copy_4" data-name="Stroke 61 Copy 4" class="cls-5" d="M145.68,37.09c-1.25-.2-2.48-.34-3.68-.42C131.45,36,125.43,41.07,121.63,50c-2.26,5.3-1.59,9.56-1.59,17.24"/></g><path id="Fill_5" data-name="Fill 5" class="cls-28" d="M109.45,99.72a6,6,0,1,1-6-6,6,6,0,0,1,6,6"/><path id="Fill_5_Copy" data-name="Fill 5 Copy" class="cls-28" d="M173.27,99.72a6,6,0,1,1-6-6,6,6,0,0,1,6,6"/><g id="face"><path id="Stroke_61_Copy_13" data-name="Stroke 61 Copy 13" class="cls-13" d="M119.94,66.48A17.48,17.48,0,0,1,103,83.9V97.14a32.54,32.54,0,1,0,65.08,0V94.58s0-18.07-21.15-18.07C135.84,76.51,123.87,72.06,119.94,66.48Z"/><g id="Group_Copy" data-name="Group Copy"><circle id="Oval_2" data-name="Oval 2" class="cls-2" cx="148.34" cy="93.74" r="3.99"/><path id="Oval_2-2" data-name="Oval 2-2" class="cls-2" d="M148.34,97.73a4,4,0,0,1,0-8,3.81,3.81,0,0,1,4,3.63v.36a4,4,0,0,1-4,4Z"/><circle id="Oval_4" data-name="Oval 4" class="cls-4" cx="146.34" cy="92.74" r="1"/><path id="Path_2-2" data-name="Path 2-2" class="cls-27" d="M152.76,83.69a9.63,9.63,0,0,1-4.67.82,10.84,10.84,0,0,1-4.44-2.1"/></g><g id="Group_Copy_5" data-name="Group Copy 5"><circle id="Oval_2-3" data-name="Oval 2-3" class="cls-2" cx="123.41" cy="93.74" r="3.99"/><path id="Oval_2-4" data-name="Oval 2-4" class="cls-2" d="M123.41,97.73a4,4,0,1,0,0-8,3.81,3.81,0,0,0-4,3.63,2.16,2.16,0,0,0,0,.36A4,4,0,0,0,123.41,97.73Z"/><circle id="Oval_4-2" data-name="Oval 4-2" class="cls-4" cx="121.41" cy="92.74" r="1"/><path id="Path_2-3" data-name="Path 2-3" class="cls-27" d="M119,83.7a9.72,9.72,0,0,0,4.67.81,11,11,0,0,0,4.44-2.09"/></g><path id="Stroke_67" data-name="Stroke 67" class="cls-5" d="M130.12,113.91a11.91,11.91,0,0,1,10.82,0"/><path id="Stroke_67_Copy" data-name="Stroke 67 Copy" class="cls-5" d="M133.38,102.5a4,4,0,0,1,4,0"/><path id="Stroke_67_Copy_3" data-name="Stroke 67 Copy 3" class="cls-29" d="M133.38,121.45a4,4,0,0,1,4,0"/></g></g><g id="hand_1_copy" data-name="hand 1 copy"><path id="Combined_Shape-3" data-name="Combined Shape-3" class="cls-13" d="M183.9,217.34c-2.61-.2-9.47-.28-14.15-6.85a15.62,15.62,0,0,1-2.73-9.34h0V189.46a95.78,95.78,0,0,0,11.46,1,61.67,61.67,0,0,0,7.69-.33c1.1-1.52,2.41-3.38,3.71-5.29,2.59-3.83,8.15-11.74,10.81-14.58a8.64,8.64,0,0,1,7.48-3.65,105.62,105.62,0,0,0,12.95-.31c3.8-.55,6.56-11.37,10-7.16,1.68,2.05-3.56,12.09-3.88,12.68-1.44,2.66-14.31,3.9-14.31,3.9s-3.5,1-4.67,3.62c-.79,1.8-3.18,11.4-8,20-6.26,11.16-13.52,18-16.22,18Z"/><path id="Stroke_67_Copy-2" data-name="Stroke 67 Copy-2" class="cls-5" d="M181.25,212.76a3.47,3.47,0,0,0,2,.35,3.43,3.43,0,0,0,1.94-.7"/><path id="Stroke_67-2" data-name="Stroke 67-2" class="cls-5" d="M183.49,194.69l5.26-8.35Z"/><path id="Stroke_67_Copy-3" data-name="Stroke 67 Copy-3" class="cls-5" d="M181.4,194.91a2.05,2.05,0,0,1,2,0"/></g><g id="ВАЛИК-2"><g id="Path_Copy_23-2" data-name="Path Copy 23-2"><path class="cls-22" d="M64.57,145.6H42.63a5,5,0,0,1-5-5v-13a5,5,0,0,1,5-5H64.57a5,5,0,0,1,5,5v13A5,5,0,0,1,64.57,145.6Z"/><path class="cls-2" d="M42.63,123.66a4,4,0,0,0-4,4v13a4,4,0,0,0,4,4H64.57a4,4,0,0,0,4-4v-13a4,4,0,0,0-4-4H42.63m0-2H64.57a6,6,0,0,1,6,6v13a6,6,0,0,1-6,6H42.63a6,6,0,0,1-6-6v-13A6,6,0,0,1,42.63,121.66Z"/></g><path id="Stroke_41-3" data-name="Stroke 41-3" class="cls-5" d="M44.63,137.62v-14"/><path id="Stroke_41_Copy_3" data-name="Stroke 41 Copy 3" class="cls-5" d="M50.61,137.62v-14"/><path id="Stroke_41_Copy_4" data-name="Stroke 41 Copy 4" class="cls-5" d="M57.59,137.62v-14"/><path id="Stroke_41_Copy_5" data-name="Stroke 41 Copy 5" class="cls-5" d="M63.57,137.62v-14"/><g id="Path_Copy_24-2" data-name="Path Copy 24-2"><path class="cls-8" d="M50.29,128.65A1.66,1.66,0,0,1,48.63,127a1,1,0,0,0-2,0,1.67,1.67,0,1,1-3.33,0,1,1,0,0,0-1-1,1.68,1.68,0,0,1-1.68-1.66v-1.67H56v1.66A1.66,1.66,0,0,1,54.29,126H53a1,1,0,0,0-1,1A1.67,1.67,0,0,1,50.29,128.65Z"/><path class="cls-2" d="M41.63,123.66v.67a.67.67,0,0,0,.68.66,2,2,0,0,1,2,2,.67.67,0,1,0,1.33,0,2,2,0,0,1,4,0,.66.66,0,0,0,.66.67A.67.67,0,0,0,51,127a2,2,0,0,1,2-2h1.33a.67.67,0,0,0,.66-.67v-.66H41.63m0-2H55a2,2,0,0,1,2,2v.66A2.67,2.67,0,0,1,54.29,127H53a2.67,2.67,0,0,1-5.33.1,2.67,2.67,0,0,1-5.33-.1,2.68,2.68,0,0,1-2.67-2.66v-.67A2,2,0,0,1,41.63,121.66Z"/></g><g id="РУЧКА-2"><path id="Path_Copy_25-2" data-name="Path Copy 25-2" class="cls-30" d="M68.56,149.93a1.25,1.25,0,0,1-1.25,1.26H60.24a3.76,3.76,0,0,0-3.72,3.75c0,7.57.27,23,1.27,27.33.3,1.33.59,2.59.81,3.77a5,5,0,0,1-9.93,1,5.55,5.55,0,0,1,0-1c.21-1.11.49-2.32.78-3.59,1-4.37,1.24-19.79,1.29-27.45A3.79,3.79,0,0,0,47,151.19h-7.1a1.26,1.26,0,0,1-1.25-1.26v-5.06a1.27,1.27,0,0,1,1.25-1.27H67.31a1.26,1.26,0,0,1,1.25,1.27Z"/><path id="Fill_63_Copy_4-2" data-name="Fill 63 Copy 4-2" class="cls-31" d="M53.6,187.48a2,2,0,1,1,2-2A2,2,0,0,1,53.6,187.48Z"/></g><g id="Group_54" data-name="Group 54"><path id="Stroke_41-4" data-name="Stroke 41-4" class="cls-5" d="M43.2,147.12h14"/><path id="Stroke_45-2" data-name="Stroke 45-2" class="cls-5" d="M61.54,147.12h2"/></g></g><g id="hand_1_copy_2" data-name="hand 1 copy 2"><path id="Combined_Shape-4" data-name="Combined Shape-4" class="cls-13" d="M85.54,217.34c2.61-.2,9.48-.29,14.17-6.88a15.73,15.73,0,0,0,2.75-9.31h0V189.43a97.37,97.37,0,0,1-11.45,1,61.35,61.35,0,0,1-7.66-.33c-1.1-1.53-2.41-3.39-3.71-5.32-2.59-3.84-9.49-11.49-12.14-14.34-.6-.63-3.25-10.27-8.1-10.1-.67,0-3.48,0-5.52,0h-2c-1.1,0-.33,3.23-1.11,3.55a10,10,0,0,1-4.17.5s-1.23,13.42-1.26,13.5c-.18.48,3.8,1.2,7.42,1.05,2.27-.1,6.12-.44,6.12-.44s1.72-.58,2.35.77c.86,1.81,3.17,11.42,8,20.07,6.25,11.18,13.51,18,16.21,18Z"/><g id="РУЧКА_Copy" data-name="РУЧКА Copy"><path id="Path_Copy_25-3" data-name="Path Copy 25-3" class="cls-32" d="M50.67,154.94c0,7.57-.26,23-1.26,27.33-.3,1.33-.59,2.58-.81,3.77a5,5,0,0,0,9.93,1,4.77,4.77,0,0,0,0-1c-.21-1.11-.48-2.32-.77-3.59-1-4.37-1.24-19.79-1.29-27.46C56.5,152.87,50.65,152.87,50.67,154.94Z"/><path id="Path_Copy_26" data-name="Path Copy 26" class="cls-30" d="M50.67,154.94c0,7.57-.26,23-1.26,27.33-.3,1.33-.59,2.58-.81,3.77a5,5,0,0,0,9.93,1,4.77,4.77,0,0,0,0-1c-.21-1.11-.48-2.32-.77-3.59-1-4.37-1.24-19.79-1.29-27.46C56.5,152.87,50.65,152.87,50.67,154.94Z"/><path id="Fill_63_Copy_4-3" data-name="Fill 63 Copy 4-3" class="cls-31" d="M53.6,187.48a2,2,0,1,0-2-2A2,2,0,0,0,53.6,187.48Z"/></g><g id="ПАЛЬЦЫ"><rect id="Rectangle_12" data-name="Rectangle 12" class="cls-13" x="44.66" y="162.55" width="9.97" height="4" rx="2"/><rect id="Rectangle_12_Copy" data-name="Rectangle 12 Copy" class="cls-13" x="42.78" y="166.54" width="11.84" height="4" rx="2"/><rect id="Rectangle_12_Copy_2" data-name="Rectangle 12 Copy 2" class="cls-13" x="43.58" y="170.53" width="11.05" height="4" rx="2"/><rect id="Rectangle_12_Copy_3" data-name="Rectangle 12 Copy 3" class="cls-13" x="44.98" y="174.51" width="9.65" height="4" rx="2"/><path id="Rectangle_12_Copy_4" data-name="Rectangle 12 Copy 4" class="cls-13" d="M50.33,161.55,50,165.82a2,2,0,0,0,1.54,2.1l.74.17,1.1-.26a2,2,0,0,0,1.5-1.56l.75-3.86s0,4.75,1.79,7,10,1.4,10,1.4v-.76a21.31,21.31,0,0,0-2.28-6,61.41,61.41,0,0,0-3.36-5.54c-.88-1.18-8.1-.94-8.1-.94a4.37,4.37,0,0,0-2.42.94C50.37,159.34,50.33,161.55,50.33,161.55Z"/></g><path id="Rectangle_13" data-name="Rectangle 13" class="cls-9" d="M66.32,169.92l-3.74-1.39V170a1.16,1.16,0,0,1,.72,1,1.06,1.06,0,0,1-.72,1v2.5l6-1.47Z"/><path id="Stroke_67_Copy-4" data-name="Stroke 67 Copy-4" class="cls-5" d="M88.5,212.76a4,4,0,0,1-4-.35"/><path id="Stroke_67-3" data-name="Stroke 67-3" class="cls-5" d="M86.27,194.69,81,186.34Z"/><path id="Stroke_67_Copy-5" data-name="Stroke 67 Copy-5" class="cls-5" d="M88.35,194.91a1.79,1.79,0,0,0-1-.26,1.76,1.76,0,0,0-1,.26"/></g></g></g></svg>