<svg xmlns="http://www.w3.org/2000/svg" viewBox="0 0 1432.38 557.57"><defs><style>.cls-1{fill:#02e8fd;opacity:0.4;isolation:isolate;}</style></defs><g id="Layer_2" data-name="Layer 2"><g id="Layer_1-2" data-name="Layer 1"><path class="cls-1" d="M9,254.77c2.43,2.74,5.8,6.3,10.48,10.91a139.84,139.84,0,0,0,10.93,9.87c.13.09.22.2.34.29a7.33,7.33,0,0,0,8.89.3,1.76,1.76,0,0,0,.3-.24l.3-.24a6.59,6.59,0,0,0,2.06-2.92c1.27-3.43,2.83-8.09,4.71-14.41a135.58,135.58,0,0,0,3.6-14.62c0-.1,0-.12,0-.13a.8.8,0,0,0,0-.21A6.77,6.77,0,0,0,46.59,236a2.92,2.92,0,0,0-.49-.19,1.72,1.72,0,0,0-.21-.07,7.62,7.62,0,0,0-3.67-.23c-1.68.32-3.62.72-5.87,1.22-1.72.37-3.59.81-5.7,1.34L27,239c-6.14,1.58-10.71,3-14.06,4.25l-.82.28A7.13,7.13,0,0,0,7.28,250,6.55,6.55,0,0,0,9,254.77Z"/><path class="cls-1" d="M373.86,44.13c-.09,3.65-.05,8.55.23,15.12a138.25,138.25,0,0,0,1.26,14.66c0,.16,0,.3.06.45a7.31,7.31,0,0,0,6.29,6.27,1.64,1.64,0,0,0,.38,0l.39,0A6.58,6.58,0,0,0,386,80c3.27-1.65,7.59-4,13.27-7.33a139.8,139.8,0,0,0,12.6-8.24c.07-.07.09-.09.11-.08a.57.57,0,0,0,.18-.12,6.77,6.77,0,0,0,2.05-8.15,4.09,4.09,0,0,0-.23-.47c0-.06-.07-.14-.11-.2a7.61,7.61,0,0,0-2.53-2.67c-1.44-.9-3.13-1.94-5.12-3.1-1.51-.91-3.18-1.86-5.08-2.91-1-.58-2.13-1.17-3.28-1.81-5.56-3-9.9-5.08-13.18-6.48-.26-.1-.52-.24-.79-.35a7.13,7.13,0,0,0-8,1.43A6.56,6.56,0,0,0,373.86,44.13Z"/><path class="cls-1" d="M874,90.55l-2.85-7.79a5.07,5.07,0,0,0-1.61-2.16l-6.66-5.09a4.72,4.72,0,0,1-1-6.61,4.67,4.67,0,0,1,.91-.92l6.6-5a4.76,4.76,0,0,0,1.6-2.16l2.78-7.75A4.84,4.84,0,0,1,880,50.23a5.06,5.06,0,0,1,1,.54l7,4.67a4.64,4.64,0,0,0,2.58.84l8.36.3a4.82,4.82,0,0,1,4.7,5,4.75,4.75,0,0,1-.18,1.18l-2.31,7.9a4.53,4.53,0,0,0,0,2.68l2.42,7.93a4.71,4.71,0,0,1-3.16,5.87,4.53,4.53,0,0,1-1.31.2l-8.38.21a4.54,4.54,0,0,0-2.57.8l-6.88,4.63a4.91,4.91,0,0,1-6.79-1.35A5,5,0,0,1,874,90.55Z"/><path class="cls-1" d="M107.08,42.93,99.5,39.57a5,5,0,0,0-2.68-.35l-8.28,1.25a4.73,4.73,0,0,1-5.42-3.91,4.65,4.65,0,0,1,0-1.29l1-8.22a4.76,4.76,0,0,0-.44-2.65L80,17a4.82,4.82,0,0,1,2.28-6.44,4.32,4.32,0,0,1,1.1-.37l8.19-1.75A4.72,4.72,0,0,0,94,7.19l6-5.81a4.84,4.84,0,0,1,6.83.06,5.52,5.52,0,0,1,.72,1l4.08,7.15a4.5,4.5,0,0,0,1.94,1.85L121,15.16a4.71,4.71,0,0,1,2,6.35,4.34,4.34,0,0,1-.77,1.08l-5.67,6.17a4.66,4.66,0,0,0-1.21,2.4l-1.46,8.16a4.88,4.88,0,0,1-5.68,3.94A4.65,4.65,0,0,1,107.08,42.93Z"/><circle class="cls-1" cx="637.32" cy="152.7" r="16.09"/><circle class="cls-1" cx="16.09" cy="541.48" r="16.09"/><path class="cls-1" d="M1395,205.87l-3.11-8.47a5.23,5.23,0,0,0-1.74-2.35l-7.24-5.54a5.14,5.14,0,0,1-1-7.2,4.69,4.69,0,0,1,1-1l7.17-5.44a5.34,5.34,0,0,0,1.74-2.35l3-8.44a5.27,5.27,0,0,1,6.77-3.09,5.45,5.45,0,0,1,1.12.59l7.55,5.09a5.16,5.16,0,0,0,2.81.91l9.11.32a5.25,5.25,0,0,1,5.1,5.39,5.08,5.08,0,0,1-.19,1.28l-2.51,8.6a4.93,4.93,0,0,0,0,2.92l2.64,8.63a5.14,5.14,0,0,1-3.44,6.39,5.33,5.33,0,0,1-1.43.22l-9.11.22a5.05,5.05,0,0,0-2.79.87l-7.49,5a5.34,5.34,0,0,1-7.39-1.47A5.9,5.9,0,0,1,1395,205.87Z"/><circle class="cls-1" cx="1137.5" cy="273.5" r="17.5"/><circle class="cls-1" cx="1414.88" cy="502.4" r="17.5"/><circle class="cls-1" cx="1234.45" cy="52.67" r="17.5"/></g></g></svg>