<svg xmlns="http://www.w3.org/2000/svg" xmlns:xlink="http://www.w3.org/1999/xlink" viewBox="0 0 207.7 689.3"><defs><style>.cls-1,.cls-12,.cls-2,.cls-20,.cls-21,.cls-24,.cls-27,.cls-29,.cls-3,.cls-34,.cls-5{fill:none;}.cls-2,.cls-5{stroke:#fff;}.cls-10,.cls-12,.cls-13,.cls-19,.cls-2,.cls-21,.cls-24,.cls-27,.cls-29,.cls-3,.cls-31,.cls-33,.cls-34,.cls-35,.cls-8{stroke-linecap:round;}.cls-10,.cls-12,.cls-13,.cls-16,.cls-18,.cls-19,.cls-2,.cls-20,.cls-24,.cls-27,.cls-29,.cls-3,.cls-31,.cls-33,.cls-34,.cls-35,.cls-8{stroke-linejoin:round;}.cls-2{stroke-width:4px;}.cls-3{stroke:#b5c5ce;}.cls-10,.cls-12,.cls-13,.cls-16,.cls-18,.cls-19,.cls-20,.cls-21,.cls-24,.cls-27,.cls-3,.cls-31,.cls-33,.cls-34,.cls-35,.cls-8{stroke-width:2px;}.cls-4{fill:#b5c5ce;}.cls-21,.cls-5{stroke-miterlimit:10;}.cls-10,.cls-31,.cls-6,.cls-8{fill:#fff;}.cls-7{fill:#f0f9fe;}.cls-19,.cls-8{stroke:#009dff;}.cls-9{fill:#fccab4;}.cls-10,.cls-12,.cls-13,.cls-16,.cls-18,.cls-20,.cls-21,.cls-29,.cls-33,.cls-35{stroke:#7c97a8;}.cls-11,.cls-16,.cls-19,.cls-33{fill:#f4f4f5;}.cls-13,.cls-17{fill:#d7dbde;}.cls-14,.cls-35{fill:#7c97a8;}.cls-15,.cls-18{fill:#edf2f4;}.cls-22{fill:#e9ebec;}.cls-23{fill:#504b46;}.cls-24{stroke:#e9ebec;}.cls-25{clip-path:url(#clip-path);}.cls-26{clip-path:url(#clip-path-2);}.cls-27{stroke:#f4f4f5;}.cls-28{clip-path:url(#clip-path-3);}.cls-30{opacity:0.2;}.cls-31,.cls-34{stroke:#504b46;}.cls-32{fill:#8aa2b2;}</style><clipPath id="clip-path"><rect class="cls-1" x="166.49" y="98.58" width="15.48" height="18.74"/></clipPath><clipPath id="clip-path-2"><path class="cls-1" d="M117.36,154.17a13.54,13.54,0,0,1-19.13.82l-.16-.15c-5.51-5.14-9.46-12.54-2-20.53s15.11-4.57,20.63.57a13.53,13.53,0,0,1,.82,19.13Z"/></clipPath><clipPath id="clip-path-3"><path class="cls-1" d="M97.4,135.55a13.55,13.55,0,0,1-19.14.82,1.07,1.07,0,0,0-.16-.14c-5.51-5.15-9.45-12.55-2-20.54s15.11-4.57,20.62.57a13.54,13.54,0,0,1,.82,19.13Z"/></clipPath></defs><title>Asset 2</title><g id="Layer_2" data-name="Layer 2"><g id="im"><g id="_2" data-name=" 2"><g id="Group_31_Copy_2" data-name="Group 31 Copy 2"><g id="Path_7_Copy" data-name="Path 7 Copy"><path id="Path_7_Copy-2" data-name="Path 7 Copy-2" class="cls-2" d="M104.27,375.22l0,80.52"/><path id="Path_7_Copy-3" data-name="Path 7 Copy-3" class="cls-3" d="M104.27,375.22l0,80.52"/></g></g><g id="Group_38_Copy" data-name="Group 38 Copy"><g id="Oval_3_Copy_3" data-name="Oval 3 Copy 3"><circle id="Oval_3_Copy_3-2" data-name="Oval 3 Copy 3-2" class="cls-4" cx="104.28" cy="386.5" r="13"/><circle id="Oval_3_Copy_3-3" data-name="Oval 3 Copy 3-3" class="cls-5" cx="104.28" cy="386.5" r="13"/></g><g id="ic_user_without_photo-9" data-name="ic user without photo-9"><path id="Combined_Shape-26" data-name="Combined Shape-26" class="cls-6" d="M104.22,393.91a7.65,7.65,0,0,1-5.45-2.25c.25-2.69,2.92-3.89,5.45-3.89s5.2,1.2,5.45,3.89A7.62,7.62,0,0,1,104.22,393.91Zm0-7.76a2.9,2.9,0,1,1,2.92-2.9,2.9,2.9,0,0,1-2.92,2.9Z"/></g></g><g id="Group_31_Copy" data-name="Group 31 Copy"><g id="Path_7_Copy-4" data-name="Path 7 Copy-4"><path id="Path_7_Copy-5" data-name="Path 7 Copy-5" class="cls-2" d="M104.26,372.18l0-134.81"/><path id="Path_7_Copy-6" data-name="Path 7 Copy-6" class="cls-3" d="M104.26,372.18l0-134.81"/></g><g id="Oval_3_Copy_3-4" data-name="Oval 3 Copy 3-4"><ellipse id="Oval_3_Copy_3-5" data-name="Oval 3 Copy 3-5" class="cls-4" cx="104.26" cy="236.04" rx="4.01" ry="4" transform="translate(-151.76 203.84) rotate(-59)"/><ellipse id="Oval_3_Copy_3-6" data-name="Oval 3 Copy 3-6" class="cls-5" cx="104.26" cy="236.04" rx="4.01" ry="4" transform="translate(-151.76 203.84) rotate(-59)"/></g></g><g id="Group_38_Copy-2" data-name="Group 38 Copy-2"><g id="Oval_3_Copy_3-7" data-name="Oval 3 Copy 3-7"><circle id="Oval_3_Copy_3-8" data-name="Oval 3 Copy 3-8" class="cls-4" cx="104.28" cy="307.02" r="13"/><circle id="Oval_3_Copy_3-9" data-name="Oval 3 Copy 3-9" class="cls-5" cx="104.28" cy="307.02" r="13"/></g><g id="ic_user_without_photo-11" data-name="ic user without photo-11"><path id="Combined_Shape-27" data-name="Combined Shape-27" class="cls-6" d="M104.22,314.43a7.74,7.74,0,0,1-5.45-2.25c.25-2.69,2.92-3.89,5.45-3.89s5.2,1.2,5.45,3.89A7.7,7.7,0,0,1,104.22,314.43Zm0-7.77a2.9,2.9,0,1,1,2.92-2.9,2.9,2.9,0,0,1-2.92,2.9Z"/></g></g><g id="Group_38_Copy_2" data-name="Group 38 Copy 2"><g id="Oval_3_Copy_3-10" data-name="Oval 3 Copy 3-10"><circle id="Oval_3_Copy_3-11" data-name="Oval 3 Copy 3-11" class="cls-7" cx="104.28" cy="346.02" r="16"/><circle id="Oval_3_Copy_3-12" data-name="Oval 3 Copy 3-12" class="cls-1" cx="104.28" cy="346.02" r="16"/></g></g></g><g id="bj_2" data-name="bj 2"><g id="im_search_nanny_passive_bl_2" data-name="im search nanny passive bl 2"><g id="im_search_nanny_passive_bl_2-2" data-name="im search nanny passive bl 2-2"><g id="im_search_nanny_active_bl_2" data-name="im search nanny active bl 2"><g id="рука_2_пл" data-name="рука 2 пл"><path id="Fill_35_Copy_12" data-name="Fill 35 Copy 12" class="cls-8" d="M77.84,160.84s-4-1.74-7.46-3.42-4.31,1.34-4.31,1.34-3.12-3-4-17.7,0-14.78,0-14.78H78.65Z"/><path id="Fill_37-2" data-name="Fill 37-2" class="cls-9" d="M77.68,140.53c-.2.07-.39.15-.6.21a26.2,26.2,0,0,1-14.53,0c-.21-.06-.4-.14-.6-.21v-6.91H77.68Z"/><path id="Fill_35_Copy_15" data-name="Fill 35 Copy 15" class="cls-10" d="M77.84,160.84s-4-1.74-7.46-3.42-5.48,0-5.48,0-2-1.63-2.79-16.36,0-14.78,0-14.78H78.65Z"/></g><g id="тело"><g id="Group_7" data-name="Group 7"><path id="Fill_13_Copy_2-2" data-name="Fill 13 Copy 2-2" class="cls-11" d="M147.09,127a33.22,33.22,0,0,0-33.22-33.23H93.93A33.24,33.24,0,0,0,60.69,127h0v8.63H76.58l-.11,34.22s14.36,4.89,27.61,4.89,26.48-4.89,26.48-4.89l-.21-34.22h16.74Z"/><path id="Fill_15-3" data-name="Fill 15-3" class="cls-6" d="M147.09,127a33.22,33.22,0,0,0-33.22-33.23H93.93A33.24,33.24,0,0,0,60.69,127h0v13.29A33.24,33.24,0,0,1,93.93,107h19.94a33.22,33.22,0,0,1,33.22,33.23Z"/><path id="Path-3" class="cls-12" d="M147.09,127a33.22,33.22,0,0,0-33.22-33.23H93.93A33.24,33.24,0,0,0,60.69,127h0v8.63H77.27v34.22s14,4.89,26.81,4.89,25.56-4.89,25.56-4.89V135.6h17.45Z"/></g><g id="Group_12" data-name="Group 12"><path id="Rectangle_7" data-name="Rectangle 7" class="cls-11" d="M76.86,153.74h53.78s4.19,3.74,7.14,7,5.08,5.74,5.08,5.74-17.86,11.14-39,11.14-39.24-11.14-39.24-11.14,2.23-2.58,5.29-6A96.34,96.34,0,0,1,76.86,153.74Z"/><path id="Combined_Shape-38" data-name="Combined Shape-38" class="cls-6" d="M111.76,155.17H95.31a33,33,0,0,0-26.07,13.56c-1.92-1-3.29-1.74-4-2.17.12-.51.26-1,.41-1.51.94-1.09,2.47-2.87,4.3-4.94,2.19-2.43,4.51-4.74,6.93-6.94h53.78s4.19,3.83,7.14,7.17c1.34,1.52,2.51,2.87,3.39,3.9a24.76,24.76,0,0,1,.73,2.55c-.83.49-2.17,1.24-3.94,2.13A33,33,0,0,0,111.76,155.17Z"/><path id="Rectangle_7_Copy" data-name="Rectangle 7 Copy" class="cls-12" d="M76.86,153.74h53.78s4.19,3.74,7.14,7,5.08,5.74,5.08,5.74-17.86,11.14-39,11.14-39.24-11.14-39.24-11.14,2.23-2.58,5.29-6A96.34,96.34,0,0,1,76.86,153.74Z"/></g><g id="Group_3-2" data-name="Group 3-2"><path id="Rectangle_3-5" data-name="Rectangle 3-5" class="cls-13" d="M58.26,131.17a69.56,69.56,0,0,0,9.66.82,62.61,62.61,0,0,0,9.37-.82v6.52a65.13,65.13,0,0,1-9.55.82,64,64,0,0,1-9.48-.82Z"/><path id="Fill_63-4" data-name="Fill 63-4" class="cls-14" d="M63,134.43a1.63,1.63,0,1,1-1.63-1.63h0A1.63,1.63,0,0,1,63,134.43h0"/></g><g id="Group_3_Copy-2" data-name="Group 3 Copy-2"><path id="Rectangle_3-6" data-name="Rectangle 3-6" class="cls-13" d="M149.5,131.17a64.61,64.61,0,0,1-9.72.82,72.67,72.67,0,0,1-10.11-.82v6.52a70,70,0,0,0,9.91.82,70.23,70.23,0,0,0,9.92-.82Z"/><path id="Fill_63-5" data-name="Fill 63-5" class="cls-14" d="M144.49,134.43a1.63,1.63,0,1,0,1.63-1.63,1.63,1.63,0,0,0-1.63,1.63h0"/></g><path id="Fill_19-2" data-name="Fill 19-2" class="cls-15" d="M129.65,142.93V131.3"/><path id="Stroke_21-2" data-name="Stroke 21-2" class="cls-12" d="M129.65,147V127.23"/><path id="Fill_23-2" data-name="Fill 23-2" class="cls-15" d="M129.65,126.32v-1.67"/><path id="Stroke_25-2" data-name="Stroke 25-2" class="cls-12" d="M129.65,122.24v-1.66"/><path id="Fill_39-2" data-name="Fill 39-2" class="cls-15" d="M77.29,142.93V131.3"/><path id="Stroke_41-2" data-name="Stroke 41-2" class="cls-12" d="M77.29,147V127.23"/><path id="Fill_43-2" data-name="Fill 43-2" class="cls-15" d="M77.29,123.87v-1.66"/><path id="Stroke_45-2" data-name="Stroke 45-2" class="cls-12" d="M77.29,122.24v-1.66"/></g><g id="Лицо_волосы_шея" data-name="Лицо волосы шея"><path id="Stroke_57_Copy_3" data-name="Stroke 57 Copy 3" class="cls-16" d="M135.53,69.86c0,5.21-18.58,14.87-32.92,14.87S72.29,75,71.22,69.85c-.87-4.88,3.49-8.6,3.49-8.6H131.2S135.53,64.64,135.53,69.86Z"/><g id="neck-2"><g id="Fill_35_Copy" data-name="Fill 35 Copy"><path class="cls-17" d="M103.59,117.49a15.06,15.06,0,0,1-8.09-2.1,12.83,12.83,0,0,1-4.44-4.79,18.44,18.44,0,0,1-2.15-8.2v-.29c0-1.68-.12-6.82,3.48-10.5,2.49-2.53,6.19-3.81,11-3.81s8.68,1.3,11.23,3.87a12.38,12.38,0,0,1,3.22,6.08,18.55,18.55,0,0,1,.42,4.41v.19a18.36,18.36,0,0,1-2.14,8.3,12.77,12.77,0,0,1-4.45,4.76A15.08,15.08,0,0,1,103.59,117.49Z"/><path class="cls-14" d="M103.59,116.49c12.84,0,13.67-12.16,13.67-14.14s.51-13.55-13.87-13.55-13.48,11.79-13.48,13.6.83,14.09,13.68,14.09m0,2c-7.72,0-11.55-4-13.41-7.4a19.52,19.52,0,0,1-2.27-8.69v-.27c0-1.79-.13-7.25,3.77-11.22,2.68-2.73,6.62-4.11,11.71-4.11s9.2,1.4,11.94,4.17a13.16,13.16,0,0,1,3.48,6.56,19.33,19.33,0,0,1,.45,4.64v.18a19.45,19.45,0,0,1-2.27,8.78C115.14,114.49,111.31,118.49,103.59,118.49Z"/></g><path id="Fill_35-2" data-name="Fill 35-2" class="cls-10" d="M113.47,103.53s0,7.75-9.78,7.75-9.78-7.75-9.78-7.75V78.8h19.56Z"/><path id="Fill_37-3" data-name="Fill 37-3" class="cls-11" d="M94.79,93.34c.23.11.44.24.68.34a21.36,21.36,0,0,0,16.57,0c.24-.1.45-.23.68-.34V82.06H94.79Z"/></g><path id="Stroke_57_Copy_19" data-name="Stroke 57 Copy 19" class="cls-16" d="M102.86,1c-19.3.69-16.25,18.39-16.25,18.39a162.51,162.51,0,0,0,16.66.89,143,143,0,0,0,16-.89S122.16.33,102.86,1Z"/><path id="Stroke_57_Copy_21" data-name="Stroke 57 Copy 21" class="cls-18" d="M102.86,8.34C83.56,8.77,86.61,19.8,86.61,19.8s7.58.56,16.66.56,16-.56,16-.56S122.16,7.92,102.86,8.34Z"/><path id="Fill_63_Copy_18" data-name="Fill 63 Copy 18" class="cls-10" d="M88.27,15.88a2,2,0,1,1-2-2h0a2,2,0,0,1,2,2"/><path id="Fill_63_Copy_17" data-name="Fill 63 Copy 17" class="cls-10" d="M121.68,14.25a2,2,0,1,1-2-2h0a2,2,0,0,1,2,2"/><g id="волосы_1_пл" data-name="волосы 1 пл"><path id="Stroke_57_Copy_7" data-name="Stroke 57 Copy 7" class="cls-19" d="M135.92,65.84a38.93,38.93,0,0,1-3.19,3s13.18-2.28,13.18-13.45c0-9-6.16-12.53-10-14.46,0-.32-.06-.64-.1-1a31.31,31.31,0,0,0-31.1-27.67c-16.43,0-32.3,12.63-33.53,28.64-5.72,0-11.88,9.78-6.49,20.16,4.25,8.2,13.24,8.28,13.24,8.28s-3-1.28-3.39-1.58c-2.77-1.93-4.46-5-4.46-7.47,0-8.93,7.39-8.53,7.39-8.86V60.3l.46,7.47h52.13s.25-11.76.25-16C130.31,51.57,140.28,59.1,135.92,65.84Z"/><path id="Stroke_57_Copy_5" data-name="Stroke 57 Copy 5" class="cls-20" d="M135.92,65.84a38.93,38.93,0,0,1-3.19,3s13.18-2.28,13.18-13.45c0-9-6.16-12.53-10-14.46,0-.32-.06-.64-.1-1a31.31,31.31,0,0,0-31.1-27.67c-16.43,0-32.3,12.63-33.53,28.64-5.72,0-11.88,9.78-6.49,20.16,4.25,8.2,13.24,8.28,13.24,8.28s-3-1.28-3.39-1.58c-2.77-1.93-4.46-5-4.46-7.47,0-8.93,7.39-8.53,7.39-8.86V60.3l.46,7.47h52.13s.25-11.76.25-16C130.31,51.57,140.28,59.1,135.92,65.84Z"/><path id="Path_2_Copy-2" data-name="Path 2 Copy-2" class="cls-21" d="M71.82,40.89l.27,0c10.47-.51,13.08-6.3,13.08-6.3"/><path id="Path_2_Copy_2" data-name="Path 2 Copy 2" class="cls-21" d="M72.74,36.69l.14,0c5.6-.71,6.79-2.41,6.79-2.41"/></g><g id="лицо_челка" data-name="лицо челка"><g id="уши_серьги" data-name="уши серьги"><path id="Fill_5_Copy-2" data-name="Fill 5 Copy-2" class="cls-10" d="M135.53,64.36a4.89,4.89,0,1,1-4.89-4.89h0a4.89,4.89,0,0,1,4.89,4.89"/><path id="Fill_5_Copy_3" data-name="Fill 5 Copy 3" class="cls-10" d="M82.57,64.36a4.89,4.89,0,1,1-4.89-4.89h0a4.89,4.89,0,0,1,4.89,4.89"/><g id="Group_8" data-name="Group 8"><path id="Fill_63-6" data-name="Fill 63-6" class="cls-10" d="M132.27,70.47a2,2,0,1,1-2-2h0a2,2,0,0,1,2,2"/><path id="Fill_63_Copy_2" data-name="Fill 63 Copy 2" class="cls-10" d="M79.31,70.47a2,2,0,1,1-2-2h0a2,2,0,0,1,2,2"/></g></g><path id="Stroke_61_Copy_5" data-name="Stroke 61 Copy 5" class="cls-6" d="M91.14,37.2A14.29,14.29,0,0,1,77.29,51.43V62.25a26.59,26.59,0,0,0,53.18,0V51.85s-5-5.68-17.29-5.64C104.14,46.23,94.35,41.76,91.14,37.2Z"/><g id="веснушки"><path id="Fill_63_Copy_2-2" data-name="Fill 63 Copy 2-2" class="cls-22" d="M88.27,68.43a.81.81,0,0,1-.81-.81.82.82,0,0,1,.81-.82.82.82,0,0,1,.82.82.82.82,0,0,1-.82.81Z"/><path id="Fill_63_Copy_9" data-name="Fill 63 Copy 9" class="cls-22" d="M85.83,65.17a.82.82,0,0,1-.82-.81.82.82,0,0,1,.82-.82.82.82,0,0,1,.81.82.81.81,0,0,1-.81.81Z"/><path id="Fill_63_Copy_3" data-name="Fill 63 Copy 3" class="cls-22" d="M92.35,66.8a.81.81,0,0,1-.82-.81.82.82,0,1,1,1.63,0,.81.81,0,0,1-.81.81Z"/></g><g id="веснушки-2"><path id="Fill_63_Copy_2-3" data-name="Fill 63 Copy 2-3" class="cls-22" d="M119.23,68.43a.82.82,0,0,0,.82-.81.82.82,0,0,0-.82-.82.82.82,0,0,0-.81.82.81.81,0,0,0,.81.81Z"/><path id="Fill_63_Copy_10" data-name="Fill 63 Copy 10" class="cls-22" d="M121.68,65.17a.81.81,0,0,0,.81-.81.82.82,0,0,0-.81-.82.82.82,0,0,0-.82.82.82.82,0,0,0,.82.81Z"/><path id="Fill_63_Copy_3-2" data-name="Fill 63 Copy 3-2" class="cls-22" d="M115.16,66.8A.81.81,0,0,0,116,66a.82.82,0,0,0-.81-.82.82.82,0,0,0-.82.82.82.82,0,0,0,.82.81Z"/></g><path id="Stroke_61_Copy_6" data-name="Stroke 61 Copy 6" class="cls-12" d="M91.14,37.2A14.29,14.29,0,0,1,77.29,51.43V62.25a26.59,26.59,0,0,0,53.18,0V51.85s-5-5.68-17.29-5.64C104.14,46.23,94.35,41.76,91.14,37.2Z"/><path id="Stroke_61_Copy_2-3" data-name="Stroke 61 Copy 2-3" class="cls-12" d="M94.88,34.54A37.08,37.08,0,0,0,111.53,40c6.18.45,12.3-.44,16.79-.37a24.67,24.67,0,0,1,8.06,1.49"/><path id="Stroke_61_Copy_3-2" data-name="Stroke 61 Copy 3-2" class="cls-12" d="M95.52,28.25c3.53,3.22,10.48,6.36,17.64,6.88a30.5,30.5,0,0,0,5.49-.07"/><path id="Stroke_61_Copy_4-2" data-name="Stroke 61 Copy 4-2" class="cls-12" d="M112.18,13.18a29.51,29.51,0,0,0-3-.34c-8.63-.54-13.54,3.6-16.65,10.85-1.85,4.33-1.3,7.81-1.3,14.09"/><g id="глаз"><circle id="Oval_2-5" data-name="Oval 2-5" class="cls-23" cx="114.34" cy="59.47" r="3.26"/><path id="Oval_2-6" data-name="Oval 2-6" class="cls-14" d="M114.35,62.73a3.26,3.26,0,0,1-3.26-3.26h0a3.25,3.25,0,0,1,3.25-3.26h4.6c1,0-1.34.43-1.34,3.26a3.25,3.25,0,0,1-3.25,3.26Z"/><path id="Oval_2_Copy" data-name="Oval 2 Copy" class="cls-14" d="M115.8,61.94A3.26,3.26,0,1,1,113,56l4.16-1.94c.88-.41-1,.95.17,3.52a3.26,3.26,0,0,1-1.57,4.33Z"/><circle id="Oval_4-3" data-name="Oval 4-3" class="cls-6" cx="112.72" cy="58.65" r="0.81"/><path id="Path_2-4" data-name="Path 2-4" class="cls-21" d="M110.35,51.39a8,8,0,0,1,3.82-.66,8.77,8.77,0,0,1,3.62,1.71"/></g><g id="глаз-2"><circle id="Oval_2-7" data-name="Oval 2-7" class="cls-23" cx="93.97" cy="59.47" r="3.26"/><path id="Oval_2-8" data-name="Oval 2-8" class="cls-14" d="M94,62.73a3.26,3.26,0,0,0,0-6.52h-4.6c-1,0,1.34.43,1.34,3.26A3.25,3.25,0,0,0,94,62.73Z"/><path id="Oval_2_Copy-2" data-name="Oval 2 Copy-2" class="cls-14" d="M92.52,61.94A3.26,3.26,0,0,0,95.28,56l-4.17-1.94c-.87-.41,1,.95-.16,3.52a3.26,3.26,0,0,0,1.57,4.33Z"/><circle id="Oval_4-4" data-name="Oval 4-4" class="cls-6" cx="92.35" cy="58.65" r="0.81"/><path id="Path_2-5" data-name="Path 2-5" class="cls-21" d="M98,51.39a8,8,0,0,0-3.82-.66,8.77,8.77,0,0,0-3.62,1.71"/></g><g id="нос"><path id="Stroke_67_Copy-6" data-name="Stroke 67 Copy-6" class="cls-12" d="M102.12,66.62a2.78,2.78,0,0,1,1.63-.43,2.74,2.74,0,0,1,1.63.43"/></g><g id="губы"><path id="Stroke_67-3" data-name="Stroke 67-3" class="cls-12" d="M100.8,75s1.6-.1,2.94-.1,2.93.1,2.93.1"/><path id="Stroke_67_Copy_4" data-name="Stroke 67 Copy 4" class="cls-24" d="M102.12,73.14c.2-.42.57-.84,1.63-.84a1.78,1.78,0,0,1,1.63.84,11,11,0,0,0-1.63-.21A11.36,11.36,0,0,0,102.12,73.14Z"/><path id="Stroke_67_Copy_5" data-name="Stroke 67 Copy 5" class="cls-24" d="M102.12,77.19c.2.42.57.84,1.63.84a1.78,1.78,0,0,0,1.63-.84,3.27,3.27,0,0,0-1.63-.36A3.32,3.32,0,0,0,102.12,77.19Z"/></g></g></g><g id="рука_телефон" data-name="рука телефон"><g id="hand_part_2-2" data-name="hand part 2-2"><path id="Combined_Shape-39" data-name="Combined Shape-39" class="cls-10" d="M144.22,160.46c-2.13-.16-7.74-.23-11.56-5.6a12.71,12.71,0,0,1-2.23-7.63h0v-9.55a81.51,81.51,0,0,0,9.36.81,50.83,50.83,0,0,0,6.29-.27c.9-1.24,2-2.76,3-4.33A138.34,138.34,0,0,1,157.92,122a9.93,9.93,0,0,1,1.61-1.63c1-.74.52-3.6,2.34-5.58s5.89-5.67,5.89-5.67L177,122.41s-6.12,3.34-7.07,3.71c-1.27.5-2.89.1-3.72.57a6,6,0,0,0-2.09,2.71c-.64,1.47-2.6,9.31-6.56,16.37-5.12,9.13-11,14.69-13.26,14.69Z"/><path id="Stroke_67-4" data-name="Stroke 67-4" class="cls-12" d="M143.75,142.07l4.31-6.82Z"/><path id="Stroke_67_Copy-7" data-name="Stroke 67 Copy-7" class="cls-12" d="M142.05,142.25a1.69,1.69,0,0,1,1.63,0"/><g id="Group_42-2" data-name="Group 42-2"><path id="Rectangle_12_Copy-3" data-name="Rectangle 12 Copy-3" class="cls-10" d="M184,107.2l-5.53,3.45a1.62,1.62,0,0,1-2.24-.52h0a1.62,1.62,0,0,1,.52-2.24l5.52-3.46a1.64,1.64,0,0,1,2.25.52h0A1.63,1.63,0,0,1,184,107.2Z"/><path id="Rectangle_12_Copy_5-2" data-name="Rectangle 12 Copy 5-2" class="cls-10" d="M184.79,110.46l-5.53,3.45a1.63,1.63,0,0,1-2.25-.52h0a1.63,1.63,0,0,1,.52-2.24l5.53-3.46a1.65,1.65,0,0,1,2.25.52h0A1.65,1.65,0,0,1,184.79,110.46Z"/><path id="Rectangle_12_Copy_6-2" data-name="Rectangle 12 Copy 6-2" class="cls-10" d="M184.79,114.53,179.26,118a1.65,1.65,0,0,1-2.25-.52h0a1.64,1.64,0,0,1,.52-2.25l5.53-3.45a1.63,1.63,0,0,1,2.25.52h0A1.63,1.63,0,0,1,184.79,114.53Z"/><path id="Rectangle_12_Copy_7-2" data-name="Rectangle 12 Copy 7-2" class="cls-10" d="M184.38,116.18a1.63,1.63,0,0,1-.52,2.25l-.17.09-2.88,1.35a1.63,1.63,0,0,1-2.07-.62h0a1.61,1.61,0,0,1,.52-2.22l.16-.09,2.9-1.35a1.62,1.62,0,0,1,2.07.61Z"/></g></g><g id="phone-2"><rect id="Rectangle_15-2" data-name="Rectangle 15-2" class="cls-10" x="166.49" y="94.51" width="15.48" height="28.52" rx="2"/><path id="Fill_63-7" data-name="Fill 63-7" class="cls-14" d="M174.23,121.4a1.23,1.23,0,1,0-1.22-1.23A1.23,1.23,0,0,0,174.23,121.4Z"/><g id="Group_43-3" data-name="Group 43-3"><rect id="Rectangle_15_Copy-5" data-name="Rectangle 15 Copy-5" class="cls-11" x="166.49" y="98.58" width="15.48" height="18.74"/><g class="cls-25"><g id="Group_43-4" data-name="Group 43-4"><path id="Rectangle_15_Copy_3-2" data-name="Rectangle 15 Copy 3-2" class="cls-6" d="M176.27,98.58h-9V110Z"/><path id="Rectangle_15_Copy_4-2" data-name="Rectangle 15 Copy 4-2" class="cls-6" d="M180.35,99.4H177l-9.67,12.21v4.09Z"/></g></g></g><rect id="Rectangle_15_Copy_2-2" data-name="Rectangle 15 Copy 2-2" class="cls-12" x="166.49" y="98.58" width="15.48" height="18.74"/></g><path id="Rectangle_12_Copy-4" data-name="Rectangle 12 Copy-4" class="cls-10" d="M173.65,109.83a1.62,1.62,0,0,1-.08,2.3h0L170.45,115a2.45,2.45,0,0,0-.28,1.83,6.57,6.57,0,0,1,.28,3.23,5.24,5.24,0,0,1-2.89,3.33,6.71,6.71,0,0,1-3.33,0l-1.65-2.69a1.6,1.6,0,0,1-.16-1.35l.51-1.62,2.5-2.52,5.91-5.51a1.64,1.64,0,0,1,2.31.08h0Z"/><path id="Path_10-2" data-name="Path 10-2" class="cls-6" d="M166.2,122l-.08.92a.72.72,0,0,0-.61.73,1,1,0,0,0,.47.88l0,.23-4.06,1.09L160,122l1.36-3.13.14,0a.86.86,0,0,0,.66.78c.63.13.93-.56.93-.56l1,.14Z"/><path id="Stroke_67_Copy_9" data-name="Stroke 67 Copy 9" class="cls-12" d="M142,156.72a3.33,3.33,0,0,0,3.25-.29"/></g><g id="палец"><path id="Fill_35_Copy_20" data-name="Fill 35 Copy 20" class="cls-10" d="M103.33,167.53s4.93,2.93,13.28.42c.37-.11,4.41-2.08,8.26-4.17,3.41-1.85,6-2.95,5.3-4.48s-3.53-.07-6.72,1.31a52.4,52.4,0,0,1-5.8,2.27,7.53,7.53,0,0,1-4.85,0Z"/><path id="Fill_35_Copy_21" data-name="Fill 35 Copy 21" class="cls-10" d="M107.46,169.17s4.93,2.94,13.28.42c.37-.11,4.41-2.08,8.26-4.16,3.42-1.86,6-3,5.31-4.49s-3.54-.06-6.73,1.32a52.34,52.34,0,0,1-5.8,2.26,7.46,7.46,0,0,1-4.85-.05Z"/></g><g id="ребенок"><path id="Path_Copy_19" data-name="Path Copy 19" class="cls-13" d="M101.43,111.31a20.59,20.59,0,0,0-28.08,30.11l.57.52a1.17,1.17,0,0,1,.38.24c3.35,3.12,7.75,4.36,13.45,3.78,5.14-.53,10.68-2.45,15.92-4.48,3.39-10.94,6-22.48-1.35-29.35Z"/><g id="туловище"><path id="Path_Copy_16-2" data-name="Path Copy 16-2" class="cls-8" d="M117.36,154.17a13.54,13.54,0,0,1-19.13.82l-.16-.15c-5.51-5.14-9.46-12.54-2-20.53s15.11-4.57,20.63.57a13.53,13.53,0,0,1,.82,19.13Z"/><g class="cls-26"><g id="туловище-2"><path id="Stroke_67_Copy_5-2" data-name="Stroke 67 Copy 5-2" class="cls-27" d="M101.58,128.79c.78,2,1,4.63-2.42,8.34s-6.11,3-8.15,3c0,0,.61-3.1,4.07-6.81S101.58,128.79,101.58,128.79Z"/></g></g><path id="Path_Copy_18-2" data-name="Path Copy 18-2" class="cls-12" d="M117.36,154.17a13.54,13.54,0,0,1-19.13.82l-.16-.15c-5.51-5.14-9.46-12.54-2-20.53s15.11-4.57,20.63.57a13.53,13.53,0,0,1,.82,19.13Z"/></g><g id="лицо"><circle id="Oval_2-9" data-name="Oval 2-9" class="cls-10" cx="98.96" cy="117.72" r="2.28"/><circle id="Oval_2_Copy_11" data-name="Oval 2 Copy 11" class="cls-10" cx="78.42" cy="137.89" r="2.28"/><g id="Group_46" data-name="Group 46"><path id="Path-4" class="cls-10" d="M97.4,135.55a13.55,13.55,0,0,1-19.14.82,1.07,1.07,0,0,0-.16-.14c-5.51-5.15-9.45-12.55-2-20.54s15.11-4.57,20.62.57a13.54,13.54,0,0,1,.82,19.13Z"/><g class="cls-28"><g id="Group_46-2" data-name="Group 46-2"><path id="Path_2_Copy_3" data-name="Path 2 Copy 3" class="cls-29" d="M90.13,127.53a3.89,3.89,0,0,0-.74.6,3.26,3.26,0,0,0-.5.73"/><path id="Stroke_67-5" data-name="Stroke 67-5" class="cls-29" d="M93.16,129.88a7.59,7.59,0,0,1-.83,1.06,6.21,6.21,0,0,1-.84.78"/><g id="Stroke_67_Copy_5-3" data-name="Stroke 67 Copy 5-3" class="cls-30"><path class="cls-1" d="M94.2,131.32a.86.86,0,0,1-.21,1.05,1,1,0,0,1-1,.28,1.9,1.9,0,0,1,1.25-1.33Z"/><path class="cls-14" d="M93.4,131.83a1.61,1.61,0,0,1,.8-.51.86.86,0,0,1-.22,1.05,1,1,0,0,1-1,.29A1.65,1.65,0,0,1,93.4,131.83Z"/></g><g id="Group_41" data-name="Group 41"><g id="Group_Copy_5-2" data-name="Group Copy 5-2"><circle id="Oval_2-10" data-name="Oval 2-10" class="cls-14" cx="91.17" cy="122.85" r="1.96"/><circle id="Oval_4-5" data-name="Oval 4-5" class="cls-6" cx="91.14" cy="121.57" r="0.43"/><path id="Path_2-6" data-name="Path 2-6" class="cls-29" d="M89,119.08a4.06,4.06,0,0,1-.85,1.08,3.18,3.18,0,0,1-1.16.55"/></g><g id="Group_Copy_9" data-name="Group Copy 9"><circle id="Oval_2-11" data-name="Oval 2-11" class="cls-14" cx="84.22" cy="130.3" r="1.96"/><circle id="Path-5" class="cls-6" cx="84.11" cy="129.11" r="0.43"/><path id="Path_2-7" data-name="Path 2-7" class="cls-29" d="M80.31,128.37a4.21,4.21,0,0,0,1-.92,3.11,3.11,0,0,0,.47-1.2"/></g></g></g></g><path id="Path_Copy_17-2" data-name="Path Copy 17-2" class="cls-12" d="M97.4,135.55a13.55,13.55,0,0,1-19.14.82,1.07,1.07,0,0,0-.16-.14c-5.51-5.15-9.45-12.55-2-20.54s15.11-4.57,20.62.57a13.54,13.54,0,0,1,.82,19.13Z"/></g><path id="Path-6" class="cls-13" d="M87.07,113c-1.83,3.61-7.6,5.61-7.6,5.61l1.47,1c-1.69,1.81-7.78,1.76-7.78,1.76-.24-2.41,1.87-5.06,3.44-7C80.49,111,85.36,114.08,87.07,113Z"/></g><g id="пеленки"><path id="Shape" class="cls-10" d="M127.93,164a22.86,22.86,0,0,0-1.11-32.28l-23.84-22a22.85,22.85,0,1,0-31.17,33.42l23.85,22.05A22.66,22.66,0,0,0,108.28,171a1.1,1.1,0,0,0,.31,0,23.17,23.17,0,0,0,10.35-1.19A22.61,22.61,0,0,0,127.93,164ZM72.36,112.34a20.59,20.59,0,0,1,29.07-1l.88.81c7.48,7,4.62,18.81,1.36,29.36-5.19,2-10.71,3.94-15.93,4.47-5.69.59-10.09-.65-13.45-3.78a1.14,1.14,0,0,0-.38-.23l-.56-.53A20.59,20.59,0,0,1,72.36,112.34Z"/><path id="Path-7" class="cls-31" d="M83.17,147.77c4.08,3.81,10.34,4.45,18.08,2.78.66-2.4,1.47-5,2.32-7.59l.43-1.35c-7.6,2.86-16.43,5.59-23.33,3.95l2.12,2A1.14,1.14,0,0,1,83.17,147.77Z"/><path id="Path_Copy_20" data-name="Path Copy 20" class="cls-10" d="M106.46,139.84c8.55-3.41,24.27-3.35,24.83-2.21a23.36,23.36,0,0,1,1.45,3.69c-4.21.6-13.81,1.67-19.18,3.82-11.76,4.69-23.18,9.41-31.48,1.67l-1-.9C86.44,147.08,100.29,142.3,106.46,139.84Z"/><path id="Path-8" class="cls-10" d="M101.86,143.78c-2.8,8.77-1.65,24.45-.47,24.93a24,24,0,0,0,3.78,1.18c.31-4.23.71-13.89,2.47-19.4,3.86-12.06,7.77-23.78-.52-31.52l-1-.9C107.69,123.3,103.89,137.46,101.86,143.78Z"/></g></g><g id="бант"><g id="_1-5" data-name=" 1-5"><g id="Oval_2_Copy_5" data-name="Oval 2 Copy 5"><path class="cls-17" d="M100.81,154.57c-.4-.18-1-.59-1.85-2.19a28.36,28.36,0,0,1-1.59-3.54c-.88-2.33-1.81-5.45-1.76-7.26,0-1.25.58-1.73,1-1.9a9.7,9.7,0,0,1,4.62-.28,24.4,24.4,0,0,1,4.51,1.07l.23.09a5.48,5.48,0,0,1,2.57,3.31,5.13,5.13,0,0,1,0,4c-.69,1.26-3.21,5.46-6.64,6.78A1.37,1.37,0,0,1,100.81,154.57Z"/><path class="cls-14" d="M105.6,141.48l-.15-.06c-2.41-.83-6.29-1.64-8.45-.81-1.66.64,2.39,12.23,4.22,13a.38.38,0,0,0,.31,0c2.62-1,4.93-4.16,6.12-6.32.88-1.6-.37-5.13-2.05-5.88m.81-1.83a6.59,6.59,0,0,1,3.1,3.9,6.08,6.08,0,0,1-.1,4.77c-.74,1.33-3.42,5.79-7.16,7.23a2.4,2.4,0,0,1-1.84-.06,5.46,5.46,0,0,1-2.33-2.63,29.78,29.78,0,0,1-1.65-3.67C96,148,94.55,144,94.61,141.56a2.77,2.77,0,0,1,1.67-2.81c3.39-1.3,8.77.42,9.82.78A2,2,0,0,1,106.41,139.65Z"/></g><path id="Oval_2_Copy_8" data-name="Oval 2 Copy 8" class="cls-10" d="M99.59,142.45a14.9,14.9,0,0,1,6.74-.06c1.1.37,1.93,2.67,1.37,3.7a14.46,14.46,0,0,1-5.29,4.5C101.4,151,98.49,142.88,99.59,142.45Z"/></g><g id="_2-4" data-name=" 2-4"><g id="Oval_2_Copy_5-2" data-name="Oval 2 Copy 5-2"><path class="cls-17" d="M121.74,146.54a1.34,1.34,0,0,1-.77.75c-3.43,1.32-8.12-.12-9.48-.59a5.15,5.15,0,0,1-2.68-2.93,5.44,5.44,0,0,1-.3-4.17,2.26,2.26,0,0,1,.11-.22,24,24,0,0,1,2.63-3.81,9.85,9.85,0,0,1,3.62-2.89c.45-.17,1.18-.19,2,.73,1.24,1.3,2.65,4.25,3.55,6.57a29.12,29.12,0,0,1,1.19,3.69C122.07,145.45,121.92,146.14,121.74,146.54Z"/><path class="cls-14" d="M109.42,140c-.75,1.69.68,5.15,2.4,5.75,2.34.81,6.16,1.61,8.79.6a.4.4,0,0,0,.21-.23c.82-1.83-3.93-13.15-5.59-12.51-2.16.83-4.5,4-5.74,6.25l-.07.14m-1.83-.81h0l.15-.3c.54-1,3.39-5.85,6.77-7.15a2.79,2.79,0,0,1,3.13,1c1.68,1.78,3.3,5.73,3.75,6.89a28.6,28.6,0,0,1,1.23,3.83,5.43,5.43,0,0,1,0,3.51,2.4,2.4,0,0,1-1.32,1.28c-3.75,1.43-8.73-.09-10.16-.59a6,6,0,0,1-3.27-3.47,6.56,6.56,0,0,1-.31-5Z"/></g><path id="Oval_2_Copy_8-2" data-name="Oval 2 Copy 8-2" class="cls-10" d="M114.53,136.72a14.82,14.82,0,0,0-5,4.46c-.56,1,.36,3.28,1.46,3.67a14.55,14.55,0,0,0,6.94-.19C118.9,144.27,115.64,136.3,114.53,136.72Z"/></g><path id="Rectangle_6-2" data-name="Rectangle 6-2" class="cls-13" d="M107.59,141h0a2.53,2.53,0,0,1,3.28,1.45l.45,1.19a2.53,2.53,0,0,1-1.45,3.27h0a2.54,2.54,0,0,1-3.28-1.46l-.45-1.18A2.52,2.52,0,0,1,107.59,141Z"/></g><g id="рука"><path id="Combined_Shape-40" data-name="Combined Shape-40" class="cls-10" d="M136.84,162.64c-1.2-1.57-2.6-.5-4.28.54-2.55,1.59-5,2.8-5,2.8a1.4,1.4,0,0,1-.54,0,29,29,0,0,1-5.35-1.29c-1.39-1.09-.85-4-.69-5a2.85,2.85,0,0,1,1.53-1.68c1.94-.81,5-.38,4.78-2-.35-2.4-3.2-1.66-3.2-1.66s-4.8-.17-5-.11a15.07,15.07,0,0,0-5.38,2.91s-4-1.25-6.68-2.14c-3.28-1.65-7.86-4-12.48-5.94-9.79-4.09-15.53-3.79-21-2.73-2.21.42-9.67,2.56-9.84,6.71-.51,12.28,25.67,12.07,31.67,11.75a86.66,86.66,0,0,1,13,0,11.1,11.1,0,0,1,2.58.89l0,0c2.65,1.78,6.42,4.65,7,4.83.85.27,7.68,1,7.68,1a4.58,4.58,0,0,0,1.8-.3c1.71-1,7.35-5.23,7.35-5.23a7.36,7.36,0,0,0,1.63-1.25C137,164.1,137.4,163.35,136.84,162.64Z"/><path id="Path_12" data-name="Path 12" class="cls-6" d="M68.43,146.35l.66.54s-.66.57-.23,1.11,1.58,0,1.58,0l3.06,2.51-8.39,5.61a14.66,14.66,0,0,1-1-4c-.46-2.94-.81-6.29-.81-6.29l4.64.48Z"/></g><g id="line-2"><path id="Stroke_61_Copy_15-2" data-name="Stroke 61 Copy 15-2" class="cls-12" d="M119.22,129.2a54.29,54.29,0,0,0-4.37-3.8"/><path id="Stroke_61_Copy_25" data-name="Stroke 61 Copy 25" class="cls-12" d="M122.48,132.46a4.62,4.62,0,0,0-1-1.11"/></g></g></g></g><g id="txt-2"><g id="Нужна_проверенная_ня_Copy_3" data-name="Нужна проверенная ня Copy 3"><path id="Нужна_проверенная_ня_Copy_3-2" data-name="Нужна проверенная ня Copy 3-2" class="cls-32" d="M14.22,215.14a2.37,2.37,0,0,1-1.17-.27.94.94,0,0,1-.47-.87v-.68a2.88,2.88,0,0,0,.92.13,1.55,1.55,0,0,0,1.64-1.35,54.38,54.38,0,0,1-3.89-8.8H13.7a38.45,38.45,0,0,0,2.41,6.42l2.05-6.43h2.18v.2l-3.13,8.44C16.9,214.06,15.89,215.14,14.22,215.14Zm95.44-.18h-2V204.28c0-.51.11-.82.32-.91a5.42,5.42,0,0,1,1.7-.15V205a3.43,3.43,0,0,1,3.18-1.89,3,3,0,0,1,2.52,1.14,4.74,4.74,0,0,1,.89,3,5.43,5.43,0,0,1-1.15,3.47,3.54,3.54,0,0,1-2.91,1.44,3,3,0,0,1-2.54-1.18v4Zm2.52-10.17a2,2,0,0,0-1.72.94,4.2,4.2,0,0,0-.64,2.44,2.57,2.57,0,0,0,.51,1.58,1.64,1.64,0,0,0,1.4.69,2,2,0,0,0,1.75-.94,3.82,3.82,0,0,0,.64-2.2,3.19,3.19,0,0,0-.48-1.8A1.62,1.62,0,0,0,112.18,204.79ZM71.32,215h-2V204.28c0-.51.11-.82.32-.91a5.37,5.37,0,0,1,1.7-.15V205a3.43,3.43,0,0,1,3.18-1.89A3,3,0,0,1,77,204.25a4.79,4.79,0,0,1,.88,3,5.43,5.43,0,0,1-1.14,3.47,3.54,3.54,0,0,1-2.91,1.44A2.94,2.94,0,0,1,71.32,211v4Zm2.52-10.17a2,2,0,0,0-1.72.94,4.2,4.2,0,0,0-.64,2.44,2.57,2.57,0,0,0,.51,1.58,1.65,1.65,0,0,0,1.4.69,2,2,0,0,0,1.76-.94,3.81,3.81,0,0,0,.63-2.2,3.18,3.18,0,0,0-.47-1.8A1.65,1.65,0,0,0,73.84,204.79ZM201,212.17a1.84,1.84,0,0,1-.92-.22.7.7,0,0,1-.38-.65v-.46h.16a1.81,1.81,0,0,0,1.44-.87l1-1.31a2.56,2.56,0,0,1-1.91-2.58,2.4,2.4,0,0,1,1-2,4.21,4.21,0,0,1,2.57-.77h1a2.94,2.94,0,0,1,2.1.6,2.82,2.82,0,0,1,.59,2V211c0,.51-.11.82-.32.93a5.4,5.4,0,0,1-1.7.15v-2.88h-1.42l-1.15,1.73a2.87,2.87,0,0,1-.92,1,2.41,2.41,0,0,1-1.17.28Zm3.27-7.29a1.85,1.85,0,0,0-1.2.38,1.36,1.36,0,0,0-.48,1.09,1.37,1.37,0,0,0,.46,1.06,1.74,1.74,0,0,0,1.16.38h1.44v-1.72a1.3,1.3,0,0,0-.25-.9,1,1,0,0,0-.81-.29Zm-22.95,7.29a1.86,1.86,0,0,1-.92-.22.69.69,0,0,1-.37-.65v-.46h.16a1.83,1.83,0,0,0,1.44-.87l1-1.31a2.55,2.55,0,0,1-1.9-2.58,2.4,2.4,0,0,1,1-2,4.21,4.21,0,0,1,2.57-.77h1a2.94,2.94,0,0,1,2.1.6,2.77,2.77,0,0,1,.58,2V211c0,.51-.1.82-.31.93a5.42,5.42,0,0,1-1.7.15v-2.88h-1.42l-1.16,1.73a2.85,2.85,0,0,1-.91,1,2.42,2.42,0,0,1-1.18.28Zm3.28-7.29a1.83,1.83,0,0,0-1.2.38,1.36,1.36,0,0,0-.48,1.09,1.31,1.31,0,0,0,.46,1.06,1.74,1.74,0,0,0,1.16.38H186v-1.72a1.3,1.3,0,0,0-.25-.9,1,1,0,0,0-.81-.29Zm-27,7.29a1.84,1.84,0,0,1-.92-.22.7.7,0,0,1-.38-.65v-.46h.16a1.81,1.81,0,0,0,1.44-.87l1-1.31a2.56,2.56,0,0,1-1.91-2.58,2.38,2.38,0,0,1,1-2,4.16,4.16,0,0,1,2.56-.77h1a2.93,2.93,0,0,1,2.1.6,2.82,2.82,0,0,1,.59,2V211c0,.51-.11.82-.32.93a5.4,5.4,0,0,1-1.7.15v-2.88h-1.42l-1.15,1.73a2.87,2.87,0,0,1-.92,1,2.38,2.38,0,0,1-1.17.28Zm3.27-7.29a1.85,1.85,0,0,0-1.2.38,1.36,1.36,0,0,0-.48,1.09,1.37,1.37,0,0,0,.46,1.06,1.74,1.74,0,0,0,1.16.38h1.44v-1.72a1.3,1.3,0,0,0-.25-.9,1,1,0,0,0-.81-.29Zm-11,7.29a2.42,2.42,0,0,1-1.95-.79,2.81,2.81,0,0,1-.66-1.86c0-1.46,1.07-2.3,3.18-2.52l2.23-.23v-.06c-.07-1.32-.87-2-2.39-2a6.19,6.19,0,0,0-2.2.5v-.59a1,1,0,0,1,.51-.84,3.51,3.51,0,0,1,1.19-.52,6,6,0,0,1,1.34-.15,3.6,3.6,0,0,1,2.59.87,3.87,3.87,0,0,1,1,2.6l.31,4.56a1.2,1.2,0,0,1-.08.53.57.57,0,0,1-.4.27,3.11,3.11,0,0,1-.61.1l-1,0-.09-1.53a3.5,3.5,0,0,1-3,1.64Zm2.84-4.12h0l-2,.25a1.63,1.63,0,0,0-.87.38,1,1,0,0,0-.32.75,1.4,1.4,0,0,0,.31.92,1.09,1.09,0,0,0,.88.36,1.65,1.65,0,0,0,1.4-.8,3.54,3.54,0,0,0,.6-1.86Zm-30.87,4.12a4.3,4.3,0,0,1-3.2-1.24,5,5,0,0,1-1.2-3.59,4.07,4.07,0,0,1,3.88-4.23h.37a3.75,3.75,0,0,1,2.84,1.1,4.21,4.21,0,0,1,1,3c0,.8-.49,1.2-1.45,1.2h-4.43c.31,1.41,1.34,2.13,3.06,2.13a6.92,6.92,0,0,0,2.2-.42v.61a1.2,1.2,0,0,1-.92,1.12,6.09,6.09,0,0,1-2.16.36Zm-.2-7.54c-1.29,0-2,.79-2.07,2.35h3.35a.47.47,0,0,0,.38-.16.58.58,0,0,0,.12-.36,1.86,1.86,0,0,0-.48-1.35,1.79,1.79,0,0,0-1.3-.49Zm-19.44,7.54A4.23,4.23,0,0,1,99,210.92a4.93,4.93,0,0,1-1.2-3.58,4,4,0,0,1,3.87-4.23c.13,0,.25,0,.38,0a3.67,3.67,0,0,1,2.83,1.1,4.19,4.19,0,0,1,1,2.95c0,.8-.49,1.21-1.46,1.21H100c.31,1.41,1.34,2.12,3.06,2.12a6.55,6.55,0,0,0,2.2-.41v.61a1.19,1.19,0,0,1-.91,1.12,6.18,6.18,0,0,1-2.17.36Zm-.2-7.54c-1.29,0-2,.79-2.07,2.35h3.35a.46.46,0,0,0,.38-.16.58.58,0,0,0,.12-.36,1.82,1.82,0,0,0-.48-1.35,1.79,1.79,0,0,0-1.3-.49Zm-18.57,7.54a4.05,4.05,0,0,1-3.13-1.3,4.87,4.87,0,0,1-1.19-3.41,4.32,4.32,0,0,1,1.14-3.2,5,5,0,0,1,6.35,0,4.29,4.29,0,0,1,1.15,3.2,4.91,4.91,0,0,1-1.19,3.41A4.07,4.07,0,0,1,83.45,212.17Zm0-7.38a2,2,0,0,0-1.67.71,3.29,3.29,0,0,0-.53,1.95,3.82,3.82,0,0,0,.58,2.13,2,2,0,0,0,2.73.52,2,2,0,0,0,.53-.52,3.73,3.73,0,0,0,.57-2.13,3.14,3.14,0,0,0-.54-1.95A2,2,0,0,0,83.45,204.79Zm-35.62,7.38a2.42,2.42,0,0,1-1.95-.79,2.81,2.81,0,0,1-.66-1.86c0-1.45,1.07-2.3,3.18-2.52l2.23-.23v-.06c-.07-1.32-.87-2-2.39-2a6.19,6.19,0,0,0-2.2.5v-.59a1,1,0,0,1,.51-.84,3.82,3.82,0,0,1,1.19-.52,6,6,0,0,1,1.34-.15,3.6,3.6,0,0,1,2.59.87,3.88,3.88,0,0,1,1,2.61l.31,4.55a1.2,1.2,0,0,1-.08.53.52.52,0,0,1-.4.27,2.51,2.51,0,0,1-.61.1l-1,0-.09-1.53A3.47,3.47,0,0,1,47.83,212.17Zm2.84-4.12h0l-2,.25a1.63,1.63,0,0,0-.87.38,1,1,0,0,0-.32.75,1.4,1.4,0,0,0,.31.92,1.09,1.09,0,0,0,.88.36,1.65,1.65,0,0,0,1.39-.8,3.37,3.37,0,0,0,.6-1.86Zm-18.38,4.12a1.86,1.86,0,0,1-1-.25,2.85,2.85,0,0,1-.77-1l-1.31-2.34h-.76V212h-2v-3.4H25.7l-1.31,2.33a2.49,2.49,0,0,1-.81,1,2.17,2.17,0,0,1-1.06.27,2,2,0,0,1-.92-.22.69.69,0,0,1-.4-.65v-.47h.16a1.47,1.47,0,0,0,1.23-.82l1.3-2a2.77,2.77,0,0,1-.8-1,5.5,5.5,0,0,1-.41-1.18,2.37,2.37,0,0,0-.43-.94,1.1,1.1,0,0,0-.88-.4H21.2v-.4a.81.81,0,0,1,.36-.71,1.52,1.52,0,0,1,.88-.24,1.58,1.58,0,0,1,1.15.4,2.14,2.14,0,0,1,.58,1l.32,1.14a2.7,2.7,0,0,0,.47,1,1.08,1.08,0,0,0,.9.4h.6v-2.74q0-.75.3-.9a5.15,5.15,0,0,1,1.66-.15V207H29a1.11,1.11,0,0,0,.91-.4,2.57,2.57,0,0,0,.47-1c.13-.48.23-.84.32-1.15a2.18,2.18,0,0,1,.6-1,1.66,1.66,0,0,1,1.17-.4,1.36,1.36,0,0,1,.85.24.8.8,0,0,1,.33.71v.4h-.16a1.08,1.08,0,0,0-.88.41,2.15,2.15,0,0,0-.43.93,5.32,5.32,0,0,1-.41,1.18,2.73,2.73,0,0,1-.79,1l1.3,2a1.46,1.46,0,0,0,1.22.83h.17v.47a.7.7,0,0,1-.44.63A2,2,0,0,1,32.29,212.17Zm164-.11h0v-3.44h-4V212h-2v-7.71c0-.51.11-.82.32-.91a5.4,5.4,0,0,1,1.7-.15V207h4v-3.69h2V211c0,.51-.1.83-.31.93A5.33,5.33,0,0,1,196.24,212.06Zm-19.68,0h0v-3.44h-4V212h-2v-7.71c0-.51.11-.82.32-.91a5.37,5.37,0,0,1,1.7-.15V207h4v-3.69h2V211c0,.51-.11.83-.31.93A5.4,5.4,0,0,1,176.56,212.06Zm-33,0h0v-3.44h-4V212h-2v-7.71c0-.51.11-.82.32-.91a5.42,5.42,0,0,1,1.7-.15V207h4v-3.69h2V211c0,.51-.1.83-.31.93A5.33,5.33,0,0,1,143.55,212.06Zm-10.26,0h0v-3.44h-4V212h-2v-7.71c0-.51.1-.82.31-.91a5.42,5.42,0,0,1,1.7-.15V207h4v-3.69h2V211c0,.51-.1.83-.31.93A5.33,5.33,0,0,1,133.29,212.06Zm-68.22,0h0v-5.8a1.39,1.39,0,0,0-.27-.94,1.1,1.1,0,0,0-.86-.3H61.09v7h-2v-7.62c0-.52.1-.83.31-.92a5.74,5.74,0,0,1,1.7-.15h3.24a3.1,3.1,0,0,1,2.13.58,2.72,2.72,0,0,1,.6,2V211c0,.51-.1.83-.3.93A5.33,5.33,0,0,1,65.07,212.06Zm-23.58,0h0v-3.44h-4V212h-2v-7.71c0-.51.1-.82.31-.91a5.42,5.42,0,0,1,1.7-.15V207h4v-3.69h2V211c0,.51-.1.83-.3.93A5.42,5.42,0,0,1,41.49,212.06Zm-33.89,0h0v-4.7H2.14V212H0V201.4c0-.51.12-.82.34-.92a6.08,6.08,0,0,1,1.8-.16v5.13H7.6v-5H9.74V211c0,.51-.12.82-.34.93a6.07,6.07,0,0,1-1.8.15ZM93,212h-.63c-1.81,0-2.73-.83-2.73-2.45v-5.18c0-.52.1-.83.3-.92a5.39,5.39,0,0,1,1.69-.15h1.57a4.29,4.29,0,0,1,2.35.57,1.9,1.9,0,0,1,.87,1.7,2.1,2.1,0,0,1-1.49,2,1.83,1.83,0,0,1,1.51,1.86,2.15,2.15,0,0,1-1,1.85A4.18,4.18,0,0,1,93,212Zm-1.37-3.64v1c0,.75.36,1.14,1.07,1.14h.16a1.85,1.85,0,0,0,1.12-.31,1,1,0,0,0,.43-.83c0-.66-.6-1-1.77-1Zm0-3.54v2.3h.87c1.24,0,1.87-.42,1.87-1.25s-.52-1.06-1.55-1.06Z"/></g></g></g><g id="bj_2-2" data-name="bj 2-2"><g id="im_nanny_passive_bl_2" data-name="im nanny passive bl 2"><g id="im_nanny_passive_bl_2-2" data-name="im nanny passive bl 2-2"><g id="im_nanny_passive_bl_2-3" data-name="im nanny passive bl 2-3"><g id="ic_copy" data-name="ic  copy"><g id="иконка-2"><g id="body-3"><g id="плечи_тело" data-name="плечи тело"><path id="Fill_13_Copy_2-5" data-name="Fill 13 Copy 2-5" class="cls-11" d="M147.09,601a33.22,33.22,0,0,0-33.22-33.23H93.93A33.24,33.24,0,0,0,60.69,601h0v8.63H76.58l-.11,34.22s14.36,4.89,27.61,4.89,26.48-4.89,26.48-4.89l-.21-34.22h16.74Z"/><path id="Fill_15-6" data-name="Fill 15-6" class="cls-6" d="M147.09,601a33.22,33.22,0,0,0-33.22-33.23H93.93A33.24,33.24,0,0,0,60.69,601h0v13.29A33.24,33.24,0,0,1,93.93,581h19.94a33.22,33.22,0,0,1,33.22,33.23Z"/><path id="Path-12" class="cls-12" d="M147.09,601a33.22,33.22,0,0,0-33.22-33.23H93.93A33.24,33.24,0,0,0,60.69,601h0v8.63H77.27v34.22s14,4.89,26.81,4.89,25.56-4.89,25.56-4.89V609.6h17.45Z"/></g><g id="низ_платье" data-name="низ платье"><path id="Rectangle_7-2" data-name="Rectangle 7-2" class="cls-11" d="M76.86,627.74h53.78s4.19,3.74,7.14,7,5.08,5.74,5.08,5.74-17.86,11.14-39,11.14-39.24-11.14-39.24-11.14,2.23-2.58,5.29-6A96.34,96.34,0,0,1,76.86,627.74Z"/><path id="Combined_Shape-47" data-name="Combined Shape-47" class="cls-6" d="M111.76,629.17H95.31a33,33,0,0,0-26.07,13.56c-1.92-1-3.29-1.74-4-2.17.12-.51.26-1,.41-1.51.94-1.09,2.47-2.87,4.3-4.94,2.19-2.43,4.51-4.74,6.93-6.94h53.78s4.19,3.83,7.14,7.17c1.34,1.52,2.51,2.87,3.39,3.9a24.76,24.76,0,0,1,.73,2.55c-.83.49-2.17,1.24-3.94,2.13A33,33,0,0,0,111.76,629.17Z"/><path id="Rectangle_7_Copy-2" data-name="Rectangle 7 Copy-2" class="cls-12" d="M76.86,627.74h53.78s4.19,3.74,7.14,7,5.08,5.74,5.08,5.74-17.86,11.14-39,11.14-39.24-11.14-39.24-11.14,2.23-2.58,5.29-6A96.34,96.34,0,0,1,76.86,627.74Z"/></g><g id="Group_13" data-name="Group 13"><path id="Stroke_61_Copy_3-7" data-name="Stroke 61 Copy 3-7" class="cls-12" d="M128.3,641.75a21.21,21.21,0,0,0-6.28-11,20.4,20.4,0,0,0-2.89-2.28"/><path id="Stroke_61_Copy_12" data-name="Stroke 61 Copy 12" class="cls-12" d="M129.35,633.46a7.43,7.43,0,0,0-3-3.28,7.83,7.83,0,0,0-1.17-.55"/></g><g id="Group_13_Copy" data-name="Group 13 Copy"><path id="Stroke_61_Copy_3-8" data-name="Stroke 61 Copy 3-8" class="cls-12" d="M80,641.75a21.21,21.21,0,0,1,6.28-11,21,21,0,0,1,2.88-2.27"/><path id="Stroke_61_Copy_12-2" data-name="Stroke 61 Copy 12-2" class="cls-12" d="M79,633.46a7.43,7.43,0,0,1,3-3.28,7.83,7.83,0,0,1,1.17-.55"/></g><g id="фартук"><path id="Rectangle_11_Copy" data-name="Rectangle 11 Copy" class="cls-10" d="M85.75,600.75a1.63,1.63,0,0,1,1.63-1.63h32.27a1.63,1.63,0,0,1,1.63,1.63h0v25.53a1.62,1.62,0,0,1-1.33,1.6l-16.07,3-16.79-3a1.63,1.63,0,0,1-1.34-1.61Z"/><path id="Rectangle_11_Copy_2" data-name="Rectangle 11 Copy 2" class="cls-10" d="M85.26,629.9a1.62,1.62,0,0,1,1.29-.63h33.92a1.65,1.65,0,0,1,1.3.64l4.49,5.93,2.22,4.41a1.63,1.63,0,0,1-.72,2.19,1.9,1.9,0,0,1-.4.14l-23.48,5-24.17-5a1.62,1.62,0,0,1-1.26-1.92,1.69,1.69,0,0,1,.15-.43l2.76-5.3Z"/><g id="карман-3"><rect id="Rectangle_3-13" data-name="Rectangle 3-13" class="cls-13" x="94.79" y="606.8" width="17.93" height="2.61"/><path id="Rectangle_3_Copy_7" data-name="Rectangle 3 Copy 7" class="cls-33" d="M112.71,609.41H94.79v10.27a31.88,31.88,0,0,0,9.15,1.46,28.15,28.15,0,0,0,8.77-1.46Z"/></g><path id="Stroke_61_Copy_4-8" data-name="Stroke 61 Copy 4-8" class="cls-12" d="M92.63,567.73a18,18,0,0,0-6.81,13.89c-.11,7.42-.11,9.63-.06,17.89"/><path id="Stroke_61_Copy_24" data-name="Stroke 61 Copy 24" class="cls-12" d="M114.36,567.71a18,18,0,0,1,6.81,13.9c.11,7.41.11,9.63,0,17.88"/><g id="ремень"><path id="Rectangle_3-14" data-name="Rectangle 3-14" class="cls-10" d="M77.27,624.73s10.61,4.07,26.12,4.07a81,81,0,0,0,26.25-4.07V628s-10,4.07-26.25,4.07S77.27,628,77.27,628Z"/></g></g><g id="манжета-3"><path id="Rectangle_3-15" data-name="Rectangle 3-15" class="cls-13" d="M58.26,605.17a69.56,69.56,0,0,0,9.66.82,62.61,62.61,0,0,0,9.37-.82v6.52a65.13,65.13,0,0,1-9.55.82,64,64,0,0,1-9.48-.82Z"/><path id="Fill_63-15" data-name="Fill 63-15" class="cls-14" d="M63,608.43a1.63,1.63,0,1,1-1.63-1.63h0A1.63,1.63,0,0,1,63,608.43h0"/></g><g id="манжета-4"><path id="Rectangle_3-16" data-name="Rectangle 3-16" class="cls-13" d="M149.5,605.17a64.61,64.61,0,0,1-9.72.82,72.67,72.67,0,0,1-10.11-.82v6.52a70,70,0,0,0,9.91.82,70.23,70.23,0,0,0,9.92-.82Z"/><path id="Fill_63-16" data-name="Fill 63-16" class="cls-14" d="M144.49,608.43a1.63,1.63,0,1,0,1.63-1.63,1.63,1.63,0,0,0-1.63,1.63h0"/></g><g id="_2-6" data-name=" 2-6"><path id="Stroke_21-5" data-name="Stroke 21-5" class="cls-12" d="M129.65,621V601.23"/><path id="Stroke_25-5" data-name="Stroke 25-5" class="cls-12" d="M129.65,596.24v-1.66"/></g><g id="_1-6" data-name=" 1-6"><path id="Stroke_41-9" data-name="Stroke 41-9" class="cls-12" d="M77.29,621V601.23"/><path id="Stroke_45-6" data-name="Stroke 45-6" class="cls-12" d="M77.29,596.24v-1.66"/></g></g><g id="Group_49" data-name="Group 49"><g id="волосы_2_пл" data-name="волосы 2 пл"><path id="Stroke_57_Copy_25" data-name="Stroke 57 Copy 25" class="cls-33" d="M137.9,537.28c0,15-5.2,23.68-33.08,23.68s-34.55-7.88-34.55-22.71c0-1.18,5.75-28.14,5.75-28.14h55.79S137.9,535.92,137.9,537.28Z"/><path id="Stroke_57_Copy_24" data-name="Stroke 57 Copy 24" class="cls-33" d="M136.37,537.13c-2,12.3-6.23,21.6-31.66,21.6S74.32,549.83,71,538a17.63,17.63,0,0,1-.6-3.21c-1.23-13.39,8.07-22.45,8.07-22.45h50.89s8.58,13,7.56,21.13C136.74,534.67,136.57,535.89,136.37,537.13Z"/></g><g id="шея-2"><g id="Fill_35_Copy-3" data-name="Fill 35 Copy-3"><path class="cls-17" d="M103.59,591.49a15.06,15.06,0,0,1-8.09-2.1,12.83,12.83,0,0,1-4.44-4.79,18.44,18.44,0,0,1-2.15-8.2v-.29c0-1.69-.12-6.82,3.48-10.5,2.49-2.53,6.19-3.81,11-3.81s8.68,1.3,11.23,3.87a12.38,12.38,0,0,1,3.22,6.08,18.55,18.55,0,0,1,.42,4.41v.19a18.38,18.38,0,0,1-2.14,8.3,12.84,12.84,0,0,1-4.45,4.76A15.08,15.08,0,0,1,103.59,591.49Z"/><path class="cls-14" d="M103.59,590.49c12.84,0,13.67-12.16,13.67-14.14s.51-13.55-13.87-13.55-13.48,11.79-13.48,13.6.83,14.09,13.68,14.09m0,2c-7.72,0-11.55-4-13.41-7.4a19.52,19.52,0,0,1-2.27-8.69v-.27c0-1.79-.13-7.25,3.77-11.22,2.68-2.73,6.62-4.11,11.71-4.11s9.2,1.4,11.94,4.17a13.16,13.16,0,0,1,3.48,6.56,19.33,19.33,0,0,1,.45,4.64v.18a19.45,19.45,0,0,1-2.27,8.78C115.14,588.49,111.31,592.49,103.59,592.49Z"/></g><path id="Fill_35-5" data-name="Fill 35-5" class="cls-10" d="M113.47,577.53s0,7.75-9.78,7.75-9.78-7.75-9.78-7.75V552.8h19.56Z"/><path id="Fill_37-6" data-name="Fill 37-6" class="cls-11" d="M94.79,567.34c.23.11.44.23.68.34a21.36,21.36,0,0,0,16.57,0c.24-.1.45-.23.68-.34V556.06H94.79Z"/></g><g id="волосы_1_пл-2" data-name="волосы 1 пл-2"><path id="Stroke_57_Copy_9-2" data-name="Stroke 57 Copy 9-2" class="cls-16" d="M136.37,512.12c-2-14.72-16.2-25.85-31.66-25.85-16.43,0-33.11,12.63-34.34,28.64s-.85,20.5-.85,20.5l8.92,6.36h50.89l8.49-7.58A171.48,171.48,0,0,0,136.37,512.12Z"/><path id="Stroke_57_Copy_8-3" data-name="Stroke 57 Copy 8-3" class="cls-20" d="M136.37,512.12c-2-14.72-16.2-25.85-31.66-25.85-16.43,0-33.11,12.63-34.34,28.64s-.85,20.5-.85,20.5l8.92,6.36h50.89l8.49-7.58A171.48,171.48,0,0,0,136.37,512.12Z"/><path id="Path_2-18" data-name="Path 2-18" class="cls-21" d="M76.83,521.48c8.3-.52,10.48-10.18,10.48-10.18"/><path id="Path_2_Copy-5" data-name="Path 2 Copy-5" class="cls-21" d="M76.81,517.71c4.68-.29,5.91-5.73,5.91-5.73"/><path id="Stroke_61_Copy_2-6" data-name="Stroke 61 Copy 2-6" class="cls-12" d="M94.88,508.54A36.84,36.84,0,0,0,111.53,514c17.9,1.26,19.3,8,19.3,8"/><path id="Stroke_61_Copy_3-9" data-name="Stroke 61 Copy 3-9" class="cls-12" d="M95.52,502.25c3.53,3.22,10.49,6.33,17.64,6.88,8.65.66,11.67,2.5,15.05,4.21"/><path id="Stroke_61_Copy_4-9" data-name="Stroke 61 Copy 4-9" class="cls-34" d="M112.18,487.18a29.7,29.7,0,0,0-3-.34c-8.62-.54-13.53,3.6-16.64,10.85-1.85,4.33-1.3,7.81-1.3,14.09"/><path id="Stroke_61_Copy_4-10" data-name="Stroke 61 Copy 4-10" class="cls-12" d="M112.18,487.18a29.7,29.7,0,0,0-3-.34c-8.62-.54-13.53,3.6-16.64,10.85-1.85,4.33-1.3,7.81-1.3,14.09"/><g id="Stroke_61_Copy_17-2" data-name="Stroke 61 Copy 17-2"><path class="cls-11" d="M125.16,542.72h0a5.5,5.5,0,0,1-2.09-1.63,3.11,3.11,0,0,1-.59-1c6.31-3.06,11.31-7.49,15.38-11.43a1,1,0,0,1,.17-.14,2.46,2.46,0,0,1,.63,1.3,6.6,6.6,0,0,1-.9,5.3c-.18.23-.36.44-.56.67a8.86,8.86,0,0,0-.76.92c-2.23,3.09-4.47,5.11-6.67,6A5.7,5.7,0,0,1,125.16,542.72Z"/><path class="cls-14" d="M137.72,530.14a60.69,60.69,0,0,1-13.87,10.34,4.63,4.63,0,0,0,1.72,1.33,4.76,4.76,0,0,0,3.82-.07c2-.82,4.12-2.72,6.24-5.66.27-.37.55-.69.82-1s.36-.41.52-.61a5,5,0,0,0,.89-3.05,6.24,6.24,0,0,0-.14-1.28m.69-2.59c1.52.68,2.24,5.45.14,8.15-.44.56-.92,1-1.3,1.55-5.15,7.14-9.63,7.66-12.5,6.38-2.65-1.18-3.91-3.91-3-4.33,6.61-3.14,11.83-7.92,15.42-11.4A1.09,1.09,0,0,1,138.41,527.55Z"/></g><g id="Stroke_61_Copy_19-2" data-name="Stroke 61 Copy 19-2"><path class="cls-11" d="M128.16,536.07h0a9.72,9.72,0,0,1-4.19-4.51,9.86,9.86,0,0,1-1.23-3.9,20.34,20.34,0,0,1,7.74-1.57c2.69-.15,5.24-.29,7.38-2.36a1,1,0,0,1,.17-.14,2.57,2.57,0,0,1,.64,1.3,6.65,6.65,0,0,1-.91,5.3c-.17.23-.36.44-.56.67a11.61,11.61,0,0,0-.76.92,12.16,12.16,0,0,1-4.72,4.3A4.29,4.29,0,0,1,128.16,536.07Z"/><path class="cls-14" d="M137.7,525.17c-2.21,1.64-4.72,1.78-7.17,1.92a20.24,20.24,0,0,0-6.71,1.2,11.78,11.78,0,0,0,1.18,3.08,8.57,8.57,0,0,0,3.57,3.79,3.32,3.32,0,0,0,2.76,0,11.25,11.25,0,0,0,4.3-4c.27-.37.55-.69.82-1s.37-.41.52-.61a5,5,0,0,0,.89-3.05,5.63,5.63,0,0,0-.16-1.36m.71-2.51c1.52.68,2.24,5.45.14,8.15-.43.56-.91,1-1.3,1.55-3.64,5.06-6.91,5.78-9.5,4.63-4.46-2-6.89-9.54-5.71-10.1,6.62-3.15,11.53-.4,15.12-3.88A1.11,1.11,0,0,1,138.41,522.66Z"/></g><g id="Stroke_61_Copy_30" data-name="Stroke 61 Copy 30"><path class="cls-11" d="M68.77,528.47a1,1,0,0,1,.18.14C73,532.55,78,537,84.32,540a3.22,3.22,0,0,1-.58,1,5.53,5.53,0,0,1-2.1,1.63,5.7,5.7,0,0,1-4.61-.05c-2.19-.89-4.44-2.91-6.66-6-.24-.34-.51-.63-.76-.92s-.39-.44-.57-.67a6.6,6.6,0,0,1-.9-5.3A2.59,2.59,0,0,1,68.77,528.47Z"/><path class="cls-14" d="M69.08,530.13a6.32,6.32,0,0,0-.13,1.28,5,5,0,0,0,.88,3.05c.16.2.34.4.53.61s.55.63.82,1c2.11,2.94,4.21,4.84,6.23,5.67a4.78,4.78,0,0,0,3.83.06A4.58,4.58,0,0,0,83,540.47a60.91,60.91,0,0,1-13.87-10.34m-.68-2.59a1.08,1.08,0,0,1,1.24.35c3.59,3.48,8.81,8.26,15.43,11.4.9.42-.36,3.15-3,4.34-2.86,1.27-7.35.75-12.5-6.39-.38-.53-.86-1-1.3-1.55C66.15,533,66.87,528.22,68.4,527.54Z"/></g><g id="Stroke_61_Copy_26" data-name="Stroke 61 Copy 26"><path class="cls-11" d="M68.77,523.59a.7.7,0,0,1,.18.13c2.13,2.07,5.26,2,8.58,2,3,0,6-.09,8.94,1.19a5.77,5.77,0,0,1-.35,1.26,15.11,15.11,0,0,1-1.42,2.76,13.19,13.19,0,0,1-5.17,4.88c-3.15,1.41-6.24.06-9.16-4-.25-.33-.51-.63-.77-.92l-.56-.66a6.61,6.61,0,0,1-.9-5.3A2.41,2.41,0,0,1,68.77,523.59Z"/><path class="cls-14" d="M69.1,525.15a6.28,6.28,0,0,0-.15,1.37,5,5,0,0,0,.88,3.05l.52.62a10.75,10.75,0,0,1,.83,1,10.12,10.12,0,0,0,4.47,3.88,4.6,4.6,0,0,0,3.48-.2,11.61,11.61,0,0,0,4.55-4.24,13.66,13.66,0,0,0,1.61-3.14,22.54,22.54,0,0,0-7.75-.8c-3.13,0-6.11.09-8.44-1.54m-.71-2.49a1.09,1.09,0,0,1,1.25.34c3.59,3.48,11,0,17.61,3.13,1.17.56-2.19,8.29-7.31,10.57-3,1.35-6.69.78-10.39-4.34-.38-.54-.86-1-1.3-1.56C66.15,528.1,66.87,523.33,68.39,522.66Z"/></g></g><g id="лицо-4"><g id="уши-2"><path id="Fill_5-4" data-name="Fill 5-4" class="cls-10" d="M82.57,538.36a4.89,4.89,0,1,1-4.89-4.89h0a4.89,4.89,0,0,1,4.89,4.89"/><path id="Fill_5_Copy-5" data-name="Fill 5 Copy-5" class="cls-10" d="M135.53,538.36a4.89,4.89,0,1,1-4.89-4.89h0a4.89,4.89,0,0,1,4.89,4.89"/></g><path id="Stroke_61_Copy_5-3" data-name="Stroke 61 Copy 5-3" class="cls-10" d="M91.14,511.2a14.29,14.29,0,0,1-13.85,14.23v10.82a26.59,26.59,0,0,0,53.17,0v-10.4s-5-5.68-17.28-5.64C104.14,520.23,94.35,515.76,91.14,511.2Z"/><g id="веснушки-3"><path id="Fill_63_Copy_2-6" data-name="Fill 63 Copy 2-6" class="cls-22" d="M88.27,542.43a.82.82,0,0,1-.82-.81.82.82,0,0,1,.82-.82.82.82,0,0,1,.81.82.81.81,0,0,1-.81.81Z"/><path id="Fill_63_Copy_9-3" data-name="Fill 63 Copy 9-3" class="cls-22" d="M85.83,539.17a.81.81,0,0,1-.82-.81.82.82,0,1,1,1.63,0,.81.81,0,0,1-.81.81Z"/><path id="Fill_63_Copy_3-5" data-name="Fill 63 Copy 3-5" class="cls-22" d="M92.34,540.8a.81.81,0,0,1-.81-.81.82.82,0,0,1,.81-.82.82.82,0,0,1,.82.82.82.82,0,0,1-.82.81Z"/></g><g id="веснушки-4"><path id="Fill_63_Copy_2-7" data-name="Fill 63 Copy 2-7" class="cls-22" d="M119.23,542.43a.82.82,0,0,0,.82-.81.82.82,0,0,0-.82-.82.82.82,0,0,0-.81.82.81.81,0,0,0,.81.81Z"/><path id="Fill_63_Copy_10-3" data-name="Fill 63 Copy 10-3" class="cls-22" d="M121.68,539.17a.81.81,0,0,0,.81-.81.82.82,0,0,0-.81-.82.82.82,0,0,0-.82.82.82.82,0,0,0,.82.81Z"/><path id="Fill_63_Copy_3-6" data-name="Fill 63 Copy 3-6" class="cls-22" d="M115.16,540.8A.81.81,0,0,0,116,540a.82.82,0,0,0-.81-.82.82.82,0,0,0-.82.82.82.82,0,0,0,.82.81Z"/></g><g id="глаз-5"><circle id="Oval_2-19" data-name="Oval 2-19" class="cls-23" cx="114.34" cy="533.47" r="3.26"/><path id="Oval_2-20" data-name="Oval 2-20" class="cls-14" d="M114.34,536.73a3.26,3.26,0,0,1-3.26-3.26h0a3.26,3.26,0,0,1,3.26-3.26h4.6c1,0-1.34.43-1.34,3.26a3.26,3.26,0,0,1-3.25,3.26Z"/><path id="Oval_2_Copy-5" data-name="Oval 2 Copy-5" class="cls-14" d="M115.79,535.94A3.26,3.26,0,1,1,113,530l4.16-1.94c.88-.41-1,.95.17,3.52a3.26,3.26,0,0,1-1.57,4.33Z"/><circle id="Oval_4-10" data-name="Oval 4-10" class="cls-6" cx="112.71" cy="532.65" r="0.81"/><path id="Path_2-19" data-name="Path 2-19" class="cls-21" d="M110.35,525.39a8,8,0,0,1,3.82-.66,8.77,8.77,0,0,1,3.62,1.71"/></g><g id="глаз-6"><circle id="Oval_2-21" data-name="Oval 2-21" class="cls-23" cx="93.97" cy="533.47" r="3.26"/><path id="Oval_2-22" data-name="Oval 2-22" class="cls-14" d="M94,536.73a3.26,3.26,0,1,0,0-6.52H89.38c-1,0,1.33.43,1.33,3.26A3.26,3.26,0,0,0,94,536.73Z"/><path id="Oval_2_Copy-6" data-name="Oval 2 Copy-6" class="cls-14" d="M92.52,535.94A3.26,3.26,0,0,0,95.28,530l-4.17-1.94c-.88-.41,1,.95-.16,3.52a3.25,3.25,0,0,0,1.57,4.33Z"/><circle id="Oval_4-11" data-name="Oval 4-11" class="cls-6" cx="92.34" cy="532.65" r="0.81"/><path id="Path_2-20" data-name="Path 2-20" class="cls-21" d="M98,525.39a8,8,0,0,0-3.82-.66,8.77,8.77,0,0,0-3.62,1.71"/></g><path id="Stroke_67-12" data-name="Stroke 67-12" class="cls-12" d="M99.46,548.07a9.75,9.75,0,0,0,8.84,0"/><path id="Stroke_67_Copy-17" data-name="Stroke 67 Copy-17" class="cls-12" d="M102.12,540.62a3.3,3.3,0,0,1,3.26,0"/><path id="Stroke_67_Copy_4-3" data-name="Stroke 67 Copy 4-3" class="cls-24" d="M102.12,547.14c.2-.42.57-.84,1.63-.84a1.79,1.79,0,0,1,1.63.84s-1.1.13-1.64.13S102.12,547.14,102.12,547.14Z"/><path id="Stroke_67_Copy_5-5" data-name="Stroke 67 Copy 5-5" class="cls-24" d="M102.12,551.19c.2.42.57.84,1.63.84a1.79,1.79,0,0,0,1.63-.84,4.79,4.79,0,0,1-1.64.23A4.45,4.45,0,0,1,102.12,551.19Z"/></g><g id="бант_copy" data-name="бант copy"><g id="Group_9" data-name="Group 9"><g id="Oval_2_Copy_5-3" data-name="Oval 2 Copy 5-3"><path class="cls-17" d="M122.83,525.51a3.72,3.72,0,0,1,0-2.31,21.67,21.67,0,0,1,.87-2.81,17.49,17.49,0,0,1,2.66-5,1.55,1.55,0,0,1,1.76-.56c2.34.93,4.39,4.46,4.78,5.16l.09.19a4.37,4.37,0,0,1-.23,3.38,3.94,3.94,0,0,1-2.09,2.26c-1,.35-4.55,1.42-7.17.38A1.3,1.3,0,0,1,122.83,525.51Z"/><path class="cls-14" d="M132.11,520.59l-.06-.1c-.92-1.67-2.67-4.09-4.27-4.72-1.23-.49-4.65,8-4,9.34a.33.33,0,0,0,.16.17c1.94.77,4.76.19,6.47-.4,1.27-.44,2.3-3,1.74-4.29m1.82-.81a5.48,5.48,0,0,1-.22,4.19,5,5,0,0,1-2.68,2.8c-1.11.38-4.93,1.53-7.87.37a2.37,2.37,0,0,1-1.25-1.22,4.56,4.56,0,0,1,0-2.94,21.69,21.69,0,0,1,.91-2.94c.34-.91,1.55-4,2.86-5.33a2.55,2.55,0,0,1,2.86-.8c2.59,1,4.7,4.55,5.28,5.61A2.1,2.1,0,0,1,133.93,519.78Z"/></g><path id="Oval_2_Copy_8-3" data-name="Oval 2 Copy 8-3" class="cls-33" d="M129.14,519.35a7.38,7.38,0,0,1,2.45,2.2,1.58,1.58,0,0,1-.69,1.79,7,7,0,0,1-3.34-.12C127.07,523,128.61,519.14,129.14,519.35Z"/></g><g id="Group_9_Copy_4" data-name="Group 9 Copy 4"><g id="Oval_2_Copy_5-4" data-name="Oval 2 Copy 5-4"><path class="cls-17" d="M140.37,532.25a1.28,1.28,0,0,1-1,0c-2.65-1-4.55-4.13-5.07-5.08a3.88,3.88,0,0,1,0-3.07,4.38,4.38,0,0,1,2.09-2.67l.19-.07c.76-.27,4.64-1.52,7-.65a1.58,1.58,0,0,1,.94,1.6,17.48,17.48,0,0,1-1.37,5.48,22.32,22.32,0,0,1-1.23,2.68A3.8,3.8,0,0,1,140.37,532.25Z"/><path class="cls-14" d="M136.77,522.38c-1.27.57-2.23,3.18-1.58,4.35.88,1.59,2.59,3.9,4.55,4.62a.31.31,0,0,0,.23,0c1.38-.62,4.48-9.19,3.24-9.65-1.61-.6-4.52,0-6.33.65l-.11,0m-.81-1.82h0l.27-.11c1.14-.39,5.06-1.6,7.68-.63a2.53,2.53,0,0,1,1.59,2.5c.06,1.89-1.09,5-1.44,5.88a24.33,24.33,0,0,1-1.29,2.8,4.65,4.65,0,0,1-2,2.16,2.29,2.29,0,0,1-1.74.07c-3-1.1-5-4.51-5.6-5.53a5,5,0,0,1-.12-3.88,5.48,5.48,0,0,1,2.64-3.26Z"/></g><path id="Oval_2_Copy_8-4" data-name="Oval 2 Copy 8-4" class="cls-33" d="M139.8,523.45a7.31,7.31,0,0,0-3.29,0,1.59,1.59,0,0,0-.68,1.79,6.92,6.92,0,0,0,2.56,2.15C138.89,527.56,140.34,523.65,139.8,523.45Z"/></g><g id="Rectangle_6-3" data-name="Rectangle 6-3"><path class="cls-6" d="M134.59,521.08h0A2.27,2.27,0,0,1,135.9,524l-.41,1.06a2.26,2.26,0,0,1-2.93,1.3h0a2.26,2.26,0,0,1-1.3-2.93l.4-1.06A2.27,2.27,0,0,1,134.59,521.08Z"/><path class="cls-12" d="M135,520.15h0a3.25,3.25,0,0,1,1.88,4.22l-.4,1.06a3.29,3.29,0,0,1-4.23,1.88h0a3.29,3.29,0,0,1-1.88-4.23l.41-1.05A3.26,3.26,0,0,1,135,520.15Z"/></g></g></g><g id="рука_соска" data-name="рука соска"><path id="Combined_Shape-48" data-name="Combined Shape-48" class="cls-10" d="M63,634.47c2.14-.17,7.75-.25,11.58-5.63a12.87,12.87,0,0,0,2.25-7.6h0v-9.58a79.16,79.16,0,0,1-9.35.81,50.42,50.42,0,0,1-6.27-.27c-.9-1.25-2-2.77-3-4.34a138.65,138.65,0,0,0-9.92-11.72c-.48-.52-2.65-8.39-6.61-8.25-.55,0-2.85,0-4.52,0H35.52c-.9,0-.27,2.64-.9,2.9a8.19,8.19,0,0,1-3.4.4s-1,11-1,11c-.15.4,3.1,1,6.06.86,1.86-.08,5-.36,5-.36s1.4-.47,1.92.63c.7,1.48,2.59,9.33,6.54,16.4,5.1,9.13,11,14.7,13.24,14.7Z"/><g id="соска"><rect id="Rectangle_14-2" data-name="Rectangle 14-2" class="cls-35" x="30.42" y="576.65" width="13.04" height="18.74"/><g id="Path_Copy_14" data-name="Path Copy 14"><path class="cls-6" d="M42.78,577.73H31l-.29-.49A6.63,6.63,0,0,1,30,574a4.49,4.49,0,0,1,1.27-3.15,6.93,6.93,0,0,1,2.83-1.72v-.18a4.13,4.13,0,0,1,.81-3.08,2.68,2.68,0,0,1,2-.75,2.62,2.62,0,0,1,2.56,1.56,5.87,5.87,0,0,1,.36,2.21,1.85,1.85,0,0,1,0,.24,6.6,6.6,0,0,1,2.67,1.58A4.52,4.52,0,0,1,43.85,574c0,2.3-.54,3.16-.77,3.42Z"/><path class="cls-14" d="M42.33,576.73s.52-.59.52-2.76-1.46-3.4-3.75-4.06c-.64-.19.58-3.82-2.16-3.82s-1.39,3.63-2,3.8C32.37,570.63,31,572.1,31,574a5.82,5.82,0,0,0,.52,2.76H42.33m0,2H31.55a2,2,0,0,1-1.72-1A7.54,7.54,0,0,1,29,574a5.47,5.47,0,0,1,1.54-3.84,7.61,7.61,0,0,1,2.55-1.71,4.56,4.56,0,0,1,1.11-3.28,3.65,3.65,0,0,1,2.71-1,3.6,3.6,0,0,1,3.47,2.16,5.9,5.9,0,0,1,.44,2.15A7.35,7.35,0,0,1,43.26,570a5.6,5.6,0,0,1,1.59,4c0,2.55-.64,3.65-1,4.09A2,2,0,0,1,42.33,578.73Z"/></g><g id="Path_Copy_22" data-name="Path Copy 22"><path class="cls-11" d="M43.77,577.65H30.11a1.84,1.84,0,0,1,0-3.62H43.77a1.84,1.84,0,0,1,0,3.62Z"/><path class="cls-14" d="M30.11,575c-.28,0-.51.36-.51.81s.23.81.51.81H43.77c.27,0,.5-.36.5-.81s-.23-.81-.5-.81H30.11m0-2H43.77a2.83,2.83,0,0,1,0,5.62H30.11a2.83,2.83,0,0,1,0-5.62Z"/></g><path id="Rectangle_14_Copy_5-2" data-name="Rectangle 14 Copy 5-2" class="cls-10" d="M30.42,588.06h13v18.37a2,2,0,0,1-2,2h-9a2,2,0,0,1-2-2V588.06Z"/><path id="Path-13" class="cls-6" d="M31.22,589.22H42.64V588h-2.8v-.82h2.79V586H41.48v-.81h1.16v-1.22h-2.8v-.82h2.79V581.9H41.48v-.82h1.16v-1.23H39.85V579h2.79v-1.22H31.22Z"/></g><g id="кисть-2"><rect id="Rectangle_12-2" data-name="Rectangle 12-2" class="cls-10" x="29.63" y="589.69" width="8.15" height="3.27" rx="1.63"/><rect id="Rectangle_12_Copy-8" data-name="Rectangle 12 Copy-8" class="cls-10" x="28.1" y="592.95" width="9.68" height="3.27" rx="1.63"/><rect id="Rectangle_12_Copy_2-2" data-name="Rectangle 12 Copy 2-2" class="cls-10" x="28.75" y="596.21" width="9.02" height="3.27" rx="1.63"/><rect id="Rectangle_12_Copy_3-2" data-name="Rectangle 12 Copy 3-2" class="cls-10" x="29.89" y="599.47" width="7.88" height="3.27" rx="1.63"/><path id="Rectangle_12_Copy_4-2" data-name="Rectangle 12 Copy 4-2" class="cls-10" d="M34.27,588.88,34,592.37a1.63,1.63,0,0,0,1.27,1.71l.6.14.9-.21A1.63,1.63,0,0,0,38,592.73l.62-3.15s0,3.88,1.46,5.74,8.14,1.14,8.14,1.14v-.62a17.25,17.25,0,0,0-1.87-4.92,49.56,49.56,0,0,0-2.74-4.53c-.72-1-6.62-.77-6.62-.77a3.6,3.6,0,0,0-2,.77A4.49,4.49,0,0,0,34.27,588.88Z"/></g><g id="Group_47-2" data-name="Group 47-2"><path id="Rectangle_13-2" data-name="Rectangle 13-2" class="cls-6" d="M47.33,595.72l-3.06-1.14v1.22a1,1,0,0,1,.59.83.85.85,0,0,1-.59.79v2.05l4.88-1.2Z"/><path id="Stroke_67_Copy-18" data-name="Stroke 67 Copy-18" class="cls-12" d="M65.45,630.72a3.32,3.32,0,0,1-3.24-.29"/><path id="Stroke_67-13" data-name="Stroke 67-13" class="cls-12" d="M63.63,616l-4.31-6.82Z"/><path id="Stroke_67_Copy-19" data-name="Stroke 67 Copy-19" class="cls-12" d="M65.33,616.14a1.36,1.36,0,0,0-.81-.22,1.41,1.41,0,0,0-.82.22"/></g></g><g id="рука_корзина" data-name="рука корзина"><path id="Combined_Shape-49" data-name="Combined Shape-49" class="cls-10" d="M143.65,634.47c-2.13-.17-7.74-.25-11.57-5.63a12.88,12.88,0,0,1-2.25-7.61h0v-9.57a79.16,79.16,0,0,0,9.35.81,50.35,50.35,0,0,0,6.26-.27c.9-1.25,2-2.77,3-4.34a138.65,138.65,0,0,1,9.92-11.72c.48-.52,2.65-8.39,6.61-8.25.55,0,2.85,0,4.52,0h1.64c.9,0,.27,2.64.9,2.9a8.17,8.17,0,0,0,3.4.4s1,11,1,11c.15.39-3.1,1-6.06.85-1.85-.08-5-.35-5-.35s-1.4-.47-1.92.63c-.7,1.48-2.59,9.32-6.54,16.4-5.1,9.13-11,14.7-13.24,14.7Z"/><g id="Group_47-3" data-name="Group 47-3"><path id="Rectangle_13-3" data-name="Rectangle 13-3" class="cls-6" d="M159.36,595.72l3.06-1.14v1.22a1,1,0,0,0-.59.83.85.85,0,0,0,.59.79v2.05l-4.88-1.2Z"/><path id="Stroke_67_Copy-20" data-name="Stroke 67 Copy-20" class="cls-12" d="M141.23,630.72a3.33,3.33,0,0,0,3.25-.29"/><path id="Stroke_67-14" data-name="Stroke 67-14" class="cls-12" d="M143.06,616l4.31-6.82Z"/><path id="Stroke_67_Copy-21" data-name="Stroke 67 Copy-21" class="cls-12" d="M141.36,616.14a1.36,1.36,0,0,1,.81-.22,1.41,1.41,0,0,1,.82.22"/></g><g id="Group_50_Copy" data-name="Group 50 Copy"><path id="Path-14" class="cls-10" d="M143.27,615h53.78a2,2,0,0,1,2,2h0a2,2,0,0,1-2,2H143.27a2,2,0,0,1-2-2h0A2,2,0,0,1,143.27,615Z"/><g id="foot_copy" data-name="foot copy"><path id="Rectangle_16" data-name="Rectangle 16" class="cls-10" d="M193.55,588.37l-41,42.63,8.46,8.47a13,13,0,0,0,18.44,0l.18-.19,22.93-23.83a13,13,0,0,0-.18-18.26Z"/><g id="Rectangle_16_Copy" data-name="Rectangle 16 Copy"><path class="cls-17" d="M156.26,635.32l-.73-.73-2.88-2.88L152,631l.67-.71,40.19-42.64.71-.75.72.73,2.88,2.88.69.69-.67.71L157,634.57Z"/><path class="cls-14" d="M193.55,588.37,153.36,631l2.88,2.89,40.19-42.64-2.88-2.88M192.13,587a2.06,2.06,0,0,1,1.39-.58A2,2,0,0,1,195,587l2.88,2.89a2,2,0,0,1,0,2.78l-40.19,42.64,0,0a2,2,0,0,1-1.38.59,2,2,0,0,1-1.45-.59l-2.88-2.88a2,2,0,0,1,0-2.79L192.09,587Z"/></g></g><g id="foot"><path id="Rectangle_16-2" data-name="Rectangle 16-2" class="cls-10" d="M138.79,619.84h60.3v9.26a16,16,0,0,1-16,16h-28.3a16,16,0,0,1-16-16v-9.26Z"/><g id="Group_52" data-name="Group 52"><path id="Path_2-21" data-name="Path 2-21" class="cls-21" d="M153.07,642.24c-8.3-.52-10.48-10.18-10.48-10.18"/><path id="Path_2_Copy_4" data-name="Path 2 Copy 4" class="cls-21" d="M158.78,642.24h-3"/></g><g id="Group_52_Copy" data-name="Group 52 Copy"><path id="Path_2-22" data-name="Path 2-22" class="cls-21" d="M200.65,602.05c5.3,6-4.17,14.34-4.17,14.34"/><path id="Path_2_Copy_4-2" data-name="Path 2 Copy 4-2" class="cls-21" d="M196.76,598.16l2,2"/></g><g id="Rectangle_16_Copy-2" data-name="Rectangle 16 Copy-2"><rect class="cls-17" x="138.79" y="619.84" width="60.3" height="4.07"/><rect class="cls-12" x="137.79" y="618.84" width="62.3" height="6.07"/></g></g><g id="Path-15"><path class="cls-17" d="M171.16,585.44v46.8a1.91,1.91,0,0,1-1.82,1.82,5.09,5.09,0,0,1-5.07-5.08V585.44a5.07,5.07,0,0,1,1.81-3.89v-1.19h3.26v1.19A5,5,0,0,1,171.16,585.44Z"/><path class="cls-14" d="M170.16,585.44a4.09,4.09,0,0,0-2.45-3.74,4.09,4.09,0,0,0-2.44,3.74V629a4.08,4.08,0,0,0,4.07,4.08.92.92,0,0,0,.82-.82v-46.8m-.82-4.08h-3.26a4,4,0,0,1,1.63.34,4,4,0,0,1,1.63-.34m2.82,4.08v46.8a2.9,2.9,0,0,1-2.82,2.82,6.08,6.08,0,0,1-6.07-6.08V585.44a6.08,6.08,0,0,1,1-3.3,2,2,0,0,1,1.84-2.78h3.26a2,2,0,0,1,1.85,2.78A6.08,6.08,0,0,1,172.16,585.44Z"/></g><g id="Fill_63-17" data-name="Fill 63-17"><path class="cls-6" d="M167.71,631.75a1.73,1.73,0,1,1,1.73-1.73A1.73,1.73,0,0,1,167.71,631.75Z"/><path class="cls-14" d="M167.71,631.25a1.23,1.23,0,1,0-1.22-1.23,1.23,1.23,0,0,0,1.22,1.23m0,1a2.23,2.23,0,1,1,2.23-2.23A2.23,2.23,0,0,1,167.71,632.25Z"/></g></g><g id="кисть-3"><rect id="Rectangle_12-3" data-name="Rectangle 12-3" class="cls-10" x="168.91" y="589.69" width="8.15" height="3.27" rx="1.63"/><rect id="Rectangle_12_Copy-9" data-name="Rectangle 12 Copy-9" class="cls-10" x="168.91" y="592.95" width="9.68" height="3.27" rx="1.63"/><rect id="Rectangle_12_Copy_2-3" data-name="Rectangle 12 Copy 2-3" class="cls-10" x="168.91" y="596.21" width="9.02" height="3.27" rx="1.63"/><rect id="Rectangle_12_Copy_3-3" data-name="Rectangle 12 Copy 3-3" class="cls-10" x="168.91" y="599.47" width="7.88" height="3.27" rx="1.63"/><path id="Rectangle_12_Copy_4-3" data-name="Rectangle 12 Copy 4-3" class="cls-10" d="M172.42,588.88l.28,3.49a1.63,1.63,0,0,1-1.27,1.71l-.6.14-.9-.21a1.63,1.63,0,0,1-1.22-1.28l-.62-3.15s0,3.88-1.46,5.74-8.14,1.14-8.14,1.14v-.62a17.25,17.25,0,0,1,1.87-4.92,49.56,49.56,0,0,1,2.74-4.53c.72-1,6.62-.77,6.62-.77a3.57,3.57,0,0,1,2,.77A4.49,4.49,0,0,1,172.42,588.88Z"/></g><g id="Group_47_Copy" data-name="Group 47 Copy"><path id="Rectangle_13-4" data-name="Rectangle 13-4" class="cls-6" d="M159.36,595.72l3.06-1.14v1.22a1,1,0,0,0-.59.83.85.85,0,0,0,.59.79v2.05l-4.88-1.2Z"/></g></g></g></g></g></g></g><g id="txt-5"><g id="Няня_для_малышей_Copy_3" data-name="Няня для малышей Copy 3"><path id="Няня_для_малышей_Copy_3-2" data-name="Няня для малышей Copy 3-2" class="cls-32" d="M78.56,689.3a4.72,4.72,0,0,1-1.17-.26,17.68,17.68,0,0,0,.72-3.06h-5.6L72,688.5a.68.68,0,0,1-.43.56,5.1,5.1,0,0,1-1.35.11v-4.26l1.57-.33L72.93,679h-.87a5.85,5.85,0,0,1,.11-1.38.53.53,0,0,1,.56-.35h3.73a3.13,3.13,0,0,1,2.15.58,2.8,2.8,0,0,1,.6,2v4.67l1.4.32v.23a11.54,11.54,0,0,1-1.21,3.62A1,1,0,0,1,78.56,689.3ZM74.76,679l-.86,5.2h3.29v-4a1.34,1.34,0,0,0-.27-.94,1.09,1.09,0,0,0-.86-.3Zm100.46,7.15h0a4.09,4.09,0,0,1-1.71-.47v-7.42c0-.51.1-.82.31-.91a5.11,5.11,0,0,1,1.65-.15V683l4.5-5.81a4.06,4.06,0,0,1,1.71.48V685c0,.51-.1.83-.3.93a5.15,5.15,0,0,1-1.66.15v-5.78l-4.5,5.89Zm-7.13,0a4.26,4.26,0,0,1-3.19-1.24,5,5,0,0,1-1.2-3.59,4.06,4.06,0,0,1,3.87-4.23H168a3.73,3.73,0,0,1,2.83,1.1,4.22,4.22,0,0,1,1,3c0,.8-.49,1.2-1.46,1.2h-4.43c.31,1.41,1.34,2.13,3.06,2.13a6.87,6.87,0,0,0,2.2-.42v.62a1.19,1.19,0,0,1-.92,1.11A6.09,6.09,0,0,1,168.09,686.17Zm-.2-7.54c-1.29,0-2,.79-2.07,2.35h3.35a.45.45,0,0,0,.38-.16.59.59,0,0,0,.13-.36,1.87,1.87,0,0,0-.49-1.35,1.74,1.74,0,0,0-1.29-.48Zm-40.35,7.54a1.86,1.86,0,0,1-1-.26.88.88,0,0,1-.4-.79v-.59a2.23,2.23,0,0,0,.63.09c.6,0,.95-.37,1-1.1l.7-4.5h-.82a5.89,5.89,0,0,1,.11-1.39.53.53,0,0,1,.56-.34h3.85a3.05,3.05,0,0,1,2.13.58,2.72,2.72,0,0,1,.6,2V685c0,.51-.1.82-.3.92a5.09,5.09,0,0,1-1.69.16v-5.8c0-.83-.39-1.24-1.14-1.24h-1.47l-.54,4.86c-.17,1.52-.92,2.29-2.25,2.29Zm-7.74,0a2.44,2.44,0,0,1-2-.79,2.81,2.81,0,0,1-.66-1.86c0-1.46,1.07-2.3,3.18-2.52l2.24-.23v-.06c-.08-1.32-.88-2-2.4-2a6.19,6.19,0,0,0-2.2.5v-.58a1,1,0,0,1,.51-.85,3.31,3.31,0,0,1,1.19-.51,5.52,5.52,0,0,1,1.34-.16,3.59,3.59,0,0,1,2.59.87,3.88,3.88,0,0,1,1,2.61l.31,4.55a1.07,1.07,0,0,1-.07.53.57.57,0,0,1-.4.27,3.11,3.11,0,0,1-.61.1l-1,0-.09-1.53a3.48,3.48,0,0,1-3,1.64Zm2.84-4.12-2,.25a1.67,1.67,0,0,0-.87.38,1,1,0,0,0-.32.75,1.4,1.4,0,0,0,.31.92,1.1,1.1,0,0,0,.88.36,1.66,1.66,0,0,0,1.4-.8A3.54,3.54,0,0,0,122.64,682.05Zm-29.88,4.12a1.86,1.86,0,0,1-.92-.22.69.69,0,0,1-.37-.65v-.46h.16a1.83,1.83,0,0,0,1.44-.87l1-1.31a2.56,2.56,0,0,1-1.92-2.58,2.43,2.43,0,0,1,1-2,4.13,4.13,0,0,1,2.56-.76h1a2.89,2.89,0,0,1,2.1.59,2.77,2.77,0,0,1,.58,2V685c0,.51-.11.83-.32.93a5.33,5.33,0,0,1-1.69.15v-2.88H96l-1.15,1.73a2.79,2.79,0,0,1-.92,1A2.28,2.28,0,0,1,92.76,686.17ZM96,678.88a1.85,1.85,0,0,0-1.2.38,1.36,1.36,0,0,0-.48,1.09,1.34,1.34,0,0,0,.46,1.06,1.81,1.81,0,0,0,1.16.39h1.44v-1.73a1.3,1.3,0,0,0-.25-.9,1,1,0,0,0-.81-.29Zm-13.43,7.29a1.91,1.91,0,0,1-1-.26.9.9,0,0,1-.4-.79v-.59a2.28,2.28,0,0,0,.63.09c.6,0,1-.37,1-1.1l.7-4.5h-.83a5.76,5.76,0,0,1,.11-1.38.52.52,0,0,1,.56-.35h3.85a3.14,3.14,0,0,1,2.14.58,2.8,2.8,0,0,1,.6,2V685c0,.51-.1.83-.31.93a5.33,5.33,0,0,1-1.69.15v-5.8c0-.82-.38-1.24-1.14-1.24H85.4l-.54,4.86C84.69,685.4,83.94,686.17,82.61,686.17Zm-24.3,0a1.84,1.84,0,0,1-.92-.22.7.7,0,0,1-.38-.65v-.46h.17a1.83,1.83,0,0,0,1.44-.87l1-1.31a2.57,2.57,0,0,1-1.91-2.58,2.43,2.43,0,0,1,1-2,4.14,4.14,0,0,1,2.57-.76h1a2.89,2.89,0,0,1,2.1.59,2.77,2.77,0,0,1,.58,2V685c0,.51-.1.83-.31.93a5.42,5.42,0,0,1-1.7.15v-2.88H61.55l-1.15,1.73a2.79,2.79,0,0,1-.92,1A2.28,2.28,0,0,1,58.31,686.17Zm3.27-7.29a1.87,1.87,0,0,0-1.2.38,1.32,1.32,0,0,0-.47,1.09,1.33,1.33,0,0,0,.45,1.06,1.83,1.83,0,0,0,1.17.39H63v-1.73a1.3,1.3,0,0,0-.25-.9,1,1,0,0,0-.81-.29Zm-22.95,7.29a1.86,1.86,0,0,1-.92-.22.69.69,0,0,1-.37-.65v-.46h.16a1.83,1.83,0,0,0,1.44-.87l1-1.31a2.55,2.55,0,0,1-1.9-2.58,2.4,2.4,0,0,1,1-2,4.14,4.14,0,0,1,2.57-.76h1a2.88,2.88,0,0,1,2.1.59,2.73,2.73,0,0,1,.59,2V685c0,.51-.11.83-.32.93a5.4,5.4,0,0,1-1.7.15v-2.88H41.88l-1.16,1.73a2.76,2.76,0,0,1-.91,1,2.3,2.3,0,0,1-1.17.28Zm3.28-7.29a1.85,1.85,0,0,0-1.2.38,1.36,1.36,0,0,0-.48,1.09,1.34,1.34,0,0,0,.46,1.06,1.74,1.74,0,0,0,1.16.38h1.44v-1.72a1.3,1.3,0,0,0-.25-.9,1,1,0,0,0-.81-.29Zm71.73,7.18h0v-5.85a50.4,50.4,0,0,1-2.16,4.59,5,5,0,0,1-1.76.32c-.94-1.9-1.68-3.55-2.2-4.9V686h-1.84v-8.22a6.12,6.12,0,0,1,2.52-.59,39.11,39.11,0,0,0,2.41,5.7,46.91,46.91,0,0,0,2.3-5.18,6,6,0,0,1,2.54-.52v7.92c0,.46-.1.74-.3.83a4.79,4.79,0,0,1-1.51.14Zm-60.1,0h0v-3.44h-4V686h-2v-7.7c0-.52.1-.82.31-.92a5.73,5.73,0,0,1,1.7-.14V681h4V677.3h2V685q0,.78-.3.93a5.42,5.42,0,0,1-1.7.15Zm-20,0h0v-4.7H28.12V686H26V675.4c0-.51.12-.82.34-.92a6.08,6.08,0,0,1,1.8-.16v5.13h5.46V674.4h2.14V685c0,.51-.11.82-.34.93a6,6,0,0,1-1.8.15ZM147.12,686h-2v-7.7c0-.52.1-.82.31-.92a5.73,5.73,0,0,1,1.7-.14V686Zm13,0h-8a3.12,3.12,0,0,1-2.15-.58,2.76,2.76,0,0,1-.6-2v-5.1c0-.51.1-.82.31-.91a5.42,5.42,0,0,1,1.7-.15V683c0,.83.39,1.24,1.14,1.24h2.23V677.3h2v6.93h3.16V677.3h2v7.61c0,.5-.1.81-.29.92a4,4,0,0,1-1.45.16Zm-19.64,0H140a3.26,3.26,0,0,1-2.14-.59,2.45,2.45,0,0,1-.67-1.93v-5.29c0-.46.11-.73.33-.82a5.94,5.94,0,0,1,1.68-.14v3.24h1.3c2.26,0,3.4.87,3.4,2.58a2.6,2.6,0,0,1-1,2.18,3.85,3.85,0,0,1-2.4.77Zm-1.32-4v1.42a.91.91,0,0,0,.76,1h.47a1.65,1.65,0,0,0,1-.31,1.12,1.12,0,0,0,.43-1c0-.79-.55-1.19-1.62-1.19Zm38.54-6.15a3.11,3.11,0,0,1-2.13-.7,2.17,2.17,0,0,1-.78-1.7c0-.56.37-.84,1.1-.84a1.37,1.37,0,0,0,.54,1.18,2.23,2.23,0,0,0,2.55,0,1.39,1.39,0,0,0,.54-1.18q1.08,0,1.08.84a2.17,2.17,0,0,1-.78,1.7A3.14,3.14,0,0,1,177.72,675.84Z"/></g></g></g></g></g></svg>