<svg xmlns="http://www.w3.org/2000/svg" xmlns:xlink="http://www.w3.org/1999/xlink" viewBox="0 0 300.13 507.75"><defs><style>.cls-1,.cls-10,.cls-2,.cls-27,.cls-28,.cls-3,.cls-32,.cls-33,.cls-34,.cls-37,.cls-40,.cls-42,.cls-5{fill:none;}.cls-2,.cls-5{stroke:#fff;}.cls-10,.cls-12,.cls-13,.cls-16,.cls-2,.cls-27,.cls-28,.cls-29,.cls-3,.cls-33,.cls-34,.cls-37,.cls-38,.cls-40,.cls-41,.cls-42,.cls-9{stroke-linecap:round;}.cls-10,.cls-12,.cls-13,.cls-16,.cls-2,.cls-29,.cls-3,.cls-31,.cls-32,.cls-34,.cls-37,.cls-38,.cls-40,.cls-41,.cls-42,.cls-9{stroke-linejoin:round;}.cls-2,.cls-27,.cls-40{stroke-width:4px;}.cls-3{stroke:#b5c5ce;}.cls-10,.cls-12,.cls-13,.cls-16,.cls-22,.cls-29,.cls-3,.cls-31,.cls-32,.cls-33,.cls-34,.cls-37,.cls-38,.cls-41,.cls-9{stroke-width:2px;}.cls-4{fill:#b5c5ce;}.cls-22,.cls-27,.cls-28,.cls-33,.cls-5{stroke-miterlimit:10;}.cls-12,.cls-6{fill:#fff;}.cls-13,.cls-16,.cls-31,.cls-7{fill:#f4f4f5;}.cls-8{clip-path:url(#clip-path);}.cls-22,.cls-30,.cls-9{fill:#d7dbde;}.cls-10,.cls-12,.cls-16,.cls-22,.cls-27,.cls-31,.cls-32,.cls-33,.cls-40,.cls-41,.cls-42,.cls-9{stroke:#7c97a8;}.cls-11,.cls-24,.cls-25,.cls-41{fill:#7c97a8;}.cls-13,.cls-29,.cls-34,.cls-38{stroke:#504b46;}.cls-14{clip-path:url(#clip-path-2);}.cls-15{clip-path:url(#clip-path-3);}.cls-17{clip-path:url(#clip-path-4);}.cls-18{clip-path:url(#clip-path-5);}.cls-19{clip-path:url(#clip-path-6);}.cls-20{clip-path:url(#clip-path-7);}.cls-21{clip-path:url(#clip-path-8);}.cls-23{fill:#8aa2b2;}.cls-24{opacity:0.1;}.cls-24,.cls-25{isolation:isolate;}.cls-25{opacity:0.2;}.cls-26,.cls-38{fill:#edf2f4;}.cls-28{stroke:#d7dbde;}.cls-29{fill:#bcc3c6;}.cls-35{fill:#e9ebec;}.cls-36{fill:#504b46;}.cls-37{stroke:#e9ebec;}.cls-39{clip-path:url(#clip-path-9);}</style><clipPath id="clip-path"><path class="cls-1" d="M130.15,114.13A33.23,33.23,0,0,0,96.92,80.9H77a33.23,33.23,0,0,0-33.23,33.23h0v8.63H59.64l-.12,39.11s14.36,4.89,27.61,4.89,26.48-4.89,26.48-4.89l-.2-39.11h16.74Z"/></clipPath><clipPath id="clip-path-2"><rect class="cls-1" x="148.73" y="87.37" width="15.48" height="18.74"/></clipPath><clipPath id="clip-path-3"><rect class="cls-1" x="12.66" y="97.96" width="4.89" height="9.78" rx="2.44" transform="translate(-68.3 40.8) rotate(-45)"/></clipPath><clipPath id="clip-path-4"><path class="cls-1" d="M21.71,110.61l-.58.57-2-2a2.46,2.46,0,0,1,0-3.46l.32-.26a2.42,2.42,0,0,0,.26,3.14l2,2Z"/></clipPath><clipPath id="clip-path-5"><rect class="cls-1" x="22.43" y="99.59" width="4.89" height="9.78" rx="2.44" transform="translate(-82.34 110.8) rotate(-79.98)"/></clipPath><clipPath id="clip-path-6"><path class="cls-1" d="M15,101.91l.14-.8,2.78.49a2.44,2.44,0,0,1,2,2.83,2.6,2.6,0,0,1-.1.4,2.44,2.44,0,0,0-2-2.43L15,101.91Z"/></clipPath><clipPath id="clip-path-7"><rect class="cls-1" x="17.54" y="93.07" width="4.89" height="9.78" rx="2.45" transform="translate(-79.53 107.56) rotate(-83.98)"/></clipPath><clipPath id="clip-path-8"><path class="cls-1" d="M10,96.08l.08-.81,2.81.3A2.45,2.45,0,0,1,15,98.26a2.83,2.83,0,0,1-.08.4,2.44,2.44,0,0,0-2.18-2.28L10,96.08Z"/></clipPath><clipPath id="clip-path-9"><path class="cls-1" d="M68.7,301.2s5.14,3,16.87,3,17.8-3,17.8-3v20.65s-5.83,3-17.34,3-17.33-3-17.33-3Z"/></clipPath></defs><title>Asset 1</title><g id="Layer_2" data-name="Layer 2"><g id="im"><g id="Oval_3_Copy_7" data-name="Oval 3 Copy 7"><path id="Oval_3_Copy_7-2" data-name="Oval 3 Copy 7-2" class="cls-2" d="M295.41,223.16a46,46,0,0,0-2.22,65c.23.26.47.51.72.76"/><path id="Oval_3_Copy_7-3" data-name="Oval 3 Copy 7-3" class="cls-3" d="M295.41,223.16a46,46,0,0,0-2.22,65c.23.26.47.51.72.76"/></g><path id="Path_7_Copy-8" data-name="Path 7 Copy-8" class="cls-2" d="M281.8,224.78l-90-41"/><path id="Path_7_Copy-9" data-name="Path 7 Copy-9" class="cls-3" d="M281.8,224.78l-90-41"/><ellipse id="Oval_3_Copy_3-14" data-name="Oval 3 Copy 3-14" class="cls-4" cx="193.93" cy="185.08" rx="4.01" ry="4"/><ellipse id="Oval_3_Copy_3-15" data-name="Oval 3 Copy 3-15" class="cls-5" cx="193.93" cy="185.08" rx="4.01" ry="4"/><path id="Path_7_Copy-12" data-name="Path 7 Copy-12" class="cls-3" d="M281.8,284.39l-90,51"/><circle id="Oval_3_Copy_3-21" data-name="Oval 3 Copy 3-21" class="cls-4" cx="286.81" cy="279" r="13"/><path id="Combined_Shape-26" data-name="Combined Shape-26" class="cls-6" d="M286.9,286.37a7.66,7.66,0,0,0,5.44-2.25c-.26-2.68-2.91-3.88-5.44-3.88s-5.18,1.2-5.43,3.88A7.63,7.63,0,0,0,286.9,286.37Zm0-7.75a2.9,2.9,0,1,0-2.91-2.89A2.9,2.9,0,0,0,286.9,278.62Z"/><circle id="Oval_3_Copy_3-17" data-name="Oval 3 Copy 3-17" class="cls-4" cx="287.13" cy="231.7" r="13"/><path id="Combined_Shape-25" data-name="Combined Shape-25" class="cls-6" d="M287.23,239.07a7.62,7.62,0,0,0,5.43-2.24c-.25-2.69-2.91-3.89-5.43-3.89s-5.18,1.2-5.44,3.89A7.65,7.65,0,0,0,287.23,239.07Zm0-7.75a2.89,2.89,0,1,0-2.91-2.89A2.9,2.9,0,0,0,287.23,231.32Z"/><path id="Fill_13_Copy_2-2" data-name="Fill 13 Copy 2-2" class="cls-7" d="M130.15,114.13A33.23,33.23,0,0,0,96.92,80.9H77a33.23,33.23,0,0,0-33.23,33.23h0v8.63H59.64l-.12,39.11s14.36,4.89,27.61,4.89,26.48-4.89,26.48-4.89l-.2-39.11h16.74Z"/><g class="cls-8"><path id="Fill_15_Copy" data-name="Fill 15 Copy" class="cls-6" d="M112.06,152.9v20H60.73V140.33c0,11.26,8.84,25.27,19.74,25.27H92.32c10.9,0,19.74-14,19.74-25.27Z"/><path id="Rectangle_3_Copy_13" data-name="Rectangle 3 Copy 13" class="cls-9" d="M60.35,154.73a85.19,85.19,0,0,0,27,4.26c15.5,0,25.57-4.81,25.57-4.81v7.34s-10,4.84-26.27,4.84-26.27-4.3-26.27-4.3Z"/><path id="Fill_15" data-name="Fill 15" class="cls-6" d="M130.15,114.13A33.23,33.23,0,0,0,96.92,80.9H77a33.23,33.23,0,0,0-33.23,33.23h0v13.29A33.23,33.23,0,0,1,77,94.19H96.92a33.23,33.23,0,0,1,33.23,33.23Z"/></g><path id="Path-2" class="cls-10" d="M130.15,114.13A33.23,33.23,0,0,0,96.92,80.9H77a33.23,33.23,0,0,0-33.23,33.23h0v8.63H60.32v39.11s14,4.89,26.81,4.89,25.57-4.89,25.57-4.89V122.76h17.45Z"/><path id="Rectangle_3" data-name="Rectangle 3" class="cls-9" d="M41.31,120a69.58,69.58,0,0,0,9.67.82,62.59,62.59,0,0,0,9.36-.82v6.52a65,65,0,0,1-9.55.82,64.07,64.07,0,0,1-9.48-.82Z"/><path id="Fill_63" data-name="Fill 63" class="cls-11" d="M46.07,123.22a1.64,1.64,0,0,1-1.64,1.63,1.63,1.63,0,0,1,0-3.26h0a1.63,1.63,0,0,1,1.63,1.63h0"/><path id="Rectangle_3-2" data-name="Rectangle 3-2" class="cls-9" d="M132.55,120a64.5,64.5,0,0,1-9.72.82,72.92,72.92,0,0,1-10.11-.82v6.52a70,70,0,0,0,9.91.82,70,70,0,0,0,9.92-.82Z"/><path id="Fill_63-2" data-name="Fill 63-2" class="cls-11" d="M127.55,123.22a1.63,1.63,0,1,0,1.63-1.63,1.63,1.63,0,0,0-1.63,1.63h0"/><path id="Stroke_25" data-name="Stroke 25" class="cls-10" d="M112.7,111v-1.66"/><path id="Stroke_45" data-name="Stroke 45" class="cls-10" d="M60.35,111v-1.66"/><path id="жилетка" class="cls-10" d="M63,84.37s.91,17.23.5,24.25-3.13,6.77-3.13,6.77v46.28s14.36,4.89,27.16,4.89,25.2-4.89,25.2-4.89V115.19s-3.09-.77-3.59-7.43.4-24,.4-24a55.58,55.58,0,0,0-23-4.59A62.12,62.12,0,0,0,63,84.37Z"/><path id="Fill_35" data-name="Fill 35" class="cls-12" d="M96.52,89.88l-9.78,13.45L77,89.88v-19H96.52Z"/><path id="Fill_37" data-name="Fill 37" class="cls-7" d="M77.84,82.13c.23.11.44.24.68.34a21.36,21.36,0,0,0,16.57,0c.24-.1.45-.23.68-.34V70.85H77.84Z"/><path id="Combined_Shape-29" data-name="Combined Shape-29" class="cls-9" d="M86.66,104.38l0,.06L79.78,94.18l1-1.12.52-.65,1.64.87,3.72,5.31,3.81-5.25L92,92.41l.52.65,1,1.12L86.7,104.44Z"/><path class="cls-6" d="M76.37,98.59h0c-.4,0-1.19-.51-2.18-1.93-2.28-3.28-3.49-6.13-3.49-8.24a8.94,8.94,0,0,1,.83-3.92,14.88,14.88,0,0,1,2.18-3.17,10.48,10.48,0,0,1,3.09-2.08v4.67A10.23,10.23,0,0,0,80,91.28a13.37,13.37,0,0,0,2,1.65l-3.65,4-.18.2a10.92,10.92,0,0,1-1.07,1.08C76.66,98.56,76.44,98.59,76.37,98.59Z"/><path class="cls-11" d="M75.79,80.94a5.69,5.69,0,0,0-1.33,1c-1.87,2.24-2.77,3.78-2.77,6.45,0,1.88,1.18,4.6,3.31,7.67a5.43,5.43,0,0,0,1.33,1.44,9.94,9.94,0,0,0,1.08-1.07l.18-.2,2.9-3.18a11.54,11.54,0,0,1-4.7-9.16v-3m2-3.35v6.33c0,6,5.76,8.77,5.76,8.77L79.07,97.6c-.72.8-1.71,2-2.7,2h0c-1.15,0-2.29-1.35-3-2.36-1.75-2.51-3.67-5.92-3.67-8.81,0-3.49,1.39-5.53,3.24-7.73C74,79.39,76.23,78.45,77.79,77.59Z"/><path class="cls-6" d="M97.36,98.58c-.68,0-1.79-1.24-2.15-1.64l-3.59-4a13.33,13.33,0,0,0,2-1.65,10.37,10.37,0,0,0,3.12-7.36V79.26a10.39,10.39,0,0,1,3,2.06,15,15,0,0,1,2.14,3.17,9.12,9.12,0,0,1,.81,3.93c0,2.12-1.18,5-3.43,8.24a10.86,10.86,0,0,1-1,1.34c-.48.5-.74.57-.81.58Z"/><path class="cls-11" d="M97.73,81v2.94a11.62,11.62,0,0,1-4.63,9.16L96,96.27a6.65,6.65,0,0,0,1.34,1.25,7.66,7.66,0,0,0,1.14-1.42c2.1-3.07,3.25-5.79,3.25-7.68,0-2.68-.88-4.22-2.72-6.46a5.23,5.23,0,0,0-1.23-1m-2-3.39c1.53.86,3.71,1.8,4.77,3.1,1.82,2.2,3.18,4.24,3.18,7.73,0,2.89-1.88,6.3-3.6,8.81-.62.9-1.57,2.23-2.56,2.34h-.16c-1,0-2.13-1.12-2.9-2l-4.4-4.91s5.67-2.72,5.67-8.77Z"/><path id="Stroke_57_Copy_2" data-name="Stroke 57 Copy 2" class="cls-12" d="M123.12,42c1.37-1.3,3-3.13,3-5.16a7.18,7.18,0,0,0-7.2-7.15h0a31.26,31.26,0,0,0-62.29,0,7.18,7.18,0,0,0-7.32,7.05v.09c0,2,1.68,3.86,3,5.16-1.5.42-2.28,3.33-.61,5.8a5,5,0,0,0,4,2.4l5.67,6.36h50.88l6.05-6s3.43-.46,4.9-2.59S124.19,42.3,123.12,42Z"/><path id="Stroke_57_Copy_4" data-name="Stroke 57 Copy 4" class="cls-10" d="M123.12,42c1.37-1.3,3-3.13,3-5.16a7.18,7.18,0,0,0-7.2-7.15h0a31.26,31.26,0,0,0-62.29,0,7.18,7.18,0,0,0-7.32,7.05v.09c0,2,1.68,3.86,3,5.16-1.5.42-2.28,3.33-.61,5.8a5,5,0,0,0,4,2.4l5.67,6.36h50.88l6.05-6s3.43-.46,4.9-2.59S124.19,42.3,123.12,42Z"/><path id="Stroke_57_Copy_4-2" data-name="Stroke 57 Copy 4-2" class="cls-10" d="M123.08,41.94c2.47-1.68,3-3.13,3-5.16a7.18,7.18,0,0,0-7.2-7.16h0a31.25,31.25,0,0,0-62.28,0,7.19,7.19,0,0,0-7.32,7.05.38.38,0,0,0,0,.1c0,6.48,8.84,7,10.49,3.76S60.94,49,60.94,49l.52,7.48h51.62s.24-11.76.24-16C113.32,40.3,118,45.36,123.08,41.94Z"/><path id="Path_2" data-name="Path 2" class="cls-10" d="M59.88,36.27c8.3-.52,10.48-10.18,10.48-10.18"/><path id="Path_2_Copy" data-name="Path 2 Copy" class="cls-10" d="M59.86,32.5c4.68-.29,5.91-5.73,5.91-5.73"/><path id="Stroke_61_Copy_2" data-name="Stroke 61 Copy 2" class="cls-10" d="M77.93,23.33a37.16,37.16,0,0,0,16.66,5.48c12.44.91,18.31-5.45,18.31-5.45"/><path id="Stroke_61_Copy_3" data-name="Stroke 61 Copy 3" class="cls-10" d="M78.58,17c3.52,3.22,10.47,6.36,17.64,6.88a30.4,30.4,0,0,0,5.48-.07"/><path id="Stroke_61_Copy_4" data-name="Stroke 61 Copy 4" class="cls-10" d="M95.23,2c-1-.16-2-.28-3-.34C83.6,1.1,78.68,5.23,75.57,12.48c-1.85,4.33-1.29,7.81-1.29,14.09"/><path id="Fill_5" data-name="Fill 5" class="cls-12" d="M65.62,53.15a4.89,4.89,0,1,1-4.89-4.89h0a4.89,4.89,0,0,1,4.89,4.89"/><path id="Fill_5_Copy" data-name="Fill 5 Copy" class="cls-12" d="M118.58,53.15a4.89,4.89,0,1,1-4.89-4.89h0a4.89,4.89,0,0,1,4.89,4.89"/><path id="Stroke_61-2" data-name="Stroke 61-2" class="cls-12" d="M74.19,26A14.28,14.28,0,0,1,60.35,40.22V51a26.59,26.59,0,0,0,53.17,0V30.2c-1.67.5-5,4.76-17.28,4.8C87.19,35,77.4,30.55,74.19,26Z"/><path id="Oval_2" data-name="Oval 2" class="cls-11" d="M97.4,51.52a3.26,3.26,0,0,1-3.26-3.26h0A3.26,3.26,0,0,1,97.4,45a3.11,3.11,0,0,1,3.26,3v.3a3.26,3.26,0,0,1-3.26,3.26Z"/><circle id="Oval_4" data-name="Oval 4" class="cls-6" cx="95.77" cy="47.44" r="0.81"/><path id="Path_2-2" data-name="Path 2-2" class="cls-10" d="M93.4,40.18a8,8,0,0,1,3.82-.66,8.77,8.77,0,0,1,3.62,1.71"/><path id="Oval_2-2" data-name="Oval 2-2" class="cls-11" d="M77,51.52A3.26,3.26,0,1,0,77,45a3.11,3.11,0,0,0-3.26,3,1.5,1.5,0,0,0,0,.3A3.26,3.26,0,0,0,77,51.52Z"/><circle id="Oval_4-2" data-name="Oval 4-2" class="cls-6" cx="75.4" cy="47.44" r="0.81"/><path id="Path_2-3" data-name="Path 2-3" class="cls-10" d="M81,40.19a7.8,7.8,0,0,0-3.81-.67,8.75,8.75,0,0,0-3.63,1.71"/><path id="Stroke_67" data-name="Stroke 67" class="cls-10" d="M84.25,63.83a19,19,0,0,1,5.36,0"/><path id="Stroke_67_Copy" data-name="Stroke 67 Copy" class="cls-10" d="M85.18,55.41A2.89,2.89,0,0,1,86.81,55a2.93,2.93,0,0,1,1.63.43"/><path id="Stroke_67_Copy_3" data-name="Stroke 67 Copy 3" class="cls-10" d="M85.18,70.89a2.89,2.89,0,0,1,1.63-.43,2.93,2.93,0,0,1,1.63.43"/><path class="cls-6" d="M86.93,77.16a26.83,26.83,0,0,1-10.11-2,24.31,24.31,0,0,1-7.3-4.59c.78-.13,1.93-.25,3-.36,5.78-.6,15.45-1.59,22.26-7.13,9.84-8,14.09-20.4,15.91-25.7.19-.55.38-1.1.54-1.54l2,1.28a54,54,0,0,1-8,27.13,33.87,33.87,0,0,1-8.42,9.41A16.78,16.78,0,0,1,86.93,77.16Z"/><path class="cls-11" d="M86.93,76.16a15.73,15.73,0,0,0,9.28-3.34,32.88,32.88,0,0,0,8.16-9.13,52.2,52.2,0,0,0,5.71-12.88,52.75,52.75,0,0,0,2.1-13.18l-.44-.29-.12.34c-1.84,5.38-6.16,18-16.22,26.15-7,5.72-16.9,6.74-22.79,7.35l-.68.07a24.68,24.68,0,0,0,5.27,3,25.83,25.83,0,0,0,9.73,2m0,2a27,27,0,0,1-18.84-7.63c-2.17-2.23,15.66.18,26.05-8.25,12.51-10.16,15.78-27.63,16.69-27.91l3.36,2.18C114.19,56.27,101.62,78.16,86.93,78.16Z"/><path class="cls-6" d="M112.1,28.11c-.11-.45-.24-1-.37-1.59-1-4.41-3.09-13.5-8.48-21.54a4.6,4.6,0,0,1,1.93-.16,7.9,7.9,0,0,1,4.92,2.62c1.94,2.09,3.21,5.23,3.78,9.32a38.41,38.41,0,0,1,.31,10.29Z"/><path class="cls-11" d="M112.78,26.64l.47-.24a38,38,0,0,0-.36-9.5c-.54-3.88-1.72-6.84-3.52-8.78a6.86,6.86,0,0,0-4.29-2.3H105c4.83,7.82,6.77,16.27,7.73,20.49,0,.11,0,.23.08.34m-1.21,2.86c-.76-.32-1.91-13.47-9.45-24.4-.48-.7,1-1.5,3.17-1.27,3.34.35,8.25,3.2,9.58,12.8a40.28,40.28,0,0,1,.27,11.06Z"/><path class="cls-6" d="M109.81,31.46s-.9-.58-1.4-5.15c-.12-1.09-.19-2.17-.23-3,.71.53,1.57,1.19,2.42,1.9,3.51,2.95,3.5,4,3.5,4A3.45,3.45,0,0,1,109.81,31.46Z"/><path class="cls-11" d="M110.37,30.57A2.45,2.45,0,0,0,113,29.15c-.19-.37-.91-1.45-3.49-3.55l-.22-.19a2.28,2.28,0,0,0,0,.26c.32,3.33.82,4.53,1,4.9m-.86,1.84c-2.34-.71-2.4-11.14-2.4-11.14s8.66,5.85,7.94,8.2A4.43,4.43,0,0,1,109.51,32.41Z"/><path class="cls-6" d="M113.26,30.54c0-.05-.15-1.05,3-4.43.75-.82,1.51-1.58,2.15-2.19.07.89.13,2,.15,3.08.08,4.59-.69,5.25-.74,5.28A3.43,3.43,0,0,1,113.26,30.54Z"/><path class="cls-11" d="M114.3,30.38a2.46,2.46,0,0,0,2.83,1.09c.15-.39.49-1.65.39-5,0-.1,0-.2,0-.3l-.18.19c-2.3,2.43-2.89,3.6-3,4m-2,.56c-1-2.24,6.84-9.12,6.84-9.12s1.27,10.38-1,11.37A4.45,4.45,0,0,1,112.34,30.94Z"/><rect id="Rectangle_6" data-name="Rectangle 6" class="cls-12" x="110.43" y="29.52" width="6.52" height="8.15" rx="3.26" transform="translate(16.04 100.81) rotate(-51)"/><path id="Stroke_61_Copy_2-2" data-name="Stroke 61 Copy 2-2" class="cls-10" d="M79,73.24a33.6,33.6,0,0,0,16.17-6.79"/><path id="Stroke_61_Copy_15" data-name="Stroke 61 Copy 15" class="cls-10" d="M86.82,74.36c2.53-.27,5.43-1.82,8.07-3.73"/><path id="Combined_Shape-30" data-name="Combined Shape-30" class="cls-12" d="M126.46,149.25c-2.13-.16-7.74-.23-11.57-5.6a12.85,12.85,0,0,1-2.23-7.63h0v-9.55a79.33,79.33,0,0,0,9.36.81,50.58,50.58,0,0,0,6.28-.27c.9-1.24,2-2.76,3-4.33a140.46,140.46,0,0,1,8.83-11.91,10.41,10.41,0,0,1,1.62-1.63c1-.74.52-3.6,2.33-5.58s5.9-5.67,5.9-5.67l9.25,13.31s-6.13,3.34-7.07,3.71c-1.27.5-2.89.1-3.72.57a6,6,0,0,0-2.09,2.71c-.65,1.47-2.6,9.31-6.56,16.37-5.12,9.13-11.05,14.69-13.26,14.69Z"/><path id="Stroke_67-2" data-name="Stroke 67-2" class="cls-10" d="M126,130.86,130.3,124Z"/><path id="Stroke_67_Copy-2" data-name="Stroke 67 Copy-2" class="cls-10" d="M124.29,131a1.35,1.35,0,0,1,.81-.21,1.4,1.4,0,0,1,.82.21"/><path id="Rectangle_12_Copy" data-name="Rectangle 12 Copy" class="cls-12" d="M166.21,96l-5.53,3.45a1.62,1.62,0,0,1-2.24-.51h0a1.63,1.63,0,0,1,.52-2.25l5.52-3.46a1.64,1.64,0,0,1,2.25.52h0A1.63,1.63,0,0,1,166.21,96Z"/><path id="Rectangle_12_Copy_5" data-name="Rectangle 12 Copy 5" class="cls-12" d="M167,99.25l-5.52,3.45a1.63,1.63,0,0,1-2.25-.52h0a1.62,1.62,0,0,1,.52-2.24l5.53-3.46a1.63,1.63,0,0,1,2.24.52h0A1.63,1.63,0,0,1,167,99.25Z"/><path id="Rectangle_12_Copy_6" data-name="Rectangle 12 Copy 6" class="cls-12" d="M167,103.32l-5.52,3.46a1.64,1.64,0,0,1-2.25-.52h0a1.63,1.63,0,0,1,.52-2.25l5.53-3.45a1.61,1.61,0,0,1,2.24.52h0A1.62,1.62,0,0,1,167,103.32Z"/><path id="Rectangle_12_Copy_7" data-name="Rectangle 12 Copy 7" class="cls-12" d="M166.62,105a1.64,1.64,0,0,1-.52,2.25l-.17.09-2.88,1.35a1.64,1.64,0,0,1-2.07-.61h0a1.62,1.62,0,0,1,.52-2.23l.16-.09,2.9-1.35a1.63,1.63,0,0,1,2.07.61Z"/><rect id="Rectangle_15" data-name="Rectangle 15" class="cls-12" x="148.73" y="83.3" width="15.48" height="28.52" rx="2"/><path id="Fill_63-3" data-name="Fill 63-3" class="cls-11" d="M156.47,110.19a1.23,1.23,0,1,0-1.22-1.23A1.23,1.23,0,0,0,156.47,110.19Z"/><rect id="Rectangle_15_Copy-4" data-name="Rectangle 15 Copy-4" class="cls-13" x="148.73" y="87.37" width="15.48" height="18.74"/><g class="cls-14"><path id="Rectangle_15_Copy_3" data-name="Rectangle 15 Copy 3" class="cls-6" d="M158.51,87.37h-9V98.78Z"/><path id="Rectangle_15_Copy_4" data-name="Rectangle 15 Copy 4" class="cls-6" d="M162.58,88.19h-3.36l-9.67,12.21v4.09Z"/></g><rect id="Rectangle_15_Copy_2" data-name="Rectangle 15 Copy 2" class="cls-10" x="148.73" y="87.37" width="15.48" height="18.74"/><path id="Rectangle_12_Copy-2" data-name="Rectangle 12 Copy-2" class="cls-12" d="M155.89,98.62a1.63,1.63,0,0,1-.08,2.3h0l-3.12,2.91a2.45,2.45,0,0,0-.28,1.83,6.57,6.57,0,0,1,.27,3.23,5.22,5.22,0,0,1-2.88,3.33,6.71,6.71,0,0,1-3.33,0l-1.65-2.69a1.64,1.64,0,0,1-.17-1.35l.52-1.62,2.5-2.52,5.91-5.51a1.63,1.63,0,0,1,2.3.08h0Z"/><path id="Path_10" data-name="Path 10" class="cls-6" d="M148.43,110.77l-.07.92a.72.72,0,0,0-.61.73,1,1,0,0,0,.47.88l0,.23-4.07,1.09-1.9-3.85,1.37-3.13.13,0a.88.88,0,0,0,.67.78c.63.13.93-.56.93-.56l1,.14Z"/><path id="Stroke_67_Copy_9" data-name="Stroke 67 Copy 9" class="cls-10" d="M124.23,145.51a2.8,2.8,0,0,0,1.66.28,2.74,2.74,0,0,0,1.58-.57"/><path id="Combined_Shape-31" data-name="Combined Shape-31" class="cls-12" d="M46.34,149.25c2.13-.16,7.74-.23,11.56-5.6A12.71,12.71,0,0,0,60.13,136h0v-9.55a77.26,77.26,0,0,1-9.36.81A50.83,50.83,0,0,1,44.5,127c-.9-1.24-2-2.76-3-4.32a140.61,140.61,0,0,0-8.83-11.92,7.05,7.05,0,0,0-6.11-3A86.88,86.88,0,0,1,16,107.54c-3.11-.44-5.37-9.29-8.2-5.85-1.38,1.67,2.91,9.88,3.17,10.36,1.17,2.17,11.7,3.18,11.7,3.18s2.86.79,3.81,3c.65,1.47,2.6,9.31,6.56,16.37,5.12,9.13,11,14.69,13.26,14.69Z"/><path id="Stroke_67_Copy-3" data-name="Stroke 67 Copy-3" class="cls-10" d="M48.51,145.51a3.33,3.33,0,0,1-3.25-.29"/><path id="Stroke_67-3" data-name="Stroke 67-3" class="cls-10" d="M46.68,130.74l-4.31-6.82Z"/><path id="Stroke_67_Copy-4" data-name="Stroke 67 Copy-4" class="cls-10" d="M48.39,130.93a1.41,1.41,0,0,0-.82-.22,1.36,1.36,0,0,0-.81.22"/><rect id="Mask-4" class="cls-6" x="12.66" y="97.96" width="4.89" height="9.78" rx="2.44" transform="translate(-68.3 40.8) rotate(-45)"/><g class="cls-15"><path id="Rectangle_3_Copy_11-3" data-name="Rectangle 3 Copy 11-3" class="cls-16" d="M13.69,104.89l3.45-3.45h0l2.05,2a2.46,2.46,0,0,1,0,3.46h0a2.46,2.46,0,0,1-3.46,0h0l-2-2Z"/></g><path id="Combined_Shape_Copy-4" data-name="Combined Shape Copy-4" class="cls-6" d="M21.71,110.61l-.58.57-2-2a2.46,2.46,0,0,1,0-3.46l.32-.26a2.42,2.42,0,0,0,.26,3.14l2,2Z"/><g class="cls-17"><path id="Rectangle_3_Copy_12" data-name="Rectangle 3 Copy 12" class="cls-10" d="M13.69,104.89l3.45-3.45h0l2.05,2a2.46,2.46,0,0,1,0,3.46h0a2.46,2.46,0,0,1-3.46,0h0l-2-2Z"/></g><rect id="Rectangle_3_Copy_10" data-name="Rectangle 3 Copy 10" class="cls-10" x="12.66" y="97.96" width="4.89" height="9.78" rx="2.44" transform="translate(-68.3 40.8) rotate(-45)"/><rect id="Mask-5" class="cls-6" x="22.43" y="99.59" width="4.89" height="9.78" rx="2.44" transform="translate(-82.34 110.8) rotate(-79.98)"/><g class="cls-18"><path id="Rectangle_3_Copy_11-8" data-name="Rectangle 3 Copy 11-8" class="cls-16" d="M24.86,102,24,106.81h0l-2.84-.5a2.45,2.45,0,0,1-2-2.84h0a2.44,2.44,0,0,1,2.83-2h0l2.84.5Z"/></g><path id="Combined_Shape_Copy-5" data-name="Combined Shape Copy-5" class="cls-6" d="M15,101.91l.14-.8,2.78.49a2.44,2.44,0,0,1,2,2.83,2.6,2.6,0,0,1-.1.4,2.44,2.44,0,0,0-2-2.43L15,101.91Z"/><g class="cls-19"><path id="Rectangle_3_Copy_12-2" data-name="Rectangle 3 Copy 12-2" class="cls-10" d="M24.86,102,24,106.81h0l-2.84-.5a2.45,2.45,0,0,1-2-2.84h0a2.44,2.44,0,0,1,2.83-2h0l2.84.5Z"/></g><rect id="Rectangle_3_Copy_10-2" data-name="Rectangle 3 Copy 10-2" class="cls-10" x="22.43" y="99.59" width="4.89" height="9.78" rx="2.44" transform="translate(-82.34 110.8) rotate(-79.98)"/><rect id="Mask-6" class="cls-6" x="17.54" y="93.07" width="4.89" height="9.78" rx="2.45" transform="translate(-79.53 107.56) rotate(-83.98)"/><g class="cls-20"><path id="Rectangle_3_Copy_11-13" data-name="Rectangle 3 Copy 11-13" class="cls-16" d="M19.8,95.48l-.51,4.87h0L16.41,100a2.44,2.44,0,0,1-2.17-2.68h0a2.44,2.44,0,0,1,2.69-2.17h0l2.87.3Z"/></g><path id="Combined_Shape_Copy-6" data-name="Combined Shape Copy-6" class="cls-6" d="M10,96.08l.08-.81,2.81.3A2.45,2.45,0,0,1,15,98.26a2.83,2.83,0,0,1-.08.4,2.44,2.44,0,0,0-2.18-2.28L10,96.08Z"/><g class="cls-21"><path id="Rectangle_3_Copy_12-3" data-name="Rectangle 3 Copy 12-3" class="cls-10" d="M19.8,95.48l-.51,4.87h0L16.41,100a2.44,2.44,0,0,1-2.17-2.68h0a2.44,2.44,0,0,1,2.69-2.17h0l2.87.3Z"/></g><rect id="Rectangle_3_Copy_10-3" data-name="Rectangle 3 Copy 10-3" class="cls-10" x="17.54" y="93.07" width="4.89" height="9.78" rx="2.45" transform="translate(-79.53 107.56) rotate(-83.98)"/><path id="Rectangle_3_Copy" data-name="Rectangle 3 Copy" class="cls-9" d="M101.44,116.86l-4.61,5.43h9.22Z"/><path id="Rectangle_3_Copy_2" data-name="Rectangle 3 Copy 2" class="cls-6" d="M101.44,120.12l-1.13,1.36h2.26Z"/><rect id="Rectangle_3-3" data-name="Rectangle 3-3" class="cls-22" x="94.95" y="122.41" width="13.04" height="3.26"/><path id="Нужен_хороший_врач_Copy-2" data-name="Нужен хороший врач Copy-2" class="cls-23" d="M14.22,203.93a2.37,2.37,0,0,1-1.17-.27.94.94,0,0,1-.47-.87v-.68a3.2,3.2,0,0,0,.92.13,1.55,1.55,0,0,0,1.64-1.35,55.66,55.66,0,0,1-3.89-8.8H13.7a40.05,40.05,0,0,0,2.41,6.42l2.05-6.42h2.18v.2l-3.13,8.44C16.9,202.85,15.89,203.93,14.22,203.93Zm132.61-.18V193.07c0-.51.1-.82.31-.91a5.42,5.42,0,0,1,1.7-.15v1.78A3.44,3.44,0,0,1,152,191.9a3,3,0,0,1,2.52,1.14,4.79,4.79,0,0,1,.88,3,5.45,5.45,0,0,1-1.14,3.48,3.59,3.59,0,0,1-2.91,1.44,3,3,0,0,1-2.54-1.19v4Zm4.53-10.17a2,2,0,0,0-1.72.94A4.36,4.36,0,0,0,149,197a2.57,2.57,0,0,0,.51,1.58,1.65,1.65,0,0,0,1.4.69,2,2,0,0,0,1.76-.94,3.88,3.88,0,0,0,.64-2.2,3.27,3.27,0,0,0-.48-1.8A1.65,1.65,0,0,0,151.36,193.58ZM78.25,203.75V193.07c0-.51.1-.82.31-.91a5.42,5.42,0,0,1,1.7-.15v1.78a3.44,3.44,0,0,1,3.19-1.89A3,3,0,0,1,86,193a4.79,4.79,0,0,1,.88,3,5.45,5.45,0,0,1-1.14,3.48A3.58,3.58,0,0,1,82.8,201a3,3,0,0,1-2.54-1.19v4Zm4.53-10.17a2,2,0,0,0-1.72.94,4.36,4.36,0,0,0-.64,2.44,2.65,2.65,0,0,0,.52,1.58,1.64,1.64,0,0,0,1.4.69,2,2,0,0,0,1.75-.94,3.73,3.73,0,0,0,.64-2.2,3.19,3.19,0,0,0-.48-1.8A1.63,1.63,0,0,0,82.78,193.58ZM159.16,201a2.42,2.42,0,0,1-1.95-.79,2.81,2.81,0,0,1-.66-1.86c0-1.46,1.07-2.3,3.18-2.52l2.23-.23v-.06c-.07-1.32-.87-2-2.39-2a6.19,6.19,0,0,0-2.2.5v-.58a1,1,0,0,1,.51-.85,3.31,3.31,0,0,1,1.19-.51,6.06,6.06,0,0,1,1.34-.16,3.6,3.6,0,0,1,2.59.87,3.88,3.88,0,0,1,1,2.61l.31,4.55a1.2,1.2,0,0,1-.08.53.52.52,0,0,1-.4.27,2.59,2.59,0,0,1-.61.1l-1,0-.09-1.53A3.5,3.5,0,0,1,159.16,201Zm2.84-4.12-2,.25a1.56,1.56,0,0,0-.87.38,1,1,0,0,0-.32.75,1.4,1.4,0,0,0,.31.92,1.09,1.09,0,0,0,.88.36,1.68,1.68,0,0,0,1.4-.8A3.54,3.54,0,0,0,162,196.84ZM125.42,201h0a4.13,4.13,0,0,1-1.71-.47v-7.42c0-.51.1-.82.31-.91a5.15,5.15,0,0,1,1.66-.15v5.76l4.5-5.81a4.1,4.1,0,0,1,1.71.48v7.33c0,.51-.1.83-.31.93a5.11,5.11,0,0,1-1.65.15v-5.78l-4.5,5.89ZM115,201h0a4.13,4.13,0,0,1-1.71-.47v-7.42c0-.51.1-.82.31-.91a5.15,5.15,0,0,1,1.66-.15v5.76l4.5-5.81a4.1,4.1,0,0,1,1.71.48v7.33c0,.51-.1.83-.31.93a5.15,5.15,0,0,1-1.66.15v-5.78L115,201ZM92.4,201a4.06,4.06,0,0,1-3.13-1.31,4.84,4.84,0,0,1-1.19-3.41,4.31,4.31,0,0,1,1.14-3.19,5,5,0,0,1,6.35,0,4.32,4.32,0,0,1,1.15,3.19,4.88,4.88,0,0,1-1.19,3.41A4,4,0,0,1,92.39,201Zm0-7.38a2,2,0,0,0-1.67.71,3.22,3.22,0,0,0-.53,2,3.82,3.82,0,0,0,.58,2.13,2,2,0,0,0,3.25,0,3.82,3.82,0,0,0,.58-2.13,3.14,3.14,0,0,0-.54-2,2,2,0,0,0-1.68-.71ZM72.1,201A4.06,4.06,0,0,1,69,199.65a4.89,4.89,0,0,1-1.2-3.41,4.31,4.31,0,0,1,1.14-3.19,5,5,0,0,1,6.36,0,4.31,4.31,0,0,1,1.14,3.19,4.88,4.88,0,0,1-1.19,3.41A4.08,4.08,0,0,1,72.09,201Zm0-7.38a2,2,0,0,0-1.67.71,3.29,3.29,0,0,0-.53,2,3.82,3.82,0,0,0,.58,2.13,2,2,0,0,0,2.73.52,2,2,0,0,0,.53-.52,3.81,3.81,0,0,0,.56-2.13,3.14,3.14,0,0,0-.54-2,2,2,0,0,0-1.67-.71ZM39.37,201a4.26,4.26,0,0,1-3.19-1.24,5,5,0,0,1-1.2-3.59,4.06,4.06,0,0,1,3.87-4.23h.38a3.73,3.73,0,0,1,2.83,1.1,4.22,4.22,0,0,1,1,3c0,.8-.49,1.2-1.46,1.2H37.19c.31,1.41,1.34,2.13,3.06,2.13a6.92,6.92,0,0,0,2.2-.42v.62a1.19,1.19,0,0,1-.92,1.11,6.13,6.13,0,0,1-2.16.36Zm-.2-7.54c-1.29,0-2,.79-2.07,2.35h3.35a.45.45,0,0,0,.38-.16.59.59,0,0,0,.13-.36,1.87,1.87,0,0,0-.49-1.35,1.74,1.74,0,0,0-1.3-.48ZM32.3,201a1.91,1.91,0,0,1-1-.25,3,3,0,0,1-.76-1l-1.32-2.34h-.76v3.4h-2v-3.4H25.7l-1.31,2.34a2.64,2.64,0,0,1-.81,1,2.06,2.06,0,0,1-1.06.26,2,2,0,0,1-.92-.22.69.69,0,0,1-.4-.65v-.46h.16a1.48,1.48,0,0,0,1.23-.83l1.3-2a2.77,2.77,0,0,1-.8-1,5.32,5.32,0,0,1-.41-1.18,2.27,2.27,0,0,0-.43-.93,1.08,1.08,0,0,0-.88-.41H21.2v-.4a.81.81,0,0,1,.36-.71,1.52,1.52,0,0,1,.88-.24,1.62,1.62,0,0,1,1.15.4,2.14,2.14,0,0,1,.58,1l.32,1.15a2.73,2.73,0,0,0,.47,1,1.09,1.09,0,0,0,.9.4h.6v-2.74q0-.75.3-.9a5.15,5.15,0,0,1,1.66-.15v3.8H29a1.1,1.1,0,0,0,.91-.4,2.52,2.52,0,0,0,.48-1c.12-.47.22-.84.31-1.14a2.16,2.16,0,0,1,.6-1,1.65,1.65,0,0,1,1.17-.41,1.44,1.44,0,0,1,.86.24.84.84,0,0,1,.33.71v.4h-.16a1.08,1.08,0,0,0-.88.41,2.15,2.15,0,0,0-.44.94,4.93,4.93,0,0,1-.41,1.17,2.71,2.71,0,0,1-.78,1l1.3,2a1.46,1.46,0,0,0,1.22.83h.17v.47a.7.7,0,0,1-.44.63,2,2,0,0,1-1,.23Zm139.46-.11h0V197a3.52,3.52,0,0,1-3,1.69,2.57,2.57,0,0,1-2-.79,3.05,3.05,0,0,1-.73-2.14v-2.69c0-.51.11-.82.32-.91A5.33,5.33,0,0,1,168,192v2.59c0,1.56.54,2.34,1.61,2.34a1.9,1.9,0,0,0,1.52-.77,3.33,3.33,0,0,0,.62-2.07v-2h2v7.68c0,.52-.1.83-.31.93a5.33,5.33,0,0,1-1.69.15Zm-121,0h0v-3.44h-4v3.37h-2v-7.7c0-.52.11-.82.32-.92a5.73,5.73,0,0,1,1.7-.14v3.75h4v-3.68h2v7.68c0,.52-.1.83-.31.93a5.33,5.33,0,0,1-1.69.15Zm-43.2,0h0v-4.7H2.14v4.63H0V190.19c0-.51.12-.82.34-.92a6.08,6.08,0,0,1,1.8-.16v5.13H7.6v-5.05H9.74v10.58c0,.51-.12.82-.34.93a6.07,6.07,0,0,1-1.8.15Zm53.14-.07h-2.3a17.08,17.08,0,0,1,3.11-4.41l-3-4.07v-.21h2.34l2.22,3a18.49,18.49,0,0,0,1.73-3h2.21a19.93,19.93,0,0,1-2.92,4.42l3,4.05v.22H64.8l-2.23-3a15.46,15.46,0,0,0-1.84,3Zm80.76,0h-.63c-1.81,0-2.73-.83-2.73-2.45v-5.18c0-.52.1-.83.3-.92a5.66,5.66,0,0,1,1.69-.14h1.57a4.29,4.29,0,0,1,2.35.56,1.9,1.9,0,0,1,.87,1.7,2.1,2.1,0,0,1-1.5,2,1.82,1.82,0,0,1,1.52,1.85,2.15,2.15,0,0,1-1,1.85,4.18,4.18,0,0,1-2.45.69Zm-1.37-3.64v1c0,.75.36,1.14,1.06,1.14h.16a1.88,1.88,0,0,0,1.13-.31,1,1,0,0,0,.42-.83c0-.66-.59-1-1.76-1Zm0-3.54v2.3H141c1.25,0,1.88-.42,1.88-1.25s-.52-1.06-1.55-1.06Zm-30.8,7.18h-8a3.12,3.12,0,0,1-2.15-.58,2.8,2.8,0,0,1-.6-2v-5.1c0-.51.11-.82.32-.91a5.4,5.4,0,0,1,1.7-.15v5.76c0,.83.38,1.24,1.13,1.24h2.23v-6.92h2V199h3.17v-6.93h2v7.61c0,.5-.1.81-.29.92a4,4,0,0,1-1.46.16Zm18.6-10.15a3.12,3.12,0,0,1-2.14-.7,2.17,2.17,0,0,1-.78-1.7c0-.56.37-.84,1.1-.84a1.4,1.4,0,0,0,.54,1.18,2.25,2.25,0,0,0,2.56,0,1.39,1.39,0,0,0,.53-1.18q1.08,0,1.08.84a2.17,2.17,0,0,1-.78,1.7A3.11,3.11,0,0,1,127.93,190.63Z"/><path id="Rectangle_4" data-name="Rectangle 4" class="cls-16" d="M52.58,342.48h67.63v12.79a32,32,0,0,0-5,13.69c0,10.05,5,13.45,5,13.45s-16.76,17-33.81,17-33.82-17-33.82-17,6-1.84,6-12.73c0-5.59-6-15.78-6-15.78Z"/><path id="Combined_Shape-38" data-name="Combined Shape-38" class="cls-24" d="M57.49,376.67a20.76,20.76,0,0,0,1.07-7,20.28,20.28,0,0,0-1.9-7.21v-2.18c8.81-.26,15.87-6.29,15.87-13.73,3.68,4.4,14.9,8.71,25.28,8.69,13,0,18.88,4.64,19.71,5.35a28,28,0,0,0-2.34,8.36,22.4,22.4,0,0,0,1.44,8.3c-3.44,10.93-15.34,19-29.48,19C72.75,396.26,60.68,387.9,57.49,376.67Z"/><path id="Stroke_61_Copy_10" data-name="Stroke 61 Copy 10" class="cls-25" d="M74.09,339.22c0,7.45-6.3,13.48-14.17,13.74V363.4c0,14.1,12.19,25.52,27.22,25.52s27.22-11.43,27.22-25.53v-10s-5.14-5.48-17.69-5.45C87.4,347.94,77.38,343.62,74.09,339.22Z"/><path id="Stroke_61_Copy_3-4" data-name="Stroke 61 Copy 3-4" class="cls-10" d="M59.48,387.09c2.59-3.53,4.78-10.17,4.57-16.76a28.81,28.81,0,0,0-.59-5"/><path id="Stroke_61_Copy_8" data-name="Stroke 61 Copy 8" class="cls-10" d="M64.53,389.27c2-2.56,3.89-7.52,4-12.58a22.64,22.64,0,0,0-.18-3.86"/><path id="Stroke_61_Copy_3-5" data-name="Stroke 61 Copy 3-5" class="cls-10" d="M114.13,387.1c-2.6-3.53-4.79-10.16-4.58-16.75a28.92,28.92,0,0,1,.59-5"/><path id="Stroke_61_Copy_8-2" data-name="Stroke 61 Copy 8-2" class="cls-10" d="M109.07,389.26c-2-2.56-3.88-7.52-4-12.58a23.71,23.71,0,0,1,.17-3.86"/><path id="Fill_13_Copy_2-5" data-name="Fill 13 Copy 2-5" class="cls-7" d="M130.15,419.76a33.23,33.23,0,0,0-33.23-33.23H77a33.23,33.23,0,0,0-33.23,33.23h0v8.63H59.64l-.12,36.67s14.36,4.88,27.61,4.88,26.48-4.88,26.48-4.88l-.2-36.67h16.74Z"/><path id="Fill_15-4" data-name="Fill 15-4" class="cls-6" d="M130.15,419.76a33.23,33.23,0,0,0-33.23-33.23H77a33.23,33.23,0,0,0-33.23,33.23h0v13.29A33.23,33.23,0,0,1,77,399.82H96.92a33.23,33.23,0,0,1,33.23,33.23Z"/><path id="Path-10" class="cls-10" d="M130.15,419.76a33.23,33.23,0,0,0-33.23-33.23H77a33.23,33.23,0,0,0-33.23,33.23h0v8.63H60.32v36.67s14,4.88,26.81,4.88,25.57-4.88,25.57-4.88V428.39h17.45Z"/><path id="Rectangle_3-8" data-name="Rectangle 3-8" class="cls-9" d="M41.31,424a69.56,69.56,0,0,0,9.66.82,62.61,62.61,0,0,0,9.37-.82v6.52a65,65,0,0,1-9.55.82,64.07,64.07,0,0,1-9.48-.82Z"/><path id="Fill_63-13" data-name="Fill 63-13" class="cls-11" d="M46.06,427.22a1.63,1.63,0,1,1-1.63-1.63h0a1.62,1.62,0,0,1,1.63,1.63h0"/><path id="Rectangle_3-9" data-name="Rectangle 3-9" class="cls-9" d="M132.55,424a64.5,64.5,0,0,1-9.72.82,72.92,72.92,0,0,1-10.11-.82v6.52a70,70,0,0,0,9.91.82,70.1,70.1,0,0,0,9.92-.82Z"/><path id="Fill_63-14" data-name="Fill 63-14" class="cls-11" d="M127.54,427.22a1.63,1.63,0,1,0,1.63-1.63,1.63,1.63,0,0,0-1.63,1.63h0"/><path id="Fill_19-2" data-name="Fill 19-2" class="cls-26" d="M112.7,435.72V424.09"/><path id="Stroke_21-3" data-name="Stroke 21-3" class="cls-10" d="M112.7,439.8V420"/><path id="Fill_23-2" data-name="Fill 23-2" class="cls-26" d="M112.7,419.11v-1.67"/><path id="Stroke_25-4" data-name="Stroke 25-4" class="cls-10" d="M112.7,415v-1.66"/><path id="Fill_39-2" data-name="Fill 39-2" class="cls-26" d="M60.35,435.72V424.09"/><path id="Stroke_41-6" data-name="Stroke 41-6" class="cls-10" d="M60.35,439.8V420"/><path id="Fill_43-2" data-name="Fill 43-2" class="cls-26" d="M60.35,416.66V415"/><path id="Stroke_45-5" data-name="Stroke 45-5" class="cls-10" d="M60.35,415v-1.66"/><path id="Stroke_61_Copy_4-4" data-name="Stroke 61 Copy 4-4" class="cls-10" d="M69.18,441.77c-4.35-.82-5.79-3-4.74-7.45l1.84-7.68"/><path id="Stroke_61_Copy_20" data-name="Stroke 61 Copy 20" class="cls-10" d="M75.9,441.77c4.36-.82,5.8-3,4.75-7.45l-1.84-7.68"/><path id="Oval_2_Copy_6" data-name="Oval 2 Copy 6" class="cls-9" d="M69.7,440.06a1.65,1.65,0,0,1-.56,2.25,1.79,1.79,0,0,1-1.32.16c-.92-.23-1.77-2.13-1.77-2.13s1.53-1.3,2.66-1A1.64,1.64,0,0,1,69.7,440.06Z"/><path id="Oval_2_Copy_10" data-name="Oval 2 Copy 10" class="cls-9" d="M74.83,439.72a1.64,1.64,0,0,0,0,2.31h0a1.75,1.75,0,0,0,1.25.46c.95,0,2.2-1.68,2.2-1.68s-1.19-1.61-2.36-1.59A1.62,1.62,0,0,0,74.83,439.72Z"/><path id="Stroke_61_Copy_4-5" data-name="Stroke 61 Copy 4-5" class="cls-10" d="M99.73,386.35a35.13,35.13,0,0,0-3.82-.42c-10.94-.62-17.24,5.17-21.28,15.25-2.41,6-1.75,10.83-1.84,19.52"/><path id="Path_2-12" data-name="Path 2-12" class="cls-27" d="M78.8,426.69s-1.58-4.6-6.4-4.6c-4.45,0-6.12,4.59-6.12,4.59"/><path id="Path_2-13" data-name="Path 2-13" class="cls-28" d="M78.8,426.69s-1.58-4.6-6.4-4.6c-4.45,0-6.12,4.59-6.12,4.59"/><path id="Stroke_61_Copy_21" data-name="Stroke 61 Copy 21" class="cls-10" d="M73.88,386.35a35,35,0,0,1,3.81-.42c10.94-.62,17.25,5.17,21.28,15.25,2.42,6,1.76,16.53,1.85,25.22"/><path id="Fill_63-15" data-name="Fill 63-15" class="cls-29" d="M105.54,426.41a4.89,4.89,0,1,1-4.88-4.89h0a4.88,4.88,0,0,1,4.88,4.89"/><path id="Fill_63_Copy_13" data-name="Fill 63 Copy 13" class="cls-9" d="M105.54,426.41a4.89,4.89,0,1,1-4.88-4.89h0a4.88,4.88,0,0,1,4.88,4.89"/><path class="cls-6" d="M100.66,429a2.63,2.63,0,1,1,2.63-2.63A2.63,2.63,0,0,1,100.66,429Z"/><path class="cls-11" d="M100.66,428A1.63,1.63,0,1,0,99,426.41a1.63,1.63,0,0,0,1.63,1.63m0,2a3.63,3.63,0,1,1,3.63-3.63A3.64,3.64,0,0,1,100.66,430Z"/><path id="Path_7" data-name="Path 7" class="cls-30" d="M74.58,402.2l11.24,25.07h2.07L99.25,402.2l-12.78,3.95Z"/><path class="cls-30" d="M86.64,410.28a15.06,15.06,0,0,1-8.09-2.1,12.83,12.83,0,0,1-4.44-4.79,18.44,18.44,0,0,1-2.15-8.2v-.29c0-1.69-.12-6.82,3.49-10.5,2.48-2.53,6.18-3.81,11-3.81s8.68,1.3,11.23,3.87a12.28,12.28,0,0,1,3.21,6.08,19.27,19.27,0,0,1,.43,4.41v.19a18.45,18.45,0,0,1-2.15,8.3,12.76,12.76,0,0,1-4.45,4.76A15.08,15.08,0,0,1,86.64,410.28Z"/><path class="cls-11" d="M86.64,409.28c12.84,0,13.68-12.16,13.68-14.14s.5-13.55-13.87-13.55S73,393.38,73,395.19s.84,14.09,13.68,14.09m0,2c-7.71,0-11.55-4-13.41-7.4A19.67,19.67,0,0,1,71,395.19v-.27c0-1.79-.13-7.25,3.77-11.22,2.68-2.73,6.62-4.11,11.72-4.11s9.19,1.4,11.94,4.17a13.32,13.32,0,0,1,3.48,6.56,20.45,20.45,0,0,1,.45,4.64v.18a19.45,19.45,0,0,1-2.27,8.78C98.19,407.28,94.36,411.28,86.64,411.28Z"/><path id="Fill_35-4" data-name="Fill 35-4" class="cls-12" d="M96.52,396.32s0,7.75-9.78,7.75S77,396.32,77,396.32V371.59H96.52Z"/><path id="Fill_37-4" data-name="Fill 37-4" class="cls-7" d="M77.84,386.13l.68.34a21.36,21.36,0,0,0,16.57,0c.24-.1.45-.23.68-.34V374.85H77.84Z"/><path id="Stroke_49_Copy_7" data-name="Stroke 49 Copy 7" class="cls-12" d="M73.64,397.27c1.59,6.34,12.35,29.5,12.35,29.5L63.72,399.16c1.55-5.43,8-13.09,13.24-15.19C77,384,71.38,388.23,73.64,397.27Z"/><path id="Stroke_49_Copy_7-2" data-name="Stroke 49 Copy 7-2" class="cls-12" d="M100,397.27c-1.59,6.34-12.35,29.5-12.35,29.5l22.27-27.61c-1.55-5.43-8-13.09-13.24-15.19C96.65,384,102.23,388.23,100,397.27Z"/><path id="Stroke_41-7" data-name="Stroke 41-7" class="cls-10" d="M86.8,469.82v-42.6"/><rect id="_2-7" data-name=" 2-7" class="cls-9" x="66.43" y="455.74" width="13.04" height="3.26"/><path id="Rectangle_3_Copy-2" data-name="Rectangle 3 Copy-2" class="cls-9" d="M100.66,450.32l4.61,5.42H96.05Z"/><path id="Rectangle_3_Copy_2-2" data-name="Rectangle 3 Copy 2-2" class="cls-6" d="M100.66,453.58l4.61,5.42H96.05Z"/><rect id="Rectangle_3-10" data-name="Rectangle 3-10" class="cls-9" x="94.14" y="455.74" width="13.04" height="3.26"/><path id="Stroke_57_Copy_9" data-name="Stroke 57 Copy 9" class="cls-31" d="M119.42,330.91c-2-14.72-16.19-25.85-31.66-25.85-16.42,0-33.11,12.63-34.34,28.64s-.85,20.5-.85,20.5l8.92,6.36h50.89l8.49-7.58A169.71,169.71,0,0,0,119.42,330.91Z"/><path id="Stroke_57_Copy_8-2" data-name="Stroke 57 Copy 8-2" class="cls-32" d="M119.42,330.91c-2-14.72-16.19-25.85-31.66-25.85-16.42,0-33.11,12.63-34.34,28.64s-.85,20.5-.85,20.5l8.92,6.36h50.89l8.49-7.58A169.71,169.71,0,0,0,119.42,330.91Z"/><path id="Path_2-14" data-name="Path 2-14" class="cls-33" d="M59.88,340.27c8.3-.52,10.48-10.18,10.48-10.18"/><path id="Path_2_Copy-4" data-name="Path 2 Copy-4" class="cls-33" d="M59.86,336.5c4.68-.29,5.91-5.73,5.91-5.73"/><path id="Stroke_61_Copy_2-5" data-name="Stroke 61 Copy 2-5" class="cls-10" d="M77.93,327.33a36.88,36.88,0,0,0,16.66,5.48c17.89,1.26,19.3,8,19.3,8"/><path id="Stroke_61_Copy_3-6" data-name="Stroke 61 Copy 3-6" class="cls-10" d="M78.58,321c3.52,3.22,10.48,6.33,17.64,6.88,8.65.66,11.66,2.5,15,4.21"/><path id="Stroke_61_Copy_4-6" data-name="Stroke 61 Copy 4-6" class="cls-34" d="M95.23,306c-1-.16-2-.28-3-.34-8.62-.53-13.54,3.6-16.65,10.85-1.85,4.33-1.29,7.81-1.29,14.09"/><path id="Stroke_61_Copy_4-7" data-name="Stroke 61 Copy 4-7" class="cls-10" d="M95.23,306c-1-.16-2-.28-3-.34-8.62-.53-13.54,3.6-16.65,10.85-1.85,4.33-1.29,7.81-1.29,14.09"/><path class="cls-7" d="M108.21,362.33h0a5.68,5.68,0,0,1-2.09-1.63,3,3,0,0,1-.58-1.05c6.3-3.06,11.3-7.49,15.37-11.43a.56.56,0,0,1,.17-.13,2.39,2.39,0,0,1,.64,1.3,6.65,6.65,0,0,1-.91,5.3c-.17.22-.36.44-.56.66s-.52.59-.76.92c-2.23,3.09-4.47,5.11-6.67,6A5.74,5.74,0,0,1,108.21,362.33Z"/><path class="cls-11" d="M120.77,349.74a60.57,60.57,0,0,1-13.86,10.35,4.59,4.59,0,0,0,1.71,1.32,4.74,4.74,0,0,0,3.83-.06c2-.82,4.11-2.73,6.23-5.66a12.56,12.56,0,0,1,.82-1c.19-.21.37-.42.52-.62a5,5,0,0,0,.89-3.05,5.75,5.75,0,0,0-.14-1.28m.69-2.58c1.52.67,2.25,5.44.14,8.14-.43.56-.91,1-1.3,1.56-5.14,7.14-9.63,7.66-12.49,6.38-2.66-1.18-3.92-3.91-3-4.34,6.62-3.14,11.84-7.92,15.42-11.4A1.09,1.09,0,0,1,121.46,347.16Z"/><path class="cls-7" d="M111.21,354.86h0a9.77,9.77,0,0,1-4.19-4.51,9.61,9.61,0,0,1-1.22-3.9,20.26,20.26,0,0,1,7.73-1.57c2.7-.15,5.24-.29,7.38-2.36a1,1,0,0,1,.17-.14,2.49,2.49,0,0,1,.64,1.31,6.62,6.62,0,0,1-.9,5.29c-.18.23-.37.44-.57.67s-.52.59-.76.92a12.08,12.08,0,0,1-4.72,4.3A4.29,4.29,0,0,1,111.21,354.86Z"/><path class="cls-11" d="M120.76,344c-2.22,1.65-4.73,1.78-7.17,1.92a20.29,20.29,0,0,0-6.72,1.2,11.52,11.52,0,0,0,1.19,3.08,8.51,8.51,0,0,0,3.56,3.79,3.35,3.35,0,0,0,2.77,0,11.35,11.35,0,0,0,4.29-4,12.78,12.78,0,0,1,.82-1c.19-.21.37-.41.53-.61a5.11,5.11,0,0,0,.88-3.05,6.25,6.25,0,0,0-.15-1.36m.7-2.51c1.52.68,2.25,5.45.14,8.15-.43.56-.91,1-1.3,1.56-3.64,5-6.91,5.77-9.49,4.62-4.46-2-6.9-9.54-5.71-10.1,6.61-3.14,11.53-.4,15.11-3.88A1.11,1.11,0,0,1,121.46,341.45Z"/><path class="cls-7" d="M51.83,347.26a1,1,0,0,1,.17.14c4.07,3.94,9.07,8.37,15.37,11.43a3,3,0,0,1-.58,1,5.57,5.57,0,0,1-2.09,1.63,5.7,5.7,0,0,1-4.61-.05c-2.2-.89-4.44-2.91-6.67-6-.24-.34-.51-.63-.76-.92s-.39-.44-.56-.67a6.65,6.65,0,0,1-.91-5.3A2.49,2.49,0,0,1,51.83,347.26Z"/><path class="cls-11" d="M52.14,348.92A5.61,5.61,0,0,0,52,350.2a5,5,0,0,0,.89,3.05c.15.2.33.4.52.61s.55.63.82,1c2.12,2.94,4.21,4.85,6.23,5.67a4.78,4.78,0,0,0,3.83.06A4.5,4.5,0,0,0,66,359.26a60.84,60.84,0,0,1-13.86-10.34m-.69-2.59a1.1,1.1,0,0,1,1.25.35c3.59,3.48,8.8,8.26,15.42,11.4.9.43-.36,3.15-3,4.34-2.86,1.27-7.35.75-12.49-6.39-.39-.53-.87-1-1.3-1.55C49.2,351.78,49.93,347,51.45,346.33Z"/><path class="cls-7" d="M51.83,342.38a.56.56,0,0,1,.17.13c2.13,2.07,5.26,2,8.58,2,3,0,6-.08,8.94,1.19a4.78,4.78,0,0,1-.35,1.26,15.11,15.11,0,0,1-1.42,2.76,13.09,13.09,0,0,1-5.16,4.88c-3.16,1.41-6.24.06-9.17-4-.24-.33-.51-.63-.76-.92s-.39-.44-.57-.66a6.65,6.65,0,0,1-.9-5.3A2.39,2.39,0,0,1,51.83,342.38Z"/><path class="cls-11" d="M52.16,343.94a5.66,5.66,0,0,0-.16,1.37,5.06,5.06,0,0,0,.88,3.05c.16.2.34.41.53.62a12.56,12.56,0,0,1,.82,1,10.13,10.13,0,0,0,4.48,3.88,4.52,4.52,0,0,0,3.47-.2,11.61,11.61,0,0,0,4.55-4.24,13.66,13.66,0,0,0,1.61-3.14,22.54,22.54,0,0,0-7.75-.8c-3.13,0-6.11.09-8.43-1.54m-.71-2.49a1.09,1.09,0,0,1,1.25.34c3.58,3.48,11,0,17.6,3.13,1.17.56-2.19,8.29-7.31,10.57-3,1.35-6.69.78-10.38-4.34-.39-.54-.87-1-1.3-1.56C49.2,346.89,49.93,342.12,51.45,341.45Z"/><path id="Fill_5-5" data-name="Fill 5-5" class="cls-12" d="M65.62,357.15a4.89,4.89,0,1,1-4.89-4.89h0a4.89,4.89,0,0,1,4.89,4.89"/><path id="Fill_5_Copy-4" data-name="Fill 5 Copy-4" class="cls-12" d="M118.58,357.15a4.89,4.89,0,1,1-4.89-4.89h0a4.89,4.89,0,0,1,4.89,4.89"/><path id="Stroke_61_Copy_5-2" data-name="Stroke 61 Copy 5-2" class="cls-12" d="M74.19,330a14.28,14.28,0,0,1-13.84,14.23V355a26.59,26.59,0,0,0,53.17,0v-10.4s-5-5.68-17.28-5.64C87.19,339,77.4,334.55,74.19,330Z"/><path id="Fill_63_Copy_2-4" data-name="Fill 63 Copy 2-4" class="cls-35" d="M71.32,361.22a.81.81,0,0,1-.81-.81.82.82,0,0,1,.81-.82.82.82,0,0,1,.82.82.82.82,0,0,1-.82.81Z"/><path id="Fill_63_Copy_9-2" data-name="Fill 63 Copy 9-2" class="cls-35" d="M68.88,358a.82.82,0,0,1-.82-.81.82.82,0,0,1,.82-.82.82.82,0,0,1,.81.82.81.81,0,0,1-.81.81Z"/><path id="Fill_63_Copy_3-3" data-name="Fill 63 Copy 3-3" class="cls-35" d="M75.4,359.59a.82.82,0,0,1-.82-.81.82.82,0,0,1,.82-.82.82.82,0,0,1,.81.82.81.81,0,0,1-.81.81Z"/><path id="Fill_63_Copy_2-5" data-name="Fill 63 Copy 2-5" class="cls-35" d="M102.29,361.22a.81.81,0,0,0,.81-.81.82.82,0,0,0-.81-.82.82.82,0,0,0-.82.82.82.82,0,0,0,.82.81Z"/><path id="Fill_63_Copy_10-2" data-name="Fill 63 Copy 10-2" class="cls-35" d="M104.73,358a.82.82,0,0,0,.82-.81.82.82,0,0,0-.82-.82.82.82,0,0,0-.81.82.81.81,0,0,0,.81.81Z"/><path id="Fill_63_Copy_3-4" data-name="Fill 63 Copy 3-4" class="cls-35" d="M98.21,359.59a.82.82,0,0,0,.82-.81.82.82,0,0,0-.82-.82.82.82,0,0,0-.81.82.81.81,0,0,0,.81.81Z"/><circle id="Oval_2-13" data-name="Oval 2-13" class="cls-36" cx="97.4" cy="352.26" r="3.26"/><path id="Oval_2-14" data-name="Oval 2-14" class="cls-11" d="M97.4,355.52a3.26,3.26,0,0,1-3.26-3.26h0A3.26,3.26,0,0,1,97.4,349H102c1,0-1.33.43-1.33,3.26a3.26,3.26,0,0,1-3.26,3.26Z"/><path id="Oval_2_Copy-3" data-name="Oval 2 Copy-3" class="cls-11" d="M98.85,354.73a3.26,3.26,0,0,1-2.76-5.91l4.17-1.94c.88-.41-1,.95.16,3.52a3.25,3.25,0,0,1-1.57,4.33Z"/><circle id="Oval_4-8" data-name="Oval 4-8" class="cls-6" cx="95.77" cy="351.44" r="0.81"/><path id="Path_2-15" data-name="Path 2-15" class="cls-33" d="M93.4,344.18a8,8,0,0,1,3.82-.66,8.77,8.77,0,0,1,3.62,1.71"/><circle id="Oval_2-15" data-name="Oval 2-15" class="cls-36" cx="77.03" cy="352.26" r="3.26"/><path id="Oval_2-16" data-name="Oval 2-16" class="cls-11" d="M77,355.52A3.26,3.26,0,1,0,77,349h-4.6c-1,0,1.34.43,1.34,3.26A3.26,3.26,0,0,0,77,355.52Z"/><path id="Oval_2_Copy-4" data-name="Oval 2 Copy-4" class="cls-11" d="M75.58,354.73a3.26,3.26,0,0,0,2.75-5.91l-4.16-1.94c-.88-.41,1,.95-.17,3.52a3.26,3.26,0,0,0,1.57,4.33Z"/><circle id="Oval_4-9" data-name="Oval 4-9" class="cls-6" cx="75.4" cy="351.44" r="0.81"/><path id="Path_2-16" data-name="Path 2-16" class="cls-33" d="M81,344.18a7.91,7.91,0,0,0-3.81-.66,8.75,8.75,0,0,0-3.63,1.71"/><path id="Stroke_67-9" data-name="Stroke 67-9" class="cls-10" d="M82.51,366.86a9.75,9.75,0,0,0,8.84,0"/><path id="Stroke_67_Copy-12" data-name="Stroke 67 Copy-12" class="cls-10" d="M85.18,359.41a2.89,2.89,0,0,1,1.63-.43,2.93,2.93,0,0,1,1.63.43"/><path id="Stroke_67_Copy_4-2" data-name="Stroke 67 Copy 4-2" class="cls-37" d="M85.18,365.93c.2-.42.56-.84,1.63-.84a1.8,1.8,0,0,1,1.63.84s-1.1.13-1.65.13S85.18,365.93,85.18,365.93Z"/><path id="Stroke_67_Copy_5-3" data-name="Stroke 67 Copy 5-3" class="cls-37" d="M85.18,370c.2.42.56.84,1.63.84a1.77,1.77,0,0,0,1.62-.84,4.73,4.73,0,0,1-1.63.23A4.25,4.25,0,0,1,85.18,370Z"/><path id="Rectangle_3_Copy_22" data-name="Rectangle 3 Copy 22" class="cls-16" d="M68.7,315.61q5.14-3,16.87-3t17.8,3V300.66q-5.84-3-17.34-3t-17.33,3Z"/><path id="Rectangle_3_Copy_8" data-name="Rectangle 3 Copy 8" class="cls-38" d="M68.7,308.54s5.14,3,16.87,3,17.8-3,17.8-3v13.32s-5.83,3-17.34,3-17.33-3-17.33-3Z"/><path id="Rectangle_3_Copy_27" data-name="Rectangle 3 Copy 27" class="cls-16" d="M68.7,304.46s5.14,3,16.87,3,17.8-3,17.8-3V318.6s-5.83,3-17.34,3-17.33-3-17.33-3Z"/><path id="Rectangle_3_Copy_23-2" data-name="Rectangle 3 Copy 23-2" class="cls-10" d="M68.7,301.2s5.14,3,16.87,3,17.8-3,17.8-3v20.65s-5.83,3-17.34,3-17.33-3-17.33-3Z"/><g class="cls-39"><path id="Rectangle_3_Copy_5" data-name="Rectangle 3 Copy 5" class="cls-6" d="M68.88,300.93s4.12.38,5.7.55L74,325.19l-5.13-.63Z"/><path id="Rectangle_3_Copy_17" data-name="Rectangle 3 Copy 17" class="cls-30" d="M95,300.93s5.31.38,7.35.55l-.73,23.71L95,324.56Z"/><path id="Rectangle_3_Copy_21" data-name="Rectangle 3 Copy 21" class="cls-6" d="M100.66,300.93s1.37.38,1.9.55l-.19,23.71-1.71-.63Z"/></g><path id="Rectangle_3_Copy_28" data-name="Rectangle 3 Copy 28" class="cls-10" d="M68.7,304.46s5.14,3,16.87,3,17.8-3,17.8-3V318.6s-5.83,3-17.34,3-17.33-3-17.33-3Z"/><path id="Rectangle_3_Copy_29" data-name="Rectangle 3 Copy 29" class="cls-10" d="M68.7,301.2s5.14,3,16.87,3,17.8-3,17.8-3v20.65s-5.83,3-17.34,3-17.33-3-17.33-3Z"/><path id="Stroke_25_Copy" data-name="Stroke 25 Copy" class="cls-40" d="M85.5,316.41v-4.08"/><path id="Stroke_25_Copy_2" data-name="Stroke 25 Copy 2" class="cls-40" d="M83.54,314.41h3.92"/><path id="Combined_Shape-39" data-name="Combined Shape-39" class="cls-12" d="M126.46,453.25c-2.13-.16-7.74-.23-11.57-5.6a12.85,12.85,0,0,1-2.23-7.63h0v-9.55a77.26,77.26,0,0,0,9.36.81,50.58,50.58,0,0,0,6.28-.27c.9-1.24,2-2.76,3-4.32a140.61,140.61,0,0,1,8.83-11.92,7.08,7.08,0,0,1,6.12-3,86.88,86.88,0,0,0,10.58-.26c3.11-.45,5.36-9.29,8.2-5.85,1.38,1.67-2.91,9.88-3.17,10.36-1.17,2.17-11.7,3.18-11.7,3.18s-2.86.79-3.81,3c-.65,1.47-2.6,9.31-6.56,16.37-5.12,9.13-11.05,14.69-13.26,14.69Z"/><path id="Stroke_67_Copy-13" data-name="Stroke 67 Copy-13" class="cls-10" d="M124.29,449.51a2.8,2.8,0,0,0,1.66.28,2.74,2.74,0,0,0,1.58-.57"/><path id="Stroke_67-10" data-name="Stroke 67-10" class="cls-10" d="M126.11,434.74l4.31-6.82Z"/><path id="Stroke_67_Copy-14" data-name="Stroke 67 Copy-14" class="cls-10" d="M124.41,434.93a1.62,1.62,0,0,1,1.63,0"/><path id="Fill_35_Copy_20-2" data-name="Fill 35 Copy 20-2" class="cls-12" d="M30.09,417.08s2.85-5,.2-13.29c-.12-.37-2.16-4.37-4.31-8.18-1.91-3.39-3.06-6-4.57-5.23s0,3.54,1.43,6.7a51.56,51.56,0,0,1,2.36,5.76,7.46,7.46,0,0,1,0,4.85Z"/><path id="Fill_35_Copy_21-2" data-name="Fill 35 Copy 21-2" class="cls-12" d="M26.83,416.26s2.85-5,.2-13.28c-.12-.37-2.16-4.38-4.31-8.18-1.91-3.39-3.06-6-4.57-5.23s0,3.53,1.43,6.7A52.19,52.19,0,0,1,21.94,402a7.46,7.46,0,0,1,0,4.85Z"/><rect id="Rectangle_14" data-name="Rectangle 14" class="cls-41" x="11.84" y="379.15" width="5.7" height="18.74"/><rect id="Rectangle_14_Copy_5" data-name="Rectangle 14 Copy 5" class="cls-12" x="11.84" y="390.56" width="5.7" height="9.78"/><path class="cls-1" d="M14.29,367.74s.22-.31.4-.31.41.31.41.31v8.15h-.81Z"/><path class="cls-11" d="M14.69,367.43c.19,0,.41.31.41.31v8.15h-.81v-8.15S14.51,367.43,14.69,367.43Z"/><rect class="cls-7" x="14.29" y="376.7" width="0.81" height="1.63"/><rect class="cls-42" x="13.79" y="376.2" width="1.82" height="2.63"/><rect class="cls-7" x="14.29" y="400.33" width="0.81" height="2.44"/><rect class="cls-42" x="13.79" y="399.83" width="1.82" height="3.44"/><rect class="cls-7" x="12.66" y="403.59" width="4.07" height="0.81"/><rect class="cls-42" x="12.16" y="403.09" width="5.07" height="1.82"/><path id="Path-11" class="cls-6" d="M16.74,391.72H12.65v-1.23h2.8v-.81h-2.8v-1.22h1.16v-.81H12.65v-1.23h2.8v-.82h-2.8v-1.22h1.17v-.82H12.65v-1.22h2.8v-.82h-2.8v-1.22h4.09Z"/><rect id="Rectangle_14_Copy_2-2" data-name="Rectangle 14 Copy 2-2" class="cls-41" x="11.03" y="399.52" width="7.33" height="0.81"/><path id="Combined_Shape-40" data-name="Combined Shape-40" class="cls-12" d="M46.34,453.25c2.13-.16,7.74-.23,11.56-5.6A12.71,12.71,0,0,0,60.13,440h0v-9.55a77.42,77.42,0,0,1-9.37.81A50.75,50.75,0,0,1,44.5,431c-.9-1.24-2-2.76-3-4.32-2.11-3.14-7.6-9.43-8.83-11.92-.58-1.16-.58-10.46-.9-11.3s-4-6.64-4-6.64a4.41,4.41,0,0,0-1.35-1.23c-1.82-.74-8.64-2.57-8.64-2.57s-3.37-1.47-3.86.45,1.2,2.36,3.06,3c2.82,1,5.27,2.21,5.27,2.21a1.29,1.29,0,0,1,.36.41,29.71,29.71,0,0,1,2.27,5c0,1.77-2.63,3.14-3.53,3.64a2.85,2.85,0,0,1-2.27-.17c-1.83-1-4-3.21-5.16-2-1.68,1.75.66,3.54.66,3.54s3.46,3.38,3.63,3.5a15,15,0,0,0,5.61,2.45s1.69,4.47,2.6,7.1c.51,1.46,2.6,9.31,6.57,16.38,5.11,9.12,11,14.68,13.26,14.68Z"/><path id="Stroke_67_Copy-15" data-name="Stroke 67 Copy-15" class="cls-10" d="M48.51,449.51a3.33,3.33,0,0,1-3.25-.29"/><path id="Stroke_67-11" data-name="Stroke 67-11" class="cls-10" d="M46.68,434.74l-4.31-6.82Z"/><path id="Stroke_67_Copy-16" data-name="Stroke 67 Copy-16" class="cls-10" d="M48.39,434.93a1.41,1.41,0,0,0-.82-.22,1.36,1.36,0,0,0-.81.22"/><path id="Врач_Copy-2" data-name="Врач Copy-2" class="cls-23" d="M80.52,507.75h-2V497.07c0-.51.1-.82.31-.91a5.42,5.42,0,0,1,1.7-.15v1.78a3.44,3.44,0,0,1,3.19-1.89A3,3,0,0,1,86.23,497a4.79,4.79,0,0,1,.88,3A5.45,5.45,0,0,1,86,503.52,3.59,3.59,0,0,1,83.06,505a3,3,0,0,1-2.54-1.19v4ZM83,497.58a2,2,0,0,0-1.72.94,4.36,4.36,0,0,0-.64,2.44,2.65,2.65,0,0,0,.52,1.58,1.63,1.63,0,0,0,1.39.69,2,2,0,0,0,1.76-.94,3.79,3.79,0,0,0,.63-2.2,3.18,3.18,0,0,0-.47-1.8A1.65,1.65,0,0,0,83,497.58Zm7.8,7.38a2.44,2.44,0,0,1-2-.79,2.81,2.81,0,0,1-.66-1.86c0-1.46,1.07-2.3,3.18-2.52l2.24-.23v-.06c-.08-1.32-.88-2-2.4-2a6.19,6.19,0,0,0-2.2.5v-.58a1,1,0,0,1,.51-.85,3.31,3.31,0,0,1,1.19-.51,6.06,6.06,0,0,1,1.34-.16,3.59,3.59,0,0,1,2.59.87,3.88,3.88,0,0,1,1,2.61l.31,4.55a1.2,1.2,0,0,1-.07.53.56.56,0,0,1-.41.27,2.59,2.59,0,0,1-.61.1l-1,0-.09-1.53A3.5,3.5,0,0,1,90.84,505Zm2.84-4.12-2,.25a1.67,1.67,0,0,0-.87.38,1,1,0,0,0-.31.75,1.34,1.34,0,0,0,.3.92,1.1,1.1,0,0,0,.88.36,1.63,1.63,0,0,0,1.4-.8A3.54,3.54,0,0,0,93.68,500.84Zm9.76,4h0V501a3.53,3.53,0,0,1-3,1.69,2.59,2.59,0,0,1-2-.8,3,3,0,0,1-.73-2.14v-2.68c0-.51.1-.82.31-.91a5.42,5.42,0,0,1,1.7-.15v2.59c0,1.56.54,2.34,1.6,2.34a1.89,1.89,0,0,0,1.52-.77,3.21,3.21,0,0,0,.62-2.07v-2h2v7.68q0,.78-.3.93a5.33,5.33,0,0,1-1.69.15Zm-31.34-.07h-.65A3.37,3.37,0,0,1,69,504a3.26,3.26,0,0,1-.75-2.39v-7.2c0-.6.12-1,.35-1.08a4.85,4.85,0,0,1,1.78-.18h1.85a5.86,5.86,0,0,1,3,.72,2.45,2.45,0,0,1,1.21,2.26,2.86,2.86,0,0,1-2,2.82,2.43,2.43,0,0,1,2,2.48,2.78,2.78,0,0,1-1.29,2.43A5.41,5.41,0,0,1,72.1,504.78Zm-1.69-4.89v1.71a1.57,1.57,0,0,0,.3,1.06,1.24,1.24,0,0,0,1,.34H72a3.12,3.12,0,0,0,1.61-.41,1.4,1.4,0,0,0,.7-1.26c0-1-.86-1.44-2.56-1.44Zm0-4.95v3.42h1.15a3.71,3.71,0,0,0,2-.47,1.53,1.53,0,0,0,.69-1.34c0-1.07-.79-1.62-2.34-1.62Z"/></g></g></svg>