<svg xmlns="http://www.w3.org/2000/svg" xmlns:xlink="http://www.w3.org/1999/xlink" viewBox="0 0 316.76 509.75"><defs><style>.cls-1,.cls-2,.cls-20,.cls-21,.cls-23,.cls-3,.cls-43,.cls-5,.cls-9{fill:none;}.cls-2,.cls-43,.cls-5{stroke:#fff;}.cls-10,.cls-13,.cls-17,.cls-2,.cls-21,.cls-23,.cls-24,.cls-25,.cls-3,.cls-30,.cls-36,.cls-37,.cls-38,.cls-42,.cls-43,.cls-9{stroke-linecap:round;}.cls-10,.cls-13,.cls-17,.cls-18,.cls-2,.cls-20,.cls-23,.cls-24,.cls-25,.cls-29,.cls-3,.cls-30,.cls-31,.cls-36,.cls-37,.cls-38,.cls-42,.cls-43,.cls-9{stroke-linejoin:round;}.cls-2{stroke-width:4px;}.cls-3{stroke:#83cfff;}.cls-10,.cls-13,.cls-17,.cls-18,.cls-20,.cls-21,.cls-22,.cls-23,.cls-24,.cls-25,.cls-29,.cls-3,.cls-30,.cls-31,.cls-36,.cls-37,.cls-38,.cls-39,.cls-42,.cls-43,.cls-9{stroke-width:2px;}.cls-36,.cls-39,.cls-4{fill:#83cfff;}.cls-21,.cls-22,.cls-39,.cls-5{stroke-miterlimit:10;}.cls-19,.cls-30,.cls-33,.cls-6,.cls-8{fill:#fff;}.cls-42,.cls-7{fill:#f2977c;}.cls-8{opacity:0.2;}.cls-19,.cls-33,.cls-8{isolation:isolate;}.cls-10,.cls-13,.cls-17,.cls-18,.cls-20,.cls-21,.cls-22,.cls-24,.cls-25,.cls-29,.cls-30,.cls-31,.cls-36,.cls-37,.cls-38,.cls-39,.cls-42,.cls-9{stroke:#504b46;}.cls-10,.cls-28{fill:#f29166;}.cls-11{fill:#504b46;}.cls-12,.cls-25{fill:#edf2f4;}.cls-13,.cls-27{fill:#fddfd1;}.cls-14,.cls-22{fill:#fccab4;}.cls-15,.cls-37{fill:#b4e0fc;}.cls-16,.cls-38{fill:#ffd070;}.cls-17{fill:#c0ccff;}.cls-18,.cls-24{fill:#575762;}.cls-19{opacity:0.1;}.cls-23{stroke:#fccab4;}.cls-26{clip-path:url(#clip-path);}.cls-29,.cls-35{fill:#835b4f;}.cls-31,.cls-41{fill:#9d6655;}.cls-32{fill:#414042;}.cls-33{opacity:0.3;}.cls-34{clip-path:url(#clip-path-2);}.cls-40{clip-path:url(#clip-path-3);}</style><clipPath id="clip-path"><rect class="cls-1" x="275.75" y="87.38" width="15.48" height="18.74"/></clipPath><clipPath id="clip-path-2"><path class="cls-1" d="M187.35,420.43v46.45s14,4.89,26.8,4.89,25.57-4.89,25.57-4.89V420.43Z"/></clipPath><clipPath id="clip-path-3"><path class="cls-1" d="M201.6,331.27a14.29,14.29,0,0,1-13.85,14.23v10.82a26.59,26.59,0,0,0,53.17,0V335.48c-1.67.5-5,4.76-17.28,4.8C214.59,340.3,204.81,335.83,201.6,331.27Z"/></clipPath></defs><title>Asset 1</title><g id="Layer_2" data-name="Layer 2"><g id="Layer_1-2" data-name="Layer 1"><path class="cls-2" d="M7.26,289.2a45.93,45.93,0,0,0,12.57-31.6A45.89,45.89,0,0,0,5.19,224"/><path class="cls-3" d="M7.26,289.2a45.93,45.93,0,0,0,12.57-31.6A45.89,45.89,0,0,0,5.19,224"/><path class="cls-2" d="M18.48,226.6l80-41"/><path class="cls-3" d="M18.48,226.6l80-41"/><ellipse class="cls-4" cx="97.35" cy="185.91" rx="4.01" ry="4"/><ellipse class="cls-5" cx="97.35" cy="185.91" rx="4.01" ry="4"/><circle class="cls-4" cx="13.5" cy="232.53" r="13"/><circle class="cls-1" cx="13.5" cy="232.53" r="13"/><circle class="cls-5" cx="13.5" cy="232.53" r="13"/><path class="cls-6" d="M13.4,239.9A7.67,7.67,0,0,1,8,237.65c.25-2.68,2.91-3.88,5.43-3.88s5.18,1.2,5.44,3.88A7.7,7.7,0,0,1,13.4,239.9Zm0-7.75a2.9,2.9,0,1,1,2.91-2.9A2.89,2.89,0,0,1,13.4,232.15Z"/><path class="cls-2" d="M17.48,285.22l90,52"/><path class="cls-3" d="M17.48,285.22l90,52"/><circle class="cls-4" cx="13.83" cy="279.83" r="13"/><circle class="cls-1" cx="13.83" cy="279.83" r="13"/><circle class="cls-5" cx="13.83" cy="279.83" r="13"/><path class="cls-6" d="M13.73,287.19A7.65,7.65,0,0,1,8.29,285c.26-2.68,2.92-3.89,5.44-3.89s5.18,1.2,5.43,3.89A7.62,7.62,0,0,1,13.73,287.19Zm0-7.75a2.89,2.89,0,1,1,2.91-2.89A2.89,2.89,0,0,1,13.73,279.44Z"/><path class="cls-7" d="M257.17,114.14a33.23,33.23,0,0,0-33.23-33.23H204a33.23,33.23,0,0,0-33.23,33.23h0v8.63h15.89l-.12,39.11s14.36,4.89,27.61,4.89,26.48-4.89,26.48-4.89l-.2-39.11h16.74Z"/><path class="cls-8" d="M257.17,114.14a33.23,33.23,0,0,0-33.23-33.23H204a33.23,33.23,0,0,0-33.23,33.23h0v13.29A33.23,33.23,0,0,1,204,94.2h19.94a33.23,33.23,0,0,1,33.23,33.23Z"/><path class="cls-9" d="M257.17,114.14a33.23,33.23,0,0,0-33.23-33.23H204a33.23,33.23,0,0,0-33.23,33.23h0v8.63h16.58v39.11s14,4.89,26.8,4.89,25.57-4.89,25.57-4.89V122.77h17.45Z"/><path class="cls-10" d="M168.33,120a69.58,69.58,0,0,0,9.67.82,62.36,62.36,0,0,0,9.36-.82v6.52a66.41,66.41,0,0,1-9.55.82,64.19,64.19,0,0,1-9.48-.82Z"/><path class="cls-11" d="M173.09,123.23a1.63,1.63,0,1,1-1.63-1.63h0a1.63,1.63,0,0,1,1.63,1.63h0"/><path class="cls-10" d="M259.57,120a64.47,64.47,0,0,1-9.71.82,72.94,72.94,0,0,1-10.12-.82v6.52a60.35,60.35,0,0,0,19.83,0Z"/><path class="cls-11" d="M254.57,123.23a1.63,1.63,0,1,0,1.63-1.63,1.63,1.63,0,0,0-1.63,1.63h0"/><path class="cls-12" d="M239.72,131.73V120.1"/><path class="cls-9" d="M239.72,135.8V116"/><path class="cls-12" d="M239.72,115.12v-1.67"/><path class="cls-9" d="M239.72,111v-1.66"/><path class="cls-12" d="M187.37,131.73V120.1"/><path class="cls-9" d="M187.37,135.8V116"/><path class="cls-12" d="M187.37,115.12v-1.67"/><path class="cls-9" d="M187.37,111v-1.66"/><path class="cls-4" d="M200.36,98.05l7.22,45.86.52,21.79a41.58,41.58,0,0,0,5.68.48,50.36,50.36,0,0,0,6-.48V143.91l7.74-45.86Z"/><path class="cls-13" d="M223.54,93.15l-9.78,8.56L204,91.52V66.79h19.56Z"/><path class="cls-14" d="M204.86,82.14l.68.34a21.36,21.36,0,0,0,16.57,0c.24-.1.45-.23.68-.34V70.86H204.86Z"/><path class="cls-10" d="M213.68,106.84l0,0L206.8,96.63l1-1.12.52-.64,1.64.86,3.72,5.32,3.81-5.25,1.47-.93.52.64,1,1.12-6.84,10.26Z"/><path class="cls-15" d="M203.39,101.05h0c-.41,0-1.19-.52-2.19-1.94-2.28-3.27-3.49-6.12-3.49-8.24a8.94,8.94,0,0,1,.83-3.92,14.88,14.88,0,0,1,2.18-3.17,10.68,10.68,0,0,1,3.09-2.08v4.68A10.22,10.22,0,0,0,207,93.73a12.78,12.78,0,0,0,2,1.65l-3.65,4c0,.07-.11.13-.17.2a12.36,12.36,0,0,1-1.08,1.09C203.68,101,203.46,101.05,203.39,101.05Z"/><path class="cls-11" d="M202.81,83.4a5.42,5.42,0,0,0-1.33,1c-1.87,2.24-2.77,3.78-2.77,6.45,0,1.88,1.18,4.61,3.31,7.67a5.73,5.73,0,0,0,1.33,1.45,9.18,9.18,0,0,0,1.08-1.08l.19-.2,2.89-3.18a11.54,11.54,0,0,1-4.7-9.15v-3m2-3.35v6.33c0,6,5.76,8.76,5.76,8.76l-4.48,4.92c-.72.79-1.71,2-2.7,2h0c-1.15,0-2.29-1.35-3-2.37-1.75-2.51-3.67-5.92-3.67-8.81,0-3.48,1.39-5.52,3.24-7.73C201,81.84,203.25,80.91,204.81,80.05Z"/><path class="cls-15" d="M224.38,101c-.68,0-1.79-1.23-2.15-1.64l-3.59-4a13.33,13.33,0,0,0,2-1.65,10.33,10.33,0,0,0,3.12-7.35V81.71a10.4,10.4,0,0,1,3,2.07A14.74,14.74,0,0,1,228.89,87a9,9,0,0,1,.81,3.92c0,2.12-1.18,5-3.43,8.25a10.86,10.86,0,0,1-1,1.34c-.48.5-.74.56-.81.57Z"/><path class="cls-11" d="M224.75,83.43v2.95a11.62,11.62,0,0,1-4.63,9.15L223,98.72a6.6,6.6,0,0,0,1.34,1.25,7.66,7.66,0,0,0,1.14-1.42c2.1-3.06,3.25-5.79,3.25-7.68,0-2.68-.87-4.22-2.72-6.46a5.23,5.23,0,0,0-1.23-1m-2-3.38c1.53.86,3.71,1.79,4.77,3.09,1.82,2.21,3.18,4.25,3.18,7.73,0,2.89-1.88,6.3-3.6,8.81-.62.9-1.57,2.23-2.56,2.34h-.16c-1,0-2.13-1.12-2.9-2l-4.39-4.92s5.66-2.72,5.66-8.76Z"/><path class="cls-16" d="M227.25,92.46c-1.33,24.82-6.78,51.51-6.78,51.51h.13l11.63-24.92-3.32-8.31,11.63-5L236.35,91.1c-1.55-5.43-7.19-9.83-12.43-11.93A24.21,24.21,0,0,1,227.25,92.46Z"/><path class="cls-9" d="M227.25,92.46C226,117.26,220.6,144,220.6,144l11.63-24.92-3.32-8.31,11.63-5L236.35,91.1c-1.55-5.43-7.19-9.83-12.43-11.93A24.21,24.21,0,0,1,227.25,92.46Z"/><path class="cls-16" d="M200.66,92.46C202,117.28,207.44,144,207.44,144h-.13l-11.63-24.92,3.32-8.31-11.63-5,4.19-14.65c1.55-5.43,7.18-9.83,12.42-11.93A24.28,24.28,0,0,0,200.66,92.46Z"/><path class="cls-9" d="M200.53,92.46c1.27,24.72,6.78,51.51,6.78,51.51l-11.63-24.92,3.32-8.31-11.63-5,4.19-14.65c1.55-5.43,7.18-9.83,12.42-11.93A23.46,23.46,0,0,0,200.53,92.46Z"/><path class="cls-9" d="M207.31,165.83V144"/><path class="cls-17" d="M204.05,147.68a1.63,1.63,0,1,1-1.63-1.63h0a1.63,1.63,0,0,1,1.63,1.63h0"/><path class="cls-17" d="M204.05,159.08a1.63,1.63,0,1,1-1.63-1.63h0a1.63,1.63,0,0,1,1.63,1.63h0"/><path class="cls-17" d="M226.86,147.68a1.63,1.63,0,1,1-1.63-1.63h0a1.63,1.63,0,0,1,1.63,1.63h0"/><path class="cls-17" d="M226.86,159.08a1.63,1.63,0,1,1-1.63-1.63h0a1.63,1.63,0,0,1,1.63,1.63h0"/><path class="cls-9" d="M220.6,165.83V144"/><path class="cls-18" d="M246.44,26.92c-2-14.72-16.2-25.85-31.66-25.85-16.42,0-32.3,12.62-33.52,28.64s3.22,20.5,3.22,20.5l4,6.36h50.89L244.64,49A56.33,56.33,0,0,0,246.44,26.92Z"/><path class="cls-19" d="M244.79,22.19A31.21,31.21,0,0,0,214.94,0c-14.11,0-27.6,9.36-31.48,22.19,6.63-6.37,19.14-10.54,31.48-10.54S238.16,15.82,244.79,22.19Z"/><path class="cls-20" d="M246.44,26.92c-2-14.72-16.2-25.85-31.66-25.85-16.42,0-32.3,12.62-33.52,28.64s3.22,20.5,3.22,20.5l4,6.36h50.89L244.64,49A56.33,56.33,0,0,0,246.44,26.92Z"/><path class="cls-21" d="M186.9,36.28c8.31-.52,10.48-10.18,10.48-10.18"/><path class="cls-21" d="M186.89,32.51c4.67-.29,5.9-5.73,5.9-5.73"/><path class="cls-9" d="M205,23.34a36.88,36.88,0,0,0,16.66,5.48c17.89,1.26,19.3,8,19.3,8"/><path class="cls-9" d="M205.6,17.05c3.52,3.22,10.48,6.33,17.64,6.88,8.65.66,11.66,2.5,15,4.21"/><path class="cls-9" d="M222.25,2a29.51,29.51,0,0,0-3-.34c-8.62-.54-13.54,3.6-16.65,10.85-1.85,4.33-1.29,7.81-1.29,14.09"/><path class="cls-22" d="M192.64,53.16a4.89,4.89,0,1,1-4.89-4.89h0a4.89,4.89,0,0,1,4.89,4.89"/><path class="cls-22" d="M244.79,53.16a4.89,4.89,0,1,1-4.89-4.89h0a4.89,4.89,0,0,1,4.89,4.89"/><path class="cls-13" d="M201.21,26a14.28,14.28,0,0,1-13.84,14.23V51.05a26.59,26.59,0,0,0,53.17,0V49s0-14.76-17.28-14.76C214.21,34.19,204.43,30.56,201.21,26Z"/><circle class="cls-11" cx="224.42" cy="48.27" r="3.26"/><path class="cls-11" d="M224.42,51.53a3.26,3.26,0,0,1-3.26-3.26h0A3.26,3.26,0,0,1,224.42,45a3.11,3.11,0,0,1,3.26,3v.3a3.26,3.26,0,0,1-3.26,3.26Z"/><circle class="cls-6" cx="222.79" cy="47.45" r="0.81"/><path class="cls-21" d="M220.42,40.19a8,8,0,0,1,3.82-.66,8.87,8.87,0,0,1,3.63,1.71"/><circle class="cls-11" cx="204.05" cy="48.27" r="3.26"/><path class="cls-11" d="M204.05,51.53a3.26,3.26,0,0,0,0-6.52,3.11,3.11,0,0,0-3.26,3,1.5,1.5,0,0,0,0,.3,3.26,3.26,0,0,0,3.26,3.26Z"/><circle class="cls-6" cx="202.42" cy="47.45" r="0.81"/><path class="cls-21" d="M208,40.19a7.89,7.89,0,0,0-3.81-.66,8.75,8.75,0,0,0-3.63,1.71"/><path class="cls-9" d="M211.38,63.75a19.07,19.07,0,0,1,5.37,0"/><path class="cls-9" d="M212.2,55.42a2.74,2.74,0,0,1,1.63-.43,2.78,2.78,0,0,1,1.63.43"/><path class="cls-23" d="M212.2,70.9a2.89,2.89,0,0,1,1.63-.43,2.93,2.93,0,0,1,1.63.43"/><path class="cls-13" d="M253.48,149.26c-2.13-.16-7.74-.23-11.57-5.6a12.85,12.85,0,0,1-2.23-7.63h0v-9.55a81.51,81.51,0,0,0,9.36.81,50.58,50.58,0,0,0,6.28-.27c.9-1.24,2-2.76,3-4.33a140.58,140.58,0,0,1,8.84-11.91,9.93,9.93,0,0,1,1.61-1.63c1-.74.52-3.6,2.33-5.58S277,97.9,277,97.9l9.25,13.31s-6.13,3.34-7.07,3.71c-1.27.5-2.89.1-3.72.57a6,6,0,0,0-2.09,2.71c-.65,1.47-2.6,9.31-6.56,16.37-5.12,9.13-11,14.69-13.26,14.69Z"/><path class="cls-13" d="M293.23,96l-5.53,3.45a1.61,1.61,0,0,1-2.24-.52h0a1.62,1.62,0,0,1,.52-2.24l5.52-3.46a1.64,1.64,0,0,1,2.25.52h0A1.63,1.63,0,0,1,293.23,96Z"/><path class="cls-13" d="M294.05,99.26l-5.53,3.45a1.63,1.63,0,0,1-2.25-.52h0a1.63,1.63,0,0,1,.52-2.24l5.53-3.46a1.63,1.63,0,0,1,2.24.52h0A1.63,1.63,0,0,1,294.05,99.26Z"/><path class="cls-13" d="M294.05,103.33l-5.53,3.46a1.65,1.65,0,0,1-2.25-.52h0a1.64,1.64,0,0,1,.52-2.25l5.53-3.45a1.61,1.61,0,0,1,2.24.52h0A1.62,1.62,0,0,1,294.05,103.33Z"/><path class="cls-13" d="M293.64,105a1.63,1.63,0,0,1-.52,2.25l-.17.09-2.88,1.35a1.63,1.63,0,0,1-2.07-.62h0a1.61,1.61,0,0,1,.52-2.22l.16-.09,2.9-1.35a1.63,1.63,0,0,1,2.07.61Z"/><rect class="cls-24" x="275.75" y="83.31" width="15.48" height="28.52" rx="2"/><path class="cls-11" d="M283.49,110.2a1.23,1.23,0,1,0-1.22-1.23A1.23,1.23,0,0,0,283.49,110.2Z"/><rect class="cls-25" x="275.75" y="87.38" width="15.48" height="18.74"/><g class="cls-26"><path class="cls-6" d="M285.53,87.38h-9V98.79Z"/><path class="cls-6" d="M289.6,88.2h-3.36l-9.67,12.21v4.08Z"/></g><rect class="cls-9" x="275.75" y="87.38" width="15.48" height="18.74"/><path class="cls-13" d="M282.91,98.63a1.63,1.63,0,0,1-.08,2.3h0l-3.12,2.91a2.45,2.45,0,0,0-.28,1.83,6.57,6.57,0,0,1,.28,3.23,5.27,5.27,0,0,1-2.89,3.33,6.71,6.71,0,0,1-3.33,0l-1.65-2.69a1.65,1.65,0,0,1-.17-1.35l.52-1.62,2.5-2.52,5.91-5.51a1.63,1.63,0,0,1,2.3.08h0Z"/><path class="cls-27" d="M275.46,110.78l-.08.92a.72.72,0,0,0-.61.73,1,1,0,0,0,.47.88l0,.23-4.06,1.09-1.9-3.85,1.36-3.13.14,0a.86.86,0,0,0,.66.78c.63.13.93-.56.93-.56l1,.14Z"/><path class="cls-9" d="M251.31,145.52a2.8,2.8,0,0,0,1.66.28,2.74,2.74,0,0,0,1.58-.57"/><path class="cls-9" d="M253.14,130.75l4.3-6.82Z"/><path class="cls-9" d="M251.43,130.94a1.62,1.62,0,0,1,1.63,0"/><path class="cls-15" d="M156,90.82H138.05a4.26,4.26,0,0,1-4.26-4.26V76a4.26,4.26,0,0,1,4.26-4.26H156A4.26,4.26,0,0,1,160.23,76V86.56A4.26,4.26,0,0,1,156,90.82Z"/><path class="cls-11" d="M138.05,72.71A3.26,3.26,0,0,0,134.79,76V86.56a3.26,3.26,0,0,0,3.26,3.26H156a3.26,3.26,0,0,0,3.26-3.26V76A3.26,3.26,0,0,0,156,72.71H138.05m0-2H156A5.27,5.27,0,0,1,161.23,76V86.56A5.27,5.27,0,0,1,156,91.82H138.05a5.27,5.27,0,0,1-5.26-5.26V76A5.27,5.27,0,0,1,138.05,70.71Z"/><path class="cls-9" d="M139.68,84.12V72.71"/><path class="cls-9" d="M144.57,84.12V72.71"/><path class="cls-9" d="M150.27,84.12V72.71"/><path class="cls-9" d="M155.16,84.12V72.71"/><path class="cls-28" d="M144.31,77a1.54,1.54,0,0,1-1.55-1.54.63.63,0,1,0-1.26,0,1.55,1.55,0,0,1-3.09,0,.63.63,0,0,0-.62-.63,1.55,1.55,0,0,1-1.56-1.53V71.71h12.89v1.55a1.55,1.55,0,0,1-1.55,1.54h-1.09a.63.63,0,0,0-.63.63A1.54,1.54,0,0,1,144.31,77Z"/><path class="cls-11" d="M137.23,72.71v.56a.54.54,0,0,0,.56.53,1.63,1.63,0,0,1,1.62,1.63A.54.54,0,0,0,140,76a.55.55,0,0,0,.55-.54,1.63,1.63,0,1,1,3.26,0,.55.55,0,0,0,.55.54.54.54,0,0,0,.54-.54,1.63,1.63,0,0,1,1.63-1.63h1.09a.55.55,0,0,0,.55-.54v-.55H137.23m0-2h10.89a2,2,0,0,1,2,2v.55a2.55,2.55,0,0,1-2.55,2.54h-.75a2.54,2.54,0,0,1-4.69.94,2.55,2.55,0,0,1-4.7-1,2.56,2.56,0,0,1-2.2-2.51v-.56A2,2,0,0,1,137.23,70.71Z"/><path class="cls-29" d="M159.23,94.18a1,1,0,0,1-1,1h-5.77a3.08,3.08,0,0,0-3,3.06c0,6.18.22,18.77,1,22.34.25,1.08.49,2.11.67,3.07a4.15,4.15,0,0,1-3.55,4.4,4.09,4.09,0,0,1-4.56-3.57,4.61,4.61,0,0,1,0-.83c.17-.91.4-1.89.63-2.93.82-3.57,1-16.17,1.06-22.43a3.09,3.09,0,0,0-3-3.11h-5.8a1,1,0,0,1-1-1V90a1,1,0,0,1,1-1h22.4a1,1,0,0,1,1,1Z"/><path class="cls-30" d="M147,124.86a1.63,1.63,0,1,1,1.63-1.63,1.63,1.63,0,0,1-1.63,1.63Z"/><path class="cls-9" d="M138.51,91.89h11.41"/><path class="cls-9" d="M153.5,91.89h1.63"/><path class="cls-13" d="M173.11,149.27c2.13-.17,7.74-.25,11.57-5.63a12.8,12.8,0,0,0,2.25-7.6h0v-9.58a79.33,79.33,0,0,1-9.36.81,50.35,50.35,0,0,1-6.26-.27c-.9-1.25-2-2.77-3-4.35a140.1,140.1,0,0,0-9.92-11.71c-.48-.52-2.65-8.39-6.61-8.25-.55,0-2.85,0-4.52,0h-1.64c-.9,0-.26,2.64-.9,2.9a8.17,8.17,0,0,1-3.4.4s-1,11-1,11c-.15.4,3.1,1,6.06.86,1.86-.08,5-.36,5-.36s1.4-.47,1.93.63c.7,1.48,2.58,9.33,6.54,16.4,5.1,9.13,11,14.7,13.23,14.7Z"/><path class="cls-31" d="M144.62,98.27c0,6.19-.21,18.77-1,22.34-.25,1.08-.48,2.11-.67,3.08a4.16,4.16,0,0,0,3.55,4.4,4.1,4.1,0,0,0,4.56-3.58,3.75,3.75,0,0,0,0-.82c-.17-.92-.4-1.9-.63-2.94-.82-3.57-1-16.16-1.06-22.43C149.38,96.59,144.6,96.58,144.62,98.27Z"/><path class="cls-29" d="M144.62,98.27c0,6.19-.21,18.77-1,22.34-.25,1.08-.48,2.11-.67,3.08a4.16,4.16,0,0,0,3.55,4.4,4.1,4.1,0,0,0,4.56-3.58,3.75,3.75,0,0,0,0-.82c-.17-.92-.4-1.9-.63-2.94-.82-3.57-1-16.16-1.06-22.43C149.38,96.59,144.6,96.58,144.62,98.27Z"/><path class="cls-30" d="M147,124.86a1.63,1.63,0,1,0-1.63-1.63h0A1.63,1.63,0,0,0,147,124.86Z"/><rect class="cls-13" x="139.7" y="104.49" width="8.15" height="3.27" rx="1.63"/><rect class="cls-13" x="138.17" y="107.75" width="9.68" height="3.27" rx="1.63"/><rect class="cls-13" x="138.82" y="111.01" width="9.02" height="3.27" rx="1.63"/><rect class="cls-13" x="139.96" y="114.27" width="7.88" height="3.27" rx="1.63"/><path class="cls-13" d="M144.34,103.68l-.27,3.48a1.62,1.62,0,0,0,1.26,1.72l.6.14.9-.21a1.66,1.66,0,0,0,1.23-1.28l.61-3.15s0,3.88,1.46,5.73,8.14,1.14,8.14,1.14v-.62a17.28,17.28,0,0,0-1.86-4.91,49.65,49.65,0,0,0-2.75-4.53c-.72-1-6.62-.77-6.62-.77a3.6,3.6,0,0,0-2,.77A4.66,4.66,0,0,0,144.34,103.68Z"/><path class="cls-27" d="M157.41,110.52l-3.07-1.14v1.22a.92.92,0,0,1,.59.83.85.85,0,0,1-.59.79v2l4.88-1.2Z"/><path class="cls-9" d="M175.53,145.52a3.33,3.33,0,0,1-3.25-.29"/><path class="cls-9" d="M173.7,130.75l-4.31-6.82Z"/><path class="cls-9" d="M175.41,130.94a1.41,1.41,0,0,0-.82-.22,1.36,1.36,0,0,0-.81.22"/><path class="cls-32" d="M197.44,204.91a4.6,4.6,0,0,1-1.17-.25,18.89,18.89,0,0,0,.72-3.06h-5.6l-.56,2.52a.71.71,0,0,1-.43.56,5.13,5.13,0,0,1-1.35.1v-4.26l1.56-.32,1.19-5.56h-.86a5.76,5.76,0,0,1,.11-1.38.5.5,0,0,1,.56-.35h3.72a3.11,3.11,0,0,1,2.15.57,2.79,2.79,0,0,1,.6,2v4.66l1.4.32v.24a11.61,11.61,0,0,1-1.2,3.62A1.07,1.07,0,0,1,197.44,204.91Zm-3.8-10.27-.87,5.2h3.3v-4a1.4,1.4,0,0,0-.27-.95,1.14,1.14,0,0,0-.86-.3h-1.3Zm-67.95,10.11a2.27,2.27,0,0,1-1.17-.27.92.92,0,0,1-.47-.86v-.69a2.88,2.88,0,0,0,.92.13,1.56,1.56,0,0,0,1.64-1.35,53.52,53.52,0,0,1-3.89-8.8h2.45a38.89,38.89,0,0,0,2.41,6.43l2-6.43h2.18v.2l-3.13,8.44C128.37,203.67,127.36,204.75,125.69,204.75Zm184.48-.18h-2V193.9c0-.52.11-.82.32-.92a5.73,5.73,0,0,1,1.7-.14v1.78a3.43,3.43,0,0,1,3.19-1.89,3,3,0,0,1,2.52,1.13,4.84,4.84,0,0,1,.88,3,5.4,5.4,0,0,1-1.15,3.47,3.54,3.54,0,0,1-2.9,1.44,2.94,2.94,0,0,1-2.54-1.19v4Zm2.52-10.17a2,2,0,0,0-1.72.95,4.36,4.36,0,0,0-.64,2.44,2.62,2.62,0,0,0,.52,1.57,1.64,1.64,0,0,0,1.4.69,2,2,0,0,0,1.75-.93,3.82,3.82,0,0,0,.64-2.2,3.17,3.17,0,0,0-.48-1.8A1.63,1.63,0,0,0,312.69,194.4Zm-9.95,7.38a4.2,4.2,0,0,1-3.2-1.24,4.94,4.94,0,0,1-1.2-3.58,4,4,0,0,1,3.87-4.23h.38a3.67,3.67,0,0,1,2.83,1.1,4.18,4.18,0,0,1,1,2.95c0,.8-.49,1.21-1.46,1.21h-4.42c.31,1.41,1.34,2.12,3.06,2.12a6.64,6.64,0,0,0,2.2-.41v.61a1.2,1.2,0,0,1-.92,1.12A5.9,5.9,0,0,1,302.74,201.78Zm-.2-7.54c-1.29,0-2,.79-2.07,2.36h3.35a.44.44,0,0,0,.37-.16.61.61,0,0,0,.13-.36,1.81,1.81,0,0,0-.49-1.35,1.72,1.72,0,0,0-1.29-.49Zm-17.16,7.54a4.1,4.1,0,0,1-3.18-1.28,5.06,5.06,0,0,1-1.17-3.56,4,4,0,0,1,1.26-3.07,4.59,4.59,0,0,1,3.22-1.14,4.1,4.1,0,0,1,2.24.57,1.87,1.87,0,0,1,.91,1.66,1.18,1.18,0,0,1-.33.89,1.15,1.15,0,0,1-.82.32h-.62v-.36a1.29,1.29,0,0,0-1.13-1.46,1.09,1.09,0,0,0-.36,0,2.07,2.07,0,0,0-1.62.74,2.77,2.77,0,0,0-.63,1.85,3.33,3.33,0,0,0,.76,2.33,3,3,0,0,0,2.3.82,5.71,5.71,0,0,0,2.12-.41v.56a1.23,1.23,0,0,1-.87,1.18,5.44,5.44,0,0,1-2.07.36Zm-11,0a2.38,2.38,0,0,1-1.94-.79,2.81,2.81,0,0,1-.67-1.85c0-1.46,1.08-2.3,3.19-2.52l2.23-.24v0c-.07-1.33-.88-2-2.39-2a6.14,6.14,0,0,0-2.2.5v-.59a1,1,0,0,1,.51-.85,3.41,3.41,0,0,1,1.19-.51,6,6,0,0,1,1.34-.15,3.62,3.62,0,0,1,2.59.87,3.92,3.92,0,0,1,1,2.6l.3,4.56a1.07,1.07,0,0,1-.07.53.6.6,0,0,1-.4.27,4.09,4.09,0,0,1-.61.1h-1l-.09-1.52a3.47,3.47,0,0,1-3,1.63Zm2.85-4.12-2,.25a1.65,1.65,0,0,0-.87.39,1,1,0,0,0-.32.75,1.36,1.36,0,0,0,.31.91,1.09,1.09,0,0,0,.88.36,1.63,1.63,0,0,0,1.4-.8A3.51,3.51,0,0,0,277.25,197.66Zm-29.68,4.12h0a3.81,3.81,0,0,1-1.71-.47V193.9c0-.52.1-.83.31-.92a5.4,5.4,0,0,1,1.65-.14v5.76l4.5-5.82a4.11,4.11,0,0,1,1.71.49v7.32q0,.78-.3.93a5.15,5.15,0,0,1-1.66.15V195.9l-4.5,5.88Zm-27.34,0a1.79,1.79,0,0,1-1-.25,2.83,2.83,0,0,1-.76-1l-1.32-2.34h-.75v3.4h-2v-3.4h-.76l-1.31,2.34a2.67,2.67,0,0,1-.81,1,2.12,2.12,0,0,1-1.07.26,1.9,1.9,0,0,1-.91-.21.7.7,0,0,1-.4-.65v-.47h.16a1.44,1.44,0,0,0,1.22-.83l1.3-2a2.73,2.73,0,0,1-.79-1,5.7,5.7,0,0,1-.41-1.18,2.15,2.15,0,0,0-.44-.94,1,1,0,0,0-.88-.4h-.16v-.4a.82.82,0,0,1,.36-.72,1.78,1.78,0,0,1,2,.16,2.16,2.16,0,0,1,.59,1l.31,1.15a2.75,2.75,0,0,0,.48,1,1.08,1.08,0,0,0,.9.4h.6v-2.74q0-.75.3-.9a5.44,5.44,0,0,1,1.66-.14v3.8H217a1.13,1.13,0,0,0,.91-.41,2.52,2.52,0,0,0,.48-1c.1-.39.2-.78.31-1.14a2.24,2.24,0,0,1,.6-1,1.67,1.67,0,0,1,1.17-.4,1.45,1.45,0,0,1,.86.25.81.81,0,0,1,.33.71v.4h-.16a1.1,1.1,0,0,0-.88.4,2.26,2.26,0,0,0-.44.94,5.5,5.5,0,0,1-.41,1.18,2.73,2.73,0,0,1-.79,1l1.3,2a1.43,1.43,0,0,0,1.22.83h.16v.47a.7.7,0,0,1-.43.64,2,2,0,0,1-1,.21Zm-15.72,0a4.26,4.26,0,0,1-3.19-1.24,4.94,4.94,0,0,1-1.2-3.58,4,4,0,0,1,3.87-4.23h.38a3.66,3.66,0,0,1,2.83,1.1,4.18,4.18,0,0,1,1,2.95c0,.8-.49,1.2-1.46,1.2h-4.43c.31,1.41,1.34,2.13,3.06,2.13a6.37,6.37,0,0,0,2.2-.42v.62a1.19,1.19,0,0,1-.92,1.12,5.87,5.87,0,0,1-2.16.35Zm-.2-7.54c-1.29,0-2,.79-2.07,2.36h3.35a.45.45,0,0,0,.38-.16.61.61,0,0,0,.13-.36,1.85,1.85,0,0,0-.49-1.35,1.75,1.75,0,0,0-1.3-.49Zm-21.42,7.54A2.38,2.38,0,0,1,181,201a2.81,2.81,0,0,1-.67-1.85c0-1.46,1.08-2.3,3.19-2.52l2.23-.24v0c-.07-1.33-.88-2-2.39-2a5.74,5.74,0,0,0-2.2.5v-.59a1,1,0,0,1,.51-.85,3.6,3.6,0,0,1,1.19-.51,6,6,0,0,1,1.34-.15,3.62,3.62,0,0,1,2.59.87,3.92,3.92,0,0,1,1,2.6l.31,4.56a1.2,1.2,0,0,1-.08.53.57.57,0,0,1-.4.27,4.09,4.09,0,0,1-.61.1h-1l-.09-1.52a3.47,3.47,0,0,1-3,1.63Zm2.85-4.12-2,.25a1.68,1.68,0,0,0-.88.39,1,1,0,0,0-.31.75,1.35,1.35,0,0,0,.3.91,1.11,1.11,0,0,0,.89.36,1.6,1.6,0,0,0,1.39-.8A3.44,3.44,0,0,0,185.74,197.66Zm-34.9,4.12a4.28,4.28,0,0,1-3.2-1.24,5,5,0,0,1-1.2-3.58,4.06,4.06,0,0,1,3.88-4.23h.37a3.66,3.66,0,0,1,2.83,1.1,4.13,4.13,0,0,1,1,2.95c0,.8-.49,1.21-1.46,1.21h-4.42c.31,1.41,1.34,2.12,3.06,2.12a6.64,6.64,0,0,0,2.2-.41v.61a1.22,1.22,0,0,1-.92,1.12,6.12,6.12,0,0,1-2.16.35Zm-.2-7.54c-1.29,0-2,.79-2.07,2.36h3.34a.45.45,0,0,0,.38-.16.61.61,0,0,0,.13-.36,1.81,1.81,0,0,0-.49-1.35A1.72,1.72,0,0,0,150.64,194.24Zm-6.88,7.54a1.78,1.78,0,0,1-1-.25,2.85,2.85,0,0,1-.77-1l-1.31-2.34h-.76v3.4h-2v-3.4h-.76l-1.31,2.34a2.58,2.58,0,0,1-.81,1,2.08,2.08,0,0,1-1.06.26,1.94,1.94,0,0,1-.92-.21.7.7,0,0,1-.4-.65v-.47h.16a1.46,1.46,0,0,0,1.23-.83l1.3-2a2.66,2.66,0,0,1-.8-1,5.7,5.7,0,0,1-.41-1.18,2.25,2.25,0,0,0-.43-.94,1.05,1.05,0,0,0-.88-.4h-.17v-.4A.82.82,0,0,1,133,193a1.78,1.78,0,0,1,2,.16,2.16,2.16,0,0,1,.59,1l.31,1.15a2.75,2.75,0,0,0,.48,1,1.08,1.08,0,0,0,.9.4h.59v-2.74c0-.5.1-.8.31-.9a5.44,5.44,0,0,1,1.66-.14v3.8h.59a1.13,1.13,0,0,0,.91-.41,2.52,2.52,0,0,0,.48-1c.08-.32.17-.67.31-1.14a2.24,2.24,0,0,1,.6-1,1.67,1.67,0,0,1,1.17-.4,1.45,1.45,0,0,1,.86.25.81.81,0,0,1,.33.71v.4H145a1.1,1.1,0,0,0-.88.4,2.26,2.26,0,0,0-.44.94,5.5,5.5,0,0,1-.41,1.18,2.86,2.86,0,0,1-.78,1l1.3,2a1.44,1.44,0,0,0,1.22.83h.16v.47a.7.7,0,0,1-.43.64A2,2,0,0,1,143.76,201.78Zm124.49-.11h0v-5.85a48,48,0,0,1-2.16,4.59,4.82,4.82,0,0,1-1.76.33c-.93-1.88-1.67-3.53-2.2-4.9v5.76h-1.84v-8.22a6.14,6.14,0,0,1,2.52-.6,39.22,39.22,0,0,0,2.41,5.71,46.24,46.24,0,0,0,2.3-5.19,6.18,6.18,0,0,1,2.54-.52v7.92q0,.7-.3.84a4.78,4.78,0,0,1-1.51.13Zm-38.83,0h0v-3.43h-4v3.36h-2v-7.7c0-.51.1-.82.31-.92a5.73,5.73,0,0,1,1.7-.14v3.76h4v-3.69h2v7.69c0,.51-.1.82-.3.92a5.14,5.14,0,0,1-1.7.15Zm-52.86,0h0v-3.43h-4v3.36h-2v-7.7c0-.51.1-.82.31-.92a5.73,5.73,0,0,1,1.7-.14v3.76h4v-3.69h2v7.69c0,.51-.1.82-.31.92A5.06,5.06,0,0,1,176.56,201.67Zm-14.29,0h0v-3.43h-4v3.36h-2v-7.7c0-.51.11-.82.32-.92a5.7,5.7,0,0,1,1.7-.14v3.76h4v-3.69h2v7.69c0,.51-.1.82-.31.92a5.06,5.06,0,0,1-1.69.15Zm-43.2,0h0V197h-5.46v4.63h-2.14V191c0-.52.11-.83.34-.93a6.07,6.07,0,0,1,1.8-.15v5.13h5.46V190h2.14v10.58c0,.52-.12.83-.34.93a6.07,6.07,0,0,1-1.8.15Zm175.51-.07h-2v-6.91h-2.88v-1.78h7.22a.52.52,0,0,1,.57.36,5.67,5.67,0,0,1,.11,1.42h-3v6.91Zm-51,0h-2v-7.7c0-.51.11-.82.32-.92a5.7,5.7,0,0,1,1.7-.14v8.77Zm-6.62,0h-.52a3.23,3.23,0,0,1-2.13-.58,2.46,2.46,0,0,1-.68-1.94v-5.29c0-.46.11-.73.33-.82a6,6,0,0,1,1.69-.13v3.24H237c2.25,0,3.4.86,3.4,2.57a2.65,2.65,0,0,1-1,2.19,3.81,3.81,0,0,1-2.41.76Zm-1.31-4V199a.9.9,0,0,0,.76,1,.65.65,0,0,0,.24,0h.22a1.63,1.63,0,0,0,1-.32,1.11,1.11,0,0,0,.42-1c0-.79-.54-1.19-1.62-1.19Zm14.38-6.15a3.16,3.16,0,0,1-2.13-.69,2.2,2.2,0,0,1-.79-1.7c0-.56.37-.85,1.1-.85a1.41,1.41,0,0,0,.54,1.18,2.25,2.25,0,0,0,2.56,0,1.41,1.41,0,0,0,.54-1.18c.71,0,1.08.28,1.08.85a2.21,2.21,0,0,1-.79,1.7A3.09,3.09,0,0,1,250.07,191.45Z"/><path class="cls-16" d="M257.17,419.14a33.23,33.23,0,0,0-33.23-33.23H204a33.23,33.23,0,0,0-33.23,33.23h0v8.63h15.89l-.12,39.11s14.36,4.89,27.61,4.89,26.48-4.89,26.48-4.89l-.2-39.11h16.74Z"/><path class="cls-33" d="M257.17,419.14a33.23,33.23,0,0,0-33.23-33.23H204a33.23,33.23,0,0,0-33.23,33.23h0v13.29A33.23,33.23,0,0,1,204,399.2h19.94a33.23,33.23,0,0,1,33.23,33.23Z"/><path class="cls-9" d="M257.17,419.14a33.23,33.23,0,0,0-33.23-33.23H204a33.23,33.23,0,0,0-33.23,33.23h0v8.63h16.58v39.11s14,4.89,26.8,4.89,25.57-4.89,25.57-4.89V427.77h17.45Z"/><path class="cls-4" d="M187.35,420.43v46.45s14,4.89,26.8,4.89,25.57-4.89,25.57-4.89V420.43Z"/><g class="cls-34"><path class="cls-33" d="M239.09,442.79v20H187.75V430.22c0,11.26,8.84,25.27,19.75,25.27h11.84c10.9,0,19.75-14,19.75-25.27Z"/><path class="cls-35" d="M196.48,467.12V439.05h4.42v28.07h-4.42Z"/><path class="cls-11" d="M199.9,440.05h-2.42v26.07h2.42V440.05m2,0v26.07a2,2,0,0,1-2,2h-2.42a2,2,0,0,1-2-2V440.05a2,2,0,0,1,2-2h2.42A2,2,0,0,1,201.9,440.05Z"/><path class="cls-15" d="M196.48,445.12v-6.07h4.42v6.07h-4.42Z"/><path class="cls-11" d="M199.9,440.05h-2.42v4.07h2.42v-4.07m2,0v4.07a2,2,0,0,1-2,2h-2.42a2,2,0,0,1-2-2v-4.07a2,2,0,0,1,2-2h2.42A2,2,0,0,1,201.9,440.05Z"/><path class="cls-15" d="M190.42,437.6v-1.22a1.61,1.61,0,0,1,1.6-1.61h1.68l.3.35a.74.74,0,0,0,.59.26h.22a1.65,1.65,0,0,0,1.17-.49l0,0h0a2.46,2.46,0,0,1,1.71-.7h1.46a9.21,9.21,0,0,1,2.95.48c2.09.68,4.67,2.07,5.65,3.92l1.31,2.45L206.52,440,204,438.9a8.64,8.64,0,0,0-2.25-.3.83.83,0,0,0-.82.84v1.61h-4.43v-1.61a.83.83,0,0,0-.82-.84h-1.07a.74.74,0,0,0-.59.26l-.3.35H192A1.61,1.61,0,0,1,190.42,437.6Z"/><path class="cls-11" d="M206.9,439c-.76-1.42-2.93-2.74-5.08-3.44a8.16,8.16,0,0,0-2.64-.43h-1.45a1.42,1.42,0,0,0-1,.43l0,0a2.68,2.68,0,0,1-1.87.77h-.19a1.73,1.73,0,0,1-1.38-.61H192a.6.6,0,0,0-.6.61v1.22a.6.6,0,0,0,.6.61h1.22a1.73,1.73,0,0,1,1.38-.61h1a1.82,1.82,0,0,1,1.82,1.84v.61h2.43v-.61a1.82,1.82,0,0,1,1.81-1.84,9.56,9.56,0,0,1,2.55.35l.07,0L206.9,439m2,0a2,2,0,0,1-2.76,1.85l-2.48-1a8,8,0,0,0-1.75-.25v.45a2,2,0,0,1-2,2h-2.43a2,2,0,0,1-2-2v-.45h-.8a2,2,0,0,1-1.44.61H192a2.61,2.61,0,0,1-2.6-2.61v-1.22a2.61,2.61,0,0,1,2.6-2.61h1.22a2,2,0,0,1,1.44.61h.12a.67.67,0,0,0,.48-.2l0,0a3.43,3.43,0,0,1,2.41-1h1.46a10.31,10.31,0,0,1,3.26.53c2.27.74,5.1,2.28,6.23,4.4A2,2,0,0,1,208.9,439Z"/><path class="cls-36" d="M212.2,445.41h-6s-1.28,6.45-7.9,6.45c-5,0-10.93-2.45-10.93-2.45v13l24.87,2.45Z"/><path class="cls-37" d="M213.83,445.41H208.6s-.91,9.71-10.35,9.71c-5,0-10.92-2.44-10.92-2.44v17.11l26.5,2.44Z"/><path class="cls-36" d="M215.46,445.41h6s1.27,6.45,7.9,6.45c5,0,10.92-2.45,10.92-2.45v13l-24.86,2.45Z"/><path class="cls-37" d="M213.83,445.41h5.22s.92,9.71,10.35,9.71c5,0,10.92-2.44,10.92-2.44v17.11l-26.49,2.44Z"/><rect class="cls-15" x="212.2" y="446.22" width="3.26" height="22.75"/><path class="cls-11" d="M213.83,447.85h0a.82.82,0,0,1,.81.82v1.63a.81.81,0,0,1-.81.81h0a.82.82,0,0,1-.82-.81v-1.63A.82.82,0,0,1,213.83,447.85Z"/><path class="cls-11" d="M213.83,451.93h0a.81.81,0,0,1,.81.81v1.63a.82.82,0,0,1-.81.82h0a.82.82,0,0,1-.82-.82v-1.63A.82.82,0,0,1,213.83,451.93Z"/><path class="cls-11" d="M213.83,456h0a.82.82,0,0,1,.81.82v1.63a.81.81,0,0,1-.81.81h0a.82.82,0,0,1-.82-.81v-1.63A.82.82,0,0,1,213.83,456Z"/><path class="cls-11" d="M213.83,460.08h0a.81.81,0,0,1,.81.81v1.63a.81.81,0,0,1-.81.81h0a.82.82,0,0,1-.82-.81v-1.63A.82.82,0,0,1,213.83,460.08Z"/><path class="cls-11" d="M213.83,465h0a.82.82,0,0,1,.81.82v1.63a.81.81,0,0,1-.81.81h0a.82.82,0,0,1-.82-.81v-1.63A.82.82,0,0,1,213.83,465Z"/><path class="cls-10" d="M187.19,460.2a81.17,81.17,0,0,0,26.59,4.26,70.61,70.61,0,0,0,26.3-4.81V467s-10.08,7.16-26.3,7.16-26.59-6.61-26.59-6.61Z"/><path class="cls-11" d="M197.53,467.34a.81.81,0,0,1-.81-.81.82.82,0,0,1,.81-.82.82.82,0,0,1,.82.82.82.82,0,0,1-.82.81Z"/><path class="cls-11" d="M202.42,468.16a.82.82,0,0,1-.82-.82.82.82,0,0,1,.82-.81.81.81,0,0,1,.81.81.82.82,0,0,1-.81.82Z"/><path class="cls-11" d="M230.12,467.34a.82.82,0,0,0,.82-.81.82.82,0,0,0-.82-.82.82.82,0,0,0-.81.82.81.81,0,0,0,.81.81Z"/><path class="cls-11" d="M225.23,468.16a.82.82,0,0,0,.82-.82.82.82,0,0,0-.82-.81.81.81,0,0,0-.81.81.82.82,0,0,0,.81.82Z"/></g><path class="cls-9" d="M187.35,420.43v46.45s14,4.89,26.8,4.89,25.57-4.89,25.57-4.89V420.43Z"/><rect class="cls-38" x="207.31" y="462.45" width="13.04" height="10.59" rx="2"/><path class="cls-9" d="M200.79,424.19h1.63"/><path class="cls-9" d="M205.68,424.19h1.63"/><path class="cls-9" d="M210.57,424.19h1.63"/><path class="cls-9" d="M214.64,424.19h1.63"/><path class="cls-9" d="M219.53,424.19h1.63"/><path class="cls-9" d="M224.42,424.19h1.63"/><path class="cls-39" d="M187.35,390.53V427a3.25,3.25,0,0,0,3.25,3.25h2.68a3.24,3.24,0,0,0,3.25-3.25v-40.1a27.39,27.39,0,0,0-4.59,1.34A35.31,35.31,0,0,0,187.35,390.53Z"/><path class="cls-15" d="M193.18,420.63a5.81,5.81,0,0,0-1.42-.17,6.19,6.19,0,0,0-1.47.17V389.28a16.27,16.27,0,0,1,1.82-.9c.37-.15.74-.28,1.07-.38Z"/><path class="cls-11" d="M192.18,389.43c-.31.14-.62.3-.89.44v29.6h.89v-30m2-2.71v35.59a2.93,2.93,0,0,0-2.42-.85,3.22,3.22,0,0,0-2.47.79V388.71a18.71,18.71,0,0,1,2.45-1.26A14.25,14.25,0,0,1,194.18,386.72Z"/><path class="cls-10" d="M191.83,426.6a1.63,1.63,0,1,1,1.63-1.63,1.63,1.63,0,0,1-1.63,1.63Z"/><path class="cls-39" d="M239.69,390.53V427a3.26,3.26,0,0,1-3.26,3.25h-2.67A3.25,3.25,0,0,1,230.5,427v-40.1a27.39,27.39,0,0,1,4.59,1.34A36.08,36.08,0,0,1,239.69,390.53Z"/><path class="cls-15" d="M233.85,420.64V388c.33.1.7.23,1.07.38a17.18,17.18,0,0,1,1.82.9v31.35a6.1,6.1,0,0,0-1.46-.17A5.36,5.36,0,0,0,233.85,420.64Z"/><path class="cls-11" d="M234.85,389.44v30h.43l.46,0V389.87l-.89-.43m-2-2.72a14.25,14.25,0,0,1,2.44.73,18.71,18.71,0,0,1,2.45,1.26v33.54a3.21,3.21,0,0,0-2.46-.79,3,3,0,0,0-2.43.85Z"/><path class="cls-10" d="M235.21,426.6a1.63,1.63,0,1,0-1.63-1.63h0A1.63,1.63,0,0,0,235.21,426.6Z"/><path class="cls-10" d="M168.33,425a69.58,69.58,0,0,0,9.67.82,62.36,62.36,0,0,0,9.36-.82v6.52a66.41,66.41,0,0,1-9.55.82,64.19,64.19,0,0,1-9.48-.82Z"/><path class="cls-11" d="M173.09,428.23a1.63,1.63,0,1,1-1.63-1.63h0a1.63,1.63,0,0,1,1.63,1.63h0"/><path class="cls-10" d="M259.57,425a64.47,64.47,0,0,1-9.71.82,72.94,72.94,0,0,1-10.12-.82v6.52a60.35,60.35,0,0,0,19.83,0Z"/><path class="cls-11" d="M254.57,428.23a1.63,1.63,0,1,0,1.63-1.63,1.63,1.63,0,0,0-1.63,1.63h0"/><path class="cls-12" d="M239.72,436.73V425.1"/><path class="cls-9" d="M239.72,440.8V421"/><path class="cls-12" d="M239.72,420.12v-1.67"/><path class="cls-9" d="M239.72,416v-1.66"/><path class="cls-12" d="M187.37,436.73V425.1"/><path class="cls-9" d="M187.37,440.8V421"/><path class="cls-12" d="M187.37,420.12v-1.67"/><path class="cls-9" d="M187.37,416v-1.66"/><path class="cls-13" d="M223.54,394.89l-9.78,13.45L204,394.89v-19h19.56Z"/><path class="cls-14" d="M204.86,387.14c.23.11.44.24.68.34a21.36,21.36,0,0,0,16.57,0c.24-.1.45-.23.68-.34V375.86H204.86Z"/><path class="cls-28" d="M213.66,410.47a14.91,14.91,0,0,1-8.08-2.1,12.75,12.75,0,0,1-4.45-4.78,18.51,18.51,0,0,1-2.14-8.2c0-.08,0-.18,0-.29,0-1.69-.12-6.83,3.49-10.5,2.48-2.53,6.18-3.81,11-3.81s8.68,1.3,11.23,3.87a12.24,12.24,0,0,1,3.21,6.08,19.27,19.27,0,0,1,.43,4.41v.19a18.42,18.42,0,0,1-2.15,8.29,12.69,12.69,0,0,1-4.45,4.76A15.08,15.08,0,0,1,213.66,410.47Z"/><path class="cls-11" d="M213.66,409.47c12.85,0,13.68-12.15,13.68-14.13s.5-13.55-13.87-13.55S200,393.58,200,395.39s.83,14.08,13.67,14.08m0,2c-7.71,0-11.55-4-13.4-7.4a19.52,19.52,0,0,1-2.27-8.68c0-.08,0-.17,0-.27,0-1.8-.13-7.25,3.78-11.22,2.67-2.73,6.61-4.11,11.71-4.11s9.19,1.4,11.94,4.16a13.39,13.39,0,0,1,3.48,6.57,19.88,19.88,0,0,1,.45,4.64v.18a19.45,19.45,0,0,1-2.27,8.78C225.21,407.47,221.38,411.47,213.66,411.47Z"/><path class="cls-13" d="M223.54,396.52s0,7.75-9.78,7.75-9.78-7.75-9.78-7.75V371.79h19.56Z"/><path class="cls-14" d="M204.86,388c.23.11.44.24.68.34a21.27,21.27,0,0,0,16.57,0c.24-.1.45-.23.68-.34V376.68H204.86Z"/><path class="cls-31" d="M249.33,348.64c1.36-1.3,3-3.13,3-5.16a7.18,7.18,0,0,0-7.2-7.16h0a31.25,31.25,0,0,0-62.28,0,7.18,7.18,0,0,0-7.32,7.05v.09a7.27,7.27,0,0,0,.84,3.45,5.84,5.84,0,0,0,2.08,2.05c-.31-.2-.55,0-.8.34a4.65,4.65,0,0,0,.31,5.12,5,5,0,0,0,4,2.4l5.66,6.36h50.89l6-5.95s3.44-.46,4.91-2.59S250.4,348.94,249.33,348.64Z"/><path class="cls-20" d="M249.29,348.58c2.46-1.68,3-3.13,3-5.16a7.17,7.17,0,0,0-7.19-7.16h0a31.26,31.26,0,0,0-62.29,0,7.19,7.19,0,0,0-7.32,7.05v.1c0,8.64,12.28,7.65,12.28,3.76s-.15,8.48-.15,8.48v7.48h51.63s.24-11.76.24-16C239.53,346.94,244.25,352,249.29,348.58Z"/><path class="cls-9" d="M204.14,330a37.08,37.08,0,0,0,16.65,5.48c12.45.91,18.32-5.45,18.32-5.45"/><path class="cls-9" d="M204.78,323.68c3.53,3.22,10.47,6.36,17.64,6.88a30.5,30.5,0,0,0,5.49-.07"/><path class="cls-9" d="M221.44,308.61a29.7,29.7,0,0,0-3-.34c-8.62-.54-13.53,3.6-16.64,10.85-1.85,4.33-1.3,7.81-1.3,14.09"/><path class="cls-22" d="M192.64,358.16a4.89,4.89,0,1,1-4.89-4.89h0a4.89,4.89,0,0,1,4.89,4.89"/><path class="cls-22" d="M244.79,358.16a4.89,4.89,0,1,1-4.89-4.89h0a4.89,4.89,0,0,1,4.89,4.89"/><path class="cls-13" d="M201.6,331.27a14.29,14.29,0,0,1-13.85,14.23v10.82a26.59,26.59,0,0,0,53.17,0V335.48c-1.67.5-5,4.76-17.28,4.8C214.59,340.3,204.81,335.83,201.6,331.27Z"/><g class="cls-40"><path class="cls-14" d="M242.94,333.77s-.92.39-2.87,3.74c-1.7,2.93-4.1,6.6-4.1,6.6a1.54,1.54,0,0,1-.19.17c-4.56,3.16-10.72,5.73-21,5.73s-15.9-1.9-21.32-5.44c-.2-.14-.59-.46-.59-.46l-7-10.34s-.34-4.22,0-5c.48-1.14,1-2.4,6.26-.31,6.66,2.65,13.28,5.33,22.28,5.33,8.25,0,12.8-1.69,23.9-5.88.39-.14,2.79-1.23,4.12-.18S242.94,333.77,242.94,333.77Z"/><path class="cls-9" d="M201.6,331.27a14.29,14.29,0,0,1-13.85,14.23v10.82a26.59,26.59,0,0,0,53.17,0V335.48c-1.67.5-5,4.76-17.28,4.8C214.59,340.3,204.81,335.83,201.6,331.27Z"/><path class="cls-9" d="M201.6,331.27a14.29,14.29,0,0,1-13.85,14.23v10.82a26.59,26.59,0,0,0,53.17,0V335.48c-1.67.5-5,4.76-17.28,4.8C214.59,340.3,204.81,335.83,201.6,331.27Z"/></g><circle class="cls-11" cx="224.42" cy="353.27" r="3.26"/><path class="cls-11" d="M224.42,356.53a3.26,3.26,0,0,1-3.26-3.26h0a3.26,3.26,0,0,1,3.26-3.26,3.11,3.11,0,0,1,3.26,3v.3a3.26,3.26,0,0,1-3.26,3.26Z"/><circle class="cls-6" cx="222.79" cy="352.46" r="0.81"/><path class="cls-21" d="M228.68,347.87a7.85,7.85,0,0,0-3.49-1.69,8.89,8.89,0,0,0-3.95.64"/><circle class="cls-11" cx="204.05" cy="353.27" r="3.26"/><path class="cls-11" d="M204.05,356.53a3.26,3.26,0,0,0,0-6.52,3.11,3.11,0,0,0-3.26,3,1.5,1.5,0,0,0,0,.3,3.26,3.26,0,0,0,3.26,3.26Z"/><circle class="cls-6" cx="202.42" cy="352.45" r="0.81"/><path class="cls-21" d="M199,347.87a8,8,0,0,1,3.49-1.69,9,9,0,0,1,4,.64"/><path class="cls-9" d="M212.2,360.42a2.74,2.74,0,0,1,1.63-.43,2.78,2.78,0,0,1,1.63.43"/><path class="cls-23" d="M212.2,375.9a2.89,2.89,0,0,1,1.63-.43,2.93,2.93,0,0,1,1.63.43"/><path class="cls-11" d="M242.52,343.61c-2.15,2-7,3.05-10.81,1.37s-6.74-5-6.67-7.9c0-3.53,8.4-4.06,11.7-2.59,2.75,1.23,3.8.29,5.49,1.67C242.57,336.45,242,343.83,242.52,343.61Z"/><path class="cls-41" d="M241.87,344.56c-.05.05-.12,0-.13-.44v-1.48h-.07a11.49,11.49,0,0,1-9.95.71c-3.77-1.69-6.74-5-6.67-7.9,0-3.53,8.4-4.06,11.7-2.59,2.75,1.22,3.8.29,5.49,1.67.26.22,1.87,5.29,1.73,7.25A8.53,8.53,0,0,1,241.87,344.56Z"/><path class="cls-42" d="M245.81,333.49s-.22-1.43-.38-2.14c-3-13.65-8.25-26.16-31.27-26.16s-29.92,13.25-33,27.55C180.9,333.89,245.81,333.49,245.81,333.49Z"/><path class="cls-38" d="M193.2,311c3.28-2.78,7.16-5.94,11.43-7.18v29.66H193.2Z"/><path class="cls-38" d="M222.2,303.79a31,31,0,0,1,11.43,6.15v23.5H222.2Z"/><path class="cls-38" d="M208.82,302.89a.47.47,0,0,1,.33-.14h8.53a.48.48,0,0,1,.34.14h0v30.56h-9.2V303.09a.48.48,0,0,1,.14-.34Z"/><path class="cls-38" d="M234,336v1.07s-3.21,7.74-20.61,7.74-20.6-7.74-20.6-7.74V336Z"/><path class="cls-38" d="M178.79,328.53a167.05,167.05,0,0,0,35.08,4.08,130.14,130.14,0,0,0,33.65-4.6v7a127.46,127.46,0,0,1-33.65,4.4,164.24,164.24,0,0,1-35.08-3.88Z"/><path class="cls-23" d="M212.2,375.9a2.89,2.89,0,0,1,1.63-.43,2.93,2.93,0,0,1,1.63.43"/><path class="cls-9" d="M209.53,367.87a9.77,9.77,0,0,0,8.85,0"/><path class="cls-1" d="M288.16,387.84a2,2,0,0,0,.58-2.21c-.69-2.57-3.65-7-10.43-7s-9.73,4.36-10.46,6.93a2.06,2.06,0,0,0,.58,2.3C270.75,389.76,285.75,389.83,288.16,387.84Z"/><path class="cls-11" d="M288.84,386.37a2.8,2.8,0,0,0-.1-.74c-.69-2.57-3.64-7-10.43-7s-9.72,4.36-10.46,6.93a2.81,2.81,0,0,0-.12.79,1.87,1.87,0,0,0,.7,1.51c2.33,1.92,17.32,2,19.73,0a1.84,1.84,0,0,0,.68-1.47m2,0h0a3.84,3.84,0,0,1-1.41,3c-.55.46-1.66,1.12-4.77,1.54a48.86,48.86,0,0,1-6.4.38,48.29,48.29,0,0,1-6.38-.4c-3.09-.43-4.18-1.08-4.72-1.53a3.89,3.89,0,0,1-1.43-3.05,5.22,5.22,0,0,1,.19-1.34,11.53,11.53,0,0,1,3.61-5.41,13.43,13.43,0,0,1,8.78-3,13.28,13.28,0,0,1,8.8,3,11.22,11.22,0,0,1,3.56,5.48A4.93,4.93,0,0,1,290.84,386.36Z"/><path class="cls-35" d="M282.94,380.43h-9.32a1.9,1.9,0,1,1,0-3.8h9.32a1.91,1.91,0,1,1,0,3.8Z"/><path class="cls-11" d="M273.62,377.63a.91.91,0,1,0,0,1.8h9.32a.91.91,0,1,0,0-1.8h-9.32m0-2h9.32a2.9,2.9,0,1,1,0,5.8h-9.32a2.9,2.9,0,1,1,0-5.8Z"/><path class="cls-37" d="M290.42,411.7a1,1,0,0,1-1,1.05H267.83a1,1,0,0,1-1-1.05V388.54a1,1,0,0,1,1-1.05h21.55a1,1,0,0,1,1,1.05Z"/><path class="cls-30" d="M286.34,404.37a1,1,0,0,1-1,1.05H271.9a1.06,1.06,0,0,1-1-1.05v-6.05a1,1,0,0,1,1-1.05h13.4a1,1,0,0,1,1.05,1.05Z"/><path class="cls-15" d="M290.86,390.94H266.34a2.23,2.23,0,0,1,0-4.45h24.52a2.23,2.23,0,0,1,0,4.45Z"/><path class="cls-11" d="M266.34,387.49a1.23,1.23,0,0,0,0,2.45h24.52a1.23,1.23,0,0,0,0-2.45H266.34m0-2h24.52a3.23,3.23,0,0,1,0,6.45H266.34a3.23,3.23,0,0,1,0-6.45Z"/><path class="cls-43" d="M269.29,393.6h10.82"/><path class="cls-43" d="M283.46,393.6h1.66"/><path class="cls-9" d="M269.29,409.9h8.37"/><path class="cls-9" d="M281,409.9h1.66"/><path class="cls-28" d="M267.19,395.57a2.19,2.19,0,0,1-2.18-2.18V391c0-.11,0-.23,0-.33a2.59,2.59,0,0,1-.83-2,2.07,2.07,0,0,1,1.14-1.87,2.84,2.84,0,0,1,1-.3h9.66v2.18a2.19,2.19,0,0,1-2.18,2.18h-2a2.37,2.37,0,0,0-2.35,2.54A2.19,2.19,0,0,1,267.19,395.57Z"/><path class="cls-11" d="M266.39,387.49s-1.22.13-1.22,1.18a1.59,1.59,0,0,0,.76,1.49,3.55,3.55,0,0,1,.08.87v2.36a1.18,1.18,0,1,0,2.36,0,3.38,3.38,0,0,1,3.35-3.54h2a1.18,1.18,0,0,0,1.18-1.18v-1.18h-8.55m0-2h8.55a2,2,0,0,1,2,2v1.18a3.19,3.19,0,0,1-3.18,3.18h-2a1.4,1.4,0,0,0-1.35,1.54,3.18,3.18,0,1,1-6.36,0v-2.28a3.64,3.64,0,0,1-.84-2.44,3.23,3.23,0,0,1,3-3.17Z"/><path class="cls-13" d="M253.48,454.26c-2.13-.16-7.74-.23-11.57-5.6a12.85,12.85,0,0,1-2.23-7.63h0v-9.55a81.51,81.51,0,0,0,9.36.81,50.58,50.58,0,0,0,6.28-.27c.9-1.24,2-2.76,3-4.32a139.14,139.14,0,0,1,8.84-11.92,7.05,7.05,0,0,1,6.11-3,86.88,86.88,0,0,0,10.58-.26c3.11-.45,5.36-9.29,8.2-5.85,1.38,1.67-2.91,9.88-3.17,10.36-1.17,2.17-11.7,3.18-11.7,3.18s-2.86.79-3.81,3c-.65,1.47-2.6,9.31-6.56,16.37-5.12,9.13-11,14.69-13.26,14.69Z"/><path class="cls-9" d="M251.31,450.52a2.8,2.8,0,0,0,1.66.28,2.74,2.74,0,0,0,1.58-.57"/><path class="cls-9" d="M253.14,435.75l4.3-6.82Z"/><path class="cls-9" d="M251.43,435.94a1.62,1.62,0,0,1,1.63,0"/><path class="cls-20" d="M127.46,385.86a3.26,3.26,0,0,1,3.25-3.26h32.6a3.26,3.26,0,0,1,3.26,3.26V394a3.26,3.26,0,0,1-3.26,3.26h-32.6a3.26,3.26,0,0,1-3.25-3.26Z"/><path class="cls-29" d="M163.31,399.18a1,1,0,0,1-1,1h-9.85a3.08,3.08,0,0,0-3,3.06c0,6.18.22,18.77,1,22.34.25,1.08.49,2.1.67,3.07a4.15,4.15,0,0,1-3.55,4.4,4.09,4.09,0,0,1-4.56-3.57,4.61,4.61,0,0,1,0-.83c.17-.91.4-1.89.63-2.93.82-3.57,1-16.17,1.06-22.43a3.09,3.09,0,0,0-3-3.11h-9.88a1,1,0,0,1-1-1V395a1,1,0,0,1,1-1h30.56a1,1,0,0,1,1,1Z"/><path class="cls-30" d="M147,429.86a1.63,1.63,0,1,1,1.63-1.63,1.63,1.63,0,0,1-1.63,1.63Z"/><path class="cls-9" d="M143.4,396.88h11.41"/><path class="cls-9" d="M158.39,396.88H160"/><path class="cls-15" d="M159.23,390.12H134.79a4.26,4.26,0,0,1-4.26-4.26V381a4.26,4.26,0,0,1,4.26-4.26h24.44a4.26,4.26,0,0,1,4.26,4.26v4.89A4.26,4.26,0,0,1,159.23,390.12Z"/><path class="cls-11" d="M134.79,377.71a3.26,3.26,0,0,0-3.26,3.26v4.89a3.26,3.26,0,0,0,3.26,3.26h24.44a3.26,3.26,0,0,0,3.26-3.26V381a3.26,3.26,0,0,0-3.26-3.26H134.79m0-2h24.44a5.27,5.27,0,0,1,5.26,5.26v4.89a5.27,5.27,0,0,1-5.26,5.26H134.79a5.27,5.27,0,0,1-5.26-5.26V381A5.27,5.27,0,0,1,134.79,375.71Z"/><path class="cls-28" d="M149.9,384.92a2,2,0,0,1-2-2,2.11,2.11,0,0,0-4.22,0,2,2,0,0,1-4.07,0,2.11,2.11,0,0,0-2.1-2.11,2,2,0,0,1-2.05-2v-2.06h22.74v2a2,2,0,0,1-2,2h-2.07a2.11,2.11,0,0,0-2.11,2.11A2,2,0,0,1,149.9,384.92Z"/><path class="cls-11" d="M136.42,377.71v1.06a1,1,0,0,0,1.05,1,3.1,3.1,0,0,1,3.1,3.11,1,1,0,0,0,2.07,0,3.11,3.11,0,0,1,6.22,0,1,1,0,0,0,2.08,0,3.11,3.11,0,0,1,3.11-3.11h2.07a1,1,0,0,0,1-1v-1H136.42m0-2h20.74a2,2,0,0,1,2,2v1a3,3,0,0,1-3,3h-2.07a1.11,1.11,0,0,0-1.11,1.11,3,3,0,0,1-6.08,0,1.11,1.11,0,0,0-2.22,0,3,3,0,0,1-6.07,0,1.11,1.11,0,0,0-1.1-1.11,3,3,0,0,1-2.14-.86,3,3,0,0,1-.91-2.15v-1.06A2,2,0,0,1,136.42,375.71Z"/><path class="cls-13" d="M173.11,454.26c2.13-.16,7.74-.24,11.57-5.62a12.8,12.8,0,0,0,2.25-7.6h0v-9.58a79.33,79.33,0,0,1-9.36.81,50.35,50.35,0,0,1-6.26-.27c-.9-1.25-2-2.77-3-4.35a140.1,140.1,0,0,0-9.92-11.71c-.48-.52-2.65-8.39-6.61-8.25-.55,0-2.85,0-4.52,0h-1.64c-.9,0-.26,2.64-.9,2.9a8.17,8.17,0,0,1-3.4.4s-1,11-1,11c-.15.4,3.1,1,6.06.86,1.86-.08,5-.36,5-.36s1.4-.47,1.93.63c.7,1.48,2.58,9.33,6.54,16.4,5.1,9.13,11,14.7,13.23,14.7Z"/><path class="cls-31" d="M144.62,403.27c0,6.19-.21,18.77-1,22.34-.25,1.08-.48,2.11-.67,3.08a4.16,4.16,0,0,0,3.55,4.4,4.1,4.1,0,0,0,4.56-3.58,3.75,3.75,0,0,0,0-.82c-.17-.92-.4-1.9-.63-2.94-.82-3.57-1-16.16-1.06-22.43C149.38,401.59,144.6,401.58,144.62,403.27Z"/><path class="cls-29" d="M144.62,403.27c0,6.19-.21,18.77-1,22.34-.25,1.08-.48,2.11-.67,3.08a4.16,4.16,0,0,0,3.55,4.4,4.1,4.1,0,0,0,4.56-3.58,3.75,3.75,0,0,0,0-.82c-.17-.92-.4-1.9-.63-2.94-.82-3.57-1-16.16-1.06-22.43C149.38,401.59,144.6,401.58,144.62,403.27Z"/><path class="cls-30" d="M147,429.86a1.63,1.63,0,1,0-1.63-1.63h0A1.63,1.63,0,0,0,147,429.86Z"/><rect class="cls-13" x="139.7" y="409.49" width="8.15" height="3.27" rx="1.63"/><rect class="cls-13" x="138.17" y="412.75" width="9.68" height="3.27" rx="1.63"/><rect class="cls-13" x="138.82" y="416.01" width="9.02" height="3.27" rx="1.63"/><rect class="cls-13" x="139.96" y="419.27" width="7.88" height="3.27" rx="1.63"/><path class="cls-13" d="M144.34,408.68l-.27,3.48a1.62,1.62,0,0,0,1.26,1.72l.6.14.9-.21a1.66,1.66,0,0,0,1.23-1.28l.61-3.15s0,3.88,1.46,5.73,8.14,1.14,8.14,1.14v-.62a17.28,17.28,0,0,0-1.86-4.91,49.65,49.65,0,0,0-2.75-4.53c-.72-1-6.62-.77-6.62-.77a3.6,3.6,0,0,0-2,.77A4.66,4.66,0,0,0,144.34,408.68Z"/><path class="cls-27" d="M157.41,415.52l-3.07-1.14v1.22a.92.92,0,0,1,.59.83.85.85,0,0,1-.59.79v2l4.88-1.2Z"/><path class="cls-9" d="M175.53,450.52a3.33,3.33,0,0,1-3.25-.29"/><path class="cls-9" d="M173.7,435.75l-4.31-6.82Z"/><path class="cls-9" d="M175.41,435.94a1.41,1.41,0,0,0-.82-.22,1.36,1.36,0,0,0-.81.22"/><path class="cls-32" d="M287.4,509.75a2.27,2.27,0,0,1-1.17-.27.92.92,0,0,1-.47-.86v-.69a3.2,3.2,0,0,0,.92.13,1.55,1.55,0,0,0,1.64-1.35,55.26,55.26,0,0,1-3.89-8.8h2.45a40.77,40.77,0,0,0,2.41,6.43l2-6.43h2.18v.2l-3.13,8.44C290.08,508.67,289.07,509.75,287.4,509.75Zm-60.8-.18h-2V498.9c0-.51.11-.82.32-.92a5.7,5.7,0,0,1,1.7-.14v1.78a3.41,3.41,0,0,1,3.18-1.89,3,3,0,0,1,2.52,1.13,4.78,4.78,0,0,1,.88,3,5.39,5.39,0,0,1-1.14,3.47,3.54,3.54,0,0,1-2.91,1.44,2.93,2.93,0,0,1-2.53-1.19v4Zm2.52-10.17a2,2,0,0,0-1.72,1,4.28,4.28,0,0,0-.64,2.44,2.54,2.54,0,0,0,.51,1.57,1.65,1.65,0,0,0,1.4.69,2,2,0,0,0,1.75-.93,3.75,3.75,0,0,0,.64-2.2,3.17,3.17,0,0,0-.48-1.8A1.63,1.63,0,0,0,229.12,499.4Zm-41.29,10.17h-2V498.9c0-.51.11-.82.31-.92a5.73,5.73,0,0,1,1.7-.14v1.78a3.43,3.43,0,0,1,3.19-1.89,3,3,0,0,1,2.52,1.13,4.84,4.84,0,0,1,.88,3,5.44,5.44,0,0,1-1.14,3.47,3.55,3.55,0,0,1-2.91,1.44,2.93,2.93,0,0,1-2.53-1.19v4Zm2.52-10.17a2,2,0,0,0-1.72,1,4.2,4.2,0,0,0-.64,2.44,2.54,2.54,0,0,0,.51,1.57,1.65,1.65,0,0,0,1.4.69,2,2,0,0,0,1.76-.93,3.81,3.81,0,0,0,.63-2.2,3.16,3.16,0,0,0-.47-1.8A1.63,1.63,0,0,0,190.35,499.4Zm69.8,7.38a4.05,4.05,0,0,1-3.14-1.3,4.9,4.9,0,0,1-1.18-3.41,4.34,4.34,0,0,1,1.14-3.2,5,5,0,0,1,6.36,0,4.34,4.34,0,0,1,1.14,3.2,4.91,4.91,0,0,1-1.19,3.41,4,4,0,0,1-3.13,1.3Zm0-7.38a2,2,0,0,0-1.67.71,3.23,3.23,0,0,0-.53,2,3.76,3.76,0,0,0,.57,2.12,2,2,0,0,0,3.26,0,3.77,3.77,0,0,0,.58-2.12,3.17,3.17,0,0,0-.54-2,2,2,0,0,0-1.67-.71Zm-21.35,7.38a4.28,4.28,0,0,1-3.2-1.24,5,5,0,0,1-1.2-3.58,4.06,4.06,0,0,1,3.88-4.23h.37a3.69,3.69,0,0,1,2.84,1.1,4.17,4.17,0,0,1,1,2.95c0,.8-.49,1.21-1.46,1.21h-4.42c.31,1.41,1.34,2.12,3.06,2.12a6.64,6.64,0,0,0,2.2-.41v.6a1.22,1.22,0,0,1-.92,1.12,6.09,6.09,0,0,1-2.16.36Zm-.2-7.54c-1.29,0-2,.79-2.07,2.36h3.35a.44.44,0,0,0,.37-.16.61.61,0,0,0,.13-.36,1.81,1.81,0,0,0-.49-1.35,1.75,1.75,0,0,0-1.29-.49Zm-24.21,7.54a4,4,0,0,1-3.13-1.3,4.91,4.91,0,0,1-1.19-3.41,4.35,4.35,0,0,1,1.15-3.2,5,5,0,0,1,6.35,0,4.34,4.34,0,0,1,1.14,3.2,4.9,4.9,0,0,1-1.18,3.41A4,4,0,0,1,214.39,506.78Zm0-7.38a2,2,0,0,0-1.66.71,3.25,3.25,0,0,0-.53,2,3.68,3.68,0,0,0,.57,2.12,2,2,0,0,0,3.26,0,3.77,3.77,0,0,0,.58-2.12,3.24,3.24,0,0,0-.54-2A2,2,0,0,0,214.39,499.4Zm-34,7.38a4.26,4.26,0,0,1-3.19-1.24A4.94,4.94,0,0,1,176,502a4,4,0,0,1,3.87-4.23h.38a3.66,3.66,0,0,1,2.83,1.1,4.18,4.18,0,0,1,1,2.95c0,.8-.49,1.2-1.46,1.2h-4.43c.31,1.41,1.34,2.13,3.06,2.13a6.37,6.37,0,0,0,2.2-.42v.61a1.19,1.19,0,0,1-.91,1.12,6.18,6.18,0,0,1-2.17.36Zm-.2-7.54c-1.29,0-2,.79-2.07,2.36h3.35a.45.45,0,0,0,.38-.16.54.54,0,0,0,.12-.36,1.8,1.8,0,0,0-.48-1.35A1.75,1.75,0,0,0,180.19,499.24ZM163,506.78a4.12,4.12,0,0,1-3.19-1.28,5.11,5.11,0,0,1-1.17-3.56,4,4,0,0,1,1.26-3.07,4.6,4.6,0,0,1,3.23-1.14,4.12,4.12,0,0,1,2.24.57,1.87,1.87,0,0,1,.91,1.66,1.18,1.18,0,0,1-.33.89,1.15,1.15,0,0,1-.83.31h-.61v-.36a1.31,1.31,0,0,0-1.13-1.46,1.45,1.45,0,0,0-.36,0,2.05,2.05,0,0,0-1.62.74,2.8,2.8,0,0,0-.63,1.86,3.36,3.36,0,0,0,.75,2.32,3,3,0,0,0,2.3.83,6,6,0,0,0,2.13-.42v.56a1.24,1.24,0,0,1-.88,1.18A5.24,5.24,0,0,1,163,506.78Zm-11,0a2.4,2.4,0,0,1-1.95-.79,2.85,2.85,0,0,1-.66-1.85c0-1.46,1.07-2.3,3.18-2.52l2.24-.24v-.05c-.08-1.33-.88-2-2.4-2a6,6,0,0,0-2.2.5v-.59a1,1,0,0,1,.52-.85,3.64,3.64,0,0,1,1.18-.51,6,6,0,0,1,1.34-.15,3.59,3.59,0,0,1,2.59.87,3.86,3.86,0,0,1,1,2.6l.3,4.56a1.07,1.07,0,0,1-.07.53.6.6,0,0,1-.4.27,4.09,4.09,0,0,1-.61.1l-1,0-.09-1.53A3.47,3.47,0,0,1,152.06,506.78Zm2.84-4.12-2,.25a1.65,1.65,0,0,0-.87.39,1,1,0,0,0-.32.75,1.4,1.4,0,0,0,.31.92,1.12,1.12,0,0,0,.88.36,1.68,1.68,0,0,0,1.4-.8A3.46,3.46,0,0,0,154.9,502.66Zm117.42,4h0v-3.43h-4v3.36h-2v-7.7c0-.51.11-.82.32-.92a5.7,5.7,0,0,1,1.7-.14v3.76h4v-3.69h2v7.68c0,.52-.1.83-.31.93A5.33,5.33,0,0,1,272.32,506.67Zm-20.14,0h0v-5.85q-1,2.35-2.16,4.59a4.91,4.91,0,0,1-1.77.33c-.92-1.88-1.66-3.52-2.2-4.9v5.76h-1.83v-8.22a6.14,6.14,0,0,1,2.52-.6,38.15,38.15,0,0,0,2.41,5.71,46.24,46.24,0,0,0,2.3-5.19,6.18,6.18,0,0,1,2.54-.52v7.92q0,.71-.3.84A4.83,4.83,0,0,1,252.18,506.67Zm-45.92,0h0v-5.8a1.39,1.39,0,0,0-.27-.94,1.11,1.11,0,0,0-.87-.3h-2.84v7h-2V499c0-.51.11-.82.32-.92a5.7,5.7,0,0,1,1.7-.14h3.24a3.1,3.1,0,0,1,2.13.57,2.79,2.79,0,0,1,.6,2v5.07c0,.52-.1.83-.31.93A5.3,5.3,0,0,1,206.26,506.67Zm-60.72,0h0v-8.24a62.56,62.56,0,0,1-3.1,6.64,6.07,6.07,0,0,1-2.07.38,72.49,72.49,0,0,1-3.13-7v8.19h-2V495.46a8.22,8.22,0,0,1,2.81-.56,70.05,70.05,0,0,0,3.38,8c1.09-2.16,2.19-4.66,3.26-7.41a7.77,7.77,0,0,1,2.9-.58v10.55c0,.6-.1.95-.3,1.06A5.1,5.1,0,0,1,145.54,506.67Zm135.24-.07h-2v-6.91h-2.88v-1.78h7.22a.51.51,0,0,1,.57.36,5.64,5.64,0,0,1,.11,1.42h-3Zm-108.54,0h-2v-6.91h-2.88v-1.78h7.22a.53.53,0,0,1,.58.36,5.63,5.63,0,0,1,.1,1.42h-3Z"/></g></g></svg>