<svg xmlns="http://www.w3.org/2000/svg" width="26.589" height="35.195" viewBox="0 0 26.589 35.195"><g transform="translate(-7 -1.806)"><g transform="translate(7 1)"><path d="M18.544,35.194H2a2,2,0,0,1-2-2V7.032a2,2,0,0,1,2-2H13.13A7.417,7.417,0,0,0,13,6.322H2.284a1,1,0,0,0-1,1v2.869H14.031A7.482,7.482,0,0,0,15,11.48H1.284V28.1H19.259V13.748a7.4,7.4,0,0,0,1.16.091h.124V33.195A2,2,0,0,1,18.544,35.194ZM1.284,29.39V32.9a1,1,0,0,0,1,1H18.259a1,1,0,0,0,1-1V29.39Zm8.987,3.224a.967.967,0,1,1,.963-.967A.966.966,0,0,1,10.272,32.614ZM20.46,12.258a6.129,6.129,0,1,1,6.129-6.129A6.136,6.136,0,0,1,20.46,12.258Zm0-10.967A4.838,4.838,0,1,0,25.3,6.129,4.844,4.844,0,0,0,20.46,1.291ZM11.876,8.9H8.667V7.611h3.209V8.9Z" transform="translate(0 0.806)" fill="#c6c7c8"/><g transform="translate(5 15)"><path d="M2.228,6.945a1.493,1.493,0,0,1-.162-.009,2.064,2.064,0,0,1-1.732-1.8,1.116,1.116,0,0,1,1-1.277L1.2,2.534A2.024,2.024,0,0,1,0,.991.9.9,0,0,1,.222.286.964.964,0,0,1,.945,0a1.519,1.519,0,0,1,.377.05A2.092,2.092,0,0,1,2.83,1.641a.942.942,0,0,1-.178.737.905.905,0,0,1-.657.318l.151,1.309A2.1,2.1,0,0,1,3.359,5.575a1.241,1.241,0,0,1-.266,1A1.125,1.125,0,0,1,2.228,6.945ZM1.72,4.681a.508.508,0,0,0-.383.159.545.545,0,0,0-.127.427.921.921,0,0,0,.761.791.676.676,0,0,0,.085.005A.5.5,0,0,0,2.441,5.9a.552.552,0,0,0,.122-.44.938.938,0,0,0-.74-.771A.683.683,0,0,0,1.72,4.681ZM1.238.726a.43.43,0,0,0-.324.13.409.409,0,0,0-.1.322.925.925,0,0,0,.706.741.654.654,0,0,0,.141.016A.429.429,0,0,0,1.993,1.8a.41.41,0,0,0,.091-.333A.942.942,0,0,0,1.4.746.657.657,0,0,0,1.238.726Z" transform="translate(4.091 0.002)" fill="#c6c7c8"/><path d="M.382,1.85q.044.057.092.111a2.047,2.047,0,0,0,.151.154q.053.048.108.092t.113.083c.039.026.078.051.118.074l.06.033a1.578,1.578,0,0,0,.184.082,1.34,1.34,0,0,0,.251.066,1.07,1.07,0,0,0,.239.012.866.866,0,0,0,.161-.025l.05-.015A.741.741,0,0,0,2,2.48a.706.706,0,0,0,.085-.049.691.691,0,0,0,.076-.059.705.705,0,0,0,.1-.107.78.78,0,0,0,.053-.082c.008-.014.016-.029.023-.044A1.069,1.069,0,0,0,2.4,1.476,1.8,1.8,0,0,0,2.116.813a2.094,2.094,0,0,0-.21-.261C1.861.5,1.813.457,1.763.413L1.712.371A1.652,1.652,0,0,0,1.031.027.919.919,0,0,0,.4.091L.358.115A.7.7,0,0,0,.243.2.73.73,0,0,0,.1.4a1.028,1.028,0,0,0-.082.623,1.787,1.787,0,0,0,.325.768l.043.058" transform="translate(7.883 2.597)" fill="#c6c7c8"/><path d="M2.3.895,2.261.838A1.751,1.751,0,0,0,1.079.009.9.9,0,0,0,.083.6Q.073.628.064.655C.058.672.053.688.048.705a1.477,1.477,0,0,0-.03.614A1.89,1.89,0,0,0,1.579,2.944c.7.039,1.124-.594.971-1.392a2.026,2.026,0,0,0-.223-.6L2.3.895" transform="translate(8.518 6.622)" fill="#c6c7c8"/><path d="M2.774.679A2.222,2.222,0,0,0,2.6.516L2.538.465A2.221,2.221,0,0,0,1.649.044,1.653,1.653,0,0,0,.744.083L.679.108A1.217,1.217,0,0,0,.5.2a1.089,1.089,0,0,0-.25.215,1.067,1.067,0,0,0-.249.7,1.578,1.578,0,0,0,.3.892c.016.023.032.046.049.068q.051.067.108.131a2.2,2.2,0,0,0,.184.182q.065.058.136.11c.047.035.1.069.145.1s.1.061.153.089l.079.04a2.244,2.244,0,0,0,.245.1,2.071,2.071,0,0,0,.343.086,1.839,1.839,0,0,0,.336.023,1.609,1.609,0,0,0,.233-.023l.073-.015a1.368,1.368,0,0,0,.14-.04,1.318,1.318,0,0,0,.13-.052,1.227,1.227,0,0,0,.12-.065,1.134,1.134,0,0,0,.158-.118,1.076,1.076,0,0,0,.091-.091c.014-.016.028-.032.041-.049a1.087,1.087,0,0,0,.217-.748A1.592,1.592,0,0,0,3.016.983a2.071,2.071,0,0,0-.242-.3" transform="translate(0.109 1.021)" fill="#c6c7c8"/><path d="M3.353,1.076q-.019-.034-.039-.067A2.1,2.1,0,0,0,1.8.015,1.587,1.587,0,0,0,.247.675C.234.7.22.716.208.738S.185.776.175.8A1.525,1.525,0,0,0,0,1.515,2.035,2.035,0,0,0,1.914,3.462,1.514,1.514,0,0,0,3.582,1.844a1.819,1.819,0,0,0-.2-.707c-.01-.021-.021-.041-.033-.062" transform="translate(0.109 5.652)" fill="#c6c7c8"/><path d="M2.94,1.163c-.011-.025-.023-.051-.036-.075-.025-.05-.051-.1-.079-.146S2.767.848,2.736.8s-.065-.088-.1-.13L2.584.612Q2.531.553,2.474.5C2.45.475,2.425.453,2.4.431S2.327.37,2.289.341,2.228.3,2.2.277A1.787,1.787,0,0,0,1.952.141,1.627,1.627,0,0,0,1.733.06,1.546,1.546,0,0,0,1.582.024,1.5,1.5,0,0,0,1.427,0a1.363,1.363,0,0,0-.3.01,1.263,1.263,0,0,0-.212.05L.845.088A1.242,1.242,0,0,0,.594.222L.537.265A1.273,1.273,0,0,0,.378.411a1.376,1.376,0,0,0-.21.306C.149.756.132.795.116.835L.1.883a1.73,1.73,0,0,0-.091.729A2.107,2.107,0,0,0,.664,2.965l.065.058A1.658,1.658,0,0,0,1.8,3.447,1.322,1.322,0,0,0,3.1,2.232a1.855,1.855,0,0,0,0-.5A2.044,2.044,0,0,0,3.029,1.4a2.125,2.125,0,0,0-.089-.236" transform="translate(4.893 8.435)" fill="#c6c7c8"/></g><path d="M0,4.849A2.9,2.9,0,0,1,2.475,3.693a2.9,2.9,0,0,1,2.472,1.15A3.227,3.227,0,0,1,0,4.849ZM1.091,1.384A1.384,1.384,0,1,1,2.475,2.769,1.386,1.386,0,0,1,1.091,1.384Z" transform="translate(18 4)" fill="#c6c7c8"/></g></g></svg>