<svg xmlns="http://www.w3.org/2000/svg" width="26.589" height="35.195" viewBox="0 0 26.589 35.195"><g transform="translate(-7 -2)"><g transform="translate(7 2)"><path d="M18.544,35.194H2a2,2,0,0,1-2-2V7.032a2,2,0,0,1,2-2H13.13A7.417,7.417,0,0,0,13,6.322H2.284a1,1,0,0,0-1,1v2.869H14.031A7.482,7.482,0,0,0,15,11.48H1.284V28.1H19.259V13.748a7.4,7.4,0,0,0,1.16.091h.124V33.195A2,2,0,0,1,18.544,35.194ZM1.284,29.39V32.9a1,1,0,0,0,1,1H18.259a1,1,0,0,0,1-1V29.39Zm8.987,3.224a.967.967,0,1,1,.963-.967A.966.966,0,0,1,10.272,32.614ZM20.46,12.258a6.129,6.129,0,1,1,6.129-6.129A6.136,6.136,0,0,1,20.46,12.258Zm0-10.967A4.838,4.838,0,1,0,25.3,6.129,4.844,4.844,0,0,0,20.46,1.291ZM11.876,8.9H8.667V7.611h3.209V8.9Z" fill="#c6c7c8"/><g transform="translate(7 14)"><path d="M3.817,2.562V1.776A1.838,1.838,0,0,0,1.908,0,1.836,1.836,0,0,0,0,1.776l0,.786Z" transform="translate(1.515 0.701)" fill="none" stroke="#c6c7c8" stroke-miterlimit="10" stroke-width="1"/><g transform="translate(0.029 3.754)" fill="none" stroke="#c6c7c8" stroke-miterlimit="10" stroke-width="1"><rect width="6.912" height="5.689" rx="1" stroke="none"/><rect x="-0.5" y="-0.5" width="7.912" height="6.689" rx="1.5" fill="none"/></g><rect width="6.912" height="5.689" rx="1" transform="translate(0.029 3.754)" fill="none"/><path d="M.034,2.273.27,1.219A.675.675,0,1,1,1.345.677a.677.677,0,0,1-.27.542l.235,1.053Z" transform="translate(2.812 5.673)" fill="#c6c7c8"/></g><path d="M0,4.849A2.9,2.9,0,0,1,2.475,3.693a2.9,2.9,0,0,1,2.472,1.15A3.227,3.227,0,0,1,0,4.849ZM1.091,1.384A1.384,1.384,0,1,1,2.475,2.769,1.386,1.386,0,0,1,1.091,1.384Z" transform="translate(18 3)" fill="#c6c7c8"/></g></g></svg>