<svg xmlns="http://www.w3.org/2000/svg" viewBox="0 0 26.59 35.19"><defs><style>.cls-1{fill:#c6c7c8;}.cls-2,.cls-3{fill:none;}.cls-2{stroke:#c6c7c8;stroke-miterlimit:10;}</style></defs><title>Asset 1</title><g id="Layer_2" data-name="Layer 2"><g id="Layer_1-2" data-name="Layer 1"><path class="cls-1" d="M18.54,35.19H2a2,2,0,0,1-2-2V7A2,2,0,0,1,2,5H13.13A8.06,8.06,0,0,0,13,6.32H2.28a1,1,0,0,0-1,1v2.87H14a7.64,7.64,0,0,0,1,1.29H1.28V28.1h18V13.75a7.46,7.46,0,0,0,1.16.09h.12V33.19A2,2,0,0,1,18.54,35.19ZM1.28,29.39V32.9a1,1,0,0,0,1,1h16a1,1,0,0,0,1-1V29.39Zm9,3.22a1,1,0,0,1-1-1,1,1,0,0,1,1.93,0h0a1,1,0,0,1-1,1ZM20.46,12.26a6.13,6.13,0,1,1,6.13-6.13h0A6.14,6.14,0,0,1,20.46,12.26Zm0-11A4.84,4.84,0,1,0,25.3,6.13,4.84,4.84,0,0,0,20.46,1.29ZM11.88,8.9H8.67V7.61h3.21Z"/><path class="cls-2" d="M12.33,17.26v-.78a1.84,1.84,0,0,0-1.9-1.78h0a1.83,1.83,0,0,0-1.9,1.76v.8Z"/><rect class="cls-3" x="7.03" y="17.75" width="6.91" height="5.69" rx="1"/><rect class="cls-2" x="6.53" y="17.25" width="7.91" height="6.69" rx="1.5"/><rect class="cls-3" x="7.03" y="17.75" width="6.91" height="5.69" rx="1"/><path class="cls-1" d="M9.85,22l.23-1.06a.68.68,0,1,1,1.08-.54.68.68,0,0,1-.27.54l.23,1.05Z"/><path class="cls-1" d="M18,7.85a2.89,2.89,0,0,1,2.47-1.16A2.91,2.91,0,0,1,23,7.84a3.23,3.23,0,0,1-4.55.41A3.78,3.78,0,0,1,18,7.85Zm1.09-3.47a1.39,1.39,0,1,1,1.38,1.39A1.38,1.38,0,0,1,19.09,4.38Z"/></g></g></svg>