<svg xmlns="http://www.w3.org/2000/svg" width="35.806" height="30" viewBox="0 0 35.806 30"><g transform="translate(-2 -4)"><g transform="translate(2 4)"><path d="M25.1,30H2a2,2,0,0,1-2-2V10.065a2,2,0,0,1,2-2H22.485a7.426,7.426,0,0,0,.491,1.29H2.29a1,1,0,0,0-1,1V27.71a1,1,0,0,0,1,1H24.807a1,1,0,0,0,1-1V12.442a7.463,7.463,0,0,0,1.291.619V28A2,2,0,0,1,25.1,30Zm3.291-3.226h0V25.419a1,1,0,0,0,.645-.935v-11c.2.016.406.024.6.024.226,0,.457-.011.686-.031v11.3A1.991,1.991,0,0,1,28.388,26.773Zm1.29-14.515a6.129,6.129,0,1,1,6.129-6.129A6.136,6.136,0,0,1,29.677,12.258Zm0-10.967a4.838,4.838,0,1,0,4.838,4.838A4.844,4.844,0,0,0,29.677,1.291ZM4.581,6.774H3.226a1.992,1.992,0,0,1,2-1.936h17.1a7.5,7.5,0,0,0-.105,1.25v.04H5.516a1.006,1.006,0,0,0-.935.644Z" fill="#c6c7c8"/><g transform="translate(27.097 3.548)"><path d="M1.936,5.161V3.226H0V1.936H1.936V0h1.29V1.936H5.161v1.29H3.226V5.161Z" fill="#c6c7c8"/></g><g transform="translate(3.226 12.258)"><g transform="translate(0 9.677)"><rect width="20.645" height="1.29" fill="#c6c7c8"/><rect width="20.645" height="1.29" transform="translate(0 2.581)" fill="#c6c7c8"/></g><g transform="translate(9.677 1.935)"><rect width="10.968" height="1.29" fill="#c6c7c8"/><rect width="7.097" height="1.29" transform="translate(0 2.581)" fill="#c6c7c8"/></g><path d="M0,3.389A2.024,2.024,0,0,1,1.73,2.58a2.028,2.028,0,0,1,1.728.8A2.256,2.256,0,0,1,0,3.389ZM.762.968a.968.968,0,1,1,.967.968A.968.968,0,0,1,.762.968Z" transform="translate(2.144 1.935)" fill="#c6c7c8"/><path d="M3.871,7.742A3.871,3.871,0,1,1,7.742,3.871,3.875,3.875,0,0,1,3.871,7.742Zm0-6.774a2.9,2.9,0,1,0,2.9,2.9A2.907,2.907,0,0,0,3.871.968Z" fill="#c6c7c8"/></g></g></g></svg>