<svg xmlns="http://www.w3.org/2000/svg" width="35.806" height="30.542" viewBox="0 0 35.806 30.542"><g transform="translate(-2 -4)"><path d="M6.333,30.542V27.209H3.167A3.17,3.17,0,0,1,0,24.043V9.167A3.17,3.17,0,0,1,3.167,6H22.218c0,.03,0,.059,0,.088A7.428,7.428,0,0,0,22.3,7.167H3.167a2,2,0,0,0-2,2V24.043a2,2,0,0,0,2,2H7.5V28.21l3.678-2.167H27.067a2,2,0,0,0,2-2V13.486c.18.014.371.022.571.022s.4-.008.6-.023V24.043a3.17,3.17,0,0,1-3.167,3.166H11.777L6.335,30.542ZM29.677,12.258a6.129,6.129,0,1,1,6.129-6.129A6.136,6.136,0,0,1,29.677,12.258Zm0-10.967a4.838,4.838,0,1,0,4.838,4.838A4.844,4.844,0,0,0,29.677,1.291Z" transform="translate(2 4)" fill="#c6c7c8"/><path d="M1.25,6H0V4.75L3.686,1.064l1.249,1.25L1.25,6ZM5.293,1.957h0L4.043.707,4.653.1a.332.332,0,0,1,.47,0L5.9.877a.331.331,0,0,1,0,.47l-.609.609Z" transform="translate(29 7)" fill="#c6c7c8"/><g transform="translate(5 12)"><g transform="translate(9.903 2.194)"><rect width="10.968" height="1.29" fill="#c6c7c8"/><rect width="7.097" height="1.29" transform="translate(0 2.581)" fill="#c6c7c8"/></g><g transform="translate(0.226 0.258)"><path d="M0,3.389A2.024,2.024,0,0,1,1.73,2.58a2.028,2.028,0,0,1,1.728.8A2.256,2.256,0,0,1,0,3.389ZM.762.968a.968.968,0,1,1,.967.968A.968.968,0,0,1,.762.968Z" transform="translate(2.144 1.935)" fill="#c6c7c8"/><path d="M3.871,7.742A3.871,3.871,0,1,1,7.742,3.871,3.875,3.875,0,0,1,3.871,7.742Zm0-6.774a2.9,2.9,0,1,0,2.9,2.9A2.907,2.907,0,0,0,3.871.968Z" fill="#c6c7c8"/></g></g><g transform="translate(5 21)"><g transform="translate(9.903 2.194)"><rect width="10.968" height="1.29" fill="#c6c7c8"/><rect width="7.097" height="1.29" transform="translate(0 2.581)" fill="#c6c7c8"/></g><g transform="translate(0.226 0.258)"><path d="M0,3.389A2.024,2.024,0,0,1,1.73,2.58a2.028,2.028,0,0,1,1.728.8A2.256,2.256,0,0,1,0,3.389ZM.762.968a.968.968,0,1,1,.967.968A.968.968,0,0,1,.762.968Z" transform="translate(2.144 1.935)" fill="#c6c7c8"/><path d="M3.871,7.742A3.871,3.871,0,1,1,7.742,3.871,3.875,3.875,0,0,1,3.871,7.742Zm0-6.774a2.9,2.9,0,1,0,2.9,2.9A2.907,2.907,0,0,0,3.871.968Z" fill="#c6c7c8"/></g></g></g></svg>