<svg xmlns="http://www.w3.org/2000/svg" width="26.589" height="35.195" viewBox="0 0 26.589 35.195"><g transform="translate(-7 -1.806)"><g transform="translate(7 1)"><path d="M18.544,35.194H2a2,2,0,0,1-2-2V7.032a2,2,0,0,1,2-2H13.13A7.417,7.417,0,0,0,13,6.322H2.284a1,1,0,0,0-1,1v2.869H14.031A7.482,7.482,0,0,0,15,11.48H1.284V28.1H19.259V13.748a7.4,7.4,0,0,0,1.16.091h.124V33.195A2,2,0,0,1,18.544,35.194ZM1.284,29.39V32.9a1,1,0,0,0,1,1H18.259a1,1,0,0,0,1-1V29.39Zm8.987,3.224a.967.967,0,1,1,.963-.967A.966.966,0,0,1,10.272,32.614ZM20.46,12.258a6.129,6.129,0,1,1,6.129-6.129A6.136,6.136,0,0,1,20.46,12.258Zm0-10.967A4.838,4.838,0,1,0,25.3,6.129,4.844,4.844,0,0,0,20.46,1.291ZM11.876,8.9H8.667V7.611h3.209V8.9Z" transform="translate(0 0.806)" fill="#c6c7c8"/><path d="M5.233,6h0L3.813,4.584V4.3L3.508,4a2.191,2.191,0,0,1-1.3.421,2.21,2.21,0,1,1,2.21-2.21A2.19,2.19,0,0,1,4,3.508l.305.3h.28L6,5.233,5.233,6ZM2.21.948A1.263,1.263,0,1,0,3.474,2.21,1.264,1.264,0,0,0,2.21.948Z" transform="translate(17.59 3.792)" fill="#c6c7c8"/><g transform="translate(3 14)"><g transform="translate(7.098 0.968)"><rect width="6.97" height="1.291" fill="#c6c7c8"/><rect width="4.098" height="1.291" transform="translate(0 2.581)" fill="#c6c7c8"/></g><path d="M0,2.335a1.245,1.245,0,0,1,1.248-.721A1.262,1.262,0,0,1,2.486,2.3,1.611,1.611,0,0,1,0,2.335ZM.613.645a.645.645,0,1,1,.645.645A.646.646,0,0,1,.613.645Z" transform="translate(1.646 1.613)" fill="#c6c7c8"/><path d="M2.9,5.808a2.9,2.9,0,1,1,2.9-2.9A2.907,2.907,0,0,1,2.9,5.808ZM2.9.871A2.033,2.033,0,1,0,4.937,2.9,2.035,2.035,0,0,0,2.9.871Z" fill="#c6c7c8"/></g><g transform="translate(3 22)"><g transform="translate(7.098 0.968)"><rect width="6.97" height="1.291" fill="#c6c7c8"/><rect width="4.098" height="1.291" transform="translate(0 2.581)" fill="#c6c7c8"/></g><path d="M0,2.335a1.245,1.245,0,0,1,1.248-.721A1.262,1.262,0,0,1,2.486,2.3,1.611,1.611,0,0,1,0,2.335ZM.613.645a.645.645,0,1,1,.645.645A.646.646,0,0,1,.613.645Z" transform="translate(1.646 1.613)" fill="#c6c7c8"/><path d="M2.9,5.808a2.9,2.9,0,1,1,2.9-2.9A2.907,2.907,0,0,1,2.9,5.808ZM2.9.871A2.033,2.033,0,1,0,4.937,2.9,2.035,2.035,0,0,0,2.9.871Z" fill="#c6c7c8"/></g></g></g></svg>