<svg xmlns="http://www.w3.org/2000/svg" xmlns:xlink="http://www.w3.org/1999/xlink" width="100" height="100" viewBox="0 0 100 100"><defs><clipPath id="a"><path d="M50,0C10,0,0,10,0,50s10,50,50,50,50-10,50-50S90,0,50,0Z" fill="none"/></clipPath><radialGradient id="b" cx="25.101" cy="9.354" r="139.811" gradientTransform="translate(5.678 2.116) scale(0.774 0.774)" gradientUnits="userSpaceOnUse"><stop offset="0" stop-opacity="0.149"/><stop offset="0.142" stop-opacity="0.149"/><stop offset="0.643" stop-opacity="0.02"/><stop offset="1" stop-opacity="0"/></radialGradient><radialGradient id="c" cx="41.307" cy="41.228" r="98.818" gradientUnits="userSpaceOnUse"><stop offset="0" stop-color="#fff" stop-opacity="0.102"/><stop offset="1" stop-color="#fff" stop-opacity="0"/></radialGradient><linearGradient id="d" x1="0.5" x2="0.5" y2="1" gradientUnits="objectBoundingBox"><stop offset="0" stop-color="#fcfcfc"/><stop offset="1" stop-color="#efefef"/></linearGradient><linearGradient id="e" x1="-0.076" y1="0.02" x2="0.47" y2="0.748" gradientUnits="objectBoundingBox"><stop offset="0" stop-color="#00e4f9"/><stop offset="1" stop-color="#009dff"/></linearGradient></defs><path d="M50,0C10,0,0,10,0,50s10,50,50,50,50-10,50-50S90,0,50,0Z" fill="none"/><g clip-path="url(#a)"><g transform="translate(-25 -25)"><rect width="150" height="150" fill="rgba(0,0,0,0)"/><rect width="150" height="150" fill="#2196f3"/><path d="M1,0V150" transform="translate(136.5)" fill="none" stroke="rgba(255,255,255,0.6)" stroke-miterlimit="10" stroke-width="0.4"/><path d="M1,0V150" transform="translate(122.611)" fill="none" stroke="rgba(255,255,255,0.3)" stroke-miterlimit="10" stroke-width="0.4"/><path d="M1,0V150" transform="translate(108.722)" fill="none" stroke="rgba(255,255,255,0.6)" stroke-miterlimit="10" stroke-width="0.4"/><path d="M1,0V150" transform="translate(94.833)" fill="none" stroke="rgba(255,255,255,0.6)" stroke-miterlimit="10" stroke-width="0.4"/><path d="M1,0V150" transform="translate(80.944)" fill="none" stroke="rgba(255,255,255,0.6)" stroke-miterlimit="10" stroke-width="0.4"/><path d="M1,0V150" transform="translate(67.056)" fill="none" stroke="rgba(255,255,255,0.6)" stroke-miterlimit="10" stroke-width="0.4"/><path d="M1,0V150" transform="translate(53.167)" fill="none" stroke="rgba(255,255,255,0.6)" stroke-miterlimit="10" stroke-width="0.4"/><path d="M1,0V150" transform="translate(39.278)" fill="none" stroke="rgba(255,255,255,0.6)" stroke-miterlimit="10" stroke-width="0.4"/><path d="M1,0V150" transform="translate(25.389)" fill="none" stroke="rgba(255,255,255,0.3)" stroke-miterlimit="10" stroke-width="0.4"/><path d="M1,0V150" transform="translate(11.5)" fill="none" stroke="rgba(255,255,255,0.6)" stroke-miterlimit="10" stroke-width="0.4"/><path d="M0,0V150" transform="translate(0 137.5) rotate(-90)" fill="none" stroke="rgba(255,255,255,0.6)" stroke-miterlimit="10" stroke-width="0.4"/><path d="M0,0V150" transform="translate(0 123.611) rotate(-90)" fill="none" stroke="rgba(255,255,255,0.3)" stroke-miterlimit="10" stroke-width="0.4"/><path d="M0,0V150" transform="translate(0 109.722) rotate(-90)" fill="none" stroke="rgba(255,255,255,0.6)" stroke-miterlimit="10" stroke-width="0.4"/><path d="M0,0V150" transform="translate(0 95.833) rotate(-90)" fill="none" stroke="rgba(255,255,255,0.6)" stroke-miterlimit="10" stroke-width="0.4"/><path d="M0,0V150" transform="translate(0 81.944) rotate(-90)" fill="none" stroke="rgba(255,255,255,0.6)" stroke-miterlimit="10" stroke-width="0.4"/><path d="M0,0V150" transform="translate(0 68.055) rotate(-90)" fill="none" stroke="rgba(255,255,255,0.6)" stroke-miterlimit="10" stroke-width="0.4"/><path d="M0,0V150" transform="translate(0 54.167) rotate(-90)" fill="none" stroke="rgba(255,255,255,0.6)" stroke-miterlimit="10" stroke-width="0.4"/><path d="M0,0V150" transform="translate(0 40.278) rotate(-90)" fill="none" stroke="rgba(255,255,255,0.6)" stroke-miterlimit="10" stroke-width="0.4"/><path d="M0,0V150" transform="translate(0 26.389) rotate(-90)" fill="none" stroke="rgba(255,255,255,0.3)" stroke-miterlimit="10" stroke-width="0.4"/><path d="M0,0V150" transform="translate(0 12.5) rotate(-90)" fill="none" stroke="rgba(255,255,255,0.6)" stroke-miterlimit="10" stroke-width="0.4"/><path d="M61.064,81.676,0,20.565s34.925-3.435,42.974-6.351C53.126,10.536,53.505,0,53.505,0l52.05,52.94V81.676Z" transform="translate(44.444 68.324)" fill="url(#b)"/><path d="M61.111,36.111H0a30.811,30.811,0,0,1,3.412-14.2,31.24,31.24,0,0,1,9.064-10.716L5.8,4.436A2.584,2.584,0,0,1,5.8.774a2.5,2.5,0,0,1,3.616,0l7.587,7.635A29.645,29.645,0,0,1,44,8.409L51.537.774a2.5,2.5,0,0,1,3.615,0,2.582,2.582,0,0,1,0,3.662l-6.62,6.706A30.9,30.9,0,0,1,61.111,36.11ZM42.969,20.629a2.822,2.822,0,1,0,2.865,2.821A2.847,2.847,0,0,0,42.969,20.629Zm-24.826,0a2.822,2.822,0,1,0,2.865,2.821A2.847,2.847,0,0,0,18.142,20.629Z" transform="translate(44.444 52.778)" fill="#fff"/><rect width="150" height="150" fill="url(#c)"/><rect width="150" height="150" fill="url(#d)"/><g transform="translate(47.559 45.942)"><path d="M27.866,56.255c-.112-.094-.222-.189-.33-.287a10.231,10.231,0,0,1-3.322-6.642,8.282,8.282,0,0,1,.46-3.58c.03-.079.061-.158.093-.235.081-.2.169-.391.265-.576a6.8,6.8,0,0,1,1.062-1.5,6.5,6.5,0,0,1,.8-.72c.095-.072.192-.141.291-.209a6.312,6.312,0,0,1,1.267-.658c.113-.042.225-.082.341-.12a6.557,6.557,0,0,1,1.072-.245A7.06,7.06,0,0,1,31.4,41.43a7.5,7.5,0,0,1,.781.1,7.59,7.59,0,0,1,.764.175,8.383,8.383,0,0,1,1.1.4,9.088,9.088,0,0,1,1.237.666c.157.1.315.206.467.317.191.139.377.286.559.439.129.109.255.219.377.334q.287.266.554.558c.091.1.181.2.269.3.174.206.341.419.5.637s.31.446.454.679.276.472.4.716c.063.121.123.246.18.371a10.1,10.1,0,0,1,.45,1.161,9.863,9.863,0,0,1,.373,1.644,8.873,8.873,0,0,1,0,2.441,6.608,6.608,0,0,1-6.595,5.967A8.518,8.518,0,0,1,27.866,56.255Zm22.625-9.292c-3.665-.2-7.257-3.825-7.89-7.98a7.05,7.05,0,0,1,.151-3.012c.025-.083.05-.165.077-.246s.063-.179.1-.266a4.571,4.571,0,0,1,5.035-2.907,8.86,8.86,0,0,1,5.976,4.071c.06.093.12.186.177.28s.1.171.154.257A9.758,9.758,0,0,1,55.4,40.124c.751,3.806-1.242,6.847-4.6,6.847C50.7,46.971,50.595,46.969,50.491,46.962ZM9.677,44.741C4.424,44.455,0,40.1,0,35.181a7.32,7.32,0,0,1,.884-3.532c.054-.1.109-.192.166-.286s.13-.208.2-.308A8.124,8.124,0,0,1,9.1,27.814a10.651,10.651,0,0,1,7.651,4.88c.068.109.132.217.2.329s.111.2.164.3a8.735,8.735,0,0,1,.994,3.472c.289,4.431-3.132,7.959-7.9,7.959C10.035,44.756,9.857,44.751,9.677,44.741Zm20.9-10.682a10.272,10.272,0,0,1-8.755-8.815,5.891,5.891,0,0,1,1.207-4.295,5.6,5.6,0,0,1,3.831-1.976l-.675-6.526c-3.307-1.477-5.79-4.6-6.036-7.582A4.365,4.365,0,0,1,21.21,1.446,4.924,4.924,0,0,1,24.906,0a7.926,7.926,0,0,1,1.909.245c3.8.95,7.144,4.381,7.619,7.811a4.547,4.547,0,0,1-.865,3.577,4.6,4.6,0,0,1-3.356,1.6l.765,6.43a10.361,10.361,0,0,1,6.129,7.7,6,6,0,0,1-1.287,4.85A5.747,5.747,0,0,1,31.391,34.1,7.849,7.849,0,0,1,30.576,34.059ZM26.864,23.795a2.637,2.637,0,0,0-.617,2.065,4.59,4.59,0,0,0,3.85,3.885,3.462,3.462,0,0,0,.427.028,2.571,2.571,0,0,0,1.971-.831,2.662,2.662,0,0,0,.592-2.13,4.668,4.668,0,0,0-3.739-3.786,3.433,3.433,0,0,0-.527-.041A2.587,2.587,0,0,0,26.864,23.795ZM24.732,4.224a1.964,1.964,0,0,0-.462,1.561,4.607,4.607,0,0,0,3.565,3.637,3.523,3.523,0,0,0,.716.078,2.177,2.177,0,0,0,1.67-.672,1.991,1.991,0,0,0,.442-1.614,4.681,4.681,0,0,0-3.469-3.55,3.484,3.484,0,0,0-.8-.1A2.192,2.192,0,0,0,24.732,4.224ZM46.679,25.236a6.968,6.968,0,0,1-1.267-.325,7.99,7.99,0,0,1-.931-.4q-.154-.077-.3-.161c-.2-.113-.4-.234-.6-.361s-.386-.266-.574-.41-.37-.3-.548-.454a10.378,10.378,0,0,1-.765-.755c-.161-.176-.316-.359-.466-.545-.072-.094-.146-.189-.217-.285a8.658,8.658,0,0,1-1.642-3.772,4.927,4.927,0,0,1,.416-3.06,3.517,3.517,0,0,1,1.32-1.4c.069-.041.139-.081.213-.119a4.777,4.777,0,0,1,3.19-.314,8.449,8.449,0,0,1,3.444,1.687c.086.068.173.137.256.21.252.214.5.442.729.681a10.458,10.458,0,0,1,1.059,1.281,8.679,8.679,0,0,1,1.43,3.255,5.111,5.111,0,0,1-.312,3.252c-.036.074-.075.146-.115.216a3.7,3.7,0,0,1-.268.4,3.492,3.492,0,0,1-.492.524,3.4,3.4,0,0,1-.386.291,3.6,3.6,0,0,1-.431.24,3.8,3.8,0,0,1-.471.185c-.082.028-.166.051-.252.073a4.619,4.619,0,0,1-.812.125c-.1.006-.211.01-.319.01A5.792,5.792,0,0,1,46.679,25.236ZM8.817,19.347a10.659,10.659,0,0,1-1.734-.421,11.446,11.446,0,0,1-1.24-.5c-.135-.064-.267-.129-.4-.2q-.4-.2-.771-.437c-.25-.155-.495-.32-.731-.492s-.465-.354-.685-.542a10.872,10.872,0,0,1-.93-.895q-.291-.313-.549-.644c-.086-.11-.169-.221-.25-.334A7.6,7.6,0,0,1,0,10.509,5.157,5.157,0,0,1,1.257,7.052,5.445,5.445,0,0,1,2.52,6a6.124,6.124,0,0,1,.914-.46c.107-.044.216-.085.327-.122a8.577,8.577,0,0,1,4.576-.19A11.36,11.36,0,0,1,12.829,7.29c.106.081.212.165.316.249a11.013,11.013,0,0,1,.881.8,10.165,10.165,0,0,1,1.222,1.492,7.658,7.658,0,0,1,1.344,3.735,5.227,5.227,0,0,1-1.1,3.671c-.066.084-.135.164-.206.242a5.2,5.2,0,0,1-.459.45,5.775,5.775,0,0,1-.8.577,6.287,6.287,0,0,1-.6.316,6.562,6.562,0,0,1-.656.257,7,7,0,0,1-.707.2c-.121.026-.245.051-.37.072a8.471,8.471,0,0,1-1.176.113l-.209,0A9.617,9.617,0,0,1,8.817,19.347Z" opacity="0.8" fill="url(#e)"/></g></g></g></svg>