<svg xmlns="http://www.w3.org/2000/svg" xmlns:xlink="http://www.w3.org/1999/xlink" viewBox="0 0 270 242">
  <defs>
    <style>
      .a, .ad, .ai, .aj, .g, .h, .m {
        fill: none;
      }

      .aa, .ab, .b, .f, .v {
        fill: #fff;
      }

      .b {
        fill-opacity: 0;
      }

      .ae, .c {
        fill: #504b46;
      }

      .d, .k, .z {
        fill: #9d6655;
      }

      .aa, .ac, .ae, .af, .ai, .aj, .ak, .al, .am, .an, .d, .g, .h, .i, .m, .w, .x {
        stroke: #504b46;
      }

      .aa, .ad, .ae, .af, .aj, .ak, .al, .d, .g, .i, .m, .w, .x, .y, .z {
        stroke-linejoin: round;
      }

      .aa, .ac, .ad, .ae, .af, .ak, .al, .am, .an, .d, .g, .h, .i, .m, .w, .x, .y, .z {
        stroke-width: 2px;
      }

      .e {
        fill: #edf2f4;
      }

      .f {
        opacity: 0.5;
      }

      .f, .v {
        isolation: isolate;
      }

      .aa, .ad, .ae, .af, .ai, .aj, .ak, .al, .g, .h, .i, .w, .y {
        stroke-linecap: round;
      }

      .ac, .ai, .am, .h {
        stroke-miterlimit: 10;
      }

      .i, .n, .y {
        fill: #fddfd1;
      }

      .ac, .j {
        fill: #fccab4;
      }

      .l {
        fill: #a76f5e;
      }

      .o, .w {
        fill: #f29166;
      }

      .al, .p {
        fill: #b4e0fc;
      }

      .af, .am, .an, .q {
        fill: #83cfff;
      }

      .r {
        fill: #a74f28;
      }

      .s {
        fill: #744b3e;
      }

      .t {
        fill: #ffd070;
      }

      .u {
        fill: #f2977c;
      }

      .v {
        opacity: 0.2;
      }

      .x {
        fill: #885849;
      }

      .y, .z {
        stroke: #414042;
      }

      .ad {
        stroke: #fcc2b4;
      }

      .ag {
        clip-path: url(#a);
      }

      .ah {
        clip-path: url(#b);
      }

      .ak {
        fill: #ffba57;
      }
    </style>
    <clipPath id="a">
      <path class="a" d="M152,212.22a16.53,16.53,0,0,1-23.35,1.07l0,0-.24-.22c-6.75-6.31-11.57-15.39-2.45-25.2s18.49-5.61,25.23.7a16.64,16.64,0,0,1,1,23.51l0,0Z"/>
    </clipPath>
    <clipPath id="b">
      <path class="a" d="M127.6,189.37a16.54,16.54,0,0,1-23.37,1.06h0l-.25-.23c-6.74-6.31-11.56-15.39-2.45-25.2s18.5-5.61,25.24.7a16.66,16.66,0,0,1,1,23.53Z"/>
    </clipPath>
  </defs>
  <title>Asset 3</title>
  <g>
    <rect class="b" y="1.06" width="270" height="239.94"/>
    <g>
      <g>
        <path class="a" d="M260.66,65.44H234.61L213.35,84.76V65.44H196a7.73,7.73,0,0,1-7.73-7.73h0v-50A7.73,7.73,0,0,1,196,0h64.7a7.73,7.73,0,0,1,7.73,7.73h0v50a7.73,7.73,0,0,1-7.73,7.73h0Z"/>
        <path class="c" d="M215.35,80.24,233.26,64a2,2,0,0,1,1.35-.52h26.05a5.75,5.75,0,0,0,5.73-5.73v-50A5.74,5.74,0,0,0,260.66,2H196a5.75,5.75,0,0,0-5.73,5.73v50A5.75,5.75,0,0,0,196,63.44h17.39a2,2,0,0,1,2,2h0v14.8m-2,4.52V65.44H196a7.73,7.73,0,0,1-7.73-7.73v-50A7.73,7.73,0,0,1,196,0h64.7a7.73,7.73,0,0,1,7.73,7.73h0v50a7.73,7.73,0,0,1-7.73,7.73H234.61Z"/>
      </g>
      <g>
        <path class="d" d="M246,18.67c-.41-4.85-5.43-8.67-10.36-8.67s-10,3.82-10.33,8.67c-.57,4.76-.16,19.62-.2,19.39h20.3C245.33,38.29,246,24.34,246,18.67Z"/>
        <g>
          <path class="e" d="M248.56,44.5a10,10,0,0,0-10-10h-6a10,10,0,0,0-10,10h0V54a43.25,43.25,0,0,0,26,0Z"/>
          <path class="f" d="M248.56,45.5a10,10,0,0,0-10-10h-6a10,10,0,0,0-10,10h0v4a10,10,0,0,1,10-10h6a10,10,0,0,1,10,10h0Z"/>
          <path class="g" d="M238.59,35.5h-6c-5.51,0-11,4.48-11,10V54a56.77,56.77,0,0,0,13.9,2,58.63,58.63,0,0,0,14-2V45.5C249.56,40,244.1,35.5,238.59,35.5Z"/>
          <g>
            <path class="h" d="M243.71,47.16v7.27"/>
            <path class="h" d="M243.71,43.16v1.27"/>
          </g>
        </g>
        <g>
          <path class="g" d="M238.59,37.5a9.21,9.21,0,0,1-6,0V31h6Z"/>
          <path class="i" d="M238.59,37.5a9.21,9.21,0,0,1-6,0V31h6Z"/>
          <path class="j" d="M233.6,34.39a6,6,0,0,0,2,.38,6.22,6.22,0,0,0,2-.38V31h-4Z"/>
        </g>
        <g>
          <path class="k" d="M246,18.67c-.41-4.85-5.44-8.67-10.36-8.67s-10,3.82-10.33,8.67c-.57,4.76,2.83,9.62,2.78,9.39h14.33A14.15,14.15,0,0,0,246,18.67Z"/>
          <path class="l" d="M235.6,13.5a13,13,0,0,1,8.94,3.17,9.33,9.33,0,0,0-17.89,0,13,13,0,0,1,8.95-3.17"/>
          <path class="m" d="M246,18.67c-.41-4.85-5.44-8.67-10.36-8.67s-10,3.82-10.33,8.67c-.57,4.76,2.83,9.62,2.78,9.39h14.33A14.15,14.15,0,0,0,246,18.67Z"/>
          <path class="n" d="M240.05,21.75a10.12,10.12,0,0,1-8.28-4.32,4.32,4.32,0,0,1-4.15,4.3V25a8,8,0,1,0,15.95,1.26,8.83,8.83,0,0,0,0-1.26h0V21.16a13.57,13.57,0,0,1-3.52.58"/>
          <path class="g" d="M240.05,21.75a10.12,10.12,0,0,1-8.28-4.32,4.32,4.32,0,0,1-4.15,4.3V25a8,8,0,1,0,15.95,1.26,8.83,8.83,0,0,0,0-1.26h0V21.16a13.57,13.57,0,0,1-3.52.58Z"/>
        </g>
        <g>
          <g>
            <path class="o" d="M207.27,43.82H229a.82.82,0,0,1,.82.82h0a.81.81,0,0,1-.8.82H207.3a.82.82,0,0,1-.82-.82h0A.82.82,0,0,1,207.27,43.82Z"/>
            <path class="g" d="M207.27,42.82H229a1.81,1.81,0,0,1,1.82,1.82h0a1.81,1.81,0,0,1-1.8,1.82H207.3a1.81,1.81,0,0,1-1.82-1.82h0A1.83,1.83,0,0,1,207.27,42.82Z"/>
          </g>
          <g>
            <g>
              <path class="p" d="M210.68,52a.57.57,0,0,1-.11-.11l-2.42-2.51a11.42,11.42,0,0,1-2.9-8,11.42,11.42,0,0,1,3.06-8l.72-.72.71.74,16.54,17.2.68.71-.69.69a10.92,10.92,0,0,1-7.8,2.91A11.07,11.07,0,0,1,210.68,52Z"/>
              <path class="c" d="M209,34.09c-3.63,3.63-3.7,10.85-.15,14.55l2.42,2.52.1.1c3.52,3.52,10.65,3.55,14.17,0L209,34.09m1.41-1.41h0L227,49.91a2,2,0,0,1,0,2.8,12.83,12.83,0,0,1-17,0,.8.8,0,0,1-.13-.13L207.43,50a12.48,12.48,0,0,1-3.18-8.71,12.41,12.41,0,0,1,3.35-8.64,2,2,0,0,1,2.83,0h0Z"/>
            </g>
            <g>
              <path class="q" d="M224.05,53.89l-.71-.75-16.21-17.2-.67-.71.69-.68,1.16-1.17.73-.72.7.75L226,50.61l.67.71L226,52l-1.16,1.16Z"/>
              <path class="c" d="M209,34.09l-1.17,1.16,16.22,17.21,1.16-1.17L209,34.09m1.41-1.41h0l16.22,17.2a2,2,0,0,1,0,2.79l-1.17,1.16a2,2,0,0,1-2.82,0h0L206.4,36.63a2,2,0,0,1,0-2.79l1.16-1.16a2,2,0,0,1,2.83,0h0Z"/>
            </g>
          </g>
          <g>
            <g>
              <path class="p" d="M206.78,46.79h24.33A10.19,10.19,0,0,1,220.94,57H217a10.19,10.19,0,0,1-10.19-10.19h0Z"/>
              <path class="g" d="M206.46,45.79h25a.67.67,0,0,1,.68.66v0h0A11.51,11.51,0,0,1,220.65,58h-3.36a11.51,11.51,0,0,1-11.51-11.51h0a.67.67,0,0,1,.64-.7Z"/>
            </g>
            <g>
              <rect class="q" x="206.78" y="46.79" width="24.33" height="1.64"/>
              <rect class="g" x="205.78" y="45.79" width="26.33" height="3.64"/>
            </g>
          </g>
          <g>
            <path class="r" d="M219.44,51.89a1,1,0,1,1,1-1A1,1,0,0,1,219.44,51.89Z"/>
            <path class="c" d="M219.44,51.39a.5.5,0,1,0-.5-.5.5.5,0,0,0,.5.5h0m0,1a1.49,1.49,0,1,1,1.49-1.49A1.49,1.49,0,0,1,219.44,52.39Z"/>
          </g>
        </g>
      </g>
    </g>
    <path class="s" d="M101.47,106.94a10,10,0,1,1,10-10h0A10,10,0,0,1,101.47,106.94Z"/>
    <path class="s" d="M180.25,95.47A9.48,9.48,0,1,1,170.76,86h0a9.47,9.47,0,0,1,9.47,9.47h0"/>
    <g>
      <path class="i" d="M103.66,220.41s-4.86-2.14-9.13-4.2-5.28,1.65-5.28,1.65-3.82-3.65-4.85-21.73,0-18.13,0-18.13h20.26Z"/>
      <path class="j" d="M103.46,195.48c-.24.09-.47.18-.73.26a32,32,0,0,1-17.79,0l-.73-.26V187h19.25Z"/>
      <path class="g" d="M103.66,220.41s-4.86-2.14-9.13-4.2-6.71,0-6.71,0-2.39-2-3.42-20.08,0-18.13,0-18.13h20.26Z"/>
    </g>
    <g>
      <g>
        <path class="t" d="M188.42,178.84a40.72,40.72,0,0,0-40.66-40.78H123.35a40.73,40.73,0,0,0-40.67,40.78h0v10.59h19.44l-.14,42s17.58,6,33.79,6,32.41-6,32.41-6l-.25-42h20.49Z"/>
        <path class="g" d="M188.42,178.84a40.72,40.72,0,0,0-40.66-40.78H123.35a40.73,40.73,0,0,0-40.67,40.78h0v10.59H103v42s17.14,6,32.8,6,31.29-6,31.29-6v-42h21.36Z"/>
      </g>
      <g>
        <path class="u" d="M102.46,211.7h65.82s5.13,4.59,8.74,8.59,6.22,7,6.22,7S161.38,241,135.54,241s-48-13.67-48-13.67,2.7-3.16,6.46-7.33A116.3,116.3,0,0,1,102.46,211.7Z"/>
        <path class="v" d="M145.17,213.46H125A40.3,40.3,0,0,0,93.1,230.1c-2.35-1.18-4-2.14-4.92-2.67.15-.62.31-1.24.5-1.85,1.15-1.35,3-3.53,5.26-6.07a111.61,111.61,0,0,1,8.48-8.51h65.82s5.13,4.7,8.74,8.8c1.64,1.87,3.08,3.52,4.15,4.78a28.74,28.74,0,0,1,.89,3.14c-1,.59-2.66,1.51-4.82,2.6A40.3,40.3,0,0,0,145.17,213.46Z"/>
        <path class="g" d="M102.46,211.7h65.82s5.13,4.59,8.74,8.59,6.22,7,6.22,7S161.38,241,135.54,241s-48-13.67-48-13.67,2.7-3.16,6.46-7.33A116.3,116.3,0,0,1,102.46,211.7Z"/>
      </g>
      <g>
        <path class="w" d="M79.7,184a85,85,0,0,0,11.82,1A76.14,76.14,0,0,0,103,184v8a80.3,80.3,0,0,1-11.69,1,77.73,77.73,0,0,1-11.6-1Z"/>
        <path class="c" d="M85.51,188a2,2,0,1,1-2-2,2,2,0,0,1,2,2"/>
      </g>
      <g>
        <path class="w" d="M191.36,184a77.65,77.65,0,0,1-11.89,1,88.56,88.56,0,0,1-12.38-1v8a74.13,74.13,0,0,0,24.27,0Z"/>
        <path class="c" d="M185.23,188a2,2,0,1,0,2-2,2,2,0,0,0-2,2"/>
      </g>
      <path class="e" d="M167.07,198.43V184.16"/>
      <path class="g" d="M167.07,203.43V179.16"/>
      <path class="e" d="M167.07,178v-2"/>
      <path class="g" d="M167.07,173v-2"/>
      <path class="e" d="M103,198.43V184.16"/>
      <path class="g" d="M103,203.43V179.16"/>
      <path class="e" d="M103,175v-2"/>
      <path class="g" d="M103,173v-2"/>
    </g>
    <path class="x" d="M174.27,108.75c0,6.4-22.75,18.25-40.29,18.25s-37.11-12-38.42-18.25c-1.07-6,4.27-10.56,4.27-10.56H169S174.27,102.35,174.27,108.75Z"/>
    <g>
      <g>
        <path class="o" d="M135.17,167a18.25,18.25,0,0,1-9.78-2.54,15.61,15.61,0,0,1-5.36-5.79,22.53,22.53,0,0,1-2.6-10v-.36c0-2.05-.15-8.29,4.21-12.73,3-3,7.47-4.6,13.3-4.6s10.49,1.57,13.57,4.67A15,15,0,0,1,152.4,143a23.07,23.07,0,0,1,.51,5.37v.23a22.3,22.3,0,0,1-2.6,10.07,15.45,15.45,0,0,1-5.36,5.76A18.26,18.26,0,0,1,135.17,167Z"/>
        <path class="c" d="M135.17,166c15.72,0,16.74-14.92,16.74-17.35s.62-16.63-17-16.63-16.51,14.47-16.51,16.69,1,17.29,16.74,17.29m0,2c-9.22,0-13.8-4.81-16-8.85a23.63,23.63,0,0,1-2.72-10.44v-.34c0-2.15-.16-8.71,4.5-13.45,3.19-3.25,7.9-4.9,14-4.9s11,1.67,14.28,5a15.83,15.83,0,0,1,4.15,7.84,23.88,23.88,0,0,1,.54,5.59v.23a23.4,23.4,0,0,1-2.72,10.55,16.4,16.4,0,0,1-5.71,6.13A19.24,19.24,0,0,1,135.17,168Z"/>
      </g>
      <path class="y" d="M147.26,150.08s0,9.51-12,9.51-12-9.51-12-9.51V119.72h23.93Z"/>
      <path class="j" d="M124.4,137.56c.28.14.54.3.83.42a26,26,0,0,0,20.28,0c.3-.12.55-.28.83-.42V123.72H124.4Z"/>
    </g>
    <path class="z" d="M134.28,24.27c-23.61.84-19.89,22.56-19.89,22.56a195.57,195.57,0,0,0,20.39,1.09,171.16,171.16,0,0,0,19.6-1.09S157.9,23.42,134.28,24.27Z"/>
    <g>
      <path class="u" d="M134.78,49c-11,0-20.37-.67-20.46-.68h-.7l-.19-.68A10.54,10.54,0,0,1,115.27,39a14.4,14.4,0,0,1,6.37-4.59,36.68,36.68,0,0,1,12.62-2.15h1.26A32.73,32.73,0,0,1,147.05,34a14.13,14.13,0,0,1,6.13,4.28,11.55,11.55,0,0,1,2.18,9.26l-.17.71-.72.06C154.38,48.32,145.8,49,134.78,49Z"/>
      <path class="c" d="M135.52,33.24h-1.24c-23.61.52-19.89,14.06-19.89,14.06s9.29.68,20.39.68,19.61-.68,19.61-.68,3.39-14.08-18.87-14.08m0-2h0c8.88,0,15.09,2.17,18.45,6.43a12.6,12.6,0,0,1,2.37,10.12L156,49.2l-1.44.11c-.09,0-8.71.69-19.77.69s-20.44-.68-20.53-.68l-1.41-.11-.38-1.36a11.59,11.59,0,0,1,2-9.45c3.37-4.52,10-6.93,19.77-7.14Z"/>
    </g>
    <path class="aa" d="M116.43,42.49A2.5,2.5,0,1,1,113.92,40h0a2.5,2.5,0,0,1,2.5,2.49"/>
    <path class="aa" d="M157.31,40.49A2.49,2.49,0,1,1,154.82,38h0a2.48,2.48,0,0,1,2.49,2.49h0"/>
    <g>
      <path class="d" d="M174.73,103.82a46.27,46.27,0,0,1-3.9,3.64S187,104.66,187,91c0-11.09-7.55-15.38-12.23-17.75L174.61,72a38.35,38.35,0,0,0-38.06-33.95c-20.1,0-39.53,15.49-41,35.14-7,0-14.54,12-7.94,24.75,5.2,10,16.2,10.16,16.2,10.16s-3.61-1.57-4.14-1.94C96.28,103.79,94.2,100,94.2,97c0-11,9-10.46,9-10.87V97l.56,9.18h63.81s.3-14.43.3-19.59C167.88,86.31,180.08,95.54,174.73,103.82Z"/>
      <path class="m" d="M174.73,103.82a46.27,46.27,0,0,1-3.9,3.64S187,104.66,187,91c0-11.09-7.55-15.38-12.23-17.75L174.61,72a38.35,38.35,0,0,0-38.06-33.95c-20.1,0-39.53,15.49-41,35.14-7,0-14.54,12-7.94,24.75,5.2,10,16.2,10.16,16.2,10.16s-3.61-1.57-4.14-1.94C96.28,103.79,94.2,100,94.2,97c0-11,9-10.46,9-10.87V97l.56,9.18h63.81s.3-14.43.3-19.59C167.88,86.31,180.08,95.54,174.73,103.82Z"/>
      <path class="h" d="M96.29,73.19h.34c12.8-.64,16-7.75,16-7.75"/>
      <path class="h" d="M97.42,68h.17c6.85-.88,8.31-3,8.31-3"/>
      <path class="g" d="M124.51,65.4a45.39,45.39,0,0,0,20.39,6.73c7.56.55,15-.54,20.54-.46a30.41,30.41,0,0,1,9.86,1.83"/>
      <path class="g" d="M125.3,57.69c4.32,4,12.82,7.8,21.59,8.44a38.56,38.56,0,0,0,6.71-.08"/>
      <path class="g" d="M145.68,39.19c-1.22-.2-2.45-.33-3.68-.41-10.55-.66-16.57,4.41-20.37,13.31-2.26,5.31-1.58,9.58-1.58,17.29"/>
    </g>
    <g>
      <path class="ab" d="M105.46,108a2,2,0,1,1-2-2,2,2,0,0,1,2,2"/>
      <path class="ac" d="M174.27,102a6,6,0,1,1-6-6,6,6,0,0,1,6,6"/>
      <path class="ac" d="M109.45,102a6,6,0,1,1-6-6,6,6,0,0,1,6,6"/>
      <path class="aa" d="M170.28,109.49a2.5,2.5,0,1,1-2.51-2.49h0a2.5,2.5,0,0,1,2.5,2.49"/>
      <path class="aa" d="M105.46,109.49A2.5,2.5,0,1,1,103,107h0a2.5,2.5,0,0,1,2.5,2.49"/>
      <path class="i" d="M119.94,68.67a17.52,17.52,0,0,1-17,17.47V99.41a32.54,32.54,0,1,0,65.08,0h0V86.65s-6.16-7-21.15-6.93C135.84,79.75,123.87,74.26,119.94,68.67Z"/>
      <path class="g" d="M119.94,68.67a17.52,17.52,0,0,1-17,17.47V99.41a32.54,32.54,0,1,0,65.08,0h0V86.65s-6.16-7-21.15-6.93C135.84,79.75,123.87,74.26,119.94,68.67Z"/>
      <g>
        <path class="j" d="M116.43,107a1,1,0,1,1,1-1A1,1,0,0,1,116.43,107Z"/>
        <path class="j" d="M113.44,103a1,1,0,1,1,1-1A1,1,0,0,1,113.44,103Z"/>
        <path class="j" d="M121.42,105a1,1,0,1,1,1-1A1,1,0,0,1,121.42,105Z"/>
      </g>
      <g>
        <path class="j" d="M154.32,107a1,1,0,1,0-1-1A1,1,0,0,0,154.32,107Z"/>
        <path class="j" d="M157.32,103a1,1,0,1,0-1-1A1,1,0,0,0,157.32,103Z"/>
        <path class="j" d="M149.34,105a1,1,0,1,0-1-1A1,1,0,0,0,149.34,105Z"/>
      </g>
      <g>
        <circle class="c" cx="148.34" cy="95.99" r="3.99"/>
        <path class="c" d="M148.34,100a4,4,0,0,1-4-4h0a4,4,0,0,1,4-4H154c1.19,0-1.63.52-1.63,4a4,4,0,0,1-4,4Z"/>
        <path class="c" d="M150.11,99a4,4,0,0,1-3.63-7.13l.26-.12,5.1-2.38c1.07-.5-1.26,1.17.2,4.32A4,4,0,0,1,150.11,99Z"/>
        <circle class="ab" cx="146.34" cy="95" r="1"/>
        <path class="h" d="M152.76,85.93a9.74,9.74,0,0,1-4.67.82,10.73,10.73,0,0,1-4.44-2.11"/>
      </g>
      <g>
        <circle class="c" cx="123.41" cy="95.99" r="3.99"/>
        <path class="c" d="M123.41,100a4,4,0,0,0,0-8h-5.62c-1.2,0,1.63.53,1.63,4a4,4,0,0,0,4,4Z"/>
        <path class="c" d="M121.63,99a4,4,0,1,0,4-6.92,3.83,3.83,0,0,0-.65-.3l-5.1-2.38c-1.08-.5,1.26,1.17-.21,4.32A4,4,0,0,0,121.63,99Z"/>
        <circle class="ab" cx="121.41" cy="95" r="1"/>
        <path class="h" d="M119,85.93a9.74,9.74,0,0,0,4.67.81,10.84,10.84,0,0,0,4.44-2.1"/>
      </g>
      <path class="g" d="M130.12,116.22a11.93,11.93,0,0,1,10.82,0"/>
      <path class="g" d="M133.38,104.78a4,4,0,0,1,4,0"/>
      <path class="ad" d="M133.38,112.78c.25-.52.69-1,2-1a2.19,2.19,0,0,1,2,1,15,15,0,0,0-2-.26A15,15,0,0,0,133.38,112.78Z"/>
      <path class="ad" d="M133.38,117.75c.25.51.69,1,2,1a2.19,2.19,0,0,0,2-1A4.74,4.74,0,0,0,133.38,117.75Z"/>
    </g>
    <g>
      <path class="i" d="M185.21,220c-2.62-.2-9.48-.3-14.17-6.9a15.77,15.77,0,0,1-2.75-9.34h0V192a97.55,97.55,0,0,0,11.45,1,61.43,61.43,0,0,0,7.67-.33c1.1-1.53,2.41-3.4,3.71-5.33,2.59-3.85,9.49-11.53,12.14-14.38.59-.64,3.25-10.3,8.1-10.13h7.52c1.1,0,.33,3.24,1.11,3.56a10,10,0,0,0,4.16.5s1.23,13.47,1.27,13.55c.18.48-3.8,1.2-7.42,1-2.27-.1-6.12-.43-6.12-.43s-1.72-.58-2.36.77c-.85,1.82-3.16,11.45-8,20.13-6.24,11.21-13.5,18-16.2,18Z"/>
      <g>
        <g>
          <rect class="ae" x="209.17" y="149" width="15.96" height="23"/>
          <g>
            <path class="q" d="M224.31,149.1H210.1l-.3-.34c-.21-.24-.89-1.23-.89-4a5.42,5.42,0,0,1,1.53-3.89,8,8,0,0,1,3.33-1.92v-.46a6.71,6.71,0,0,1,.43-2.62,3,3,0,0,1,2.93-1.79,3.11,3.11,0,0,1,2.28.85c1,1,1,2.59.93,3.63v.38a8.53,8.53,0,0,1,3.54,2.1,5.36,5.36,0,0,1,1.49,3.72,8.08,8.08,0,0,1-.78,3.9Z"/>
            <path class="c" d="M223.74,148.1a7.06,7.06,0,0,0,.64-3.39c0-2.3-1.65-4.1-4.81-5-.73-.21.93-4.67-2.42-4.67s-1.87,4.46-2.65,4.69c-2.8.81-4.59,2.33-4.59,5s.64,3.39.64,3.39h13.19m0,2H210.55a2,2,0,0,1-1.5-.68c-.43-.48-1.14-1.74-1.14-4.71a6.35,6.35,0,0,1,1.82-4.59,8.6,8.6,0,0,1,3.06-1.93,7.48,7.48,0,0,1,.51-2.77,4.36,4.36,0,0,1,6.85-1.23,5.37,5.37,0,0,1,1.22,4c3.21,1.28,5,3.6,5,6.51a9.05,9.05,0,0,1-.91,4.4,2,2,0,0,1-1.72,1Z"/>
          </g>
          <g>
            <path class="q" d="M225.51,149H208.79a2,2,0,1,1,0-4h16.72a2,2,0,0,1,0,4Z"/>
            <path class="c" d="M208.79,146c-.34,0-.62.45-.62,1s.28,1,.62,1h16.72c.34,0,.61-.45.61-1s-.27-1-.61-1H208.79m0-2h16.72a3,3,0,0,1,0,6H208.79a3,3,0,1,1,0-6Z"/>
          </g>
          <path class="aa" d="M209.17,163h16v23a2,2,0,0,1-2,2h-12a2,2,0,0,1-2-2Z"/>
          <path class="ab" d="M224.14,164.43h-14v-1.5h3.42v-1h-3.42v-1.5h1.43v-1h-1.43v-1.51h3.42v-1h-3.42v-1.5h1.43v-1h-1.43v-1.5h3.42v-1h-3.42v-1.51h14Z"/>
        </g>
        <g>
          <rect class="i" x="216.12" y="165" width="9.97" height="4.01" rx="2"/>
          <rect class="i" x="216.12" y="169" width="11.84" height="4.01" rx="2"/>
          <rect class="i" x="216.12" y="173" width="11.05" height="4.01" rx="2"/>
          <rect class="i" x="216.12" y="177" width="9.65" height="4.01" rx="2"/>
          <path class="i" d="M220.41,164l.34,4.28a2,2,0,0,1-1.54,2.11l-.74.17-1.1-.26a2,2,0,0,1-1.5-1.57l-.75-3.87s0,4.77-1.79,7-10,1.4-10,1.4v-.76a21.19,21.19,0,0,1,2.28-6A59.7,59.7,0,0,1,209,161c.88-1.18,8.1-.94,8.1-.94a4.4,4.4,0,0,1,2.43.94C220.37,161.79,220.41,164,220.41,164Z"/>
        </g>
        <g>
          <path class="n" d="M204.42,172.4l3.75-1.4v1.49a1.17,1.17,0,0,0-.72,1,1.06,1.06,0,0,0,.72,1V177l-6-1.47Z"/>
          <path class="g" d="M182.24,215.35a3.54,3.54,0,0,0,2,.35,3.43,3.43,0,0,0,1.94-.7"/>
          <path class="g" d="M184.48,197.23l5.27-8.37Z"/>
          <path class="g" d="M182.39,197.45a1.76,1.76,0,0,1,1-.26,1.69,1.69,0,0,1,1,.26"/>
        </g>
      </g>
    </g>
    <g>
      <path class="i" d="M134.86,228.62s6,3.6,16.26.51c.45-.13,5.39-2.55,10.09-5.11,4.19-2.27,7.36-3.63,6.5-5.5s-4.33-.09-8.24,1.61a61.67,61.67,0,0,1-7.09,2.78,9.16,9.16,0,0,1-5.94-.06Z"/>
      <path class="i" d="M139.92,230.63s6,3.61,16.25.52c.46-.14,5.4-2.56,10.1-5.11,4.18-2.28,7.36-3.63,6.5-5.51s-4.33-.08-8.24,1.61a60,60,0,0,1-7.09,2.79,9.09,9.09,0,0,1-5.94-.07Z"/>
    </g>
    <g>
      <path class="af" d="M132.54,159.62a25.23,25.23,0,0,0-34.37,36.95h0l.69.65a1.36,1.36,0,0,1,.46.28c4.11,3.84,9.49,5.36,16.47,4.65,6.29-.65,13.06-3,19.48-5.5,4.14-13.43,7.36-27.6-1.66-36Z"/>
      <g>
        <path class="i" d="M152,212.22a16.53,16.53,0,0,1-23.35,1.07l0,0-.24-.22c-6.75-6.31-11.57-15.39-2.45-25.2s18.49-5.61,25.23.7a16.64,16.64,0,0,1,1,23.51l0,0Z"/>
        <g class="ag">
          <path class="j" d="M132.72,181.07c.95,2.5,1.27,5.69-3,10.24s-7.48,3.7-10,3.68c0,0,.75-3.8,5-8.35S132.72,181.07,132.72,181.07Z"/>
        </g>
        <path class="g" d="M152,212.22a16.53,16.53,0,0,1-23.35,1.07l0,0-.24-.22c-6.75-6.31-11.57-15.39-2.45-25.2s18.49-5.61,25.23.7a16.64,16.64,0,0,1,1,23.51l0,0Z"/>
      </g>
      <g>
        <circle class="i" cx="129.51" cy="167.5" r="2.79"/>
        <circle class="i" cx="104.37" cy="192.25" r="2.79"/>
        <g>
          <path class="i" d="M127.6,189.37a16.54,16.54,0,0,1-23.37,1.06h0l-.25-.23c-6.74-6.31-11.56-15.39-2.45-25.2s18.5-5.61,25.24.7a16.66,16.66,0,0,1,1,23.53Z"/>
          <g class="ah">
            <g>
              <path class="ai" d="M118.7,179.53a4.87,4.87,0,0,0-.9.73,4.72,4.72,0,0,0-.62.91"/>
              <path class="aj" d="M123.41,182.41a3.31,3.31,0,0,0-2,1.14,3.38,3.38,0,0,0-1,2.13"/>
              <path class="j" d="M123.68,184.19a1,1,0,0,1-.26,1.28,1.2,1.2,0,0,1-1.26.35,1.94,1.94,0,0,1,.55-1A1.85,1.85,0,0,1,123.68,184.19Z"/>
              <g>
                <g>
                  <circle class="c" cx="119.98" cy="173.79" r="2.41"/>
                  <circle class="ab" cx="119.94" cy="172.21" r="0.53"/>
                  <path class="ai" d="M117.28,169.16a4.75,4.75,0,0,1-1,1.32,4,4,0,0,1-1.42.68"/>
                </g>
                <g>
                  <circle class="c" cx="111.47" cy="182.94" r="2.41"/>
                  <path class="ab" d="M111,181.11a.53.53,0,1,1,0,.75h0a.52.52,0,0,1,0-.72Z"/>
                  <path class="ai" d="M106.68,180.57a5.17,5.17,0,0,0,1.24-1.14,4,4,0,0,0,.58-1.47"/>
                </g>
              </g>
            </g>
          </g>
          <path class="g" d="M127.6,189.37a16.54,16.54,0,0,1-23.37,1.06h0l-.25-.23c-6.74-6.31-11.56-15.39-2.45-25.2s18.5-5.61,25.24.7a16.66,16.66,0,0,1,1,23.53Z"/>
        </g>
        <path class="ak" d="M115,161.73c-2.25,4.43-9.31,6.89-9.31,6.89l1.81,1.17C105.38,172,97.94,172,97.94,172c-.3-2.95,2.28-6.2,4.2-8.61C106.9,159.22,112.86,163,115,161.73Z"/>
      </g>
      <g>
        <path class="al" d="M165,224.25a28.11,28.11,0,0,0-1.35-39.61l-29.18-27a28,28,0,0,0-38.14,41l29.18,27.06A27.7,27.7,0,0,0,141,233h.39A28.36,28.36,0,0,0,154,231.51,27.69,27.69,0,0,0,165,224.25ZM97,160.89a25.16,25.16,0,0,1,35.56-1.3h0l1.08,1c9.14,8.56,5.65,23.08,1.66,36-6.35,2.47-13.1,4.84-19.49,5.5-7,.71-12.36-.81-16.47-4.65a1.36,1.36,0,0,0-.46-.28l-.69-.65A25.32,25.32,0,0,1,97,160.89Z"/>
        <path class="aa" d="M110.18,204.37c5,4.68,12.66,5.45,22.13,3.41.81-2.94,1.8-6.07,2.84-9.31l.53-1.66c-9.3,3.51-20.11,6.86-28.55,4.85l2.59,2.42A1.24,1.24,0,0,1,110.18,204.37Z"/>
        <path class="am" d="M138.7,194.64c10.46-4.19,29.7-4.11,30.38-2.71a29.22,29.22,0,0,1,1.77,4.52c-5.15.74-16.9,2.06-23.47,4.69C133,206.9,119,212.69,108.86,203.19l-1.19-1.1C114.19,203.53,131.14,197.66,138.7,194.64Z"/>
        <path class="am" d="M133.06,199.48c-3.43,10.76-2,30-.58,30.58a28.93,28.93,0,0,0,4.63,1.46c.38-5.2.86-17.05,3-23.81,4.73-14.79,9.51-29.19-.64-38.68l-1.18-1.1C140.19,174.34,135.54,191.71,133.06,199.48Z"/>
      </g>
    </g>
    <g>
      <g>
        <g>
          <path class="p" d="M131.87,212.51c-.43-.19-1.11-.66-2.17-2.59a35.54,35.54,0,0,1-1.93-4.32c-1.07-2.83-2.19-6.64-2.14-8.82a2,2,0,0,1,1.12-2.13c2.85-1.09,7.72-.16,11,1l.26.1a6.42,6.42,0,0,1,3,3.91,6,6,0,0,1,0,4.7,25.33,25.33,0,0,1-3.22,4.6,12.86,12.86,0,0,1-4.8,3.62A1.45,1.45,0,0,1,131.87,212.51Z"/>
          <path class="c" d="M137.63,196.65l-.18-.08c-2.94-1-7.69-2-10.34-1-2,.78,2.92,15,5.17,16a.5.5,0,0,0,.38,0c3.21-1.24,6-5.11,7.49-7.77,1.08-2-.45-6.29-2.52-7.21m.81-1.83a7.43,7.43,0,0,1,3.56,4.5,7,7,0,0,1-.09,5.5c-.88,1.6-4.09,7-8.54,8.67a2.44,2.44,0,0,1-1.91-.07c-.89-.39-1.71-1.33-2.63-3a34.65,34.65,0,0,1-2-4.44c-1.11-2.93-2.27-6.88-2.21-9.2a4.34,4.34,0,0,1,.26-1.47,2.62,2.62,0,0,1,1.5-1.57c4-1.54,10.46.53,11.71,1Z"/>
        </g>
        <path class="am" d="M130.28,197.84a18.24,18.24,0,0,1,8.25-.07c1.34.46,2.37,3.28,1.68,4.53a17.92,17.92,0,0,1-6.47,5.54C132.5,208.31,128.94,198.36,130.28,197.84Z"/>
      </g>
      <g>
        <g>
          <path class="p" d="M157.18,202.77h0a1.42,1.42,0,0,1-.81.8,12.86,12.86,0,0,1-6,.53,25.61,25.61,0,0,1-5.46-1.26,6,6,0,0,1-3.14-3.46,6.43,6.43,0,0,1-.38-4.94l.12-.25c1.7-3.06,4.69-7,7.54-8.12.71-.28,1.47,0,2.25.82,1.5,1.58,3.21,5.16,4.3,8a34.31,34.31,0,0,1,1.45,4.51C157.56,201.53,157.37,202.34,157.18,202.77Z"/>
          <path class="c" d="M142.31,194.84c-.92,2.07.83,6.32,2.94,7.06,2.86,1,7.54,2,10.76.74a.55.55,0,0,0,.26-.28c1-2.24-4.81-16.14-6.85-15.36-2.64,1-5.51,4.95-7,7.67l-.09.17m-1.82-.81h0c0-.11.1-.22.16-.33.64-1.16,4-7,8-8.57a2.66,2.66,0,0,1,2.17.16,4.5,4.5,0,0,1,1.17.91c1.59,1.68,3.37,5.4,4.51,8.32a37.41,37.41,0,0,1,1.49,4.64c.44,1.88.46,3.12.06,4a2.48,2.48,0,0,1-1.38,1.32c-4.44,1.72-10.4-.11-12.13-.71a7,7,0,0,1-3.73-4,7.38,7.38,0,0,1-.34-5.77Z"/>
        </g>
        <path class="am" d="M148.57,190.81a18.14,18.14,0,0,0-6.18,5.47c-.69,1.24.43,4,1.78,4.5a17.59,17.59,0,0,0,8.5-.23C153.91,200.07,149.92,190.29,148.57,190.81Z"/>
      </g>
      <path class="an" d="M140.07,196a3.12,3.12,0,0,1,4,1.79l.56,1.45a3.1,3.1,0,0,1-5.79,2.23h0l-.56-1.45A3.13,3.13,0,0,1,140.07,196Z"/>
    </g>
    <g>
      <path class="i" d="M175.88,222.61c-1.48-1.93-3.19-.61-5.24.67-3.12,1.94-6.11,3.43-6.11,3.43a1.89,1.89,0,0,1-.67,0c-3.29-.63-6.12-1.26-6.54-1.59-1.7-1.34-1-4.91-.85-6.16a3.49,3.49,0,0,1,1.88-2.07c2.37-1,6.12-.46,5.84-2.47-.43-2.94-3.92-2-3.92-2s-5.87-.2-6.11-.13a18.62,18.62,0,0,0-6.59,3.57s-4.9-1.52-8.17-2.62c-4-2-9.64-4.92-15.29-7.29-12-5-19-4.66-25.69-3.35-2.71.52-11.85,3.14-12.06,8.24-.62,15.07,31.42,14.81,38.76,14.42,5.26-.28,11.74-.53,15.91,0a12.65,12.65,0,0,1,3.15,1.09h0c3.24,2.2,7.85,5.71,8.59,5.94,1,.32,9.4,1.17,9.4,1.17a5.51,5.51,0,0,0,2.2-.37c2.1-1.2,9-6.41,9-6.41a9.31,9.31,0,0,0,2-1.53C176.1,224.42,176.55,223.49,175.88,222.61Z"/>
      <path class="n" d="M92.14,202.63l.81.66s-.81.7-.28,1.36,1.93,0,1.93,0l3.75,3.09-10.28,6.87a18.43,18.43,0,0,1-1.2-4.85c-.56-3.61-1-7.72-1-7.72l5.68.59Z"/>
    </g>
    <g>
      <path class="g" d="M154.3,181.58a60.59,60.59,0,0,0-5.34-4.66"/>
      <path class="g" d="M158.29,185.58a5.34,5.34,0,0,0-1.28-1.36"/>
    </g>
  </g>
</svg>
