<svg xmlns="http://www.w3.org/2000/svg" xmlns:xlink="http://www.w3.org/1999/xlink" viewBox="0 0 270 246.33"><defs><style>.cls-1,.cls-12,.cls-15,.cls-34,.cls-35,.cls-36,.cls-5,.cls-8{fill:none;}.cls-2{fill:#504b46;}.cls-3{fill:#edf2f4;}.cls-13,.cls-17,.cls-20,.cls-23,.cls-4,.cls-7{fill:#fff;}.cls-32,.cls-4{opacity:0.5;}.cls-20,.cls-23,.cls-32,.cls-4{isolation:isolate;}.cls-10,.cls-12,.cls-13,.cls-14,.cls-18,.cls-24,.cls-25,.cls-26,.cls-27,.cls-29,.cls-31,.cls-33,.cls-35,.cls-38,.cls-5,.cls-7,.cls-8{stroke:#504b46;}.cls-10,.cls-13,.cls-14,.cls-15,.cls-18,.cls-24,.cls-25,.cls-27,.cls-29,.cls-34,.cls-36,.cls-38,.cls-5,.cls-7,.cls-8{stroke-linecap:round;}.cls-10,.cls-12,.cls-13,.cls-14,.cls-15,.cls-18,.cls-24,.cls-25,.cls-27,.cls-29,.cls-31,.cls-34,.cls-36,.cls-38,.cls-5,.cls-7{stroke-linejoin:round;}.cls-10,.cls-12,.cls-13,.cls-14,.cls-15,.cls-18,.cls-24,.cls-25,.cls-26,.cls-27,.cls-29,.cls-31,.cls-33,.cls-34,.cls-35,.cls-36,.cls-38,.cls-5,.cls-8{stroke-width:2px;}.cls-26,.cls-6{fill:#83cfff;}.cls-26,.cls-33,.cls-35,.cls-8{stroke-miterlimit:10;}.cls-10,.cls-9{fill:#fddfd1;}.cls-11{fill:#9d6655;}.cls-14{fill:#7fc5f2;}.cls-15{stroke:#f29166;}.cls-16,.cls-29{fill:#f29166;}.cls-18,.cls-19{fill:#b4e0fc;}.cls-20{opacity:0.3;}.cls-21{fill:#ffd070;}.cls-22{clip-path:url(#clip-path);}.cls-23{opacity:0.4;}.cls-24{fill:#f2977c;}.cls-25{fill:#ee75ac;}.cls-27,.cls-30{fill:#9cc1ef;}.cls-28,.cls-33{fill:#fccab4;}.cls-31{fill:#ffa163;}.cls-34{stroke:#fccab4;}.cls-36{stroke:#f2977c;}.cls-37{clip-path:url(#clip-path-2);}.cls-38{fill:#f7898f;}.cls-39{fill:#ce7751;}.cls-40{clip-path:url(#clip-path-3);}.cls-41{clip-path:url(#clip-path-4);}.cls-42{clip-path:url(#clip-path-5);}.cls-43{clip-path:url(#clip-path-6);}.cls-44{clip-path:url(#clip-path-7);}</style><clipPath id="clip-path"><path class="cls-1" d="M108.86,137.94s1.23,19,.6,29.68-3.82,8.28-3.82,8.28v56.64s17.58,6,33.24,6,30.84-6,30.84-6V175.66s-3.78-.94-4.4-9.09.5-29.41.5-29.41a68.21,68.21,0,0,0-28.14-5.62A76.17,76.17,0,0,0,108.86,137.94Z"/></clipPath><clipPath id="clip-path-2"><rect class="cls-1" x="58.61" y="157.05" width="6.98" height="11.97" rx="3" transform="translate(-109.25 195.83) rotate(-79.98)"/></clipPath><clipPath id="clip-path-3"><path class="cls-1" d="M50.06,159.73l.2-1.15,3.4.6a3,3,0,0,1,2.43,3.48l-.17,1,0,.09a3,3,0,0,0-2.45-3.39l-3.39-.6Z"/></clipPath><clipPath id="clip-path-4"><path class="cls-1" d="M46,156.32h0a3,3,0,0,1,4.23,0l4.23,4.23a3,3,0,0,1,0,4.24h0a3,3,0,0,1-4.23,0L46,160.55A3,3,0,0,1,46,156.32Z"/></clipPath><clipPath id="clip-path-5"><path class="cls-1" d="M58.31,170.05l-.71.7-2.44-2.44a3,3,0,0,1,0-4.23,2.8,2.8,0,0,1,.38-.32,3,3,0,0,0,.33,3.84l2.44,2.45Z"/></clipPath><clipPath id="clip-path-6"><path class="cls-1" d="M62.16,155.2h0a3,3,0,0,1-3.3,2.66l-6-.63a3,3,0,0,1-2.66-3.29h0a3,3,0,0,1,3.29-2.66l6,.63A3,3,0,0,1,62.16,155.2Z"/></clipPath><clipPath id="clip-path-7"><path class="cls-1" d="M43.94,152.27l.11-1,3.43.36a3,3,0,0,1,2.66,3.29,2.1,2.1,0,0,1-.09.5,3,3,0,0,0-2.67-2.79l-3.44-.37Z"/></clipPath></defs><title>Asset 1</title><g id="Layer_2" data-name="Layer 2"><g id="Layer_1-2" data-name="Layer 1"><rect class="cls-1" y="64.41" width="270" height="100"/><g id="man_copy" data-name="man copy"><g id="boubble"><g id="Stroke_55" data-name="Stroke 55"><path class="cls-1" d="M262.27,65.44h-26L215,84.76V65.44h-17.4a7.74,7.74,0,0,1-7.73-7.73h0v-50A7.74,7.74,0,0,1,197.56,0h64.71A7.73,7.73,0,0,1,270,7.73v50a7.73,7.73,0,0,1-7.73,7.73Z"/><path class="cls-2" d="M217,80.24,234.87,64a2,2,0,0,1,1.35-.52h26A5.74,5.74,0,0,0,268,57.71v-50A5.74,5.74,0,0,0,262.27,2H197.56a5.74,5.74,0,0,0-5.73,5.73v50a5.74,5.74,0,0,0,5.73,5.73H215a2,2,0,0,1,2,2v14.8m-2,4.52V65.44h-17.4a7.74,7.74,0,0,1-7.73-7.73v-50A7.74,7.74,0,0,1,197.56,0h64.71A7.73,7.73,0,0,1,270,7.73v50a7.73,7.73,0,0,1-7.73,7.73h-26Z"/></g><g id="ic-2"><g id="одежда"><path id="Fill_13" data-name="Fill 13" class="cls-3" d="M239.7,44.88a10,10,0,0,0-10-10h-6a10,10,0,0,0-10,10v9.47a49.91,49.91,0,0,0,13,2,50,50,0,0,0,13-2Z"/><path id="Fill_15" data-name="Fill 15" class="cls-4" d="M239.2,45.37a10,10,0,0,0-10-10h-6a10,10,0,0,0-10,10v4a10,10,0,0,1,10-10h6a10,10,0,0,1,10,10h0Z"/><path id="Stroke_17" data-name="Stroke 17" class="cls-5" d="M229.23,35.4h-6c-5.51,0-11,4.47-11,10v8.48a57.39,57.39,0,0,0,13.91,2,58.13,58.13,0,0,0,14-2V45.37C240.19,39.87,234.73,35.4,229.23,35.4Z"/><path id="Combined_Shape-4" data-name="Combined Shape-4" class="cls-6" d="M224.74,54.85V41.58c-2.64,0-5.24-1.86-5.24-4.5V37a27.18,27.18,0,0,1,6.71-1A27.5,27.5,0,0,1,233,37v.1c0,2.63-2.6,4.47-5.23,4.5V54.85Z"/><g id="халат_1" data-name="халат 1"><g id="Group_27" data-name="Group 27"><path id="Stroke_41" data-name="Stroke 41" class="cls-5" d="M224.24,54.85v-13"/><path id="Stroke_41_Copy" data-name="Stroke 41 Copy" class="cls-5" d="M228.23,54.85v-13"/></g><g id="Group_29" data-name="Group 29"><path id="Path_6" data-name="Path 6" class="cls-5" d="M218.75,36.9s.18,2.5,1.42,3.65a7.08,7.08,0,0,0,3.57,1.33"/><path id="Path_6_Copy" data-name="Path 6 Copy" class="cls-5" d="M233.71,36.9s-.16,2.49-1.33,3.63-3.65,1.35-3.65,1.35"/></g></g><path id="Fill_63" data-name="Fill 63" class="cls-7" d="M231.72,46.87a1,1,0,1,1,1-1A1,1,0,0,1,231.72,46.87Z"/><path id="Fill_63_Copy_11" data-name="Fill 63 Copy 11" class="cls-7" d="M231.72,51.86a1,1,0,1,1,1-1A1,1,0,0,1,231.72,51.86Z"/><g id="Group_26" data-name="Group 26"><g id="Group_25" data-name="Group 25"><path id="Path_5" data-name="Path 5" class="cls-8" d="M217.4,47v7.25"/><path id="Path_5_Copy" data-name="Path 5 Copy" class="cls-8" d="M217.4,43.05V44.3"/></g></g></g><g id="шея"><path id="Fill_35" data-name="Fill 35" class="cls-9" d="M229.23,37.4a9.22,9.22,0,0,1-6,0V30.91h6Z"/><path id="Fill_35_Copy_17" data-name="Fill 35 Copy 17" class="cls-10" d="M229.23,37.4a9.22,9.22,0,0,1-6,0V30.91h6Z"/><path id="Fill_37" data-name="Fill 37" class="cls-1" d="M224.24,34.3a6.38,6.38,0,0,0,2,.38,6.56,6.56,0,0,0,2-.38V30.91h-4Z"/></g><g id="голова"><path id="Stroke_57_Copy" data-name="Stroke 57 Copy" class="cls-11" d="M236.59,18.61c-.4-4.83-5.43-8.64-10.36-8.64s-9.95,3.81-10.32,8.65c-.57,4.74,2.83,9.59,2.78,9.36H233A14.07,14.07,0,0,0,236.59,18.61Z"/><path id="Stroke_57" data-name="Stroke 57" class="cls-12" d="M236.59,18.61c-.4-4.83-5.43-8.64-10.36-8.64s-9.95,3.81-10.32,8.65c-.57,4.74,2.83,9.59,2.78,9.36H233A14.07,14.07,0,0,0,236.59,18.61Z"/><path id="Fill_59" data-name="Fill 59" class="cls-9" d="M230.68,21.68a10.07,10.07,0,0,1-8.27-4.3,4.3,4.3,0,0,1-4.15,4.29v3.26a8,8,0,1,0,16,0V21.1a13.57,13.57,0,0,1-3.53.58"/><path id="Stroke_61" data-name="Stroke 61" class="cls-5" d="M230.68,21.68a10.07,10.07,0,0,1-8.27-4.3,4.3,4.3,0,0,1-4.15,4.29v3.26a8,8,0,1,0,16,0V21.1a13.57,13.57,0,0,1-3.53.58Z"/></g><g id="аптечка"><path id="Stroke_17_Copy_9" data-name="Stroke 17 Copy 9" class="cls-5" d="M246.37,37.24h-.88c-2,0-3.67,2.3-3.67,4.33v4.72H250V41.57C250,39.54,248.4,37.24,246.37,37.24Z"/><rect id="Rectangle_3_Copy_6" data-name="Rectangle 3 Copy 6" class="cls-13" x="235.71" y="41.88" width="20.94" height="14.96"/><path id="Rectangle_3_Copy_19" data-name="Rectangle 3 Copy 19" class="cls-14" d="M235.71,56.84h4.65A9.43,9.43,0,0,0,238.48,54a6.4,6.4,0,0,0-2.77-1.15Z"/><path id="Rectangle_3_Copy_20" data-name="Rectangle 3 Copy 20" class="cls-14" d="M256.62,56.84h-5A9.62,9.62,0,0,1,253.54,54a7.12,7.12,0,0,1,3.08-1.15Z"/><rect id="Rectangle_3_Copy_15" data-name="Rectangle 3 Copy 15" class="cls-5" x="235.71" y="41.88" width="20.94" height="14.96"/><g id="крест"><g id="Combined_Shape-5" data-name="Combined Shape-5"><path id="Combined_Shape-6" data-name="Combined Shape-6" class="cls-15" d="M245.08,51.86V50.41h-1.39a1,1,0,0,1-1.08-.92,1,1,0,0,1,.92-1.07.43.43,0,0,1,.16,0h1.4V46.87a1,1,0,0,1,2,0v1.55h1.4a1,1,0,0,1,1.07.91,1,1,0,0,1-.92,1.08h-1.55v1.45a1,1,0,0,1-.92,1.07,1,1,0,0,1-1.08-.92Z"/><g id="Combined_Shape-7" data-name="Combined Shape-7"><path class="cls-1" d="M245.08,51.86V50.41h-1.39a1,1,0,0,1-1.08-.92,1,1,0,0,1,.92-1.07.43.43,0,0,1,.16,0h1.4V46.87a1,1,0,0,1,2,0v1.55h1.4a1,1,0,0,1,1.07.91,1,1,0,0,1-.92,1.08h-1.55v1.45a1,1,0,0,1-.92,1.07,1,1,0,0,1-1.08-.92Z"/><path class="cls-2" d="M246.08,52.85a1,1,0,0,0,1-1V50.41h1.39a1,1,0,0,0,0-2h-1.39V46.87a1,1,0,1,0-2,0v1.54h-1.39a1,1,0,0,0,0,2h1.39v1.45a1,1,0,0,0,1,1m0,1a2,2,0,0,1-2-2v-.45h-.39a2,2,0,0,1,0-4h.39v-.54a2,2,0,1,1,4,0v.54h.39a2,2,0,0,1,0,4h-.39v.45A2,2,0,0,1,246.08,53.85Z"/></g></g><circle id="Oval_5" data-name="Oval 5" class="cls-16" cx="246.1" cy="49.48" r="1"/></g></g><g id="Group_28" data-name="Group 28"><path id="Rectangle_3_Copy_4" data-name="Rectangle 3 Copy 4" class="cls-13" d="M217.76,14s1.66-1,7.73-1,8.22,1,8.22,1V8s-2-1-8-1-8,1-8,1Z"/><path id="Rectangle_3_Copy_16" data-name="Rectangle 3 Copy 16" class="cls-17" d="M217.76,7h7l-7,7Z"/><path id="Rectangle_3_Copy_16-2" data-name="Rectangle 3 Copy 16-2" class="cls-18" d="M217.76,14s1.66-1,7.73-1,8.22,1,8.22,1V8s-2-1-8-1-8,1-8,1Z"/></g></g></g><g id="body"><g id="Group_16" data-name="Group 16"><path id="Fill_13_Copy_2" data-name="Fill 13 Copy 2" class="cls-19" d="M191,174.36a40.67,40.67,0,0,0-40.67-40.67H126a40.67,40.67,0,0,0-40.68,40.67h0v10.56h19.45l-.14,47.87s17.57,6,33.79,6,32.41-6,32.41-6l-.25-47.87H191Z"/><path id="Fill_15-2" data-name="Fill 15-2" class="cls-20" d="M191,174.36a40.67,40.67,0,0,0-40.67-40.67H126a40.67,40.67,0,0,0-40.68,40.67h0v16.27A40.67,40.67,0,0,1,126,150h24.4A40.67,40.67,0,0,1,191,190.63h0Z"/><path id="Path" class="cls-5" d="M191,174.36a40.67,40.67,0,0,0-40.67-40.67H126a40.67,40.67,0,0,0-40.68,40.67h0v10.56h20.29v47.87s17.15,6,32.81,6,31.29-6,31.29-6V184.92H191Z"/><path id="Path_Copy_5-2" data-name="Path Copy 5-2" class="cls-21" d="M108.86,137.94s1.23,19,.6,29.68-3.82,8.28-3.82,8.28v56.64s17.58,6,33.24,6,30.84-6,30.84-6V175.66s-3.78-.94-4.4-9.09.5-29.41.5-29.41a68.21,68.21,0,0,0-28.14-5.62A76.17,76.17,0,0,0,108.86,137.94Z"/><g class="cls-22"><g id="Group_16-2" data-name="Group 16-2"><path id="Fill_15-3" data-name="Fill 15-3" class="cls-23" d="M168.89,221.81v24.52H106.07v-39.9c0,13.77,10.82,30.92,24.16,30.92h14.5c13.35,0,24.17-17.15,24.17-30.92Z"/><path id="Rectangle_3" data-name="Rectangle 3" class="cls-24" d="M105.6,224.05a104.24,104.24,0,0,0,33,5.21c19,0,31.3-5.88,31.3-5.88v9s-12.3,5.92-32.15,5.92S105.6,233,105.6,233Z"/><g id="карман"><g id="Group_3_Copy_2" data-name="Group 3 Copy 2"><path id="Rectangle_3_Copy" data-name="Rectangle 3 Copy" class="cls-25" d="M155.93,177.85l5.64,6.64H150.29Z"/><path id="Rectangle_3_Copy_2" data-name="Rectangle 3 Copy 2" class="cls-17" d="M155.93,181.84l5.64,6.64H150.29Z"/><rect id="Rectangle_3-2" data-name="Rectangle 3-2" class="cls-26" x="147.95" y="184.49" width="15.96" height="3.99"/></g></g></g></g></g><path id="Path_Copy_15" data-name="Path Copy 15" class="cls-5" d="M108.86,137.94s1.23,19,.6,29.68-3.82,8.28-3.82,8.28v56.64s17.58,6,33.24,6,30.84-6,30.84-6V175.66s-3.78-.94-4.4-9.09.5-29.41.5-29.41a68.25,68.25,0,0,0-28.14-5.62A76.17,76.17,0,0,0,108.86,137.94Z"/><g id="Group_3" data-name="Group 3"><path id="Rectangle_3-3" data-name="Rectangle 3-3" class="cls-27" d="M82.3,181.5a86.87,86.87,0,0,0,11.83,1,77.2,77.2,0,0,0,11.46-1v8a78.93,78.93,0,0,1-11.69,1,77.73,77.73,0,0,1-11.6-1Z"/><path id="Fill_63-2" data-name="Fill 63-2" class="cls-2" d="M88.12,185.48a2,2,0,1,1-2-2,2,2,0,0,1,2,2"/></g><g id="Group_3_Copy" data-name="Group 3 Copy"><path id="Rectangle_3-4" data-name="Rectangle 3-4" class="cls-27" d="M194,181.5a78.8,78.8,0,0,1-11.88,1,89.85,89.85,0,0,1-12.38-1v8a74.07,74.07,0,0,0,24.26,0Z"/><path id="Fill_63-3" data-name="Fill 63-3" class="cls-2" d="M187.84,185.48a2,2,0,1,0,2-2h0a2,2,0,0,0-2,2"/></g><g id="line"><path id="Fill_19" data-name="Fill 19" class="cls-3" d="M169.68,195.89V181.65"/><path id="Stroke_21" data-name="Stroke 21" class="cls-5" d="M169.68,200.87v-24.2"/><path id="Fill_23" data-name="Fill 23" class="cls-3" d="M169.68,175.55v-2"/><path id="Stroke_25" data-name="Stroke 25" class="cls-5" d="M169.68,170.57v-2"/></g><g id="line-2"><path id="Fill_39" data-name="Fill 39" class="cls-3" d="M105.6,195.89V181.65"/><path id="Stroke_41-2" data-name="Stroke 41-2" class="cls-5" d="M105.6,200.87v-24.2"/><path id="Fill_43" data-name="Fill 43" class="cls-3" d="M105.6,175.55v-2"/><path id="Stroke_45" data-name="Stroke 45" class="cls-5" d="M105.6,170.57v-2"/></g></g><g id="neck"><path id="Fill_35-2" data-name="Fill 35-2" class="cls-10" d="M149.87,144.68l-12,16.46-12-16.46V121.39h23.94Z"/><path id="Fill_37-2" data-name="Fill 37-2" class="cls-28" d="M127,135.19c.28.14.54.29.83.42a26.13,26.13,0,0,0,20.28,0c.29-.13.55-.28.83-.42v-13.8H127Z"/></g><g id="воротник"><path id="Combined_Shape-8" data-name="Combined Shape-8" class="cls-29" d="M137.8,162.43l0,.06-8.38-12.55,1.27-1.37.64-.79,2,1.06,4.55,6.5,4.67-6.43,1.8-1.13.65.79,1.27,1.37-8.38,12.55Z"/><g id="Fill_59-2" data-name="Fill 59-2"><path class="cls-30" d="M125.2,155.57h0c-.71,0-1.78-.93-2.85-2.47-2-2.82-4.31-6.88-4.31-10.21a11.13,11.13,0,0,1,1-4.89,18.74,18.74,0,0,1,2.69-3.93,14.34,14.34,0,0,1,4.18-2.77v6.09a12.32,12.32,0,0,0,3.82,8.84,16.39,16.39,0,0,0,2.65,2.14l-4.63,5.09-.22.24C126.93,154.4,125.87,155.57,125.2,155.57Z"/><path class="cls-2" d="M124.94,133a8.94,8.94,0,0,0-2.41,1.75c-2,2.36-3.49,4.47-3.49,8.18,0,2.39,1.46,5.82,4.13,9.64,1,1.47,1.75,1.94,2,2a2.4,2.4,0,0,0,.57-.41c.36-.32.74-.74,1.08-1.11.07-.09.15-.17.22-.25l3.86-4.24a17.6,17.6,0,0,1-1.85-1.6,13.29,13.29,0,0,1-4.11-9.55V133m2-3.32v7.75c0,7.39,7.05,10.73,7.05,10.73l-5.47,6c-.89,1-2.11,2.44-3.32,2.44h0c-1.41,0-2.81-1.65-3.67-2.9-2.14-3.07-4.49-7.25-4.49-10.78,0-4.27,1.69-6.76,4-9.46C122.32,131.84,125,130.69,126.94,129.64Z"/></g><g id="Fill_59_Copy" data-name="Fill 59 Copy"><path class="cls-17" d="M125.1,150.23a17.33,17.33,0,0,1-1.08-1.44l0,0c-.28-.41-.55-.82-.8-1.24l.69-.44a14.18,14.18,0,0,0,2,2.52A7.19,7.19,0,0,1,125.1,150.23Z"/><path class="cls-2" d="M124.34,145.62c.41,1.64,2.94,4,2.94,4-.52.57-1.79,1.78-2.3,1.78h0c-.39,0-1.3-1.32-1.81-2.05a20.25,20.25,0,0,1-1.31-2.13S124.34,145.62,124.34,145.62Z"/></g><g id="Fill_61" data-name="Fill 61"><path class="cls-30" d="M150.9,155.55c-.94,0-2.29-1.52-2.81-2.09l-4.56-5.1a15.8,15.8,0,0,0,2.62-2.13,12.45,12.45,0,0,0,3.75-8.84v-6.08a14,14,0,0,1,4.07,2.75,18.48,18.48,0,0,1,2.65,3.93,11.31,11.31,0,0,1,1,4.9c0,3.33-2.31,7.39-4.24,10.22a15.24,15.24,0,0,1-1.29,1.67c-.6.62-1,.74-1.13.76Z"/><path class="cls-2" d="M150.9,133v4.4a13.41,13.41,0,0,1-4,9.54,15.75,15.75,0,0,1-1.84,1.6l3.82,4.27a12.28,12.28,0,0,0,1.31,1.29,2.28,2.28,0,0,0,.71.44,2.7,2.7,0,0,0,.65-.59,13.56,13.56,0,0,0,1.06-1.4c2.62-3.82,4.07-7.25,4.07-9.65,0-3.72-1.49-5.83-3.44-8.19a8.48,8.48,0,0,0-2.3-1.71m-2-3.35c1.87,1.05,4.54,2.2,5.84,3.79,2.23,2.7,3.9,5.19,3.9,9.46,0,3.53-2.31,7.71-4.42,10.78-.75,1.1-1.91,2.73-3.13,2.87h-.19c-1.29,0-2.61-1.37-3.55-2.42l-5.38-6s6.93-3.34,6.93-10.73Z"/></g></g><g id="hair"><path id="Stroke_57_Copy_2" data-name="Stroke 57 Copy 2" class="cls-31" d="M182.42,86.08c1.68-1.59,3.73-3.83,3.73-6.31A8.78,8.78,0,0,0,177.34,71h0a38.25,38.25,0,0,0-76.23,0,8.81,8.81,0,0,0-9,8.64v.11c0,2.48,2.06,4.72,3.73,6.31-1.83.51-2.78,4.07-.75,7.1a6.16,6.16,0,0,0,4.94,2.94L107,103.9h62.29l7.4-7.28s4.2-.57,6-3.17S183.74,86.45,182.42,86.08Z"/><path id="Fill_55" data-name="Fill 55" class="cls-32" d="M175.87,61.83a38.15,38.15,0,0,0-73.07,0c8.12-7.8,21.44-12.91,36.54-12.91S167.76,54,175.87,61.83Z"/><path id="Fill_55-2" data-name="Fill 55-2" class="cls-32" d="M101.41,71.92c-3.43.12-7.64,2.41-8.36,5.56a7.28,7.28,0,0,0,3.7,8.12,9.75,9.75,0,0,1-1.19-7.45A8.45,8.45,0,0,1,101.41,71.92Z"/><path id="Fill_55_Copy" data-name="Fill 55 Copy" class="cls-32" d="M177.22,71.92c3.44.12,7.64,2.41,8.36,5.56a7.28,7.28,0,0,1-3.7,8.12,9.75,9.75,0,0,0,1.19-7.45A8.47,8.47,0,0,0,177.22,71.92Z"/><path id="Stroke_57_Copy_4" data-name="Stroke 57 Copy 4" class="cls-12" d="M182.42,86.08c1.68-1.59,3.73-3.83,3.73-6.31A8.78,8.78,0,0,0,177.34,71h0a38.25,38.25,0,0,0-76.23,0,8.81,8.81,0,0,0-9,8.64v.11c0,2.48,2.06,4.72,3.73,6.31-1.83.51-2.78,4.07-.75,7.1a6.16,6.16,0,0,0,4.94,2.94L107,103.9h62.29l7.4-7.28s4.2-.57,6-3.17S183.74,86.45,182.42,86.08Z"/><path id="Stroke_57_Copy_4-2" data-name="Stroke 57 Copy 4-2" class="cls-12" d="M182.38,86c3-2,3.73-3.82,3.73-6.31a8.79,8.79,0,0,0-8.81-8.76h0a38.24,38.24,0,0,0-76.22,0,8.8,8.8,0,0,0-9,8.63v.11c0,7.93,10.81,8.6,12.83,4.6s1.38,10.38,1.38,10.38l.64,9.15h63.18s.3-14.39.3-19.53C170.44,84,176.21,90.19,182.38,86Z"/><path id="Path_2" data-name="Path 2" class="cls-8" d="M105,79.06c10.16-.63,12.83-12.45,12.83-12.45"/><path id="Path_2_Copy" data-name="Path 2 Copy" class="cls-8" d="M105,74.45c5.72-.35,7.23-7,7.23-7"/><path id="Stroke_61_Copy_2" data-name="Stroke 61 Copy 2" class="cls-5" d="M127.12,63.22a45.25,45.25,0,0,0,20.38,6.71c15.24,1.12,22.42-6.66,22.42-6.66"/><path id="Stroke_61_Copy_3" data-name="Stroke 61 Copy 3" class="cls-5" d="M127.91,55.53c4.32,3.94,12.81,7.78,21.59,8.42a38.56,38.56,0,0,0,6.71-.08"/><path id="Stroke_61_Copy_4" data-name="Stroke 61 Copy 4" class="cls-5" d="M148.29,37.09c-1.26-.2-2.49-.34-3.68-.42C134.05,36,128,41.07,124.23,50c-2.26,5.3-1.58,9.56-1.58,17.24"/></g><g id="ears"><path id="Fill_5" data-name="Fill 5" class="cls-33" d="M112.05,99.72a6,6,0,1,1-6-6,6,6,0,0,1,6,6"/><path id="Fill_5_Copy" data-name="Fill 5 Copy" class="cls-33" d="M176.87,99.72a6,6,0,1,1-6-6,6,6,0,0,1,6,6"/></g><g id="face"><path id="Stroke_61-2" data-name="Stroke 61-2" class="cls-10" d="M122.54,66.48A17.48,17.48,0,0,1,105.6,83.9V97.14a32.54,32.54,0,1,0,65.07,0V71.64c-2,.61-6.15,5.83-21.15,5.87C138.45,77.54,126.47,72.06,122.54,66.48Z"/><g id="eye"><circle id="Oval_2" data-name="Oval 2" class="cls-2" cx="150.94" cy="93.74" r="3.99"/><path id="Oval_2-2" data-name="Oval 2-2" class="cls-2" d="M150.94,97.73a4,4,0,0,1,0-8,3.81,3.81,0,0,1,4,3.63,2.16,2.16,0,0,1,0,.36,4,4,0,0,1-4,4Z"/><circle id="Oval_4" data-name="Oval 4" class="cls-17" cx="148.95" cy="92.74" r="1"/><path id="Path_2-2" data-name="Path 2-2" class="cls-8" d="M155.36,83.69a9.6,9.6,0,0,1-4.67.82,10.84,10.84,0,0,1-4.44-2.1"/></g><g id="eye-2"><circle id="Oval_2-3" data-name="Oval 2-3" class="cls-2" cx="126.01" cy="93.74" r="3.99"/><path id="Oval_2-4" data-name="Oval 2-4" class="cls-2" d="M126,97.73a4,4,0,0,0,0-8,3.81,3.81,0,0,0-4,3.63v.36A4,4,0,0,0,126,97.73Z"/><circle id="Oval_4-2" data-name="Oval 4-2" class="cls-17" cx="124.02" cy="92.74" r="1"/><path id="Path_2-3" data-name="Path 2-3" class="cls-8" d="M121.59,83.7a9.76,9.76,0,0,0,4.68.81,10.91,10.91,0,0,0,4.43-2.09"/></g><path id="Stroke_67" data-name="Stroke 67" class="cls-5" d="M132.72,113.91a11.93,11.93,0,0,1,10.83,0"/><path id="Stroke_67_Copy" data-name="Stroke 67 Copy" class="cls-5" d="M136,102.5a3.46,3.46,0,0,1,2-.53,3.41,3.41,0,0,1,2,.53"/><path id="Stroke_67_Copy_3" data-name="Stroke 67 Copy 3" class="cls-34" d="M136,121.45a3.46,3.46,0,0,1,2-.53,3.41,3.41,0,0,1,2,.53"/></g><g id="Group"><g id="Stroke_61_Copy_14" data-name="Stroke 61 Copy 14"><path class="cls-19" d="M138.14,129.34a33.13,33.13,0,0,1-12.47-2.51,29.75,29.75,0,0,1-9.32-6c.2,0,.44-.09.75-.13.88-.14,2-.26,3.36-.39,7.05-.73,18.84-1.95,27.13-8.68,12-9.73,17.18-24.88,19.39-31.35.27-.79.55-1.59.76-2.15L170.49,80a66.34,66.34,0,0,1-9.78,33.44A41.71,41.71,0,0,1,150.34,125,20.68,20.68,0,0,1,138.14,129.34Z"/><path class="cls-2" d="M138.14,128.34a19.72,19.72,0,0,0,11.61-4.18,40.72,40.72,0,0,0,10.11-11.3,65.36,65.36,0,0,0,9.62-32.37l-1.22-.8-.33,1c-2.24,6.55-7.5,21.9-19.71,31.81-8.52,6.91-20.5,8.15-27.66,8.89l-1.93.21a30,30,0,0,0,7.42,4.36,32.09,32.09,0,0,0,12.09,2.43m0,2c-8.89,0-17.68-3.77-23.07-9.34-2.66-2.74,19.17.22,31.89-10.1,15.31-12.43,19.31-33.82,20.42-34.15l4.11,2.65C171.49,103.54,156.11,130.34,138.14,130.34Z"/></g><g id="Stroke_61_Copy_16" data-name="Stroke 61 Copy 16"><path class="cls-19" d="M168.79,69.4c-.16-.58-.34-1.41-.53-2.22-1.24-5.42-3.81-16.65-10.5-26.51a5.25,5.25,0,0,1,2.73-.31,9.84,9.84,0,0,1,6.16,3.27c2.41,2.6,4,6.48,4.69,11.53a47.38,47.38,0,0,1,.37,12.76Z"/><path class="cls-2" d="M169.46,67.94l1.31-.66a46.91,46.91,0,0,0-.42-12c-.68-4.85-2.17-8.54-4.43-11a8.91,8.91,0,0,0-5.53-3,7,7,0,0,0-1,0C165.59,51,168,61.7,169.24,67l.22,1m-1.18,2.84c-.92-.39-2.33-16.48-11.56-29.87-.59-.85,1.25-1.82,3.88-1.55,4.09.44,10.1,3.92,11.73,15.67a48.85,48.85,0,0,1,.32,13.54Z"/></g><g id="Oval_2_Copy_2" data-name="Oval 2 Copy 2"><path class="cls-19" d="M166.06,73.39s-1.17-.42-1.84-6.3c-.18-1.61-.28-3.21-.33-4.4,1,.71,2.25,1.68,3.5,2.73,4.51,3.82,4.21,5,4.21,5A4.44,4.44,0,0,1,166.06,73.39Z"/><path class="cls-2" d="M166.54,72.49a3.44,3.44,0,0,0,4-2.15c-.14-.35-.84-1.69-4.35-4.58-.41-.34-.82-.67-1.22-1,0,.49.08,1,.13,1.52.46,4.55,1.18,5.87,1.4,6.18m-.77,1.86c-2.87-.88-2.94-13.64-2.94-13.64s10.6,7.16,9.72,10A5.42,5.42,0,0,1,165.77,74.35Z"/></g><g id="Oval_2_Copy_9" data-name="Oval 2 Copy 9"><path class="cls-19" d="M170.15,72.14s-.45-1.17,3.55-5.53c1.1-1.2,2.24-2.32,3.11-3.14.1,1.2.2,2.81.23,4.44.07,5.91-1,6.47-1,6.48A4.44,4.44,0,0,1,170.15,72.14Z"/><path class="cls-2" d="M171.15,71.9a3.43,3.43,0,0,0,4.27,1.65c.18-.34.72-1.74.6-6.29,0-.54,0-1.06-.06-1.56-.35.34-.71.71-1.07,1.09-3.13,3.34-3.66,4.75-3.74,5.11m-1.91.65C168,69.8,177.6,61.38,177.6,61.38s1.55,12.7-1.19,13.92A5.43,5.43,0,0,1,169.24,72.55Z"/></g><g id="Rectangle_6" data-name="Rectangle 6"><path class="cls-19" d="M167,72.65h0a4,4,0,0,1,5.61-.59l1.55,1.26a4,4,0,0,1,.59,5.61h0a4,4,0,0,1-5.61.59l-1.55-1.26A4,4,0,0,1,167,72.65Z"/><path class="cls-35" d="M167.79,73.28h0a3,3,0,0,1,4.2-.44l1.55,1.25A3,3,0,0,1,174,78.3h0a3,3,0,0,1-4.2.44l-1.55-1.25A3,3,0,0,1,167.79,73.28Z"/></g><path id="Stroke_61_Copy_2-2" data-name="Stroke 61 Copy 2-2" class="cls-5" d="M128.4,124.32A41.32,41.32,0,0,0,148.18,116"/><path id="Stroke_61_Copy_15" data-name="Stroke 61 Copy 15" class="cls-5" d="M138,125.68c3.1-.33,6.64-2.22,9.88-4.56"/></g></g><g id="hand_12" data-name="hand 12"><path id="Combined_Shape-9" data-name="Combined Shape-9" class="cls-10" d="M186.51,217.34c-2.61-.2-9.48-.28-14.16-6.85a15.68,15.68,0,0,1-2.72-9.34h0V189.46a95.6,95.6,0,0,0,11.46,1,61.83,61.83,0,0,0,7.69-.33c1.1-1.52,2.41-3.38,3.7-5.29,2.59-3.83,8.16-11.74,10.81-14.58a8.66,8.66,0,0,1,7.49-3.65,105.45,105.45,0,0,0,12.94-.31c3.81-.55,6.57-11.37,10-7.16,1.69,2.05-3.55,12.09-3.87,12.68-1.44,2.66-14.31,3.9-14.31,3.9s-3.5,1-4.67,3.62c-.79,1.8-3.19,11.4-8,20-6.27,11.16-13.53,18-16.23,18Z"/><path id="Stroke_67_Copy-2" data-name="Stroke 67 Copy-2" class="cls-5" d="M183.85,212.76a3.49,3.49,0,0,0,2,.35,3.46,3.46,0,0,0,2-.7"/><path id="Stroke_67-2" data-name="Stroke 67-2" class="cls-5" d="M186.09,194.69l5.27-8.35Z"/><path id="Stroke_67_Copy-3" data-name="Stroke 67 Copy-3" class="cls-5" d="M184,194.91a1.76,1.76,0,0,1,1-.26,1.74,1.74,0,0,1,1,.26"/></g><g id="bottle"><path id="Rectangle_3-5" data-name="Rectangle 3-5" class="cls-18" d="M209.28,141.61a22.39,22.39,0,0,0,7.45,1,26.63,26.63,0,0,0,7.84-1v23.93a29.72,29.72,0,0,1-15.29,0Z"/><path id="Rectangle_3_Copy_5" data-name="Rectangle 3 Copy 5" class="cls-4" d="M209.28,141.61s2.9.47,4,.68l-.4,24c-1.18-.24-3.61-.78-3.61-.78Z"/><path id="Rectangle_3_Copy_17" data-name="Rectangle 3 Copy 17" class="cls-6" d="M220.25,141.61s2.89.47,4,.68l-.4,24c-1.19-.24-3.61-.78-3.61-.78Z"/><path id="Rectangle_3_Copy_21" data-name="Rectangle 3 Copy 21" class="cls-4" d="M222.25,141.61s1.68.47,2.32.68l-.22,24c-.69-.24-2.1-.78-2.1-.78Z"/><path id="Rectangle_3_Copy_6-2" data-name="Rectangle 3 Copy 6-2" class="cls-5" d="M209.28,141.61a22.39,22.39,0,0,0,7.45,1,26.63,26.63,0,0,0,7.84-1v23.93a29.72,29.72,0,0,1-15.29,0Z"/><path id="Rectangle_3_Copy_9" data-name="Rectangle 3 Copy 9" class="cls-13" d="M209.28,147.59a22.39,22.39,0,0,0,7.45,1,26.63,26.63,0,0,0,7.84-1v10a29.72,29.72,0,0,1-15.29,0Z"/><g id="Group_17_Copy" data-name="Group 17 Copy"><path id="Stroke_25_Copy" data-name="Stroke 25 Copy" class="cls-36" d="M216.76,155.57v-4"/><path id="Stroke_25_Copy_2" data-name="Stroke 25 Copy 2" class="cls-36" d="M214.77,153.61h4"/></g><path id="Rectangle_3_Copy_4-2" data-name="Rectangle 3 Copy 4-2" class="cls-18" d="M207.79,140.61s2.71-1,8.9-1a34.46,34.46,0,0,1,9.38,1v-5a32.34,32.34,0,0,0-9.14-1,32.34,32.34,0,0,0-9.14,1Z"/><path id="Rectangle_3_Copy_8" data-name="Rectangle 3 Copy 8" class="cls-18" d="M207.79,136.62s2.71,1,8.9,1a34.86,34.86,0,0,0,9.38-1v5a42.27,42.27,0,0,1-18.28,0Z"/></g><g id="drags"><g id="drag_copy_2" data-name="drag copy 2"><g id="Rectangle_3_Copy_11" data-name="Rectangle 3 Copy 11"><rect id="Mask-4" class="cls-3" x="58.61" y="157.05" width="6.98" height="11.97" rx="3" transform="translate(-109.25 195.83) rotate(-79.98)"/><g class="cls-37"><g id="Rectangle_3_Copy_11-2" data-name="Rectangle 3 Copy 11-2"><path id="Rectangle_3_Copy_11-3" data-name="Rectangle 3 Copy 11-3" class="cls-38" d="M62.17,159.51,61,166.38h0l-4-.7a2.5,2.5,0,0,1-2-2.9h0l.35-1.95a2.5,2.5,0,0,1,2.9-2h0l4,.71Z"/></g></g><path id="Combined_Shape-10" data-name="Combined Shape-10" class="cls-17" d="M61.32,161.72l.2-1.15,3.92.69a3,3,0,0,1,2.44,3.48l-.17,1,0,.09a3,3,0,0,0-2.45-3.39l-3.92-.69Z"/><path id="Combined_Shape_Copy-4" data-name="Combined Shape Copy-4" class="cls-39" d="M50.06,159.73l.2-1.15,3.4.6a3,3,0,0,1,2.43,3.48l-.17,1,0,.09a3,3,0,0,0-2.45-3.39l-3.39-.6Z"/><g class="cls-40"><g id="Rectangle_3_Copy_11-5" data-name="Rectangle 3 Copy 11-5"><path id="Rectangle_3_Copy_12" data-name="Rectangle 3 Copy 12" class="cls-5" d="M62.17,159.51,61,166.38h0l-4-.7a2.5,2.5,0,0,1-2-2.9h0l.35-1.95a2.5,2.5,0,0,1,2.9-2h0l4,.71Z"/></g></g></g><rect id="Rectangle_3_Copy_10" data-name="Rectangle 3 Copy 10" class="cls-5" x="58.61" y="157.05" width="6.98" height="11.97" rx="3" transform="translate(-109.25 195.83) rotate(-79.98)"/></g><g id="drag_copy" data-name="drag copy"><g id="Rectangle_3_Copy_11-6" data-name="Rectangle 3 Copy 11-6"><path id="Mask-5" class="cls-3" d="M46,156.32h0a3,3,0,0,1,4.23,0l4.23,4.23a3,3,0,0,1,0,4.24h0a3,3,0,0,1-4.23,0L46,160.55A3,3,0,0,1,46,156.32Z"/><g class="cls-41"><g id="Rectangle_3_Copy_11-7" data-name="Rectangle 3 Copy 11-7"><path id="Rectangle_3_Copy_11-8" data-name="Rectangle 3 Copy 11-8" class="cls-38" d="M48.49,163.05l4.23-4.23h0l2.85,2.85a2.5,2.5,0,0,1,0,3.54h0l-.69.69a2.5,2.5,0,0,1-3.54,0h0l-2.85-2.85Z"/></g></g><path id="Combined_Shape-11" data-name="Combined Shape-11" class="cls-17" d="M50.23,162l-.71.71-2.82-2.82a3,3,0,0,1,0-4.23,2.3,2.3,0,0,1,.38-.32,3,3,0,0,0,.32,3.84L50.22,162Z"/><path id="Combined_Shape_Copy-5" data-name="Combined Shape Copy-5" class="cls-39" d="M58.31,170.05l-.71.7-2.44-2.44a3,3,0,0,1,0-4.23,2.8,2.8,0,0,1,.38-.32,3,3,0,0,0,.33,3.84l2.44,2.45Z"/><g class="cls-42"><g id="Rectangle_3_Copy_11-10" data-name="Rectangle 3 Copy 11-10"><path id="Rectangle_3_Copy_12-2" data-name="Rectangle 3 Copy 12-2" class="cls-5" d="M48.49,163.05l4.23-4.23h0l2.85,2.85a2.5,2.5,0,0,1,0,3.54h0l-.69.69a2.5,2.5,0,0,1-3.54,0h0l-2.85-2.85Z"/></g></g></g><path id="Rectangle_3_Copy_10-2" data-name="Rectangle 3 Copy 10-2" class="cls-5" d="M46,156.32h0a3,3,0,0,1,4.23,0l4.23,4.23a3,3,0,0,1,0,4.24h0a3,3,0,0,1-4.23,0L46,160.55A3,3,0,0,1,46,156.32Z"/></g><g id="drag_copy_3" data-name="drag copy 3"><g id="Rectangle_3_Copy_11-11" data-name="Rectangle 3 Copy 11-11"><path id="Mask-6" class="cls-3" d="M62.16,155.2h0a3,3,0,0,1-3.3,2.66l-6-.63a3,3,0,0,1-2.66-3.29h0a3,3,0,0,1,3.29-2.66l6,.63A3,3,0,0,1,62.16,155.2Z"/><g class="cls-43"><g id="Rectangle_3_Copy_11-12" data-name="Rectangle 3 Copy 11-12"><path id="Rectangle_3_Copy_11-13" data-name="Rectangle 3 Copy 11-13" class="cls-38" d="M56,151.54l-.63,6h0l-4-.42a2.5,2.5,0,0,1-2.22-2.75h0l.1-1A2.5,2.5,0,0,1,52,151.11h0l4,.43Z"/></g></g><path id="Combined_Shape-12" data-name="Combined Shape-12" class="cls-17" d="M55.31,153.48l.11-1,4,.42a3,3,0,0,1,2.66,3.29,3.86,3.86,0,0,1-.09.49,3,3,0,0,0-2.68-2.79l-4-.41Z"/><path id="Combined_Shape_Copy-6" data-name="Combined Shape Copy-6" d="M43.94,152.27l.11-1,3.43.36a3,3,0,0,1,2.66,3.29,2.1,2.1,0,0,1-.09.5,3,3,0,0,0-2.67-2.79l-3.44-.37Z"/><g class="cls-44"><g id="Rectangle_3_Copy_11-15" data-name="Rectangle 3 Copy 11-15"><path id="Rectangle_3_Copy_12-3" data-name="Rectangle 3 Copy 12-3" class="cls-5" d="M56,151.54l-.62,6h0l-4-.42a2.52,2.52,0,0,1-2.23-2.75h0l.11-1A2.5,2.5,0,0,1,52,151.11h0l4,.43Z"/></g></g></g><path id="Rectangle_3_Copy_10-3" data-name="Rectangle 3 Copy 10-3" class="cls-5" d="M62.16,155.2h0a3,3,0,0,1-3.3,2.66l-6-.63a3,3,0,0,1-2.66-3.29h0a3,3,0,0,1,3.29-2.66l6,.63A3,3,0,0,1,62.16,155.2Z"/></g></g><g id="hand"><path id="Combined_Shape-13" data-name="Combined Shape-13" class="cls-10" d="M88.45,217.34c2.61-.2,9.48-.28,14.15-6.85a15.6,15.6,0,0,0,2.74-9.34h0V189.46a95.43,95.43,0,0,1-11.46,1,61.83,61.83,0,0,1-7.69-.33c-1.1-1.52-2.41-3.37-3.7-5.29-2.59-3.83-8.16-11.74-10.81-14.58a8.66,8.66,0,0,0-7.49-3.65,107.47,107.47,0,0,1-12.94-.3c-3.81-.56-6.57-11.38-10-7.17-1.69,2.05,3.55,12.09,3.87,12.68,1.44,2.66,14.31,3.9,14.31,3.9s3.5,1,4.67,3.62c.79,1.8,3.19,11.4,8,20,6.27,11.16,13.53,18,16.23,18Z"/><path id="Stroke_67_Copy-4" data-name="Stroke 67 Copy-4" class="cls-5" d="M91.11,212.76a4,4,0,0,1-4-.35"/><path id="Stroke_67-3" data-name="Stroke 67-3" class="cls-5" d="M88.87,194.69l-5.27-8.35Z"/><path id="Stroke_67_Copy-5" data-name="Stroke 67 Copy-5" class="cls-5" d="M91,194.91a1.83,1.83,0,0,0-1-.26,1.76,1.76,0,0,0-1,.26"/></g></g></g></svg>