<?xml version="1.0" encoding="utf-8"?>
<!-- Generator: Adobe Illustrator 23.0.1, SVG Export Plug-In . SVG Version: 6.00 Build 0)  -->
<svg version="1.1" id="Layer_1" xmlns="http://www.w3.org/2000/svg" xmlns:xlink="http://www.w3.org/1999/xlink" x="0px" y="0px"
	 viewBox="0 0 270 240.4" style="enable-background:new 0 0 270 240.4;" xml:space="preserve">
<style type="text/css">
	.st0{fill:none;}
	.st1{fill:#504B46;}
	.st2{fill:#FFFFFF;stroke:#504B46;stroke-width:2;stroke-linecap:round;stroke-linejoin:round;stroke-miterlimit:10;}
	.st3{fill:#B4E0FC;stroke:#504B46;stroke-width:2;stroke-linecap:round;stroke-linejoin:round;stroke-miterlimit:10;}
	.st4{fill:#F2977C;}
	.st5{opacity:0.2;fill:#FFFFFF;enable-background:new    ;}
	.st6{fill:none;stroke:#504B46;stroke-width:2;stroke-linecap:round;stroke-linejoin:round;stroke-miterlimit:10;}
	.st7{fill:#F29166;stroke:#504B46;stroke-width:2;stroke-linecap:round;stroke-linejoin:round;stroke-miterlimit:10;}
	.st8{fill:#EDF2F4;}
	.st9{fill:#83CFFF;}
	.st10{fill:#FDDFD1;stroke:#504B46;stroke-width:2;stroke-linecap:round;stroke-linejoin:round;stroke-miterlimit:10;}
	.st11{fill:#FCCAB4;}
	.st12{fill:#B4E0FC;}
	.st13{fill:#FFD070;}
	.st14{fill:#C0CCFF;stroke:#504B46;stroke-width:2;stroke-linecap:round;stroke-linejoin:round;stroke-miterlimit:10;}
	.st15{fill:#575762;stroke:#504B46;stroke-width:2;stroke-linejoin:round;stroke-miterlimit:10;}
	.st16{opacity:0.1;fill:#FFFFFF;enable-background:new    ;}
	.st17{fill:none;stroke:#504B46;stroke-width:2;stroke-linejoin:round;stroke-miterlimit:10;}
	.st18{fill:none;stroke:#504B46;stroke-width:2;stroke-linecap:round;stroke-miterlimit:10;}
	.st19{fill:#FCCAB4;stroke:#504B46;stroke-width:2;stroke-miterlimit:10;}
	.st20{fill:#FFFFFF;}
	.st21{fill:none;stroke:#FCCAB4;stroke-width:2;stroke-linecap:round;stroke-linejoin:round;stroke-miterlimit:10;}
	.st22{fill:#575762;stroke:#504B46;stroke-width:2;stroke-linecap:round;stroke-linejoin:round;stroke-miterlimit:10;}
	.st23{fill:#EDF2F4;stroke:#504B46;stroke-width:2;stroke-linecap:round;stroke-linejoin:round;stroke-miterlimit:10;}
	.st24{clip-path:url(#SVGID_2_);}
	.st25{fill:#FDDFD1;}
	.st26{fill:#F29166;}
	.st27{fill:#835B4F;stroke:#504B46;stroke-width:2;stroke-linejoin:round;stroke-miterlimit:10;}
	.st28{fill:#9D6655;stroke:#504B46;stroke-width:2;stroke-linejoin:round;stroke-miterlimit:10;}
</style>
<g transform="translate(-36 -5)">
	<g transform="translate(22 5)">
		<g transform="translate(166)">
			<g>
				<path class="st0" d="M110.2,65.6H84.1L62.8,85V65.6H45.4c-4.3,0-7.8-3.5-7.8-7.8c0,0,0,0,0,0V7.8c0-4.3,3.5-7.8,7.8-7.8
					c0,0,0,0,0,0h64.9c4.3,0,7.8,3.5,7.8,7.8v50.1C118,62.1,114.5,65.6,110.2,65.6L110.2,65.6z"/>
				<path class="st1" d="M64.8,80.5l18-16.3c0.4-0.3,0.8-0.5,1.3-0.5h26.1c3.2,0,5.8-2.6,5.8-5.8V7.8c0-3.2-2.6-5.8-5.8-5.8H45.4
					c-3.2,0-5.8,2.6-5.8,5.8v50.1c0,3.2,2.6,5.8,5.8,5.8h17.4c0.5,0,1,0.2,1.4,0.6c0.4,0.4,0.6,0.9,0.6,1.4L64.8,80.5 M62.8,85
					l0-19.4H45.4c-4.3,0-7.8-3.5-7.8-7.8V7.8c0-4.3,3.5-7.8,7.8-7.8h64.9c4.3,0,7.8,3.5,7.8,7.8v50.1c0,4.3-3.5,7.8-7.8,7.8H84.1
					L62.8,85z"/>
			</g>
			<g transform="translate(24 16)">
				<path class="st2" d="M67.5,12.6h-7c0.5-1.7,0.7-3.5,0.7-5.2c0-6.1-1.7-7.3-3.1-7.3C57-0.2,56,0.3,55.4,1.2C55,1.9,54.9,5,54,6.9
					L54,7.1c-1.1,3-4,5.6-6.3,7.4v15c0.9,0.1,1.8,0.4,2.7,0.9c1.1,0.7,2.3,1,3.6,1.1h9.9c1.8,0.1,3.4-1.3,3.6-3.1
					c0-0.3,0-0.5-0.1-0.8c1.3-0.4,2.1-1.6,2.2-2.9c0-0.6-0.1-1.1-0.3-1.6c0.9-0.6,1.5-1.5,1.6-2.6c0-0.6-0.3-1.3-0.7-1.8
					c0.9-0.6,1.4-1.6,1.5-2.7C71.6,13.8,69.9,12.6,67.5,12.6z"/>
				<path class="st3" d="M40.1,31.5c-1.3,0.1-2.4-0.9-2.5-2.2V13.6c0.1-1.3,1.2-2.3,2.5-2.2h5c1.3-0.1,2.4,0.9,2.5,2.2v15.7
					c-0.1,1.3-1.2,2.3-2.5,2.2H40.1z"/>
			</g>
		</g>
		<g transform="translate(57 134)">
			<g transform="translate(3)">
				<path class="st4" d="M143.8,40.8c0-22.5-18.3-40.8-40.8-40.8c0,0,0,0,0,0H78.6C56,0.1,37.8,18.3,37.8,40.8v10.6h19.5l-0.1,48
					c0,0,17.6,6,33.9,6s32.5-6,32.5-6l-0.3-48h20.5L143.8,40.8z"/>
				<path class="st5" d="M143.8,40.8c0-22.5-18.3-40.8-40.8-40.8c0,0,0,0,0,0H78.6C56,0.1,37.8,18.3,37.8,40.8v16.3
					c0-22.5,18.3-40.8,40.8-40.8c0,0,0,0,0,0H103c22.5,0,40.8,18.3,40.8,40.8c0,0,0,0,0,0V40.8z"/>
				<path class="st6" d="M143.8,40.8c0-22.5-18.3-40.8-40.8-40.8c0,0,0,0,0,0H78.6C56,0.1,37.8,18.3,37.8,40.8v10.6h20.3v48
					c0,0,17.2,6,32.9,6s31.4-6,31.4-6v-48h21.4L143.8,40.8z"/>
			</g>
			<g transform="translate(0 48)">
				<path class="st7" d="M37.8,0c3.9,0.6,7.9,0.9,11.9,1c3.9,0,7.7-0.4,11.5-1v8c-3.9,0.6-7.8,1-11.7,1c-3.9,0-7.8-0.4-11.6-1V0z"/>
				<path class="st1" d="M43.6,4c0,1.1-0.9,2-2,2s-2-0.9-2-2s0.9-2,2-2S43.6,2.9,43.6,4"/>
			</g>
			<g transform="translate(113 48) rotate(180)">
				<path class="st7" d="M-36.8,0c3.9-0.6,7.9-1,11.9-1c4.2,0,8.3,0.4,12.4,1v-8c-4-0.6-8.1-1-12.2-1c-4.1,0-8.1,0.4-12.2,1V0z"/>
				<path class="st1" d="M-30.6-4c0-1.1-0.9-2-2-2s-2,0.9-2,2s0.9,2,2,2S-30.6-2.9-30.6-4"/>
			</g>
			<g transform="translate(86 35)">
				<path class="st8" d="M39.4,27.4V13.2"/>
				<path class="st6" d="M39.4,32.4V8.2"/>
				<path class="st8" d="M39.4,7V5"/>
				<path class="st6" d="M39.4,2V0"/>
			</g>
			<g transform="translate(22 35)">
				<path class="st8" d="M39.1,27.4V13.2"/>
				<path class="st6" d="M39.1,32.4V8.2"/>
				<path class="st8" d="M39.1,7V5"/>
				<path class="st6" d="M39.1,2V0"/>
			</g>
		</g>
		<g transform="translate(84 116)">
			<path class="st9" d="M50.1,39.1l8.9,56.3l0.6,26.7c2.3,0.4,4.6,0.6,7,0.6c2.5,0,4.9-0.2,7.4-0.6V95.4l9.5-56.3H50.1z"/>
			<path class="st10" d="M78.5,33.1l-12,10.5l-12-12.5V0.7h24V33.1z"/>
			<path class="st11" d="M55.6,19.6c0.3,0.1,0.5,0.3,0.8,0.4c6.5,2.7,13.8,2.7,20.3,0c0.3-0.1,0.6-0.3,0.8-0.4V5.7h-22V19.6z"/>
		</g>
		<g transform="translate(92 133)">
			<path class="st7" d="M58.4,32.9L58.4,32.9L50,20.4l1.3-1.4l0.6-0.8l2,1.1l4.6,6.5l4.7-6.4l1.8-1.1l0.6,0.8l1.3,1.4L58.4,32.9
				L58.4,32.9z"/>
			<g>
				<path class="st12" d="M45.8,26C45.8,26,45.8,26,45.8,26L45.8,26c-0.7,0-1.8-0.9-2.9-2.5c-2-2.8-4.3-6.9-4.3-10.2
					c0-1.9,0.3-3.4,1-4.9c0.6-1.4,1.5-2.6,2.7-3.9c0.9-1.1,2.6-2,4.2-2.8v6.1c0,3.3,1.3,6.4,3.8,8.9c1,1,1.9,1.7,2.7,2.1l-4.7,5.1
					c-0.1,0.1-0.1,0.2-0.2,0.2C47.5,24.8,46.5,26,45.8,26z"/>
				<path class="st1" d="M45.5,3.3c-1,0.6-1.9,1.1-2.4,1.8c-2,2.4-3.5,4.5-3.5,8.2c0,2.4,1.5,5.8,4.1,9.7c1,1.5,1.8,2,2,2
					c0.1,0,0.3-0.1,0.6-0.4c0.4-0.3,0.7-0.7,1.1-1.1c0.1-0.1,0.2-0.2,0.2-0.2l3.9-4.3c-0.6-0.4-1.2-1-1.9-1.6
					c-2.7-2.7-4.1-6-4.1-9.6V3.3 M47.5,0v7.8c0,7.4,7.1,10.8,7.1,10.8l-5.5,6c-0.9,1-2.1,2.4-3.3,2.4c0,0,0,0,0,0
					c-1.4,0-2.8-1.7-3.7-2.9c-2.1-3.1-4.5-7.3-4.5-10.8c0-4.3,1.7-6.8,4-9.5C42.9,2.2,45.6,1.1,47.5,0z"/>
			</g>
			<g transform="translate(25)">
				<path class="st12" d="M46.6,26c-0.9,0-2.3-1.5-2.8-2.1l-4.6-5.1c0.7-0.5,1.7-1.2,2.6-2.1c2.5-2.5,3.8-5.6,3.8-8.9V1.7
					c1.5,0.8,3.2,1.7,4.1,2.8c1.1,1.4,2,2.6,2.7,3.9c0.7,1.5,1,3.1,1,4.9c0,3.3-2.3,7.4-4.3,10.2c-0.4,0.5-0.8,1.2-1.3,1.7
					C47.2,25.8,46.8,26,46.6,26C46.6,26,46.6,26,46.6,26z"/>
				<path class="st1" d="M46.6,3.3v4.4c0,3.6-1.4,6.9-4.1,9.6c-0.6,0.6-1.3,1.2-1.8,1.6l3.8,4.3c0.4,0.4,0.9,0.9,1.3,1.3
					c0.4,0.3,0.6,0.4,0.7,0.4c0.1-0.1,0.3-0.2,0.7-0.6c0.4-0.4,0.8-1,1.1-1.4c2.6-3.8,4.1-7.3,4.1-9.7c0-3.7-1.5-5.8-3.4-8.2
					C48.4,4.5,47.5,3.9,46.6,3.3 M44.6,0c1.9,1.1,4.5,2.2,5.9,3.8c2.2,2.7,3.9,5.2,3.9,9.5c0,3.5-2.3,7.7-4.4,10.8
					c-0.8,1.1-1.9,2.7-3.1,2.9c-0.1,0-0.1,0-0.2,0c-1.3,0-2.6-1.4-3.6-2.4l-5.4-6c0,0,7-3.3,7-10.8V0z"/>
			</g>
		</g>
		<g transform="translate(80 121)">
			<path class="st13" d="M87.1,27.2c-1.6,30.5-8.3,63.2-8.3,63.2h0.2l14.3-30.6l-4.1-10.2l14.3-6.1l-5.1-18
				c-1.9-6.7-8.8-12.1-15.3-14.6C85.9,15.9,87.3,21.5,87.1,27.2z"/>
			<path class="st6" d="M87.1,27.2c-1.6,30.4-8.2,63.2-8.2,63.2l14.3-30.6l-4.1-10.2l14.3-6.1l-5.1-18c-1.9-6.7-8.8-12.1-15.3-14.6
				C85.9,15.9,87.3,21.5,87.1,27.2z"/>
			<path class="st13" d="M54.5,27.2c1.6,30.5,8.3,63.2,8.3,63.2h-0.2L48.3,59.9l4.1-10.2l-14.3-6.1l5.1-18
				c1.9-6.7,8.8-12.1,15.3-14.6C55.6,15.9,54.2,21.5,54.5,27.2z"/>
			<path class="st6" d="M54.3,27.2c1.6,30.3,8.3,63.2,8.3,63.2L48.3,59.9l4.1-10.2l-14.3-6.1l5.1-18c1.9-6.7,8.8-12.1,15.3-14.6
				C55.5,15.8,54,21.5,54.3,27.2z"/>
			<path class="st6" d="M62.6,117.3V90.5"/>
			<path class="st14" d="M58.6,95c0,1.1-0.9,2-2,2s-2-0.9-2-2s0.9-2,2-2S58.6,93.9,58.6,95"/>
			<path class="st14" d="M58.6,109c0,1.1-0.9,2-2,2s-2-0.9-2-2s0.9-2,2-2S58.6,107.9,58.6,109"/>
			<path class="st14" d="M86.6,95c0,1.1-0.9,2-2,2s-2-0.9-2-2s0.9-2,2-2S86.6,93.9,86.6,95"/>
			<path class="st14" d="M86.6,109c0,1.1-0.9,2-2,2s-2-0.9-2-2s0.9-2,2-2S86.6,107.9,86.6,109"/>
			<path class="st6" d="M78.9,117.3V90.5"/>
		</g>
		<g transform="translate(67 34)">
			<path class="st15" d="M123.6,33.8c-2.5-18.1-19.9-31.7-38.9-31.7c-20.2,0-39.6,15.5-41.1,35.1c-1.5,19.7,4,25.2,4,25.2l4.9,7.8
				H115l6.4-9.3C123.9,52.1,124.7,42.9,123.6,33.8z"/>
			<path class="st16" d="M121.6,28C116.7,11.8,101.9,0.8,85,0.8C67.7,0.8,51.1,12.2,46.3,28c8.1-7.8,23.5-12.9,38.6-12.9
				S113.5,20.2,121.6,28z"/>
			<path class="st17" d="M123.6,33.8c-2.5-18.1-19.9-31.7-38.9-31.7c-20.2,0-39.6,15.5-41.1,35.1c-1.5,19.7,4,25.2,4,25.2l4.9,7.8
				H115l6.4-9.3C123.9,52.1,124.7,42.9,123.6,33.8z"/>
			<path class="st18" d="M50.6,45.3c10.2-0.6,12.9-12.5,12.9-12.5"/>
			<path class="st18" d="M50.5,40.7c5.7-0.4,7.2-7,7.2-7"/>
			<path class="st6" d="M72.7,29.4c6.2,3.9,13.2,6.2,20.4,6.7c22,1.5,23.7,9.8,23.7,9.8"/>
			<path class="st6" d="M73.5,21.7c4.3,3.9,12.9,7.8,21.6,8.4c10.6,0.8,14.3,3.1,18.5,5.2"/>
			<path class="st6" d="M94,3.2c-1.3-0.2-2.5-0.3-3.7-0.4C79.7,2.1,73.6,7.2,69.8,16.1c-2.3,5.3-1.6,9.6-1.6,17.3"/>
		</g>
		<path class="st19" d="M124.6,100c0,3.3-2.7,6-6,6s-6-2.7-6-6s2.7-6,6-6S124.6,96.7,124.6,100"/>
		<path class="st19" d="M188.6,100c0,3.3-2.7,6-6,6s-6-2.7-6-6s2.7-6,6-6S188.6,96.7,188.6,100"/>
		<g transform="translate(80 66)">
			<path class="st10" d="M55.1,0.7c0,9.4-7.5,17.2-17,17.5v13.3c0.1,18,14.8,32.5,32.8,32.4c17.9-0.1,32.3-14.6,32.4-32.4v-2.6
				c0,0,0-18.1-21.2-18.1C71.1,10.7,59.1,6.3,55.1,0.7z"/>
			<g transform="translate(41 16)">
				<circle class="st1" cx="42.6" cy="12" r="4"/>
				<path class="st1" d="M42.6,16c-2.2,0-4-1.8-4-4s1.8-4,4-4c2.1-0.1,3.9,1.5,4,3.6c0,0.1,0,0.2,0,0.4C46.6,14.2,44.8,16,42.6,16z"
					/>
				<circle class="st20" cx="40.6" cy="11" r="1"/>
				<path class="st18" d="M37.7,2.1c1.5-0.7,3.1-0.9,4.7-0.8c1.6,0.3,3.1,1.1,4.5,2.1"/>
			</g>
			<g transform="translate(26 16) rotate(180)">
				<circle class="st1" cx="-32.6" cy="-12" r="4"/>
				<path class="st1" d="M-32.6-16c-2.2,0-4,1.8-4,4s1.8,4,4,4c2.1,0.1,3.9-1.5,4-3.6c0-0.1,0-0.2,0-0.4C-28.6-14.2-30.4-16-32.6-16
					z"/>
				<circle class="st20" cx="-30.6" cy="-11" r="1"/>
				<path class="st18" d="M-37.5-2.1c1.5,0.7,3.1,0.9,4.7,0.8c1.6-0.3,3.1-1.1,4.5-2.1"/>
			</g>
			<path class="st6" d="M76.2,46.9c-1.7,0.9-3.5,1.4-5.4,1.3c-1.9,0.1-3.8-0.4-5.4-1.3"/>
			<path class="st6" d="M68.6,36.8c0.6-0.4,1.3-0.6,2-0.5c0.7,0,1.4,0.2,2,0.5"/>
			<path class="st21" d="M68.6,55.8c0.6-0.4,1.3-0.6,2-0.5c0.7,0,1.4,0.2,2,0.5"/>
		</g>
		<g transform="translate(144 137)">
			<g transform="translate(0 11)">
				<path class="st10" d="M55.3,69.9c-2.6-0.2-9.5-0.3-14.2-6.9c-1.9-2.8-2.8-6-2.7-9.4h0V42c3.8,0.6,7.6,0.9,11.5,1
					c2.6,0,5.2-0.1,7.7-0.3c1.1-1.5,2.4-3.4,3.7-5.3c2.6-3.8,8.2-11.8,10.8-14.6c0.6-0.7,1.2-1.4,2-2c1.2-0.9,0.6-4.4,2.9-6.8
					c2.2-2.4,7.2-7,7.2-7l11.3,16.3c0,0-7.5,4.1-8.7,4.6c-1.6,0.6-3.5,0.1-4.6,0.7c-1.2,0.8-2,2-2.6,3.3c-0.8,1.8-3.2,11.4-8.1,20.1
					c-6.3,11.2-13.6,18-16.3,18C55.4,69.9,55.3,69.9,55.3,69.9z"/>
				<g transform="translate(55)">
					<path class="st10" d="M49.1,4.6l-6.8,4.2c-0.9,0.6-2.2,0.3-2.8-0.6l0,0c-0.6-0.9-0.3-2.2,0.6-2.8l6.8-4.2
						c0.9-0.6,2.2-0.3,2.8,0.6l0,0C50.3,2.8,50,4,49.1,4.6z"/>
					<path class="st10" d="M50.1,8.6l-6.8,4.2c-0.9,0.6-2.2,0.3-2.8-0.6l0,0c-0.6-0.9-0.3-2.2,0.6-2.8l6.8-4.2
						c0.9-0.6,2.2-0.3,2.8,0.6l0,0C51.3,6.8,51,8,50.1,8.6z"/>
					<path class="st10" d="M50.1,13.6l-6.8,4.2c-0.9,0.6-2.2,0.3-2.8-0.6l0,0c-0.6-0.9-0.3-2.2,0.6-2.8l6.8-4.2
						c0.9-0.6,2.2-0.3,2.8,0.6l0,0C51.3,11.8,51,13,50.1,13.6z"/>
					<path class="st10" d="M49.6,15.6c0.6,0.9,0.3,2.2-0.6,2.8c-0.1,0-0.1,0.1-0.2,0.1l-3.5,1.7c-0.9,0.4-2,0.1-2.5-0.8l0,0
						c-0.6-0.9-0.3-2.2,0.6-2.7c0.1,0,0.1-0.1,0.2-0.1l3.6-1.7C48,14.4,49,14.8,49.6,15.6L49.6,15.6z"/>
				</g>
			</g>
			<g transform="translate(64) rotate(180)">
				<path class="st22" d="M-20.6,0h-15c-1.1,0-2-0.9-2-2v-31c0-1.1,0.9-2,2-2h15c1.1,0,2,0.9,2,2v31C-18.6-0.9-19.5,0-20.6,0z"/>
				<path class="st1" d="M-28.1-33c-0.8,0-1.5,0.7-1.5,1.5s0.7,1.5,1.5,1.5s1.5-0.7,1.5-1.5S-27.3-33-28.1-33z"/>
				<g transform="translate(0 -5)">
					<rect x="-37.6" y="-23" class="st23" width="19" height="23"/>
					<g>
						<defs>
							<rect id="SVGID_1_" x="-37.6" y="-23" width="19" height="23"/>
						</defs>
						<clipPath id="SVGID_2_">
							<use xlink:href="#SVGID_1_"  style="overflow:visible;"/>
						</clipPath>
						<g class="st24">
							<path class="st20" d="M-30.6,0h11v-14L-30.6,0z"/>
							<path class="st20" d="M-35.6-1h4.1l11.9-15v-5L-35.6-1z"/>
						</g>
					</g>
				</g>
				<rect x="-37.6" y="-28" class="st6" width="19" height="23"/>
			</g>
			<path class="st10" d="M91.4,18.8c0.8,0.8,0.7,2.1-0.1,2.8l-3.8,3.6c-0.4,0.7-0.5,1.5-0.3,2.2c0.3,1.4,0.7,2.4,0.3,4
				c-0.5,1.8-1.8,3.3-3.5,4.1c-1.3,0.4-2.7,0.4-4.1,0l-2-3.3c-0.3-0.5-0.4-1.1-0.2-1.7l0.6-2l3.1-3.1l0.1-0.1l7.2-6.7
				C89.4,17.9,90.6,18,91.4,18.8L91.4,18.8z"/>
			<path class="st25" d="M82.3,33.7l-0.1,1.1c-0.4,0.1-0.8,0.5-0.7,0.9c0,0.4,0.2,0.9,0.6,1.1l0,0.3l-5,1.3l-2.3-4.7l1.7-3.8l0.2,0
				c0,0.5,0.4,0.9,0.8,1c0.8,0.2,1.1-0.7,1.1-0.7l1.2,0.2L82.3,33.7z"/>
			<path class="st6" d="M52.6,76.3c0.6,0.3,1.3,0.4,2,0.4c0.7,0,1.4-0.3,1.9-0.7"/>
			<path class="st6" d="M54.9,58.2l5.3-8.4L54.9,58.2z"/>
			<path class="st6" d="M52.8,58.5c0.3-0.2,0.6-0.3,1-0.3c0.4,0,0.7,0.1,1,0.3"/>
		</g>
		<g transform="translate(16 124)">
			<g transform="translate(0)">
				<path class="st12" d="M63.6,22h-22c-2.8,0-5-2.2-5-5V4c0-2.8,2.2-5,5-5h22c2.8,0,5,2.2,5,5v13C68.6,19.8,66.4,22,63.6,22z"/>
				<path class="st1" d="M41.6,0c-2.2,0-4,1.8-4,4v13c0,2.2,1.8,4,4,4h22c2.2,0,4-1.8,4-4V4c0-2.2-1.8-4-4-4H41.6 M41.6-2h22
					c3.3,0,6,2.7,6,6v13c0,3.3-2.7,6-6,6h-22c-3.3,0-6-2.7-6-6V4C35.6,0.7,38.3-2,41.6-2z"/>
			</g>
			<path class="st6" d="M43.6,14V0"/>
			<path class="st6" d="M49.6,14V0"/>
			<path class="st6" d="M56.6,14V0"/>
			<path class="st6" d="M62.6,14V0"/>
			<g transform="translate(3 0)">
				<path class="st26" d="M46.3,5c-0.9,0-1.7-0.7-1.7-1.7c0-0.6-0.5-1-1-1c-0.6,0-1,0.4-1,1C42.6,4.3,41.9,5,41,5
					c-0.9,0-1.7-0.7-1.7-1.7c0-0.6-0.4-1-1-1c-0.9,0-1.7-0.7-1.7-1.7V0v-1h1H51h1v1v0.7c0,0.9-0.7,1.7-1.7,1.7H49c-0.6,0-1,0.4-1,1
					C48,4.3,47.2,5,46.3,5z"/>
				<path class="st1" d="M37.6,0v0.7c0,0.4,0.3,0.7,0.7,0.7c1.1,0,2,0.9,2,2C40.3,3.7,40.6,4,41,4c0.4,0,0.7-0.3,0.7-0.7
					c0-1.1,0.9-2,2-2c1.1,0,2,0.9,2,2c0,0.4,0.3,0.7,0.7,0.7C46.7,4,47,3.7,47,3.3c0-1.1,0.9-2,2-2h1.3C50.7,1.3,51,1,51,0.7V0H37.6
					 M37.6-2H51c1.1,0,2,0.9,2,2v0.7c0,1.5-1.2,2.7-2.7,2.7H49c0,0,0,0,0,0C49,4.8,47.8,6,46.3,6c-1.5,0-2.7-1.2-2.7-2.7l0,0
					c0,0,0,0,0,0C43.6,4.8,42.4,6,41,6c-1.5,0-2.7-1.2-2.7-2.7c-1.5,0-2.7-1.2-2.7-2.7V0C35.6-1.1,36.5-2,37.6-2z"/>
			</g>
			<g transform="translate(0 20)">
				<path class="st27" d="M67.6,6.3c0,0.7-0.6,1.3-1.3,1.3h-7.1c-2.1,0-3.7,1.7-3.7,3.8c0,7.6,0.3,23,1.3,27.4
					c0.3,1.3,0.6,2.6,0.8,3.8c0.2,2.7-1.7,5-4.4,5.4c-2.8,0.3-5.3-1.6-5.6-4.4c0-0.3,0-0.7,0-1c0.2-1.1,0.5-2.3,0.8-3.6
					c1-4.4,1.2-19.8,1.3-27.5c0-2.1-1.7-3.8-3.8-3.8h-7.1c-0.7,0-1.3-0.6-1.3-1.3V1.3c0-0.7,0.6-1.3,1.3-1.3h27.5
					c0.7,0,1.3,0.6,1.3,1.3V6.3z"/>
				<path class="st2" d="M52.6,44c-1.1,0-2-0.9-2-2s0.9-2,2-2s2,0.9,2,2S53.7,44,52.6,44z"/>
			</g>
			<g transform="translate(25 22) rotate(90)">
				<path class="st6" d="M1.5-17.2v-14"/>
				<path class="st6" d="M1.5-35.6v-2"/>
			</g>
		</g>
		<g transform="translate(80 153) rotate(180)">
			<path class="st10" d="M-20.6-65c-2.6,0.2-9.5,0.3-14.2,6.9c-1.9,2.7-2.8,6-2.8,9.3h0V-37c3.8-0.6,7.6-0.9,11.5-1
				c2.6,0,5.1,0.1,7.7,0.3c1.1,1.5,2.4,3.4,3.7,5.3c2.6,3.8,9.5,11.5,12.2,14.4C-2-17.3,0.7-7.6,5.6-7.8c0.7,0,3.5,0,5.5,0
				c0.9,0,1.7,0,2,0c1.1,0,0.3-3.2,1.1-3.6c1.3-0.5,2.8-0.6,4.2-0.5c0,0,1.2-13.5,1.3-13.5c0.2-0.5-3.8-1.2-7.4-1
				C10-26.4,6.1-26,6.1-26s-1.7,0.6-2.4-0.8c-0.9-1.8-3.2-11.4-8-20.1c-6.3-11.2-13.5-18-16.2-18C-20.6-65-20.6-65-20.6-65z"/>
			<g transform="translate(44)">
				<path class="st28" d="M-29.7-2.4c0-7.6,0.3-23,1.3-27.4c0.3-1.3,0.6-2.6,0.8-3.8c0.2-2.7-1.7-5-4.4-5.4
					c-2.8-0.3-5.3,1.6-5.6,4.4c0,0.3,0,0.7,0,1c0.2,1.1,0.5,2.3,0.8,3.6c1,4.4,1.2,19.8,1.3,27.5C-35.5-0.3-29.7-0.3-29.7-2.4z"/>
				<path class="st27" d="M-29.7-2.4c0-7.6,0.3-23,1.3-27.4c0.3-1.3,0.6-2.6,0.8-3.8c0.2-2.7-1.7-5-4.4-5.4
					c-2.8-0.3-5.3,1.6-5.6,4.4c0,0.3,0,0.7,0,1c0.2,1.1,0.5,2.3,0.8,3.6c1,4.4,1.2,19.8,1.3,27.5C-35.5-0.3-29.7-0.3-29.7-2.4z"/>
				<path class="st2" d="M-32.6-35c-1.1,0-2,0.9-2,2c0,1.1,0.9,2,2,2s2-0.9,2-2C-30.6-34.1-31.5-35-32.6-35z"/>
			</g>
			<g transform="translate(35 -4)">
				<path class="st10" d="M-16.6-6h-6c-1.1,0-2-0.9-2-2v0c0-1.1,0.9-2,2-2h6c1.1,0,2,0.9,2,2v0C-14.6-6.9-15.5-6-16.6-6z"/>
				<path class="st10" d="M-14.8-10h-7.9c-1.1,0-2-0.9-2-2v0c0-1.1,0.9-2,2-2h7.9c1.1,0,2,0.9,2,2v0C-12.8-10.9-13.7-10-14.8-10z"/>
				<path class="st10" d="M-15.6-14h-7.1c-1.1,0-2-0.9-2-2v0c0-1.1,0.9-2,2-2h7.1c1.1,0,2,0.9,2,2v0C-13.6-14.9-14.5-14-15.6-14z"/>
				<path class="st10" d="M-17-18h-5.7c-1.1,0-2-0.9-2-2v0c0-1.1,0.9-2,2-2h5.7c1.1,0,2,0.9,2,2v0C-15-18.9-15.9-18-17-18z"/>
				<path class="st10" d="M-20.3-5l0.3-4.3c0.1-1-0.6-1.9-1.5-2.1l-0.7-0.2l-1.1,0.3c-0.8,0.2-1.4,0.8-1.5,1.6l-0.8,3.9
					c0,0,0-4.8-1.8-7s-10-1.4-10-1.4v0.8c0.4,2.1,1.2,4.1,2.3,6c1,1.9,2.1,3.8,3.4,5.6c0.9,1.2,8.1,0.9,8.1,0.9
					c0.9-0.1,1.7-0.4,2.4-0.9C-20.4-2.8-20.3-5-20.3-5z"/>
			</g>
			<path class="st25" d="M-1.4-17.4L2.4-16v-1.5c-0.4-0.2-0.7-0.6-0.7-1c0-0.4,0.3-0.8,0.7-1V-22l-6,1.5L-1.4-17.4z"/>
			<path class="st6" d="M-23.6-60.3c0.6-0.3,1.3-0.4,2-0.4c0.7,0,1.4,0.3,1.9,0.7"/>
			<path class="st6" d="M-21.4-42.2l5.3,8.4L-21.4-42.2z"/>
			<path class="st6" d="M-23.5-42.5c0.3,0.2,0.6,0.3,1,0.3c0.4,0,0.7-0.1,1-0.3"/>
		</g>
	</g>
</g>
<rect y="70.7" class="st0" width="270" height="100"/>
</svg>
