<?xml version="1.0" encoding="utf-8"?>
<!-- Generator: Adobe Illustrator 23.0.1, SVG Export Plug-In . SVG Version: 6.00 Build 0)  -->
<svg version="1.1" id="Layer_1" xmlns="http://www.w3.org/2000/svg" xmlns:xlink="http://www.w3.org/1999/xlink" x="0px" y="0px"
	 viewBox="0 0 270 242" style="enable-background:new 0 0 270 242;" xml:space="preserve">
<style type="text/css">
	.st0{fill:none;}
	.st1{fill:#504B46;}
	.st2{fill:#FFFFFF;stroke:#504B46;stroke-width:2;stroke-linecap:round;stroke-linejoin:round;stroke-miterlimit:10;}
	.st3{fill:#B4E0FC;stroke:#504B46;stroke-width:2;stroke-linecap:round;stroke-linejoin:round;stroke-miterlimit:10;}
	.st4{fill:#744B3E;}
	.st5{fill:#FDDFD1;stroke:#504B46;stroke-width:2;stroke-linecap:round;stroke-linejoin:round;stroke-miterlimit:10;}
	.st6{fill:#FCCAB4;}
	.st7{fill:none;stroke:#504B46;stroke-width:2;stroke-linecap:round;stroke-linejoin:round;stroke-miterlimit:10;}
	.st8{fill:#FFD070;}
	.st9{fill:#F2977C;}
	.st10{opacity:0.2;fill:#FFFFFF;enable-background:new    ;}
	.st11{fill:#F29166;stroke:#504B46;stroke-width:2;stroke-linecap:round;stroke-linejoin:round;stroke-miterlimit:10;}
	.st12{fill:#EDF2F4;}
	.st13{fill:#885849;stroke:#504B46;stroke-width:2;stroke-linejoin:round;stroke-miterlimit:10;}
	.st14{fill:#F29166;}
	.st15{fill:#FDDFD1;stroke:#414042;stroke-width:2;stroke-linecap:round;stroke-linejoin:round;stroke-miterlimit:10;}
	.st16{fill:#9D6655;stroke:#414042;stroke-width:2;stroke-linejoin:round;stroke-miterlimit:10;}
	.st17{fill:#9D6655;stroke:#504B46;stroke-width:2;stroke-linejoin:round;stroke-miterlimit:10;}
	.st18{fill:none;stroke:#504B46;stroke-width:2;stroke-linejoin:round;stroke-miterlimit:10;}
	.st19{fill:none;stroke:#504B46;stroke-width:2;stroke-linecap:round;stroke-miterlimit:10;}
	.st20{fill:#FFFFFF;}
	.st21{fill:#FCCAB4;stroke:#504B46;stroke-width:2;stroke-miterlimit:10;}
	.st22{fill:none;stroke:#FCC2B4;stroke-width:2;stroke-linecap:round;stroke-linejoin:round;stroke-miterlimit:10;}
	.st23{fill:#575762;stroke:#504B46;stroke-width:2;stroke-linecap:round;stroke-linejoin:round;stroke-miterlimit:10;}
	.st24{fill:#EDF2F4;stroke:#504B46;stroke-width:2;stroke-linecap:round;stroke-linejoin:round;stroke-miterlimit:10;}
	.st25{clip-path:url(#SVGID_2_);}
	.st26{fill:#FDDFD1;}
	.st27{fill:#83CFFF;stroke:#504B46;stroke-width:2;stroke-linecap:round;stroke-linejoin:round;stroke-miterlimit:10;}
	.st28{clip-path:url(#SVGID_4_);}
	.st29{clip-path:url(#SVGID_6_);}
	.st30{fill:none;stroke:#504B46;stroke-linecap:round;stroke-miterlimit:10;}
	.st31{fill:none;stroke:#504B46;stroke-linecap:round;stroke-linejoin:round;stroke-miterlimit:10;}
	.st32{fill:#FFBA57;stroke:#504B46;stroke-width:2;stroke-linecap:round;stroke-linejoin:round;stroke-miterlimit:10;}
	.st33{fill:#83CFFF;stroke:#504B46;stroke-width:2;stroke-miterlimit:10;}
	.st34{fill:#B4E0FC;}
</style>
<rect y="82.7" class="st0" width="270" height="100"/>
<g transform="translate(-73.907 -4)">
	<g transform="translate(8 4)">
		<g transform="translate(180)">
			<g>
				<path class="st0" d="M148.2,65.6H122L100.7,85V65.6H83.3c-4.3,0-7.8-3.5-7.8-7.8c0,0,0,0,0,0V7.8C75.5,3.5,79,0,83.3,0
					c0,0,0,0,0,0h64.9c4.3,0,7.8,3.5,7.8,7.8v50.1C155.9,62.1,152.4,65.6,148.2,65.6L148.2,65.6z"/>
				<path class="st1" d="M102.7,80.5l18-16.3c0.4-0.3,0.8-0.5,1.3-0.5h26.1c3.2,0,5.8-2.6,5.8-5.8V7.8c0-3.2-2.6-5.8-5.8-5.8H83.3
					c-3.2,0-5.8,2.6-5.8,5.8v50.1c0,3.2,2.6,5.8,5.8,5.8h17.4c0.5,0,1,0.2,1.4,0.6c0.4,0.4,0.6,0.9,0.6,1.4L102.7,80.5 M100.7,85
					l0-19.4H83.3c-4.3,0-7.8-3.5-7.8-7.8V7.8C75.5,3.5,79,0,83.3,0h64.9c4.3,0,7.8,3.5,7.8,7.8v50.1c0,4.3-3.5,7.8-7.8,7.8H122
					L100.7,85z"/>
			</g>
			<g transform="translate(24 16)">
				<path class="st2" d="M105.4,12.6h-7c0.5-1.7,0.7-3.5,0.7-5.2C99.1,1.3,97.4,0,96,0c-1.1-0.2-2.1,0.3-2.7,1.2
					c-0.4,0.6-0.5,3.8-1.3,5.7l-0.1,0.2c-1.1,3-4,5.6-6.3,7.4v15c0.9,0.1,1.8,0.4,2.7,0.9c1.1,0.7,2.3,1,3.6,1.1h9.9
					c1.8,0.1,3.4-1.3,3.6-3.1c0-0.3,0-0.5-0.1-0.8c1.3-0.4,2.1-1.6,2.2-2.9c0-0.6-0.1-1.1-0.3-1.6c0.9-0.6,1.5-1.5,1.6-2.6
					c0-0.6-0.3-1.3-0.7-1.8c0.9-0.6,1.4-1.6,1.5-2.7C109.5,13.8,107.8,12.6,105.4,12.6z"/>
				<path class="st3" d="M78,31.5c-1.3,0.1-2.4-0.9-2.5-2.2V13.6c0.1-1.3,1.2-2.3,2.5-2.2h5c1.3-0.1,2.4,0.9,2.5,2.2v15.7
					c-0.1,1.3-1.2,2.3-2.5,2.2H78z"/>
			</g>
		</g>
		<path class="st4" d="M168.5,107c-5.5,0-10-4.5-10-10s4.5-10,10-10s10,4.5,10,10S174,107,168.5,107z"/>
		<path class="st4" d="M247.5,95.5c0,5.2-4.3,9.5-9.5,9.5s-9.5-4.3-9.5-9.5s4.3-9.5,9.5-9.5S247.5,90.3,247.5,95.5"/>
		<g transform="translate(97 178) rotate(180)">
			<path class="st5" d="M-73.7-42.4c0,0,4.9,2.1,9.2,4.2s5.3-1.7,5.3-1.7s3.8,3.6,4.9,21.7s0,18.1,0,18.1h-20.3L-73.7-42.4z"/>
			<path class="st6" d="M-73.5-17.5c0.2-0.1,0.5-0.2,0.7-0.3c5.8-1.7,12-1.7,17.8,0c0.3,0.1,0.5,0.2,0.7,0.3V-9h-19.3V-17.5z"/>
			<path class="st7" d="M-73.7-42.4c0,0,4.9,2.1,9.2,4.2s6.7,0,6.7,0s2.4,2,3.4,20.1s0,18.1,0,18.1h-20.3L-73.7-42.4z"/>
		</g>
		<g transform="translate(71 137)">
			<g transform="translate(3 1)">
				<path class="st8" d="M181.7,40.8c0-22.5-18.3-40.8-40.8-40.8c0,0,0,0,0,0h-24.5c-22.5,0-40.8,18.3-40.8,40.8v10.6h19.5l-0.1,42
					c0,0,17.6,6,33.9,6s32.5-6,32.5-6l-0.3-42h20.5L181.7,40.8z"/>
				<path class="st7" d="M181.7,40.8c0-22.5-18.3-40.8-40.8-40.8c0,0,0,0,0,0h-24.5c-22.5,0-40.8,18.3-40.8,40.8v10.6H96v42
					c0,0,17.2,6,32.9,6s31.4-6,31.4-6v-42h21.4L181.7,40.8z"/>
			</g>
			<g transform="translate(8 74)">
				<path class="st9" d="M90.5,0.7h66c0,0,5.1,4.6,8.8,8.6c3.6,4,6.2,7,6.2,7S149.6,30,123.7,30S75.5,16.3,75.5,16.3S78.3,13.2,82,9
					C84.7,6.1,87.5,3.3,90.5,0.7z"/>
				<path class="st10" d="M133.3,2.5h-20.2c-12.7,0.2-24.5,6.4-32,16.6c-2.3-1.2-4-2.1-4.9-2.7c0.1-0.6,0.3-1.2,0.5-1.9
					c1.2-1.3,3-3.5,5.3-6.1c2.7-3,5.5-5.8,8.5-8.5h66c0,0,5.1,4.7,8.8,8.8c1.6,1.9,3.1,3.5,4.2,4.8c0.4,1,0.7,2.1,0.9,3.1
					c-1,0.6-2.7,1.5-4.8,2.6C158,8.9,146.1,2.7,133.3,2.5z"/>
				<path class="st7" d="M90.5,0.7h66c0,0,5.1,4.6,8.8,8.6c3.6,4,6.2,7,6.2,7S149.6,30,123.7,30S75.5,16.3,75.5,16.3S78.3,13.2,82,9
					C84.7,6.1,87.5,3.3,90.5,0.7z"/>
			</g>
			<g transform="translate(0 47)">
				<path class="st11" d="M75.7,0c3.9,0.6,7.9,0.9,11.9,1c3.9,0,7.7-0.4,11.5-1v8c-3.9,0.6-7.8,1-11.7,1c-3.9,0-7.8-0.4-11.6-1V0z"
					/>
				<path class="st1" d="M81.5,4c0,1.1-0.9,2-2,2s-2-0.9-2-2s0.9-2,2-2S81.5,2.9,81.5,4"/>
			</g>
			<g transform="translate(113 47) rotate(180)">
				<path class="st11" d="M-74.7,0c3.9-0.6,7.9-1,11.9-1c4.2,0,8.3,0.4,12.4,1v-8c-4-0.6-8.1-1-12.2-1c-4.1,0-8.1,0.4-12.2,1V0z"/>
				<path class="st1" d="M-68.5-4c0-1.1-0.9-2-2-2s-2,0.9-2,2s0.9,2,2,2S-68.5-2.9-68.5-4"/>
			</g>
			<path class="st12" d="M163.3,61.4V47.2"/>
			<path class="st7" d="M163.3,66.4V42.2"/>
			<path class="st12" d="M163.3,41v-2"/>
			<path class="st7" d="M163.3,36v-2"/>
			<path class="st12" d="M99,61.4V47.2"/>
			<path class="st7" d="M99,66.4V42.2"/>
			<path class="st12" d="M99,38v-2"/>
			<path class="st7" d="M99,36v-2"/>
		</g>
		<path class="st13" d="M241.5,108.8c0,6.4-22.8,18.3-40.4,18.3s-37.2-12-38.5-18.3c-1.1-6,4.3-10.6,4.3-10.6h69.3
			C236.2,98.2,241.5,102.3,241.5,108.8z"/>
		<g transform="translate(94 119)">
			<g transform="translate(16 13)">
				<path class="st14" d="M92.3,35c-3.8,0-7.1-0.9-9.8-2.5c-2.2-1.4-4-3.3-5.4-5.8c-2.5-4.6-2.6-9.4-2.6-10c0-0.1,0-0.2,0-0.4
					c0-2-0.1-8.3,4.2-12.7c3-3.1,7.5-4.6,13.3-4.6c6,0,10.5,1.6,13.6,4.7c1.9,1.9,3.2,4.4,3.9,7.4c0.5,2.4,0.5,4.4,0.5,5.4
					c0,0.1,0,0.2,0,0.2c0,0.4,0,1.9-0.4,3.9c-0.4,2.3-1.2,4.3-2.2,6.1c-1.3,2.4-3.2,4.4-5.4,5.8C99.4,34.1,96.1,35,92.3,35z"/>
				<path class="st1" d="M92.3,34c15.8,0,16.8-14.9,16.8-17.3S109.7,0,92.1,0S75.5,14.5,75.5,16.7S76.6,34,92.3,34 M92.3,36
					c-9.2,0-13.8-4.8-16.1-8.9c-2.7-4.8-2.7-9.9-2.7-10.4c0-0.1,0-0.2,0-0.3c0-2.2-0.2-8.7,4.5-13.4C81.2-0.3,86-2,92.1-2
					c6.2,0,11,1.7,14.3,5c2,2.1,3.4,4.7,4.2,7.8c0.6,2.5,0.5,4.6,0.5,5.6c0,0.1,0,0.2,0,0.2c0,0.9-0.1,5.8-2.7,10.6
					c-1.4,2.6-3.4,4.7-5.7,6.1C99.8,35.1,96.3,36,92.3,36z"/>
			</g>
			<path class="st15" d="M120.4,31.1c0,0,0,9.5-12,9.5s-12-9.5-12-9.5V0.7h24V31.1z"/>
			<path class="st6" d="M97.5,18.6c0.3,0.1,0.5,0.3,0.8,0.4c6.5,2.7,13.8,2.7,20.3,0c0.3-0.1,0.6-0.3,0.8-0.4V4.7h-22V18.6z"/>
		</g>
		<path class="st16" d="M201.4,24.3c-23.7,0.8-19.9,22.6-19.9,22.6c6.8,0.7,13.6,1.1,20.4,1.1c6.6,0,13.1-0.4,19.7-1.1
			C221.6,46.8,225.1,23.4,201.4,24.3z"/>
		<g transform="translate(105.744 33.243)">
			<path class="st9" d="M96.2,15.8c-11,0-20.4-0.7-20.5-0.7L75,15l-0.2-0.7c-0.1-0.2-1.2-4.5,1.8-8.6C78,3.8,80.2,2.3,83,1.2
				c3.3-1.3,7.6-2,12.7-2.2c0.4,0,0.8,0,1.3,0c4.6,0,8.5,0.6,11.6,1.8c2.6,1,4.7,2.4,6.1,4.3c3.3,4.2,2.2,9,2.2,9.3l-0.2,0.7
				l-0.7,0.1C115.8,15.1,107.2,15.8,96.2,15.8z"/>
			<path class="st1" d="M96.9,0c-0.4,0-0.8,0-1.2,0C72,0.5,75.7,14.1,75.7,14.1s9.3,0.7,20.4,0.7c11.1,0,19.7-0.7,19.7-0.7
				S119.2,0,96.9,0 M96.9-2v2V-2c8.9,0,15.1,2.2,18.5,6.4c3.6,4.6,2.4,9.9,2.4,10.1l-0.3,1.4l-1.4,0.1c-0.1,0-8.7,0.7-19.8,0.7
				c-11.1,0-20.5-0.7-20.6-0.7L74.2,16l-0.4-1.4c-0.1-0.2-1.3-5,2-9.4c3.4-4.5,10-6.9,19.8-7.2C96.1-2,96.5-2,96.9-2z"/>
		</g>
		<path class="st2" d="M183.5,42.5c0,1.4-1.1,2.5-2.5,2.5s-2.5-1.1-2.5-2.5s1.1-2.5,2.5-2.5S183.5,41.1,183.5,42.5"/>
		<path class="st2" d="M224.5,40.5c0,1.4-1.1,2.5-2.5,2.5s-2.5-1.1-2.5-2.5s1.1-2.5,2.5-2.5S224.5,39.1,224.5,40.5"/>
		<g transform="translate(73 36)">
			<path class="st17" d="M169,67.8c-1.2,1.3-2.5,2.5-3.9,3.6c0,0,16.2-2.8,16.2-16.5c0-11.1-7.6-15.4-12.3-17.7
				c0-0.4-0.1-0.8-0.1-1.2c-2.3-19.4-18.7-34-38.2-34c-20.2,0-39.6,15.5-41.1,35.1c-7,0-14.6,12-8,24.7C86.8,72,97.8,72.1,97.8,72.1
				s-3.6-1.6-4.2-1.9c-3.4-2.4-5.5-6.1-5.5-9.2c0-11,9.1-10.5,9.1-10.9V61l0.6,9.2h64c0,0,0.3-14.4,0.3-19.6
				C162.1,50.3,174.4,59.5,169,67.8z"/>
			<path class="st18" d="M169,67.8c-1.2,1.3-2.5,2.5-3.9,3.6c0,0,16.2-2.8,16.2-16.5c0-11.1-7.6-15.4-12.3-17.7
				c0-0.4-0.1-0.8-0.1-1.2c-2.3-19.4-18.7-34-38.2-34c-20.2,0-39.6,15.5-41.1,35.1c-7,0-14.6,12-8,24.7C86.8,72,97.8,72.1,97.8,72.1
				s-3.6-1.6-4.2-1.9c-3.4-2.4-5.5-6.1-5.5-9.2c0-11,9.1-10.5,9.1-10.9V61l0.6,9.2h64c0,0,0.3-14.4,0.3-19.6
				C162.1,50.3,174.4,59.5,169,67.8z"/>
			<path class="st19" d="M90.3,37.2c0.1,0,0.2,0,0.3,0c12.8-0.6,16-7.7,16-7.7"/>
			<path class="st19" d="M91.5,32c0.1,0,0.1,0,0.2,0c6.9-0.9,8.3-3,8.3-3"/>
			<path class="st7" d="M118.6,29.4c6.2,3.8,13.2,6.2,20.4,6.7c7.6,0.6,15.1-0.5,20.6-0.5c3.4,0.1,6.7,0.7,9.9,1.8"/>
			<path class="st7" d="M119.4,21.7c4.3,3.9,12.9,7.8,21.6,8.4c2.2,0.2,4.5,0.1,6.7-0.1"/>
			<path class="st7" d="M139.9,3.2c-1.3-0.2-2.5-0.3-3.7-0.4c-10.6-0.7-16.6,4.4-20.4,13.3c-2.3,5.3-1.6,9.6-1.6,17.3"/>
		</g>
		<g transform="translate(89 68)">
			<path class="st20" d="M83.5,40c0,1.1-0.9,2-2,2s-2-0.9-2-2s0.9-2,2-2S83.5,38.9,83.5,40"/>
			<path class="st21" d="M152.5,34c0,3.3-2.7,6-6,6s-6-2.7-6-6s2.7-6,6-6S152.5,30.7,152.5,34"/>
			<path class="st21" d="M87.5,34c0,3.3-2.7,6-6,6s-6-2.7-6-6s2.7-6,6-6S87.5,30.7,87.5,34"/>
			<path class="st2" d="M148.5,41.5c0,1.4-1.1,2.5-2.5,2.5s-2.5-1.1-2.5-2.5s1.1-2.5,2.5-2.5S148.5,40.1,148.5,41.5"/>
			<path class="st2" d="M83.5,41.5c0,1.4-1.1,2.5-2.5,2.5s-2.5-1.1-2.5-2.5S79.6,39,81,39S83.5,40.1,83.5,41.5"/>
			<path class="st5" d="M98,0.7c0,9.4-7.5,17.2-17,17.5v13.3c0.1,18,14.8,32.5,32.8,32.4c17.9-0.1,32.3-14.6,32.4-32.4V18.6
				c0,0-6.2-7-21.2-6.9C114,11.8,102,6.3,98,0.7z"/>
			<path class="st7" d="M98,0.7c0,9.4-7.5,17.2-17,17.5v13.3c0.1,18,14.8,32.5,32.8,32.4c17.9-0.1,32.3-14.6,32.4-32.4V18.6
				c0,0-6.2-7-21.2-6.9C114,11.8,102,6.3,98,0.7z"/>
			<g transform="translate(15 33)">
				<path class="st6" d="M79.5,6c-0.6,0-1-0.4-1-1s0.4-1,1-1s1,0.4,1,1S80.1,6,79.5,6z"/>
				<path class="st6" d="M76.5,2c-0.6,0-1-0.4-1-1s0.4-1,1-1s1,0.4,1,1S77.1,2,76.5,2z"/>
				<path class="st6" d="M84.5,4c-0.6,0-1-0.4-1-1s0.4-1,1-1s1,0.4,1,1S85.1,4,84.5,4z"/>
			</g>
			<g transform="translate(61 33) rotate(180)">
				<path class="st6" d="M-71.5-6c-0.6,0-1,0.4-1,1s0.4,1,1,1s1-0.4,1-1S-71-6-71.5-6z"/>
				<path class="st6" d="M-74.5-2c-0.6,0-1,0.4-1,1s0.4,1,1,1s1-0.4,1-1S-74-2-74.5-2z"/>
				<path class="st6" d="M-66.5-4c-0.6,0-1,0.4-1,1s0.4,1,1,1s1-0.4,1-1S-66-4-66.5-4z"/>
			</g>
			<g transform="translate(45 16)">
				<circle class="st1" cx="81.5" cy="12" r="4"/>
				<path class="st1" d="M81.5,16c-2.2,0-4-1.8-4-4v0c0-2.2,1.8-4,4-4h5.6c1.2,0-1.6,0.5-1.6,4C85.5,14.2,83.7,16,81.5,16z"/>
				<path class="st1" d="M83.3,15c-2,0.9-4.4,0.1-5.3-1.9l0,0c-0.9-2-0.1-4.4,1.9-5.3L85,5.4c1.1-0.5-1.3,1.2,0.2,4.3
					C86.2,11.7,85.3,14.1,83.3,15z"/>
				<circle class="st20" cx="79.5" cy="11" r="1"/>
				<path class="st19" d="M76.6,2.1c1.5-0.7,3.1-0.9,4.7-0.8c1.6,0.3,3.1,1.1,4.5,2.1"/>
			</g>
			<g transform="translate(32 16) rotate(180)">
				<circle class="st1" cx="-69.5" cy="-12" r="4"/>
				<path class="st1" d="M-69.5-16c-2.2,0-4,1.8-4,4s1.8,4,4,4h5.6c1.2,0-1.6-0.5-1.6-4C-65.5-14.2-67.3-16-69.5-16z"/>
				<path class="st1" d="M-67.7-15c-2-0.9-4.4-0.1-5.3,1.9s-0.1,4.4,1.9,5.3l5.1,2.4c1.1,0.5-1.3-1.2,0.2-4.3
					C-64.9-11.7-65.7-14.1-67.7-15z"/>
				<circle class="st20" cx="-67.5" cy="-11" r="1"/>
				<path class="st19" d="M-74.4-2.1c1.5,0.7,3.1,0.9,4.7,0.8c1.6-0.3,3.1-1.1,4.5-2.1"/>
			</g>
			<path class="st7" d="M111.5,36.8c0.6-0.4,1.3-0.6,2-0.5c0.7,0,1.4,0.2,2,0.5"/>
			<g transform="translate(32 43)">
				<path class="st7" d="M76.2,2.9c1.7,0.9,3.5,1.4,5.4,1.3c1.9,0.1,3.8-0.4,5.4-1.3"/>
				<path class="st22" d="M79.5,1.8c0.2-0.5,0.7-1,2-1c0.8,0,1.6,0.3,2,1c0,0-1.3,0.2-2,0.2S79.5,1.8,79.5,1.8z"/>
				<path class="st22" d="M79.5,6.7c0.2,0.5,0.7,1,2,1c0.8,0,1.6-0.3,2-1c-0.6,0.2-1.3,0.3-2,0.3C80.8,7.1,80.2,7,79.5,6.7z"/>
			</g>
		</g>
		<g transform="translate(159 139)">
			<g transform="translate(0 11)">
				<path class="st5" d="M93.2,69.9c-2.6-0.2-9.5-0.3-14.2-6.9c-1.9-2.8-2.8-6-2.7-9.4h0V42c3.8,0.6,7.6,0.9,11.5,1
					c2.6,0,5.2-0.1,7.7-0.3c1.1-1.5,2.4-3.4,3.7-5.3c2.6-3.8,8.2-11.8,10.8-14.6c0.6-0.7,1.2-1.4,2-2c1.2-0.9,0.6-4.4,2.9-6.8
					c2.2-2.4,7.2-7,7.2-7l11.3,16.3c0,0-7.5,4.1-8.7,4.6c-1.6,0.6-3.5,0.1-4.6,0.7c-1.2,0.8-2,2-2.6,3.3c-0.8,1.8-3.2,11.4-8.1,20.1
					C103.3,63.1,96,70,93.3,70C93.3,69.9,93.2,69.9,93.2,69.9z"/>
				<g transform="translate(55)">
					<path class="st5" d="M87,4.6l-6.8,4.2c-0.9,0.6-2.2,0.3-2.8-0.6l0,0c-0.6-0.9-0.3-2.2,0.6-2.8l6.8-4.2c0.9-0.6,2.2-0.3,2.8,0.6
						l0,0C88.2,2.8,87.9,4,87,4.6z"/>
					<path class="st5" d="M88,8.6l-6.8,4.2c-0.9,0.6-2.2,0.3-2.8-0.6l0,0c-0.6-0.9-0.3-2.2,0.6-2.8l6.8-4.2c0.9-0.6,2.2-0.3,2.8,0.6
						l0,0C89.2,6.8,88.9,8,88,8.6z"/>
					<path class="st5" d="M88,13.6l-6.8,4.2c-0.9,0.6-2.2,0.3-2.8-0.6l0,0c-0.6-0.9-0.3-2.2,0.6-2.8l6.8-4.2
						c0.9-0.6,2.2-0.3,2.8,0.6l0,0C89.2,11.8,88.9,13,88,13.6z"/>
					<path class="st5" d="M87.5,15.6c0.6,0.9,0.3,2.2-0.6,2.8c-0.1,0-0.1,0.1-0.2,0.1l-3.5,1.7c-0.9,0.4-2,0.1-2.5-0.8l0,0
						c-0.6-0.9-0.3-2.2,0.6-2.7c0.1,0,0.1-0.1,0.2-0.1l3.6-1.7C85.9,14.4,87,14.8,87.5,15.6L87.5,15.6z"/>
				</g>
			</g>
			<g transform="translate(64) rotate(180)">
				<path class="st23" d="M-58.5,0h-15c-1.1,0-2-0.9-2-2v-31c0-1.1,0.9-2,2-2h15c1.1,0,2,0.9,2,2v31C-56.5-0.9-57.4,0-58.5,0z"/>
				<path class="st1" d="M-66-33c-0.8,0-1.5,0.7-1.5,1.5S-66.8-30-66-30s1.5-0.7,1.5-1.5S-65.2-33-66-33z"/>
				<g transform="translate(0 -5)">
					<rect x="-75.5" y="-23" class="st24" width="19" height="23"/>
					<g>
						<defs>
							<rect id="SVGID_1_" x="-75.5" y="-23" width="19" height="23"/>
						</defs>
						<clipPath id="SVGID_2_">
							<use xlink:href="#SVGID_1_"  style="overflow:visible;"/>
						</clipPath>
						<g class="st25">
							<path class="st20" d="M-68.5,0h11v-14L-68.5,0z"/>
							<path class="st20" d="M-73.5-1h4.1l11.9-15v-5L-73.5-1z"/>
						</g>
					</g>
				</g>
				<rect x="-75.5" y="-28" class="st7" width="19" height="23"/>
			</g>
			<path class="st5" d="M129.3,18.8c0.8,0.8,0.7,2.1-0.1,2.8l-3.8,3.6c-0.4,0.7-0.5,1.5-0.3,2.2c0.3,1.4,0.7,2.4,0.3,4
				c-0.5,1.8-1.8,3.3-3.5,4.1c-1.3,0.4-2.7,0.4-4.1,0l-2-3.3c-0.3-0.5-0.4-1.1-0.2-1.7l0.6-2l3.1-3.1l0.1-0.1l7.2-6.7
				C127.3,17.9,128.5,18,129.3,18.8L129.3,18.8z"/>
			<path class="st26" d="M120.2,33.7l-0.1,1.1c-0.4,0.1-0.8,0.5-0.7,0.9c0,0.4,0.2,0.9,0.6,1.1l0,0.3l-5,1.3l-2.3-4.7l1.7-3.8l0.2,0
				c0,0.5,0.4,0.9,0.8,1c0.8,0.2,1.1-0.7,1.1-0.7l1.2,0.2L120.2,33.7z"/>
			<path class="st7" d="M90.5,76.3c0.6,0.3,1.3,0.4,2,0.4c0.7,0,1.4-0.3,1.9-0.7"/>
			<path class="st7" d="M92.8,58.2l5.3-8.4L92.8,58.2z"/>
			<path class="st7" d="M90.7,58.5c0.3-0.2,0.6-0.3,1-0.3c0.4,0,0.7,0.1,1,0.3"/>
		</g>
		<g transform="matrix(-0.017, 1, -1, -0.017, 166.347, 216.825)">
			<path class="st5" d="M11.2-35.8c0,0,3.5-6.1,0.2-16.3c-0.1-0.5-2.6-5.4-5.3-10c-2.3-4.2-3.8-7.3-5.6-6.4c-2,1,0,4.3,1.8,8.2
				c1.1,2.3,2.1,4.7,2.9,7.1c0.7,1.9,0.7,4,0,6L11.2-35.8z"/>
			<path class="st5" d="M13.1-40.9c0,0,3.5-6.1,0.2-16.3c-0.1-0.5-2.6-5.4-5.3-10c-2.3-4.2-3.8-7.3-5.6-6.4c-2,1,0,4.3,1.8,8.2
				c1.1,2.3,2.1,4.7,2.9,7.1c0.7,1.9,0.7,4,0,6L13.1-40.9z"/>
		</g>
		<g transform="translate(106.251 137.757) rotate(133)">
			<path class="st27" d="M-47.7-83.2c0,13.9,11.3,25.2,25.3,25.2C-8.5-58,2.8-69.3,2.8-83.2l0-0.9c-0.1-0.2-0.1-0.3-0.1-0.5
				c0-5.6-2.6-10.6-7.9-15.2c-4.8-4.2-11.1-7.5-17.3-10.5c-12.7,6.1-25.2,13.4-25.2,25.8V-83.2z"/>
			<g transform="translate(12.168 -42.438)">
				<path class="st5" d="M-34.8-91c9.2-0.1,16.7,7.3,16.7,16.5c0,0.1,0,0.2,0,0.3c0,9.3-3.3,19-16.7,19c-13.4,0-16.8-9.7-16.8-19
					C-51.6-83.4-44.2-90.9-35-91C-34.9-91-34.8-91-34.8-91z"/>
				<g>
					<defs>
						<path id="SVGID_3_" d="M-34.8-91c9.2-0.1,16.7,7.3,16.7,16.5c0,0.1,0,0.2,0,0.3c0,9.3-3.3,19-16.7,19
							c-13.4,0-16.8-9.7-16.8-19C-51.6-83.4-44.2-90.9-35-91C-34.9-91-34.8-91-34.8-91z"/>
					</defs>
					<clipPath id="SVGID_4_">
						<use xlink:href="#SVGID_3_"  style="overflow:visible;"/>
					</clipPath>
					<g class="st28">
						<path class="st6" d="M-44.3-55.6c1.2-2.4,3.3-4.8,9.5-4.8c6.2,0,7.8,3,9.5,4.8c0,0-3.3,2-9.5,2C-41-53.5-44.3-55.6-44.3-55.6z
							"/>
					</g>
				</g>
				<path class="st7" d="M-34.8-91c9.2-0.1,16.7,7.3,16.7,16.5c0,0.1,0,0.2,0,0.3c0,9.3-3.3,19-16.7,19c-13.4,0-16.8-9.7-16.8-19
					C-51.6-83.4-44.2-90.9-35-91C-34.9-91-34.8-91-34.8-91z"/>
			</g>
			<g transform="translate(8.818 -7.818)">
				<circle class="st5" cx="-48.7" cy="-78.6" r="2.8"/>
				<circle class="st5" cx="-13.4" cy="-77" r="2.8"/>
				<g transform="translate(3.35 -1.117)">
					<path class="st5" d="M-34.8-91c9.2-0.1,16.7,7.3,16.7,16.5c0,0.1,0,0.2,0,0.3c0,9.3-3.3,19-16.7,19c-13.4,0-16.8-9.7-16.8-19
						C-51.6-83.4-44.2-90.9-35-91C-34.9-91-34.8-91-34.8-91z"/>
					<g>
						<defs>
							<path id="SVGID_5_" d="M-34.8-91c9.2-0.1,16.7,7.3,16.7,16.5c0,0.1,0,0.2,0,0.3c0,9.3-3.3,19-16.7,19
								c-13.4,0-16.8-9.7-16.8-19C-51.6-83.4-44.2-90.9-35-91C-34.9-91-34.8-91-34.8-91z"/>
						</defs>
						<clipPath id="SVGID_6_">
							<use xlink:href="#SVGID_5_"  style="overflow:visible;"/>
						</clipPath>
						<g class="st29">
							<path class="st30" d="M-35.9-77.7c0.4,0.1,0.8,0.2,1.2,0.2c0.4,0,0.7-0.1,1.1-0.2"/>
							<path class="st31" d="M-37-82.2c0.6-0.5,1.4-0.8,2.2-0.7c0.8,0,1.6,0.2,2.2,0.7"/>
							<path class="st6" d="M-35.9-84.6c0.2-0.5,0.6-0.8,1.1-0.7c0.5,0,0.9,0.3,1.1,0.7c-0.3,0.2-0.7,0.3-1.1,0.3
								C-35.1-84.3-35.5-84.4-35.9-84.6z"/>
							<g transform="translate(7.818 -13.285)">
								<g transform="translate(5.308 -0.003) rotate(180)">
									<circle class="st1" cx="54.1" cy="61.5" r="2.4"/>
									<circle class="st20" cx="55.2" cy="60.4" r="0.5"/>
									<path class="st30" d="M52.5,55.6c0.5-0.1,1.1-0.2,1.7-0.1c0.5,0.1,1,0.3,1.5,0.6"/>
								</g>
								<g transform="translate(12.691 -0.003)">
									<circle class="st1" cx="-48.9" cy="-61.5" r="2.4"/>
									<circle class="st20" cx="-49.9" cy="-60.4" r="0.5"/>
									<path class="st30" d="M-50.5-55.6c0.5,0.1,1.1,0.2,1.7,0.1c0.5-0.1,1-0.3,1.5-0.6"/>
								</g>
							</g>
						</g>
					</g>
					<path class="st7" d="M-34.8-91c9.2-0.1,16.7,7.3,16.7,16.5c0,0.1,0,0.2,0,0.3c0,9.3-3.3,19-16.7,19c-13.4,0-16.8-9.7-16.8-19
						C-51.6-83.4-44.2-90.9-35-91C-34.9-91-34.8-91-34.8-91z"/>
				</g>
				<path class="st32" d="M-43-64c4.8-1.4,11.4,2.1,11.4,2.1l-0.4-2.1c3,0,8.1,5.5,8.1,5.5c-2,2.2-6.1,2.6-9.2,2.8
					C-39.3-56.3-40.6-63.3-43-64z"/>
			</g>
			<g transform="translate(0)">
				<path class="st3" d="M-22.6-151.1c-15.5,0-28,12.5-28,28l0.2,39.9c0,15.5,12.6,28,28,28c15.5,0,28-12.5,28-28l-0.2-39.9
					c0-3.3-0.6-6.6-1.7-9.7c-0.9-2.4-2.1-4.6-3.5-6.6c-0.1-0.1-0.1-0.2-0.2-0.3c-2.6-3.5-5.9-6.3-9.7-8.3
					C-13.8-150-18.2-151.1-22.6-151.1z M-22.5-58c-13.9,0-25.2-11.3-25.3-25.2v-1.5c0-12.5,13-19.9,25.2-25.8
					c6.1,3,12.5,6.3,17.3,10.5c5.3,4.6,7.9,9.6,7.9,15.2c0,0.2,0,0.4,0.1,0.5l0,0.9C2.8-69.3-8.5-58-22.5-58z"/>
				<path class="st2" d="M0.3-97.4c0-6.9-4.7-13-12.6-18.6c-2.7,1.4-5.7,2.8-8.7,4.3l-1.6,0.7c8.9,4.4,18.8,10.1,23.1,17.6l0-3.5
					C0.3-97,0.3-97.2,0.3-97.4z"/>
				<path class="st33" d="M-26.3-111.6c-10.2-4.8-23.3-19-22.8-20.4c0.6-1.5,1.3-3,2.1-4.4c4.1,3.3,13.1,11,19.5,14
					c14,6.6,27.8,12.9,27.8,26.9l0,1.6C-3.1-99.7-18.9-108.2-26.3-111.6z"/>
				<path class="st33" d="M-18.9-110.8c10.2-4.8,23.3-19,22.8-20.4c-0.6-1.5-1.3-3-2.1-4.4c-4.1,3.3-13.1,11-19.5,14
					c-14.1,6.6-27.9,12.9-27.9,26.9v1.6C-42.2-98.9-26.3-107.3-18.9-110.8z"/>
			</g>
		</g>
		<g transform="translate(109.322 196.284) rotate(-21)">
			<g transform="translate(22.199 11.197) rotate(45)">
				<path class="st34" d="M64.9-13.9c-0.5,0-1.3-0.2-3-1.5c-1-0.8-2.3-1.9-3.5-3.2c-2.1-2.2-4.7-5.2-5.5-7.2
					c-0.4-1.1-0.4-1.9,0.2-2.4c2.2-2.2,7-3.3,10.5-3.6c0.1,0,0.2,0,0.3,0c1.4,0,3,0.9,4.4,2.4c1.3,1.4,2,3,1.9,4.3
					c-0.1,1.1-0.4,3.2-1.1,5.5c-0.7,2.3-1.7,4-2.9,5.3C65.8-14.1,65.4-13.9,64.9-13.9z"/>
				<path class="st1" d="M63.7-30.7c-0.1,0-0.1,0-0.2,0c-3.1,0.3-7.9,1.3-9.9,3.3c-1.5,1.5,8.8,12.5,11.2,12.5c0.2,0,0.3,0,0.4-0.1
					c2.4-2.4,3.5-7.1,3.7-10.2C69.2-27.4,66-30.7,63.7-30.7 M63.7-32.7c1.6,0,3.6,1,5.1,2.7c1.5,1.6,2.3,3.5,2.1,5.1
					c-0.2,1.8-0.9,8-4.3,11.4c-0.5,0.5-1.1,0.7-1.8,0.7c-1,0-2.1-0.5-3.6-1.7c-1.1-0.8-2.3-1.9-3.6-3.3c-2.2-2.2-4.9-5.4-5.8-7.5
					c-0.2-0.5-0.3-1-0.4-1.4c0-0.8,0.2-1.5,0.7-2c3-3,9.8-3.8,11.1-3.9C63.5-32.7,63.6-32.7,63.7-32.7z"/>
			</g>
			<path class="st33" d="M81.7,33c2.8,0.4,5.4,1.3,7.7,2.9c1.1,0.9,1,3.9,0,4.8c-2.4,1.6-5.2,2.6-8,2.8C80,43.6,80.2,33,81.7,33z"/>
			<g transform="translate(42) rotate(180)">
				<g transform="translate(22.199 -11.197) rotate(135)">
					<path class="st34" d="M34.8,85.8c-0.5,0-0.9-0.2-1.1-0.4c-1.2-1.2-2.2-3-2.9-5.3c-0.7-2.3-1-4.4-1.1-5.5
						c-0.1-1.3,0.6-2.9,1.9-4.3c1.4-1.5,3-2.4,4.4-2.4c0.1,0,0.2,0,0.3,0c3.5,0.3,8.3,1.4,10.5,3.6c0.5,0.5,0.6,1.3,0.2,2.4
						c-0.8,2-3.4,5-5.5,7.2c-1.3,1.3-2.5,2.4-3.5,3.2C36.1,85.7,35.3,85.8,34.8,85.8z"/>
					<path class="st1" d="M36,69c-2.3,0-5.4,3.3-5.2,5.6c0.3,3,1.3,7.7,3.7,10.2c0.1,0.1,0.2,0.1,0.4,0.1c2.5,0,12.8-11,11.2-12.5
						c-2-2-6.8-3-9.9-3.3C36.1,69,36,69,36,69 M36,67v2V67L36,67L36,67c0.1,0,0.2,0,0.4,0c1.3,0.1,8.1,0.9,11.1,3.9
						c0.5,0.5,0.8,1.2,0.7,2c0,0.4-0.1,0.9-0.4,1.4c-0.9,2.1-3.6,5.3-5.8,7.5c-1.3,1.3-2.5,2.4-3.6,3.3c-1.5,1.2-2.7,1.7-3.6,1.7
						c-0.7,0-1.3-0.3-1.8-0.7c-3.4-3.4-4.1-9.6-4.3-11.4c-0.1-1.6,0.6-3.4,2.1-5.1C32.4,68,34.3,67,36,67z"/>
				</g>
				<path class="st33" d="M-59.3-33c2.8-0.4,5.4-1.3,7.7-2.9c1.1-0.9,1-3.9,0-4.8c-2.4-1.6-5.2-2.6-8-2.8C-61-43.6-60.8-33-59.3-33z
					"/>
			</g>
			<path class="st33" d="M91.5,34.8L91.5,34.8c1.7,0,3.1,1.4,3.1,3.1v1.6c0,1.7-1.4,3.1-3.1,3.1l0,0c-1.7,0-3.1-1.4-3.1-3.1V38
				C88.4,36.2,89.8,34.8,91.5,34.8z"/>
		</g>
		<g transform="translate(108.807 167.409) rotate(133)">
			<path class="st5" d="M-51.2-135.9c-0.4,2.4,1.7,2.8,4.1,3.4c3.6,1,6.7,2.1,6.7,2.1c0.2,0.1,0.4,0.3,0.5,0.5
				c1.8,2.9,3.3,5.4,3.3,5.9c0.2,2.2-2.9,4.1-3.9,4.8c-0.9,0.4-1.9,0.4-2.8,0c-2.3-1.1-4.5-4.2-5.8-2.6c-1.9,2.3,1.2,4.3,1.2,4.3
				s3.9,4.4,4.1,4.6c2.2,1.3,4.6,2.1,7.1,2.4c0,0,2.2,4.6,3.7,7.8c1.3,4.3,3,10.4,5.1,16.2c4.5,12.2,9.6,17.1,15.1,21.1
				c2.2,1.6,10.4,6.5,14.3,3.2c11.5-9.8-10.7-33.1-16-38.3c-3.8-3.7-8.4-8.3-10.9-11.7c-0.6-1-1-2-1.4-3.1l0,0
				c-0.6-3.9-1.2-9.7-1.5-10.3c-0.5-1-5.6-7.7-5.6-7.7c-0.5-0.6-1.1-1-1.8-1.4c-2.3-0.7-10.8-2.2-10.8-2.2c-0.8-0.3-1.6-0.4-2.5-0.4
				C-50.1-137.3-51.1-137-51.2-135.9z"/>
			<path class="st26" d="M-8.6-60.9l-0.1-1c0,0,1.1,0.1,1.2-0.7S-8.8-64-8.8-64l-0.3-4.9L3-66c-0.7,1.5-1.6,2.9-2.7,4.2
				c-2.3,2.9-5,6-5,6l-3.5-4.6L-8.6-60.9z"/>
		</g>
		<g transform="translate(146.519 202.133) rotate(-109)">
			<path class="st7" d="M-5,77.6c2.1-1.1,4.2-2.3,6.1-3.5"/>
			<path class="st7" d="M-10.1,80.1c0.6-0.2,1.2-0.4,1.7-0.8"/>
		</g>
	</g>
</g>
</svg>
